<svg id="Layer_1" data-name="Layer 1" xmlns="http://www.w3.org/2000/svg" viewBox="0 0 100 100"><defs><style>.cls-1{fill:#5733ff;}.cls-2{opacity:0.4;}.cls-3{fill:#fff;}</style></defs><title>Approve-Rule-enabled</title><path class="cls-1" d="M57,20H31a6,6,0,0,0-6,6V74a6,6,0,0,0,6,6H69a6,6,0,0,0,6-6V38Z"/><g class="cls-2"><path d="M63,38H75L57,20V32A6,6,0,0,0,63,38Z"/></g><path class="cls-3" d="M65,69H35a1,1,0,0,1-1-1h0a1,1,0,0,1,1-1H65a1,1,0,0,1,1,1h0A1,1,0,0,1,65,69Zm-9-7h0a1,1,0,0,0-1-1H35a1,1,0,0,0-1,1h0a1,1,0,0,0,1,1H55A1,1,0,0,0,56,62ZM44,45V40.86a4,4,0,1,0-2,0V45H35v4H51V45Z"/></svg>