<svg width="149" height="188" viewBox="0 0 149 188" fill="none" xmlns="http://www.w3.org/2000/svg">
<path d="M99.3038 16.386C100.431 15.6805 101.646 15.1344 102.915 14.7625L103.658 11.1096L109.698 11L110.568 14.6529C111.849 14.9754 113.082 15.4737 114.234 16.1344L117.288 14.0766L121.634 18.387L119.741 21.5935C120.426 22.7541 120.957 24.003 121.322 25.3073L124.897 26.0703L125 32.2762L121.444 33.1692C121.129 34.4849 120.644 35.7516 120.002 36.9357L122.001 40.0732L117.806 44.5378L114.684 42.5937C113.556 43.2993 112.34 43.8454 111.069 44.2172L110.327 47.8945L104.286 48L103.417 44.3471C102.135 44.0264 100.901 43.528 99.7502 42.8656L96.6962 44.9234L92.3503 40.613L94.2428 37.4065C93.5559 36.2472 93.0244 34.998 92.6624 33.6927L89.1067 32.9297L89 26.7238L92.5558 25.8308C92.8638 24.5067 93.3449 23.2315 93.9859 22.0399L91.9829 18.9025L96.1787 14.4378L99.3038 16.386ZM102.524 24.6538C101.635 25.6022 101.04 26.8001 100.814 28.0959C100.588 29.3918 100.741 30.7274 101.254 31.9339C101.766 33.1404 102.616 34.1636 103.695 34.8741C104.774 35.5846 106.033 35.9504 107.315 35.9255C108.596 35.9005 109.841 35.4858 110.893 34.7338C111.945 33.9817 112.756 32.9262 113.224 31.7006C113.692 30.475 113.795 29.1343 113.521 27.8482C113.248 26.5621 112.609 25.3883 111.686 24.4752C110.447 23.2517 108.787 22.5832 107.069 22.6167C105.351 22.6502 103.716 23.3829 102.524 24.6538Z" fill="#F5F5F5"/>
<path d="M69.0303 3.20694C69.6898 2.79202 70.3989 2.47061 71.1391 2.25114L71.5713 0.0628801L75.0966 0L75.6048 2.1673C76.3517 2.35863 77.0704 2.65475 77.7416 3.04764L79.5223 1.82355L82.0433 4.38491L80.9388 6.2923C81.3371 6.98253 81.6453 7.72555 81.8552 8.50152L83.94 8.95427L84 12.6475L81.9312 13.1883C81.7493 13.9709 81.4666 14.724 81.0909 15.4268L82.2593 17.2923L79.8104 19.9501L77.9897 18.7931C77.3309 19.2103 76.6216 19.5332 75.8809 19.7531L75.4327 21.9329L71.9074 22L71.4312 19.8327C70.6848 19.638 69.9663 19.3406 69.2944 18.9482L67.5137 20.1723L64.9768 17.6067L66.0652 15.7035C65.6662 15.0151 65.358 14.2734 65.1488 13.4985L63.064 13.0415L63 9.34832L65.0728 8.82012C65.2547 8.03614 65.5374 7.28166 65.9131 6.57736L64.7447 4.71189L67.1936 2.05831L69.0303 3.20694ZM70.907 8.12843C70.3848 8.69118 70.034 9.40373 69.8989 10.1757C69.7639 10.9477 69.8508 11.7443 70.1485 12.4644C70.4463 13.1846 70.9416 13.7959 71.5715 14.2207C72.2014 14.6455 72.9376 14.8648 73.6866 14.8506C74.4356 14.8365 75.1638 14.5896 75.7786 14.1412C76.3935 13.6929 76.8674 13.0633 77.1402 12.3324C77.413 11.6014 77.4724 10.8021 77.3109 10.0357C77.1494 9.26932 76.7743 8.57048 76.233 8.02782C75.5115 7.29992 74.5437 6.9017 73.5422 6.92056C72.5406 6.93942 71.5871 7.37383 70.891 8.12843H70.907Z" fill="#EBEBEB"/>
<path d="M16.1646 160.665C17.1672 160.059 18.2457 159.59 19.3719 159.268L20.0366 156.091L25.4024 156L26.1768 159.152C27.3172 159.43 28.4146 159.86 29.439 160.433L32.1524 158.652L36.0122 162.384L34.3293 165.159C34.9361 166.163 35.4058 167.243 35.7256 168.372L38.9085 169.03L39 174.402L35.8476 175.177C35.5639 176.313 35.1334 177.408 34.5671 178.433L36.3415 181.146L32.6159 185.012L29.8415 183.329C28.8375 183.936 27.7568 184.406 26.6281 184.726L25.9634 187.902L20.5976 188L19.8232 184.841C18.6848 184.564 17.5894 184.133 16.5671 183.561L13.8476 185.341L9.9878 181.61L11.6707 178.835C11.0628 177.832 10.5931 176.751 10.2744 175.622L7.09756 174.963L7 169.591L10.1524 168.817C10.4361 167.681 10.8666 166.586 11.4329 165.561L9.65853 162.848L13.3841 158.982L16.1646 160.665ZM19.0244 167.817C18.2323 168.637 17.7011 169.673 17.4978 170.794C17.2946 171.916 17.4286 173.072 17.8827 174.117C18.3368 175.163 19.0907 176.05 20.0491 176.667C21.0075 177.284 22.1273 177.603 23.2669 177.583C24.4065 177.563 25.5146 177.206 26.4512 176.557C27.3878 175.907 28.1108 174.995 28.5286 173.934C28.9465 172.874 29.0406 171.713 28.7988 170.6C28.5571 169.486 27.9905 168.469 27.1707 167.677C26.071 166.617 24.5957 166.036 23.0686 166.063C21.5414 166.089 20.087 166.72 19.0244 167.817Z" fill="#EBEBEB"/>
<path d="M42.295 122.638L21.4433 120.479L12.6115 100.434L5.75 102.221C5.75 102.221 10.8194 123.405 16.4927 126.687C22.166 129.969 41.5475 130.558 41.5475 130.558L42.295 122.638Z" fill="#E5E6E8"/>
<path d="M53.3798 132.833C56.7727 129.015 56.4285 123.17 52.611 119.777C48.7935 116.384 42.9484 116.729 39.5555 120.546C36.1626 124.364 36.5068 130.209 40.3243 133.602C44.1417 136.995 49.9869 136.65 53.3798 132.833Z" fill="#CCCFD4"/>
<path d="M46.4685 135.945C44.3256 135.945 42.249 135.202 40.5925 133.842C38.936 132.483 37.8021 130.591 37.384 128.489C36.966 126.387 37.2896 124.206 38.2998 122.316C39.31 120.426 40.9442 118.945 42.924 118.125C44.9038 117.305 47.1067 117.196 49.1573 117.819C51.208 118.441 52.9795 119.754 54.17 121.536C55.3606 123.318 55.8965 125.457 55.6864 127.59C55.4764 129.723 54.5334 131.716 53.0181 133.232C52.16 134.094 51.1392 134.778 50.015 135.244C48.8908 135.71 47.6854 135.948 46.4685 135.945ZM46.4685 117.449C44.3314 117.447 42.2595 118.186 40.6061 119.54C38.9526 120.894 37.8198 122.78 37.4007 124.875C36.9815 126.971 37.302 129.147 38.3074 131.033C39.3129 132.919 40.9412 134.398 42.9148 135.218C44.8884 136.038 47.0852 136.148 49.131 135.53C51.1769 134.912 52.945 133.603 54.1343 131.828C55.3236 130.052 55.8604 127.919 55.6532 125.792C55.4461 123.665 54.5078 121.675 52.9983 120.162C52.1433 119.301 51.126 118.617 50.0051 118.152C48.8843 117.686 47.6822 117.447 46.4685 117.449Z" fill="#CCCFD4"/>
<path d="M19.5741 128.271C23.2988 127.376 25.5933 123.632 24.6991 119.907C23.8049 116.183 20.0605 113.888 16.3359 114.782C12.6112 115.677 10.3167 119.421 11.2109 123.146C12.1051 126.87 15.8495 129.165 19.5741 128.271Z" fill="#CCCFD4"/>
<path d="M12.6885 102.055C14.9022 99.8414 14.9022 96.2524 12.6885 94.0387C10.4749 91.8251 6.88586 91.8251 4.67222 94.0387C2.45857 96.2524 2.45857 99.8414 4.67221 102.055C6.88586 104.269 10.4749 104.269 12.6885 102.055Z" fill="#CCCFD4"/>
<path d="M17.5147 94.9793L12.8473 98.9208L11.1641 96.9275L15.8315 92.986C16.0772 92.7785 16.3954 92.6771 16.7159 92.7041C17.0365 92.7311 17.3331 92.8844 17.5407 93.1302L17.6557 93.2663C17.7592 93.3879 17.8377 93.5288 17.8867 93.6808C17.9356 93.8328 17.9541 93.9929 17.941 94.1521C17.9279 94.3113 17.8835 94.4663 17.8104 94.6082C17.7372 94.7502 17.6367 94.8763 17.5147 94.9793Z" fill="#CCCFD4"/>
<path d="M11.5859 87.761V93.7016C11.5859 93.7476 11.5677 93.7917 11.5352 93.8242C11.5027 93.8567 11.4586 93.8749 11.4127 93.8749H9.15522C9.10927 93.8749 9.06519 93.8567 9.0327 93.8242C9.0002 93.7917 8.98195 93.7476 8.98195 93.7016V87.761C8.98195 87.4393 9.10974 87.1308 9.3372 86.9033C9.56466 86.6759 9.87316 86.5481 10.1948 86.5481H10.3731C10.6947 86.5481 11.0032 86.6759 11.2307 86.9033C11.4582 87.1308 11.5859 87.4393 11.5859 87.761Z" fill="#CCCFD4"/>
<path d="M7.38295 87.7835L8.67988 93.5808C8.68991 93.6257 8.68172 93.6727 8.65711 93.7115C8.63249 93.7503 8.59346 93.7777 8.54862 93.7878L6.34562 94.2806C6.30077 94.2906 6.25378 94.2824 6.21498 94.2578C6.17617 94.2332 6.14874 94.1942 6.1387 94.1493L4.84178 88.352C4.77155 88.0381 4.8289 87.7091 5.00122 87.4375C5.17354 87.1658 5.4467 86.9738 5.76062 86.9036L5.93454 86.8646C6.24845 86.7944 6.57741 86.8518 6.84904 87.0241C7.12067 87.1964 7.31273 87.4696 7.38295 87.7835Z" fill="#CCCFD4"/>
<path d="M2.86133 89.2364L5.83166 94.3812C5.85463 94.421 5.86086 94.4683 5.84896 94.5127C5.83707 94.5571 5.80803 94.5949 5.76823 94.6179L3.81322 95.7466C3.77343 95.7696 3.72613 95.7758 3.68175 95.7639C3.63736 95.752 3.59951 95.723 3.57653 95.6832L0.606199 90.5384C0.44536 90.2598 0.401776 89.9288 0.485032 89.6181C0.568288 89.3073 0.771571 89.0424 1.05015 88.8816L1.20449 88.7925C1.48308 88.6316 1.81414 88.5881 2.12485 88.6713C2.43557 88.7546 2.70049 88.9578 2.86133 89.2364Z" fill="#CCCFD4"/>
<path d="M132.919 174.564L139.16 171.91L121.151 129.565L114.91 132.219L132.919 174.564Z" fill="#E5E6E8"/>
<path d="M122.046 133.611C125.347 129.714 124.864 123.879 120.967 120.578C117.07 117.276 111.235 117.759 107.934 121.656C104.632 125.553 105.115 131.388 109.012 134.69C112.909 137.991 118.744 137.508 122.046 133.611Z" fill="#CCCFD4"/>
<path d="M115.008 136.915C113.558 136.916 112.127 136.576 110.831 135.923C109.536 135.269 108.412 134.321 107.55 133.154C106.688 131.987 106.112 130.634 105.868 129.204C105.624 127.774 105.72 126.306 106.147 124.92C106.653 123.284 107.603 121.821 108.891 120.693C110.179 119.565 111.754 118.817 113.442 118.53C115.13 118.244 116.864 118.431 118.452 119.072C120.04 119.712 121.419 120.78 122.436 122.157C123.454 123.534 124.069 125.166 124.214 126.872C124.36 128.577 124.029 130.29 123.26 131.819C122.49 133.349 121.311 134.635 119.855 135.534C118.398 136.434 116.72 136.912 115.008 136.915ZM115.008 118.41C113.299 118.412 111.624 118.887 110.169 119.784C108.715 120.681 107.537 121.964 106.768 123.491C105.999 125.017 105.668 126.727 105.813 128.43C105.958 130.133 106.572 131.762 107.588 133.137C108.604 134.511 109.981 135.577 111.566 136.216C113.151 136.855 114.883 137.041 116.567 136.754C118.252 136.468 119.825 135.719 121.11 134.592C122.394 133.465 123.341 132.004 123.845 130.37C124.564 128.03 124.325 125.5 123.181 123.335C122.037 121.171 120.08 119.549 117.741 118.826C116.846 118.549 115.915 118.408 114.979 118.41H115.008Z" fill="#CCCFD4"/>
<path d="M133.714 155.283C134.74 151.593 132.579 147.77 128.889 146.744C125.198 145.718 121.375 147.879 120.349 151.569C119.324 155.26 121.484 159.083 125.175 160.109C128.865 161.135 132.689 158.974 133.714 155.283Z" fill="#CCCFD4"/>
<path d="M137.489 180.683C140.619 180.683 143.157 178.145 143.157 175.015C143.157 171.884 140.619 169.346 137.489 169.346C134.358 169.346 131.82 171.884 131.82 175.015C131.82 178.145 134.358 180.683 137.489 180.683Z" fill="#CCCFD4"/>
<path d="M130.075 180.723L133.249 175.515L135.476 176.872L132.302 182.081C132.135 182.355 131.865 182.552 131.553 182.628C131.24 182.704 130.91 182.652 130.635 182.485L130.483 182.392C130.347 182.31 130.228 182.201 130.133 182.072C130.038 181.944 129.97 181.798 129.932 181.642C129.894 181.487 129.887 181.326 129.912 181.168C129.936 181.011 129.991 180.859 130.075 180.723Z" fill="#CCCFD4"/>
<path d="M137.978 185.69L136.097 180.055C136.082 180.012 136.086 179.964 136.106 179.923C136.127 179.882 136.163 179.851 136.206 179.836L138.348 179.121C138.391 179.107 138.439 179.11 138.48 179.131C138.521 179.151 138.552 179.187 138.567 179.231L140.448 184.866C140.497 185.017 140.515 185.177 140.502 185.336C140.489 185.495 140.444 185.649 140.371 185.791C140.298 185.932 140.198 186.058 140.077 186.161C139.955 186.264 139.815 186.342 139.663 186.391L139.494 186.447C139.192 186.544 138.865 186.519 138.582 186.377C138.299 186.236 138.082 185.989 137.978 185.69Z" fill="#CCCFD4"/>
<path d="M141.963 184.34L138.897 179.251C138.885 179.232 138.877 179.21 138.874 179.188C138.871 179.165 138.872 179.142 138.877 179.12C138.883 179.098 138.893 179.077 138.906 179.059C138.92 179.041 138.937 179.025 138.956 179.014L140.89 177.849C140.909 177.837 140.931 177.829 140.953 177.826C140.976 177.822 140.999 177.823 141.021 177.829C141.043 177.834 141.064 177.844 141.082 177.858C141.1 177.871 141.116 177.888 141.127 177.907L144.193 182.996C144.359 183.271 144.409 183.602 144.332 183.914C144.254 184.226 144.056 184.495 143.78 184.661L143.628 184.753C143.352 184.919 143.022 184.968 142.71 184.891C142.398 184.814 142.129 184.615 141.963 184.34Z" fill="#CCCFD4"/>
<path d="M145.789 181.534L141.343 177.595C141.308 177.564 141.288 177.521 141.285 177.475C141.282 177.429 141.298 177.384 141.328 177.35L142.822 175.664C142.852 175.63 142.895 175.609 142.941 175.606C142.987 175.603 143.032 175.619 143.066 175.649L147.513 179.589C147.754 179.802 147.9 180.102 147.919 180.423C147.939 180.744 147.83 181.06 147.616 181.301L147.498 181.434C147.285 181.674 146.985 181.818 146.664 181.837C146.344 181.856 146.03 181.747 145.789 181.534Z" fill="#CCCFD4"/>
<path d="M43.7217 117.063C43.7217 117.063 44.39 181.985 80.8211 183.252C117.252 184.52 118.782 117.529 118.782 117.063C118.782 117.063 114.48 107.385 81.2518 107.761C48.0237 108.137 43.7217 117.063 43.7217 117.063Z" fill="#E5E6E8"/>
<path d="M64.1773 105.637H94.9697C96.9793 105.637 98.6084 104.008 98.6084 101.999V101.469C98.6084 99.4595 96.9793 97.8304 94.9697 97.8304H64.1773C62.1677 97.8304 60.5386 99.4595 60.5386 101.469V101.999C60.5386 104.008 62.1677 105.637 64.1773 105.637Z" fill="#CCCFD4"/>
<path d="M78.2459 47.9089H80.9043V34.4682H78.2459V47.9089Z" fill="#CCCFD4"/>
<path d="M120.224 87.9229C124.421 86.9252 127.015 82.7137 126.018 78.5162C125.02 74.3187 120.808 71.7247 116.611 72.7224C112.413 73.72 109.82 77.9316 110.817 82.1291C111.815 86.3266 116.026 88.9205 120.224 87.9229Z" fill="#E5E6E8"/>
<path d="M41.2885 87.4156C45.496 86.4612 48.1332 82.2766 47.1788 78.069C46.2244 73.8615 42.0399 71.2243 37.8323 72.1787C33.6248 73.1331 30.9876 77.3176 31.9419 81.5252C32.8963 85.7327 37.0809 88.3699 41.2885 87.4156Z" fill="#E5E6E8"/>
<path d="M78.0282 44.9931C78.0282 44.9931 46.2655 44.6119 41.2456 72.1419C36.2257 99.6719 63.0775 100.167 70.8053 100.687C74.3054 100.924 81.8005 100.949 88.4145 100.83C103.058 100.578 113.405 97.7462 116.925 84.1619C117.344 82.569 117.608 80.9392 117.712 79.2955C118.638 64.3844 108.573 44.2604 78.0282 44.9931Z" fill="#E5E6E8"/>
<path d="M101.068 86.8946L54.924 87.6125C53.7727 87.6328 52.6286 87.4259 51.5574 87.0035C50.4861 86.5812 49.5087 85.9517 48.681 85.1511C47.8533 84.3506 47.1916 83.3946 46.7338 82.338C46.276 81.2814 46.031 80.1449 46.013 78.9936C45.9933 77.842 46.2009 76.6978 46.6238 75.6266C47.0467 74.5553 47.6766 73.5779 48.4776 72.7502C49.2785 71.9226 50.2348 71.261 51.2917 70.8033C52.3485 70.3455 53.4853 70.1006 54.6369 70.0826L100.781 69.3647C101.932 69.3438 103.077 69.5502 104.148 69.9724C105.22 70.3945 106.198 71.0239 107.025 71.8246C107.853 72.6253 108.515 73.5815 108.972 74.6384C109.43 75.6953 109.675 76.8321 109.692 77.9836C109.712 79.1354 109.505 80.2798 109.083 81.3514C108.66 82.423 108.03 83.4006 107.229 84.2284C106.428 85.0562 105.471 85.7177 104.414 86.1753C103.357 86.6328 102.22 86.8772 101.068 86.8946Z" fill="#CCCFD4"/>
<path d="M64.5134 78.0379C64.406 78.5836 64.1393 79.0851 63.747 79.4792C63.3547 79.8733 62.8543 80.1422 62.3091 80.2519C61.764 80.3616 61.1986 80.3072 60.6843 80.0956C60.1701 79.884 59.7301 79.5247 59.42 79.0631C59.11 78.6015 58.9438 78.0583 58.9424 77.5022C58.941 76.9461 59.1045 76.4021 59.4123 75.939C59.7201 75.4758 60.1583 75.1143 60.6715 74.9002C61.1847 74.6861 61.7498 74.6289 62.2955 74.7359C62.658 74.807 63.0029 74.9488 63.3106 75.1533C63.6182 75.3577 63.8826 75.6208 64.0886 75.9274C64.2945 76.2341 64.438 76.5783 64.5109 76.9404C64.5838 77.3026 64.5846 77.6755 64.5134 78.0379Z" fill="white"/>
<path d="M96.7369 77.5232C96.6305 78.0692 96.3645 78.5714 95.9726 78.9663C95.5806 79.3611 95.0804 79.6308 94.5351 79.7412C93.9899 79.8516 93.4241 79.7979 92.9094 79.5866C92.3948 79.3754 91.9543 79.0163 91.6438 78.5547C91.3333 78.0931 91.1667 77.5498 91.1651 76.9934C91.1634 76.4371 91.3269 75.8928 91.6347 75.4294C91.9425 74.966 92.3809 74.6043 92.8943 74.3901C93.4078 74.1759 93.9732 74.1188 94.5191 74.2261C95.2501 74.3697 95.8943 74.7976 96.3101 75.4158C96.726 76.034 96.8795 76.7919 96.7369 77.5232Z" fill="white"/>
<path d="M92.0975 142.846C91.9167 145.323 91.0053 147.691 89.4786 149.651C87.952 151.61 85.8786 153.073 83.5206 153.854C81.1626 154.635 78.626 154.699 76.2315 154.039C73.837 153.378 71.6921 152.023 70.0681 150.143C68.444 148.264 67.4137 145.945 67.1075 143.48C66.8013 141.015 67.2329 138.514 68.3477 136.294C69.4626 134.075 71.2106 132.235 73.3707 131.009C75.5309 129.783 78.0061 129.225 80.4835 129.405C83.8056 129.648 86.8951 131.201 89.073 133.721C91.2508 136.241 92.3387 139.524 92.0975 142.846Z" fill="#CCCFD4"/>
<path d="M88.6968 142.598C88.5647 144.404 87.9001 146.13 86.7871 147.558C85.6741 148.985 84.1626 150.051 82.4439 150.62C80.7252 151.189 78.8763 151.235 77.1312 150.754C75.3861 150.272 73.8231 149.283 72.6398 147.913C71.4565 146.543 70.7061 144.852 70.4835 143.056C70.2609 141.259 70.5761 139.437 71.3893 137.819C72.2024 136.201 73.4769 134.861 75.0517 133.968C76.6264 133.075 78.4307 132.669 80.2363 132.801C81.4353 132.888 82.6054 133.211 83.6797 133.751C84.754 134.29 85.7113 135.036 86.4971 135.946C87.2828 136.856 87.8815 137.912 88.259 139.053C88.6364 140.195 88.7852 141.399 88.6968 142.598Z" fill="white"/>
<path d="M84.2852 144.262C84.2153 143.762 84.1871 143.256 84.201 142.752C84.1763 141.806 84.1565 140.455 84.1565 138.791L84.2555 138.974L79.5475 136.227H79.8099L75.0574 138.895C74.9286 139.113 75.2306 138.603 75.2009 138.658V139.361V140.069C75.2009 140.534 75.2009 140.999 75.1762 141.455C75.1762 142.366 75.1415 143.247 75.1267 144.098L74.9979 143.871L79.6515 146.712H79.4435C80.8941 145.93 82.0921 145.306 82.9089 144.88C83.3484 144.63 83.8069 144.415 84.2802 144.237C83.911 144.538 83.5131 144.801 83.0921 145.024C82.2901 145.519 81.1119 146.217 79.6267 147.074L79.5228 147.133L79.4188 147.074L74.7059 144.326L74.5771 144.252V144.093C74.5771 143.242 74.587 142.361 74.6069 141.45C74.6069 140.994 74.6069 140.534 74.6069 140.064V139.361V138.677C74.5771 138.732 74.8791 138.227 74.7504 138.44L79.5178 135.796L79.6564 135.722L79.7851 135.801L84.4337 138.643L84.5377 138.707V138.826C84.4832 140.539 84.4288 141.915 84.3792 142.851C84.3919 143.323 84.3604 143.795 84.2852 144.262Z" fill="#E5E6E8"/>
<path d="M82.6758 37.2941C84.3868 35.5831 84.3868 32.809 82.6758 31.098C80.9649 29.3871 78.1908 29.3871 76.4798 31.098C74.7689 32.809 74.7689 35.5831 76.4798 37.294C78.1908 39.005 80.9649 39.005 82.6758 37.2941Z" fill="#E5E6E8"/>
<path d="M72.5786 76.8273C72.7866 76.8521 72.6826 77.8175 73.2965 79.1393C73.6443 79.8979 74.1507 80.5732 74.7816 81.1195C75.5212 81.7701 76.4418 82.1795 77.4203 82.2928C78.404 82.3562 79.3839 82.1216 80.2322 81.6195C80.9501 81.202 81.5711 80.6367 82.054 79.961C82.8956 78.7878 82.9699 77.8026 83.1778 77.8175C83.2619 77.8175 83.3461 78.065 83.3461 78.5303C83.3273 79.1933 83.158 79.8434 82.851 80.4314C82.3898 81.32 81.7079 82.0752 80.8708 82.6244C79.8359 83.3537 78.5753 83.6909 77.3146 83.5757C76.0538 83.4605 74.8752 82.9004 73.9896 81.9957C73.2667 81.3044 72.7347 80.4382 72.445 79.4808C72.2386 78.8421 72.1843 78.164 72.2866 77.5006C72.3707 77.0402 72.4994 76.8125 72.5786 76.8273Z" fill="white"/>
<path d="M114.87 89.5679C114.821 89.5679 115.39 88.6768 115.94 87.1174C116.623 85.075 117.055 82.9571 117.227 80.8103C117.425 78.6711 117.475 76.5207 117.375 74.3746C117.341 73.5479 117.301 72.8895 117.261 72.3944C117.228 72.155 117.22 71.9128 117.237 71.6716C117.3 71.9049 117.341 72.1435 117.36 72.3845C117.43 72.8449 117.499 73.5132 117.558 74.3647C117.714 76.5281 117.689 78.7006 117.484 80.8599C117.31 83.0268 116.849 85.1609 116.113 87.2065C115.88 87.8234 115.598 88.421 115.271 88.9936C115.154 89.1962 115.02 89.3883 114.87 89.5679Z" fill="#CCCFD4"/>
<path d="M41.3054 71.2212C41.2774 71.4616 41.226 71.6987 41.1519 71.9291C41.0876 72.1519 41.0183 72.4242 40.9539 72.7509C40.8896 73.0776 40.7906 73.4341 40.7311 73.845C40.5576 74.7992 40.4419 75.763 40.3846 76.7312C40.318 77.9157 40.3346 79.1034 40.4341 80.2857C40.5447 81.4658 40.7366 82.6369 41.0084 83.7906C41.2357 84.7344 41.52 85.6635 41.8599 86.5729C41.9935 86.9639 42.147 87.3055 42.2708 87.6125C42.3945 87.9194 42.5133 88.1768 42.6124 88.3848C42.7252 88.5985 42.818 88.8222 42.8896 89.0531C42.7487 88.8568 42.6261 88.648 42.5232 88.4293C42.3833 88.1818 42.2561 87.9274 42.1421 87.6669C42.0034 87.3699 41.8351 87.0283 41.6916 86.6372C41.324 85.7303 41.0196 84.799 40.7806 83.85C40.4909 82.6853 40.2891 81.5004 40.1767 80.3055C40.0758 79.1116 40.0659 77.9117 40.147 76.7163C40.216 75.7395 40.3517 74.7686 40.5529 73.8103C40.6272 73.3994 40.7311 73.038 40.8153 72.7163C40.8995 72.3945 40.9787 72.1222 41.0529 71.8994C41.1186 71.6669 41.203 71.44 41.3054 71.2212Z" fill="#CCCFD4"/>
<path d="M43.5527 117.009L43.7409 117.063L44.2953 117.252L46.4043 117.994L47.929 118.539C48.4884 118.727 49.1073 118.905 49.7657 119.108C51.0875 119.499 52.5776 120.009 54.2707 120.405L56.9093 121.083C57.8301 121.316 58.8004 121.489 59.8004 121.707C61.7807 122.163 63.954 122.474 66.2362 122.841C71.1716 123.518 76.1459 123.873 81.1274 123.905C86.1091 123.876 91.0835 123.52 96.0187 122.841C98.2861 122.474 100.444 122.168 102.454 121.707C103.445 121.494 104.435 121.321 105.346 121.088L107.989 120.41C109.677 120.014 111.167 119.504 112.489 119.113C113.148 118.91 113.766 118.732 114.326 118.544L115.851 117.999L117.96 117.257L118.514 117.068C118.576 117.044 118.641 117.026 118.707 117.014L118.524 117.093L117.979 117.306L115.885 118.093L114.326 118.677C113.771 118.87 113.153 119.054 112.494 119.266C111.172 119.672 109.687 120.192 107.994 120.603L105.35 121.296C104.435 121.534 103.459 121.712 102.459 121.935C100.479 122.4 98.3009 122.717 96.0236 123.093C91.0781 123.787 86.0916 124.149 81.0977 124.177C76.1054 124.146 71.1208 123.782 66.1768 123.088C63.9045 122.717 61.7213 122.395 59.741 121.93C58.7509 121.707 57.7608 121.529 56.8499 121.291L54.2063 120.598C52.5132 120.187 51.0281 119.667 49.7063 119.262C49.0478 119.049 48.434 118.865 47.8746 118.672L46.3547 118.103L44.2607 117.316L43.7161 117.103C43.6588 117.077 43.6041 117.046 43.5527 117.009Z" fill="#CCCFD4"/>
<g opacity="0.3">
<path opacity="0.3" d="M43.7217 117.063C43.7217 117.063 48.0237 108.152 81.2518 107.761C114.48 107.37 118.782 117.063 118.782 117.063C118.782 117.063 85.2469 133.593 43.7217 117.063Z" fill="#CCCFD4"/>
</g>
<path d="M74.0037 47.0528C73.9658 47.0564 73.9277 47.0564 73.8898 47.0528L73.5581 47.0874C73.2611 47.1171 72.8254 47.127 72.266 47.1914C70.6876 47.3446 69.1213 47.6042 67.5779 47.9686C59.5949 49.7969 52.5536 54.4758 47.7756 61.1272C45.4673 64.3235 43.7195 67.8893 42.6073 71.6719C42.434 72.2065 42.3399 72.6323 42.2558 72.9144L42.1617 73.2412C42.1528 73.2789 42.1395 73.3155 42.1221 73.3501C42.1155 73.3124 42.1155 73.2739 42.1221 73.2362C42.1221 73.1471 42.1617 73.0382 42.1914 72.9045C42.2607 72.6174 42.335 72.1867 42.4934 71.6422C42.9066 70.1041 43.4362 68.5998 44.0776 67.1421C46.1936 62.298 49.415 58.0169 53.4836 54.642C57.5695 51.2925 62.3828 48.946 67.5383 47.7904C69.0908 47.4376 70.668 47.2043 72.2561 47.0924C72.8205 47.0429 73.2462 47.0478 73.5532 47.033H73.8898C73.969 47.0429 74.0037 47.0478 74.0037 47.0528Z" fill="white"/>
<path d="M42.9292 85.1619C42.7308 84.8553 42.5774 84.5219 42.4738 84.1718C41.8865 82.5174 41.6129 80.768 41.6668 79.0133C41.6527 78.649 41.6961 78.2848 41.7955 77.9341C41.8748 77.9341 41.7658 79.5876 42.0827 81.5876C42.3995 83.5876 43.0035 85.1322 42.9292 85.1619Z" fill="white"/>
<path d="M34.5968 82.6025C34.5968 82.6025 34.4829 82.5233 34.3295 82.3352C34.1107 82.0686 33.923 81.7779 33.77 81.4688C33.2414 80.4455 33.0391 79.2846 33.1905 78.1428C33.3418 77.0009 33.8396 75.9329 34.6166 75.0826C34.8442 74.8222 35.1017 74.5895 35.3839 74.3895C35.4808 74.308 35.5915 74.2443 35.7107 74.2014C35.7404 74.241 35.2948 74.543 34.7552 75.1915C34.047 76.0397 33.5939 77.0713 33.4484 78.1666C33.3029 79.262 33.4711 80.3761 33.9334 81.3797C34.28 82.1669 34.6314 82.5728 34.5968 82.6025Z" fill="white"/>
<path d="M79.8601 31.1414C79.4738 31.0989 79.0845 31.0906 78.6967 31.1167C78.235 31.1572 77.7887 31.3029 77.392 31.5427C76.9954 31.7825 76.6589 32.1099 76.4085 32.5C76.158 32.89 76.0002 33.3322 75.9472 33.7926C75.8942 34.2531 75.9474 34.7196 76.1026 35.1563C76.2363 35.5185 76.402 35.8681 76.5977 36.2009C76.5977 36.2009 76.4987 36.1415 76.3601 35.983C76.1698 35.7539 76.0193 35.4945 75.9145 35.2157C75.7256 34.7534 75.6509 34.2524 75.6967 33.7552C75.7424 33.2579 75.9072 32.7789 76.1773 32.3589C76.4473 31.9388 76.8145 31.5899 77.2479 31.3418C77.6813 31.0937 78.1681 30.9536 78.667 30.9335C78.9634 30.9129 79.2611 30.9414 79.5482 31.0176C79.771 31.0523 79.8601 31.1266 79.8601 31.1414Z" fill="white"/>
<path d="M123.008 76.5975C122.954 76.657 122.187 75.9193 121.028 75.3649C119.87 74.8104 118.815 74.647 118.825 74.5678C119.632 74.5477 120.43 74.7425 121.137 75.1322C121.881 75.4435 122.528 75.9497 123.008 76.5975Z" fill="white"/>
<path d="M55.1073 163.267C55.0847 163.237 55.0649 163.206 55.0479 163.173L54.8845 162.881C54.736 162.599 54.538 162.222 54.2806 161.742C54.1519 161.495 54.0132 161.217 53.8548 160.92L53.3895 159.93C53.0528 159.212 52.6766 158.396 52.3053 157.455C52.1172 156.994 51.9192 156.509 51.7112 156.009C51.5033 155.509 51.3251 154.965 51.1221 154.415C50.6964 153.321 50.335 152.118 49.9142 150.871C49.137 148.346 48.3746 145.549 47.7062 142.578C47.0379 139.608 46.5528 136.742 46.1567 134.133C45.7607 131.524 45.5032 129.182 45.3448 127.172C45.2508 126.182 45.1914 125.281 45.1419 124.489C45.0924 123.697 45.0478 123.004 45.0329 122.459C45.0181 121.915 45.0032 121.494 44.9884 121.177V120.846C44.983 120.808 44.983 120.769 44.9884 120.732C44.9941 120.769 44.9941 120.808 44.9884 120.846L45.0181 121.177C45.0181 121.489 45.0725 121.92 45.1072 122.454C45.1419 122.989 45.1914 123.692 45.2607 124.479C45.33 125.266 45.3943 126.167 45.5032 127.158C45.6815 129.138 45.9983 131.494 46.3696 134.088C46.7409 136.682 47.2805 139.534 47.934 142.504C48.5874 145.475 49.3548 148.267 50.1122 150.786C50.533 152.034 50.8845 153.232 51.3003 154.326C51.4984 154.881 51.6865 155.41 51.8746 155.92L52.4489 157.376C52.8053 158.301 53.1717 159.123 53.4984 159.851L53.9439 160.841C54.0875 161.143 54.2261 161.42 54.3499 161.673L54.9043 162.831L55.043 163.133C55.073 163.173 55.0948 163.219 55.1073 163.267Z" fill="white"/>
<path d="M35.7355 122.905C34.5277 122.951 33.3181 122.908 32.1166 122.776C30.9095 122.734 29.7068 122.607 28.5176 122.395C29.7254 122.349 30.9349 122.392 32.1364 122.524C33.3436 122.566 34.5463 122.693 35.7355 122.905Z" fill="white"/>
<path d="M17.1119 112.335C16.4098 111.313 15.7795 110.242 15.2258 109.132C14.5981 108.063 14.0456 106.952 13.5723 105.806C14.2723 106.831 14.9008 107.902 15.4535 109.014C16.0843 110.08 16.6385 111.19 17.1119 112.335Z" fill="white"/>
<path d="M72.6812 178.876C72.4863 178.872 72.2922 178.849 72.102 178.807C71.5782 178.713 71.0607 178.588 70.5525 178.431C69.7975 178.201 69.0596 177.918 68.3445 177.584C67.4733 177.164 66.6359 176.677 65.8395 176.128C65.0521 175.566 64.3105 174.942 63.6217 174.262C63.0638 173.703 62.5476 173.104 62.0771 172.47C61.7548 172.047 61.462 171.602 61.2009 171.138C61.094 170.976 61.006 170.801 60.9385 170.619C60.9781 170.594 61.3939 171.312 62.2207 172.361C62.7066 172.971 63.2308 173.55 63.79 174.094C65.1603 175.425 66.7325 176.531 68.4485 177.371C69.1494 177.71 69.8702 178.006 70.6069 178.257C71.8742 178.683 72.6911 178.827 72.6812 178.876Z" fill="white"/>
<path d="M80.2759 155.975C80.1614 155.995 80.0456 156.006 79.9294 156.009C79.6001 156.037 79.2696 156.047 78.9393 156.039C77.7082 156.012 76.4869 155.814 75.3105 155.45C74.4976 155.197 73.7063 154.879 72.9441 154.499C72.0702 154.05 71.2413 153.518 70.4689 152.91C68.6794 151.536 67.2689 149.728 66.37 147.659C65.4711 145.589 65.1133 143.325 65.3302 141.079C65.4109 140.104 65.5849 139.139 65.85 138.197C66.0872 137.381 66.3936 136.586 66.7658 135.821C67.3028 134.712 67.9927 133.684 68.8154 132.767C69.036 132.516 69.2707 132.278 69.5184 132.054C69.6003 131.972 69.688 131.895 69.7807 131.826C69.7807 131.826 69.454 132.177 68.8896 132.816C68.0974 133.748 67.4316 134.78 66.9094 135.885C66.1308 137.515 65.6673 139.277 65.5431 141.079C65.3424 143.285 65.6997 145.506 66.582 147.538C67.4644 149.57 68.8435 151.348 70.5926 152.707C71.3424 153.311 72.148 153.841 72.9986 154.292C73.744 154.685 74.5206 155.016 75.3204 155.282C76.4794 155.657 77.6828 155.879 78.8997 155.94C79.7957 155.975 80.2759 155.945 80.2759 155.975Z" fill="white"/>
<path d="M20.3391 116.989C20.3391 117.029 19.9579 116.845 19.349 116.702C18.5342 116.524 17.6896 116.532 16.8785 116.727C16.0674 116.921 15.3109 117.297 14.6658 117.826C14.1707 118.237 13.9331 118.563 13.8984 118.539C14.0343 118.211 14.2444 117.919 14.5123 117.687C15.1548 117.098 15.9372 116.682 16.7853 116.479C17.6334 116.276 18.5192 116.293 19.3589 116.529C19.7167 116.605 20.0522 116.762 20.3391 116.989Z" fill="white"/>
<path d="M93.4448 67.7657C93.4448 67.835 87.3655 67.8944 79.8704 67.8944C72.3752 67.8944 66.291 67.835 66.291 67.7657C66.291 67.6964 72.3703 67.637 79.8704 67.637C87.3705 67.637 93.4448 67.6865 93.4448 67.7657Z" fill="white"/>
<path d="M70.2754 98.7214C70.2013 98.7424 70.1248 98.754 70.0477 98.7561L69.3843 98.8155C69.0972 98.8403 68.7457 98.8601 68.3348 98.87C67.9239 98.8799 67.4586 98.8997 66.9437 98.87C65.9091 98.87 64.6813 98.7957 63.3199 98.6521C61.8466 98.4807 60.384 98.2279 58.9387 97.8947C57.4968 97.5489 56.0754 97.1224 54.6812 96.6175C53.5453 96.2015 52.4316 95.7273 51.3445 95.1966C50.8495 94.9788 50.4683 94.7511 50.1069 94.558C49.7455 94.365 49.4386 94.1917 49.191 94.063L48.6217 93.7164C48.5542 93.679 48.4911 93.6342 48.4336 93.5828C48.4336 93.5828 48.5128 93.5828 48.6465 93.6719L49.2405 93.9739C49.493 94.1125 49.8049 94.2758 50.1712 94.4689C50.5376 94.662 50.9534 94.86 51.4237 95.0679C52.3544 95.5036 53.4881 95.9689 54.7654 96.4293C57.5413 97.4246 60.4211 98.1022 63.3496 98.4492C64.6962 98.6076 65.919 98.6967 66.9437 98.7214C67.4388 98.7511 67.9338 98.7214 68.3348 98.7214C68.7358 98.7214 69.0923 98.7214 69.3794 98.7214H70.0428C70.1198 98.7086 70.1984 98.7086 70.2754 98.7214Z" fill="white"/>
<path d="M109.796 121.029C109.76 121.053 109.72 121.071 109.677 121.083L109.321 121.217L107.945 121.712C107.346 121.93 106.613 122.182 105.747 122.435C104.88 122.687 103.905 123.014 102.801 123.291L101.078 123.747C100.479 123.9 99.8456 124.029 99.197 124.182C97.9 124.494 96.494 124.742 95.0188 125.024C88.593 126.143 82.0626 126.543 75.5482 126.217C74.0631 126.123 72.6225 126.049 71.2957 125.895C70.6323 125.826 69.9888 125.776 69.3749 125.692L67.6076 125.45C66.4788 125.316 65.4689 125.113 64.5828 124.955C63.6966 124.796 62.9293 124.648 62.3105 124.504L60.8847 124.187L60.5134 124.098C60.4704 124.091 60.4287 124.078 60.3896 124.059C60.4341 124.055 60.4788 124.055 60.5233 124.059L60.8946 124.123L62.3303 124.395C62.954 124.519 63.7164 124.663 64.6075 124.796C65.4986 124.93 66.5036 125.123 67.6323 125.247L69.3947 125.469C70.0086 125.549 70.6521 125.593 71.3155 125.658C72.6373 125.801 74.0631 125.866 75.5581 125.955C78.5532 126.078 81.8454 126.083 85.3008 125.88C88.7563 125.677 92.0187 125.247 94.9742 124.762C96.4594 124.489 97.8554 124.266 99.1525 123.95C99.801 123.801 100.435 123.677 101.034 123.529L102.756 123.088C103.86 122.826 104.836 122.519 105.702 122.271C106.568 122.024 107.311 121.776 107.91 121.593L109.301 121.148L109.667 121.039L109.796 121.029Z" fill="white"/>
</svg>
