<svg xmlns="http://www.w3.org/2000/svg" xmlns:xlink="http://www.w3.org/1999/xlink" width="106" height="72" viewBox="0 0 106 72"><defs><linearGradient id="a" x1="0.5" x2="0.5" y2="1" gradientUnits="objectBoundingBox"><stop offset="0" stop-color="#fad961"/><stop offset="1" stop-color="#7e5100"/></linearGradient></defs><g transform="translate(-237 -282)"><rect width="106" height="72" rx="5" transform="translate(237 282)" fill="url(#a)"/><g transform="translate(240.198 286.004)"><rect width="104" height="70" rx="4" transform="translate(-2.198 -3.004)" fill="#fff"/><path d="M-30.1-.374a6.926,6.926,0,0,1-3,.557,5.062,5.062,0,0,1-3.8-1.421,5.194,5.194,0,0,1-1.384-3.787,5.549,5.549,0,0,1,1.556-4.087,5.444,5.444,0,0,1,4.039-1.567,7.554,7.554,0,0,1,2.593.388v2.278a4.594,4.594,0,0,0-2.4-.63,3.187,3.187,0,0,0-2.388.93,3.451,3.451,0,0,0-.908,2.52,3.385,3.385,0,0,0,.857,2.428,3.027,3.027,0,0,0,2.307.9A4.921,4.921,0,0,0-30.1-2.534ZM-21.3-3.091H-26.2q.117,1.633,2.058,1.633a4.018,4.018,0,0,0,2.175-.586v1.67a5.715,5.715,0,0,1-2.7.557,3.8,3.8,0,0,1-2.82-1.007,3.8,3.8,0,0,1-1-2.809,4.014,4.014,0,0,1,1.084-2.959,3.611,3.611,0,0,1,2.666-1.091,3.278,3.278,0,0,1,2.538.974,3.751,3.751,0,0,1,.9,2.644ZM-23.45-4.512q0-1.611-1.3-1.611a1.245,1.245,0,0,0-.963.461,2.094,2.094,0,0,0-.494,1.15Zm8.866-.9a2.008,2.008,0,0,0-.974-.227,1.4,1.4,0,0,0-1.179.553,2.412,2.412,0,0,0-.425,1.505V0h-2.314V-7.5h2.314v1.392h.029a2,2,0,0,1,1.978-1.523,1.49,1.49,0,0,1,.571.088ZM-8.092-.088A3.421,3.421,0,0,1-9.638.183q-2.446,0-2.446-2.542V-5.793H-13.3V-7.5h1.216V-9.119l2.307-.659V-7.5h1.685v1.707H-9.777v3.032q0,1.172.93,1.172A1.568,1.568,0,0,0-8.092-1.8Zm2.926-8.6a1.352,1.352,0,0,1-.959-.348A1.121,1.121,0,0,1-6.5-9.888a1.081,1.081,0,0,1,.374-.85,1.4,1.4,0,0,1,.959-.33,1.393,1.393,0,0,1,.963.33,1.086,1.086,0,0,1,.37.85,1.116,1.116,0,0,1-.37.864A1.375,1.375,0,0,1-5.167-8.687ZM-4.024,0H-6.339V-7.5h2.314ZM3.267-9.331a2.338,2.338,0,0,0-.857-.176Q1.3-9.507,1.3-8.3v.8H3.01v1.707H1.3V0H-1.011V-5.793h-1.26V-7.5h1.26v-.93A2.7,2.7,0,0,1-.176-10.5a3.185,3.185,0,0,1,2.271-.784,3.987,3.987,0,0,1,1.172.146Zm2.479.645a1.352,1.352,0,0,1-.959-.348,1.121,1.121,0,0,1-.374-.853,1.081,1.081,0,0,1,.374-.85,1.4,1.4,0,0,1,.959-.33,1.393,1.393,0,0,1,.963.33,1.086,1.086,0,0,1,.37.85,1.116,1.116,0,0,1-.37.864A1.375,1.375,0,0,1,5.745-8.687ZM6.888,0H4.574V-7.5H6.888ZM14.97-.271a4.576,4.576,0,0,1-2.263.454,3.828,3.828,0,0,1-2.8-1.047,3.617,3.617,0,0,1-1.069-2.7A3.985,3.985,0,0,1,9.986-6.581a4.236,4.236,0,0,1,3.065-1.1,3.933,3.933,0,0,1,1.919.352v1.963a2.638,2.638,0,0,0-1.619-.542,2.133,2.133,0,0,0-1.578.582,2.173,2.173,0,0,0-.582,1.608,2.137,2.137,0,0,0,.557,1.564,2.046,2.046,0,0,0,1.531.568,3.055,3.055,0,0,0,1.692-.542ZM23.176,0h-2.19V-1.077h-.029A2.444,2.444,0,0,1,18.723.183a2.337,2.337,0,0,1-1.718-.619,2.218,2.218,0,0,1-.626-1.652q0-2.183,2.585-2.52L21-4.878q0-1.23-1.333-1.23a4.55,4.55,0,0,0-2.549.8V-7.053a5.734,5.734,0,0,1,1.322-.439,6.949,6.949,0,0,1,1.527-.19q3.208,0,3.208,3.2ZM21-3.047v-.505l-1.362.176q-1.128.146-1.128,1.018a.841.841,0,0,0,.275.648,1.055,1.055,0,0,0,.743.253,1.37,1.37,0,0,0,1.062-.45A1.627,1.627,0,0,0,21-3.047Zm8.99,2.959a3.421,3.421,0,0,1-1.545.271Q26,.183,26-2.358V-5.793H24.783V-7.5H26V-9.119l2.307-.659V-7.5h1.685v1.707H28.306v3.032q0,1.172.93,1.172a1.568,1.568,0,0,0,.754-.212Zm8.433-3H33.532q.117,1.633,2.058,1.633a4.018,4.018,0,0,0,2.175-.586v1.67a5.715,5.715,0,0,1-2.7.557,3.8,3.8,0,0,1-2.82-1.007,3.8,3.8,0,0,1-1-2.809,4.014,4.014,0,0,1,1.084-2.959,3.611,3.611,0,0,1,2.666-1.091,3.278,3.278,0,0,1,2.538.974,3.751,3.751,0,0,1,.9,2.644ZM36.278-4.512q0-1.611-1.3-1.611a1.245,1.245,0,0,0-.963.461,2.094,2.094,0,0,0-.494,1.15Z" transform="translate(49.802 18.996)" fill="#0082c9"/><line x2="71" transform="translate(14.302 54.496)" fill="none" stroke="#707070" stroke-width="1"/><path d="M8855.344,6099.416c-.78-1.069-.021-3.175.531-4.387h-4.612a.457.457,0,1,1,0-.915h5.076a16.955,16.955,0,0,1,4.509-4.5c.189-.832.362-1.648.523-2.407a12.518,12.518,0,0,1-4.151,1.069.688.688,0,0,1,0-1.375,13.17,13.17,0,0,0,4.5-1.363,23.748,23.748,0,0,1,1.3-4.674,2.99,2.99,0,0,1,2.486-1.864,1.574,1.574,0,0,1,1.439.877c.309.622.538,2.061-1.436,4.691a8.065,8.065,0,0,1-2.581,1.911q-.062.288-.124.58c-.105.491-.207.985-.314,1.482a9.94,9.94,0,0,1,1.3-.646c.435-.172,1.757-.7,2.5.121a1.708,1.708,0,0,1,.382,1.322,7.24,7.24,0,0,1,1.157-1.084c1.4-.944,2.234-.587,2.61-.291.77.606.859,1.894.25,3.531a.688.688,0,0,1-1.288-.481c.458-1.224.322-1.864.187-1.968-.069-.059-.405-.044-.99.348a18.833,18.833,0,0,0-2.308,2.523c-.978,1.191-1.238,1.508-1.8,1.145-.362-.233-.412-.613-.153-1.131,1.156-2.31.951-2.937.935-2.989a.187.187,0,0,1-.051,0,2.565,2.565,0,0,0-.927.234,12.044,12.044,0,0,0-2.229,1.239c-.293,1.284-.611,2.54-.968,3.7h11.237a.457.457,0,1,1,0,.915H8860.81c-.906,2.661-2.06,4.648-3.683,4.947a2.823,2.823,0,0,1-.492.046A1.5,1.5,0,0,1,8855.344,6099.416Zm2.063-4.385c-.837,1.619-1.2,3.231-.949,3.578.022.032.155.067.419.018.961-.177,1.78-1.634,2.482-3.6Zm.581-.917h1.677c.239-.754.464-1.558.671-2.378A16.475,16.475,0,0,0,8857.987,6094.114Zm6.267-12.639a17.127,17.127,0,0,0-.931,3.188,4.37,4.37,0,0,0,1.088-.922c1.389-1.849,1.476-2.914,1.307-3.248a.2.2,0,0,0-.21-.119C8865.169,6080.375,8864.632,6080.719,8864.254,6081.475Zm-10.566,10.559-1.05-1.05-1.05,1.05a.459.459,0,0,1-.325.135.447.447,0,0,1-.323-.135.459.459,0,0,1,0-.648l1.049-1.05-1.049-1.05a.458.458,0,0,1,.648-.647l1.05,1.05,1.05-1.05a.458.458,0,1,1,.648.647l-1.051,1.05,1.053,1.051a.459.459,0,0,1-.325.783A.454.454,0,0,1,8853.688,6092.034Z" transform="translate(-8790 -6040)"/><path d="M31.4,24.584c0,.889-1.64,1.506-1.9,2.307-.27.831.685,2.292.182,2.983s-2.2.24-2.895.747-.774,2.253-1.6,2.522c-.8.26-1.894-1.1-2.782-1.1s-1.981,1.358-2.782,1.1c-.831-.27-.913-2.02-1.6-2.522s-2.387-.05-2.895-.747.451-2.154.182-2.983c-.262-.8-1.9-1.418-1.9-2.306s1.64-1.506,1.9-2.307c.27-.831-.685-2.292-.182-2.983s2.2-.24,2.895-.747.774-2.253,1.6-2.522c.8-.26,1.894,1.1,2.782,1.1s1.981-1.358,2.782-1.1c.831.27.913,2.02,1.6,2.522s2.387.05,2.895.747-.451,2.154-.182,2.983C29.761,23.078,31.4,23.7,31.4,24.584Z" transform="translate(27.401 10.006)" fill="url(#a)"/></g></g></svg>