<svg id="Layer_1" data-name="Layer 1" xmlns="http://www.w3.org/2000/svg" viewBox="0 0 100 100"><title>partner-placeholder</title><path d="M42.65,79V71.3L42,71.05a23,23,0,0,1-12.7-12.61l-.85-2.09-3.12,6.47L23.55,62,28.39,51.9l9.45,5.28-1,1.75-6.74-3.77,1.11,2.66a20.83,20.83,0,0,0,10,10.68l1.44.72v-5H57.44v5.11l1.43-.67A21,21,0,0,0,70.08,55.39l2,.44A22.72,22.72,0,0,1,58.09,71.14l-.65.24V79Zm2-2H55.44V66.21H44.65Zm18-33.73,1-1.74,6.74,3.77-1.09-2.65a20.63,20.63,0,0,0-10.86-11.1l-.9-.39-.41.88A7.77,7.77,0,0,1,43,32l-.42-.88-.89.39A20.77,20.77,0,0,0,29.81,45.77l-2-.37a22.66,22.66,0,0,1,13.81-16l.6-.24,0-.66a7.78,7.78,0,0,1,15.54,0l0,.65.61.24A22.88,22.88,0,0,1,71.18,42L72,44.1l3.11-6.47,1.8.87L72.1,48.56ZM50.05,23a5.79,5.79,0,1,0,5.78,5.79A5.8,5.8,0,0,0,50.05,23Z"/></svg>