<svg width="280" height="60" viewBox="0 0 450 115" fill="none" xmlns="http://www.w3.org/2000/svg">
<rect x="34" y="17" width="96" height="96" rx="24" fill="#E03D5F"/>
<g clip-path="url(#clip0_191_125)">
<path d="M79.3117 94.4245L79.4185 93.756C79.7819 93.7879 80.1566 93.8216 80.5217 93.8423L80.5178 94.5148C80.5156 95.366 81.2034 96.0684 82.0594 96.077C82.9218 96.0809 83.6194 95.3866 83.6168 94.529L83.6207 93.8564C84.1712 93.8303 84.7251 93.7818 85.263 93.725L85.375 94.3921C85.5113 95.2412 86.3112 95.8109 87.1603 95.6747C88.0094 95.5384 88.5791 94.7386 88.4429 93.8894L88.3309 93.2224C88.7709 93.1278 89.2015 93.0203 89.6401 92.8968L89.8537 93.5389C90.1222 94.3505 90.9988 94.7938 91.8168 94.5205C92.6284 94.252 93.0716 93.3754 92.8048 92.5526L92.5913 91.9104C93.0627 91.7228 93.5293 91.5287 93.9863 91.3217L94.2984 91.9212C94.6961 92.6775 95.635 92.9748 96.3913 92.5772C97.1541 92.1747 97.445 91.2406 97.0473 90.4843L96.7352 89.8847C97.1783 89.618 97.6295 89.3353 98.0648 89.0444L98.4658 89.5884C98.9848 90.2652 99.9652 90.402 100.647 89.8894C101.335 89.3721 101.465 88.3965 100.948 87.7083L100.542 87.1579C100.714 87.0113 100.892 86.8599 101.07 86.7085L101.544 87.1887C102.149 87.7922 103.126 87.8018 103.741 87.1986C104.344 86.5937 104.356 85.6058 103.751 85.0023L103.277 84.5221C103.463 84.3144 103.644 84.1116 103.819 83.9022L104.361 84.3121C105.047 84.8359 106.017 84.7006 106.541 84.0146C107.058 83.3334 106.929 82.3588 106.243 81.8351L105.712 81.4268C105.965 81.0508 106.211 80.6795 106.441 80.3L107.032 80.6138C107.782 81.0206 108.734 80.7387 109.136 79.9826C109.538 79.2263 109.261 78.2811 108.504 77.8791L107.908 77.5588C108.121 77.102 108.329 76.6387 108.515 76.172L109.155 76.3896C109.97 76.6682 110.846 76.2425 111.125 75.4274C111.403 74.6123 110.973 73.7302 110.164 73.4468L109.524 73.2291C109.663 72.7266 109.791 72.2224 109.91 71.7053L110.572 71.8169C111.419 71.9622 112.218 71.3927 112.363 70.5459C112.509 69.6991 111.939 68.8995 111.092 68.7542L110.419 68.6409C110.478 68.1377 110.519 67.6376 110.551 67.1246L111.223 67.1285C112.079 67.1371 112.777 66.4428 112.781 65.5804C112.785 64.718 112.095 64.0268 111.233 64.023L110.56 64.0191C110.547 63.6891 110.516 63.3622 110.484 63.0353L111.155 62.941C112.007 62.8225 112.597 62.0373 112.479 61.1851C112.36 60.3329 111.575 59.7424 110.723 59.8609L110.059 59.9504C109.971 59.5056 109.87 59.0703 109.763 58.6398L110.403 58.4375C111.222 58.1931 111.688 57.32 111.433 56.4989C111.184 55.673 110.315 55.2137 109.494 55.4693L108.855 55.6603C108.685 55.1859 108.491 54.7193 108.297 54.2526L108.9 53.9583C109.67 53.58 109.984 52.6493 109.606 51.8787C109.227 51.108 108.297 50.7947 107.526 51.1729L106.917 51.4721C106.658 51.013 106.387 50.5634 106.107 50.1299L106.651 49.7289C107.354 49.231 107.511 48.2652 107.007 47.5675C106.509 46.8651 105.537 46.7123 104.839 47.2167L104.295 47.6177C104.003 47.2629 103.712 46.9082 103.406 46.5742L103.886 46.1002C104.489 45.4953 104.501 44.5074 103.896 43.9039C103.293 43.2891 102.309 43.2842 101.699 43.8939L101.219 44.3679C100.916 44.0919 100.606 43.8206 100.283 43.5589L100.682 43.0151C101.194 42.3274 101.048 41.3559 100.36 40.8434C99.6722 40.3309 98.6943 40.4822 98.1882 41.1651L97.7831 41.7137C97.4118 41.4677 97.0275 41.2312 96.6416 41.006L96.9571 40.4036C97.3479 39.6457 97.0531 38.7035 96.2952 38.3128C95.5325 37.9155 94.5951 38.2168 94.2043 38.9747L93.8888 39.5771C93.432 39.3642 92.967 39.1673 92.4938 38.9864L92.7002 38.3445C92.9675 37.5276 92.5306 36.6503 91.7073 36.3877C90.8905 36.1203 90.0179 36.5637 89.7505 37.3806L89.5441 38.0225C89.0416 37.8832 88.531 37.76 88.0169 37.6592L88.1172 36.9955C88.2448 36.1518 87.6689 35.357 86.8139 35.2277C85.9654 35.0936 85.1754 35.6761 85.0461 36.5311L84.9392 37.1996C84.571 37.1611 84.2077 37.1292 83.8361 37.1133L83.8352 36.4342C83.8438 35.5783 83.1496 34.8807 82.2871 34.8768C81.4312 34.8682 80.7336 35.5625 80.7297 36.4249L80.7258 37.0975C80.1753 37.1235 79.6278 37.1673 79.0835 37.2288L78.9715 36.5617C78.8352 35.7126 78.0353 35.1429 77.1862 35.2792C76.3371 35.4154 75.7674 36.2153 75.9036 37.0644L76.0156 37.7315C75.5756 37.826 75.1451 37.9335 74.7081 38.0458L74.4945 37.4036C74.226 36.5921 73.3494 36.1488 72.5314 36.4221C71.7198 36.6906 71.2766 37.5672 71.5499 38.3852L71.7634 39.0274C71.292 39.215 70.8254 39.4091 70.3683 39.6161L70.0498 39.0214C69.6586 38.2603 68.7132 37.9677 67.9569 38.3654C67.2006 38.7631 66.9033 39.702 67.3009 40.4583L67.613 41.0579C67.1635 41.3293 66.7187 41.6073 66.2835 41.8982L65.8824 41.3542C65.3586 40.6709 64.383 40.5406 63.7013 41.0532C63.0132 41.5705 62.883 42.5461 63.3955 43.2278L63.8013 43.7782C63.6295 43.9248 63.4513 44.0762 63.2795 44.2229L62.8056 43.7427C62.1959 43.1327 61.2175 43.1343 60.6092 43.7327C59.9944 44.3359 59.9896 45.3191 60.5993 45.9291L61.0733 46.4092C60.893 46.6121 60.711 46.8263 60.5307 47.0291L59.9886 46.6192C59.3074 46.1019 58.3328 46.2307 57.8155 46.912C57.2983 47.5932 57.4271 48.5678 58.1131 49.0915L58.6504 49.495C58.3979 49.871 58.1519 50.2423 57.9155 50.6266L57.3307 50.308C56.5745 49.906 55.6293 50.183 55.2273 50.9392C54.8205 51.689 55.0976 52.6342 55.8585 53.0427L56.4545 53.3629C56.2416 53.8198 56.0399 54.2783 55.8478 54.7498L55.2075 54.5322C54.3989 54.2488 53.5103 54.684 53.2382 55.4944C52.9595 56.3095 53.39 57.1916 54.1987 57.475L54.8389 57.6927C54.6996 58.1952 54.5651 58.7042 54.4531 59.2165L53.7911 59.1049C52.9443 58.9596 52.1447 59.5291 51.9994 60.3759C51.8541 61.2227 52.4236 62.0223 53.2769 62.1628L53.9389 62.2744C53.8865 62.7728 53.839 63.2777 53.8139 63.786L53.1348 63.7868C52.2789 63.7782 51.5813 64.4725 51.5774 65.3349C51.5736 66.1974 52.2678 66.895 53.1255 66.8923L53.8045 66.8915C53.8179 67.2214 53.849 67.5483 53.8689 67.8735L53.1987 67.9678C52.3466 68.0863 51.756 68.8716 51.8746 69.7237C51.9996 70.5712 52.7848 71.1617 53.6305 71.0479L54.2942 70.9584C54.3775 71.3968 54.4785 71.8321 54.5843 72.2738L53.9391 72.4697C53.1244 72.7205 52.6539 73.5871 52.9094 74.4083C53.1585 75.2342 54.0269 75.6934 54.848 75.4379L55.4868 75.2468C55.6567 75.7213 55.8508 76.1879 56.0514 76.6497L55.4423 76.9489C54.6716 77.3271 54.3583 78.2578 54.743 79.0237C55.1213 79.7943 56.052 80.1077 56.8226 79.7294L57.4317 79.4303C57.6855 79.8829 57.9569 80.3325 58.2414 80.7725L57.6974 81.1735C56.995 81.6714 56.8374 82.6372 57.3418 83.3348C57.8414 84.026 58.8119 84.19 59.5096 83.6857L60.0535 83.2846C60.3386 83.6442 60.6367 83.9942 60.9364 84.333L60.4562 84.8069C59.8527 85.4118 59.8478 86.395 60.4463 87.0033C61.0447 87.6116 62.0278 87.6164 62.6426 87.0132L63.1293 86.5345C63.4327 86.8105 63.7427 87.0818 64.0656 87.3435L63.6669 87.8873C63.1544 88.575 63.3009 89.5465 63.9886 90.059C64.6763 90.5715 65.6478 90.425 66.1668 89.7325L66.5655 89.1887C66.9368 89.4347 67.321 89.6711 67.707 89.8964L67.3915 90.4988C66.9942 91.2615 67.2955 92.1988 68.0534 92.5896C68.8161 92.9869 69.7469 92.6904 70.1442 91.9277L70.4532 91.33C70.9165 91.5382 71.3751 91.7399 71.8483 91.9207L71.6419 92.5627C71.3745 93.3795 71.8179 94.2521 72.6348 94.5194C73.4516 94.7868 74.3242 94.3434 74.5915 93.5266L74.8027 92.8911C75.3117 93.0256 75.8159 93.1536 76.33 93.2544L76.2361 93.9133C76.102 94.7619 76.6892 95.5583 77.5394 95.6812C78.3832 95.8088 79.178 95.2328 79.3073 94.3778L79.3117 94.4245ZM107.189 65.5748C107.161 71.9225 104.774 77.7005 100.865 82.0919L92.9479 74.1055C94.8337 71.7555 95.9748 68.7752 95.9886 65.5265C96.0023 62.2779 94.8891 59.2903 93.0146 56.9241L101.008 49.002C104.878 53.4249 107.228 59.2289 107.196 65.5701L107.189 65.5748ZM82.1643 70.6911C79.2842 70.6756 76.9573 68.333 76.9681 65.4463C76.9836 62.5662 79.3262 60.2393 82.2081 60.2436C85.0882 60.2592 87.4151 62.6018 87.4043 65.4884C87.4 68.3703 85.0462 70.6954 82.1643 70.6911ZM65.7183 46.6629C70.1477 42.7875 75.9451 40.4422 82.2816 40.4684C88.6292 40.4963 94.4073 42.8832 98.8034 46.7988L90.817 54.7161C88.467 52.8303 85.4867 51.6891 82.238 51.6754C78.9894 51.6617 76.0018 52.7748 73.6421 54.6446L65.7183 46.6629ZM57.1816 65.3712C57.2095 59.0235 59.5964 53.2455 63.512 48.8493L71.4358 56.831C69.55 59.1809 68.4088 62.1613 68.3951 65.4099C68.3814 68.6586 69.4945 71.6461 71.3643 74.0059L63.3714 81.928C59.4894 77.5034 57.1507 71.7011 57.1721 65.3582L57.1816 65.3712ZM65.5673 84.1472L73.5554 76.2187C75.9054 78.1045 78.8857 79.2456 82.1344 79.2593C85.383 79.2731 88.3706 78.1599 90.7368 76.2854L98.6654 84.2735C94.236 88.149 88.4385 90.4942 82.0956 90.4728C75.748 90.445 69.9699 88.058 65.5802 84.1377L65.5673 84.1472Z" fill="white"/>
</g>
<path d="M50.8002 26.6001L51.8458 31.4693C52.2423 33.3157 53.6846 34.758 55.531 35.1545L60.4002 36.2001L55.531 37.2457C53.6846 37.6422 52.2423 39.0845 51.8458 40.9309L50.8002 45.8001L49.7546 40.9309C49.3581 39.0845 47.9158 37.6422 46.0694 37.2457L41.2002 36.2001L46.0694 35.1545C47.9158 34.758 49.3581 33.3157 49.7546 31.4693L50.8002 26.6001Z" fill="white"/>
<path d="M231.295 31.4646C233.343 31.4646 235.001 32.0891 236.27 33.338C237.54 34.5664 238.175 36.3476 238.175 38.6815V48.6009H235.411V39.0808C235.411 37.4019 234.991 36.1223 234.151 35.242C233.312 34.3412 232.165 33.8907 230.712 33.8907C229.238 33.8907 228.061 34.3514 227.18 35.2727C226.32 36.194 225.89 37.535 225.89 39.2957V48.6009H223.096V31.7717H225.89V34.1671C226.443 33.3072 227.19 32.6419 228.132 32.171C229.094 31.7001 230.149 31.4646 231.295 31.4646Z" fill="#214392"/>
<path d="M244.183 29.0385C243.651 29.0385 243.2 28.8543 242.832 28.4857C242.463 28.1172 242.279 27.6668 242.279 27.1345C242.279 26.6022 242.463 26.1518 242.832 25.7833C243.2 25.4147 243.651 25.2305 244.183 25.2305C244.695 25.2305 245.125 25.4147 245.473 25.7833C245.841 26.1518 246.026 26.6022 246.026 27.1345C246.026 27.6668 245.841 28.1172 245.473 28.4857C245.125 28.8543 244.695 29.0385 244.183 29.0385ZM245.534 31.7717V48.6009H242.74V31.7717H245.534Z" fill="#214392"/>
<path d="M270.535 31.4646C271.846 31.4646 273.013 31.741 274.036 32.2938C275.06 32.8261 275.869 33.6348 276.463 34.7199C277.056 35.805 277.353 37.1255 277.353 38.6815V48.6009H274.589V39.0808C274.589 37.4019 274.17 36.1223 273.33 35.242C272.511 34.3412 271.395 33.8907 269.983 33.8907C268.529 33.8907 267.372 34.3616 266.512 35.3034C265.652 36.2247 265.223 37.5657 265.223 39.3264V48.6009H262.459V39.0808C262.459 37.4019 262.039 36.1223 261.2 35.242C260.381 34.3412 259.265 33.8907 257.852 33.8907C256.398 33.8907 255.242 34.3616 254.382 35.3034C253.522 36.2247 253.092 37.5657 253.092 39.3264V48.6009H250.297V31.7717H253.092V34.1978C253.645 33.3175 254.382 32.6419 255.303 32.171C256.245 31.7001 257.279 31.4646 258.405 31.4646C259.818 31.4646 261.066 31.782 262.152 32.4166C263.237 33.0513 264.045 33.9829 264.578 35.2113C265.049 34.0238 265.827 33.1025 266.912 32.4474C267.997 31.7922 269.205 31.4646 270.535 31.4646Z" fill="#214392"/>
<path d="M284.732 34.9042C285.305 33.901 286.145 33.082 287.25 32.4474C288.356 31.8127 289.615 31.4953 291.028 31.4953C292.543 31.4953 293.904 31.8536 295.112 32.5702C296.32 33.2868 297.272 34.3002 297.968 35.6105C298.664 36.9003 299.012 38.4051 299.012 40.1249C299.012 41.8242 298.664 43.3392 297.968 44.67C297.272 46.0008 296.31 47.0347 295.082 47.7717C293.874 48.5088 292.522 48.8773 291.028 48.8773C289.574 48.8773 288.294 48.56 287.189 47.9253C286.104 47.2906 285.285 46.4819 284.732 45.4992V48.6009H281.937V25.8754H284.732V34.9042ZM296.156 40.1249C296.156 38.8555 295.9 37.75 295.389 36.8082C294.877 35.8664 294.181 35.1499 293.3 34.6585C292.44 34.1671 291.488 33.9214 290.444 33.9214C289.421 33.9214 288.469 34.1774 287.588 34.6892C286.728 35.1806 286.032 35.9074 285.5 36.8696C284.988 37.8114 284.732 38.9067 284.732 40.1556C284.732 41.425 284.988 42.5408 285.5 43.503C286.032 44.4448 286.728 45.1716 287.588 45.6834C288.469 46.1748 289.421 46.4205 290.444 46.4205C291.488 46.4205 292.44 46.1748 293.3 45.6834C294.181 45.1716 294.877 44.4448 295.389 43.503C295.9 42.5408 296.156 41.4147 296.156 40.1249Z" fill="#214392"/>
<path d="M317.616 31.7717V48.6009H314.822V46.1134C314.289 46.9733 313.542 47.6489 312.58 48.1403C311.638 48.6111 310.594 48.8466 309.447 48.8466C308.137 48.8466 306.96 48.5804 305.916 48.0481C304.871 47.4953 304.042 46.6764 303.428 45.5913C302.834 44.5062 302.537 43.1857 302.537 41.6297V31.7717H305.301V41.2612C305.301 42.9195 305.721 44.1991 306.56 45.0999C307.4 45.9803 308.546 46.4205 310 46.4205C311.495 46.4205 312.672 45.9598 313.532 45.0385C314.392 44.1172 314.822 42.7762 314.822 41.0155V31.7717H317.616Z" fill="#214392"/>
<path d="M328.293 48.8773C327.003 48.8773 325.846 48.6623 324.822 48.2324C323.799 47.782 322.99 47.1678 322.396 46.3898C321.803 45.5913 321.475 44.6802 321.414 43.6566H324.3C324.382 44.496 324.771 45.1818 325.467 45.7142C326.184 46.2465 327.115 46.5126 328.262 46.5126C329.327 46.5126 330.166 46.2772 330.78 45.8063C331.394 45.3354 331.702 44.7417 331.702 44.0251C331.702 43.288 331.374 42.7455 330.719 42.3975C330.064 42.0289 329.05 41.6706 327.678 41.3226C326.43 40.995 325.406 40.6674 324.607 40.3399C323.829 39.9918 323.154 39.4902 322.581 38.8351C322.028 38.1595 321.751 37.2791 321.751 36.194C321.751 35.3341 322.007 34.5459 322.519 33.8293C323.031 33.1127 323.758 32.5497 324.7 32.1403C325.641 31.7103 326.716 31.4953 327.924 31.4953C329.787 31.4953 331.292 31.9662 332.439 32.908C333.585 33.8498 334.199 35.1396 334.281 36.7775H331.487C331.425 35.8971 331.067 35.1908 330.412 34.6585C329.777 34.1262 328.917 33.86 327.832 33.86C326.829 33.86 326.03 34.075 325.437 34.5049C324.843 34.9349 324.546 35.4979 324.546 36.194C324.546 36.7468 324.72 37.2074 325.068 37.576C325.437 37.924 325.887 38.2106 326.419 38.4358C326.972 38.6406 327.73 38.876 328.692 39.1422C329.9 39.4697 330.883 39.7973 331.64 40.1249C332.398 40.432 333.043 40.9029 333.575 41.5376C334.128 42.1722 334.414 43.0014 334.435 44.0251C334.435 44.9464 334.179 45.7756 333.667 46.5126C333.155 47.2497 332.428 47.8332 331.487 48.2631C330.565 48.6726 329.501 48.8773 328.293 48.8773Z" fill="#214392"/>
<path d="M148 40.1861C148 38.4868 148.348 36.982 149.044 35.6718C149.761 34.3614 150.723 33.348 151.931 32.6314C153.159 31.8944 154.521 31.5259 156.015 31.5259C157.121 31.5259 158.206 31.7716 159.271 32.2629C160.356 32.7338 161.216 33.3685 161.85 34.167V25.998H165.382V48.7236H161.85V46.1746C161.277 46.9936 160.479 47.6692 159.455 48.2015C158.452 48.7338 157.295 49 155.985 49C154.511 49 153.159 48.6314 151.931 47.8944C150.723 47.1369 149.761 46.0927 149.044 44.762C148.348 43.4107 148 41.8854 148 40.1861ZM161.85 40.2476C161.85 39.0806 161.605 38.0671 161.113 37.2073C160.642 36.3474 160.018 35.6922 159.24 35.2418C158.462 34.7914 157.623 34.5662 156.722 34.5662C155.821 34.5662 154.981 34.7914 154.204 35.2418C153.426 35.6717 152.791 36.3167 152.299 37.1765C151.829 38.016 151.593 39.0192 151.593 40.1861C151.593 41.3531 151.829 42.3768 152.299 43.2572C152.791 44.1375 153.426 44.8131 154.204 45.284C155.002 45.7344 155.841 45.9597 156.722 45.9597C157.623 45.9597 158.462 45.7344 159.24 45.284C160.018 44.8336 160.642 44.1785 161.113 43.3186C161.605 42.4382 161.85 41.4146 161.85 40.2476Z" fill="#E03D5F"/>
<path d="M168.813 40.1861C168.813 38.4868 169.162 36.982 169.858 35.6718C170.574 34.3614 171.536 33.348 172.744 32.6314C173.973 31.8944 175.324 31.5259 176.798 31.5259C178.129 31.5259 179.286 31.792 180.268 32.3243C181.272 32.8362 182.07 33.4811 182.664 34.2591V31.8023H186.196V48.7236H182.664V46.2053C182.07 47.0038 181.261 47.6692 180.238 48.2015C179.214 48.7338 178.047 49 176.737 49C175.283 49 173.952 48.6314 172.744 47.8944C171.536 47.1369 170.574 46.0927 169.858 44.762C169.162 43.4107 168.813 41.8854 168.813 40.1861ZM182.664 40.2476C182.664 39.0806 182.418 38.0671 181.927 37.2073C181.456 36.3474 180.832 35.6922 180.054 35.2418C179.276 34.7914 178.436 34.5662 177.535 34.5662C176.634 34.5662 175.795 34.7914 175.017 35.2418C174.239 35.6717 173.604 36.3167 173.113 37.1765C172.642 38.016 172.407 39.0192 172.407 40.1861C172.407 41.3531 172.642 42.3768 173.113 43.2572C173.604 44.1375 174.239 44.8131 175.017 45.284C175.815 45.7344 176.655 45.9597 177.535 45.9597C178.436 45.9597 179.276 45.7344 180.054 45.284C180.832 44.8336 181.456 44.1785 181.927 43.3186C182.418 42.4382 182.664 41.4146 182.664 40.2476Z" fill="#E03D5F"/>
<path d="M194.878 34.6583V44.0249C194.878 44.6596 195.022 45.1202 195.308 45.4069C195.616 45.673 196.127 45.8061 196.844 45.8061H198.994V48.7236H196.23C194.653 48.7236 193.445 48.3551 192.606 47.618C191.766 46.881 191.347 45.6833 191.347 44.0249V34.6583H189.351V31.8023H191.347V27.595H194.878V31.8023H198.994V34.6583H194.878Z" fill="#E03D5F"/>
<path d="M201.053 40.1861C201.053 38.4868 201.401 36.982 202.098 35.6718C202.814 34.3614 203.776 33.348 204.984 32.6314C206.213 31.8944 207.564 31.5259 209.038 31.5259C210.369 31.5259 211.526 31.792 212.508 32.3243C213.512 32.8362 214.31 33.4811 214.904 34.2591V31.8023H218.436V48.7236H214.904V46.2053C214.31 47.0038 213.501 47.6692 212.478 48.2015C211.454 48.7338 210.287 49 208.977 49C207.523 49 206.192 48.6314 204.984 47.8944C203.776 47.1369 202.814 46.0927 202.098 44.762C201.401 43.4107 201.053 41.8854 201.053 40.1861ZM214.904 40.2476C214.904 39.0806 214.658 38.0671 214.167 37.2073C213.696 36.3474 213.071 35.6922 212.293 35.2418C211.515 34.7914 210.676 34.5662 209.775 34.5662C208.874 34.5662 208.035 34.7914 207.257 35.2418C206.479 35.6717 205.844 36.3167 205.353 37.1765C204.882 38.016 204.647 39.0192 204.647 40.1861C204.647 41.3531 204.882 42.3768 205.353 43.2572C205.844 44.1375 206.479 44.8131 207.257 45.284C208.055 45.7344 208.895 45.9597 209.775 45.9597C210.676 45.9597 211.515 45.7344 212.293 45.284C213.071 44.8336 213.696 44.1785 214.167 43.3186C214.658 42.4382 214.904 41.4146 214.904 40.2476Z" fill="#E03D5F"/>
<path d="M339.065 48.8618C338.43 48.8618 337.898 48.6468 337.468 48.2169C337.038 47.7869 336.823 47.2546 336.823 46.62C336.823 45.9853 337.038 45.453 337.468 45.023C337.898 44.5931 338.43 44.3781 339.065 44.3781C339.679 44.3781 340.201 44.5931 340.631 45.023C341.061 45.453 341.276 45.9853 341.276 46.62C341.276 47.2546 341.061 47.7869 340.631 48.2169C340.201 48.6468 339.679 48.8618 339.065 48.8618Z" fill="#E03D5F"/>
<path d="M346.841 29.4837C346.207 29.4837 345.674 29.2687 345.244 28.8388C344.814 28.4088 344.599 27.8765 344.599 27.2418C344.599 26.6072 344.814 26.0749 345.244 25.6449C345.674 25.215 346.207 25 346.841 25C347.456 25 347.978 25.215 348.408 25.6449C348.837 26.0749 349.052 26.6072 349.052 27.2418C349.052 27.8765 348.837 28.4088 348.408 28.8388C347.978 29.2687 347.456 29.4837 346.841 29.4837ZM348.561 31.7255V48.6468H345.06V31.7255H348.561Z" fill="#E03D5F"/>
<path d="M360.497 48.9232C358.9 48.9232 357.457 48.5649 356.167 47.8484C354.877 47.1113 353.864 46.0877 353.127 44.7773C352.39 43.4466 352.021 41.9111 352.021 40.1708C352.021 38.4511 352.4 36.9258 353.158 35.595C353.915 34.2642 354.949 33.2406 356.259 32.524C357.57 31.8074 359.034 31.4491 360.651 31.4491C362.268 31.4491 363.732 31.8074 365.043 32.524C366.353 33.2406 367.387 34.2642 368.144 35.595C368.902 36.9258 369.281 38.4511 369.281 40.1708C369.281 41.8906 368.892 43.4159 368.114 44.7466C367.336 46.0774 366.271 47.1113 364.92 47.8484C363.589 48.5649 362.115 48.9232 360.497 48.9232ZM360.497 45.8829C361.398 45.8829 362.238 45.6679 363.016 45.238C363.814 44.8081 364.459 44.1631 364.95 43.3033C365.442 42.4434 365.687 41.3992 365.687 40.1708C365.687 38.9424 365.452 37.9085 364.981 37.0691C364.51 36.2092 363.886 35.5643 363.108 35.1344C362.33 34.7044 361.49 34.4894 360.589 34.4894C359.689 34.4894 358.849 34.7044 358.071 35.1344C357.314 35.5643 356.71 36.2092 356.259 37.0691C355.809 37.9085 355.584 38.9424 355.584 40.1708C355.584 41.993 356.044 43.4056 356.966 44.4088C357.907 45.3916 359.085 45.8829 360.497 45.8829Z" fill="#E03D5F"/>
<path d="M150.112 86.5434C150.112 82.9546 150.817 79.7717 152.227 76.9947C153.679 74.2176 155.623 72.0814 158.058 70.5861C160.536 69.0908 163.292 68.3431 166.325 68.3431C168.974 68.3431 171.281 68.8772 173.247 69.9453C175.255 71.0134 176.857 72.3591 178.053 73.9826V68.9199H187.089V104.423H178.053V99.2323C176.9 100.899 175.297 102.287 173.247 103.398C171.239 104.466 168.91 105 166.261 105C163.271 105 160.536 104.231 158.058 102.693C155.623 101.155 153.679 98.9973 152.227 96.2203C150.817 93.4005 150.112 90.1749 150.112 86.5434ZM178.053 86.6716C178.053 84.4927 177.626 82.6342 176.771 81.0961C175.917 79.5154 174.763 78.3191 173.311 77.5073C171.858 76.6529 170.299 76.2256 168.633 76.2256C166.966 76.2256 165.428 76.6315 164.018 77.4433C162.608 78.255 161.455 79.4513 160.558 81.032C159.703 82.5701 159.276 84.4072 159.276 86.5434C159.276 88.6796 159.703 90.5594 160.558 92.1829C161.455 93.7637 162.608 94.9813 164.018 95.8358C165.471 96.6903 167.009 97.1175 168.633 97.1175C170.299 97.1175 171.858 96.7116 173.311 95.8999C174.763 95.0454 175.917 93.8491 176.771 92.3111C177.626 90.7303 178.053 88.8505 178.053 86.6716Z" fill="#E03D5F"/>
<path d="M229.368 68.9199V104.423H220.332V99.9372C219.179 101.475 217.662 102.693 215.782 103.59C213.945 104.445 211.937 104.872 209.758 104.872C206.981 104.872 204.525 104.295 202.389 103.142C200.252 101.945 198.565 100.215 197.326 97.9506C196.13 95.6435 195.531 92.9092 195.531 89.7477V68.9199H204.503V88.466C204.503 91.2857 205.208 93.4646 206.618 95.0027C208.028 96.498 209.951 97.2457 212.386 97.2457C214.864 97.2457 216.808 96.498 218.218 95.0027C219.628 93.4646 220.332 91.2857 220.332 88.466V68.9199H229.368Z" fill="#E03D5F"/>
<path d="M248.667 76.2897V93.4646C248.667 94.6609 248.944 95.5367 249.5 96.0921C250.098 96.6048 251.081 96.8611 252.448 96.8611H256.613V104.423H250.974C243.412 104.423 239.631 100.749 239.631 93.4005V76.2897H235.401V68.9199H239.631V60.1402H248.667V68.9199H256.613V76.2897H248.667Z" fill="#E03D5F"/>
<path d="M283.061 68.4072C285.753 68.4072 288.145 69.0053 290.239 70.2016C292.332 71.3551 293.956 73.0854 295.109 75.3925C296.305 77.6569 296.904 80.3912 296.904 83.5955V104.423H287.932V84.8131C287.932 81.9933 287.227 79.8358 285.817 78.3405C284.407 76.8024 282.484 76.0334 280.049 76.0334C277.571 76.0334 275.606 76.8024 274.153 78.3405C272.743 79.8358 272.038 81.9933 272.038 84.8131V104.423H263.066V57H272.038V73.3418C273.192 71.8037 274.73 70.6075 276.653 69.753C278.575 68.8558 280.711 68.4072 283.061 68.4072Z" fill="#E03D5F"/>
<path d="M321.2 105C317.783 105 314.706 104.252 311.972 102.757C309.238 101.219 307.08 99.0614 305.499 96.2844C303.961 93.5073 303.192 90.3031 303.192 86.6716C303.192 83.0401 303.983 79.8358 305.564 77.0587C307.187 74.2817 309.387 72.1455 312.164 70.6502C314.941 69.1121 318.039 68.3431 321.457 68.3431C324.875 68.3431 327.972 69.1121 330.749 70.6502C333.526 72.1455 335.705 74.2817 337.286 77.0587C338.909 79.8358 339.721 83.0401 339.721 86.6716C339.721 90.3031 338.888 93.5073 337.222 96.2844C335.598 99.0614 333.377 101.219 330.557 102.757C327.78 104.252 324.661 105 321.2 105ZM321.2 97.1816C322.824 97.1816 324.341 96.7971 325.751 96.028C327.203 95.2163 328.357 94.02 329.211 92.4393C330.066 90.8585 330.493 88.9359 330.493 86.6716C330.493 83.2964 329.596 80.7116 327.801 78.9172C326.05 77.0801 323.892 76.1616 321.329 76.1616C318.765 76.1616 316.608 77.0801 314.856 78.9172C313.147 80.7116 312.293 83.2964 312.293 86.6716C312.293 90.0467 313.126 92.6529 314.792 94.49C316.501 96.2844 318.637 97.1816 321.2 97.1816Z" fill="#E03D5F"/>
<path d="M355.274 74.4312C356.428 72.5514 357.923 71.0774 359.76 70.0093C361.64 68.9413 363.776 68.4072 366.169 68.4072V77.8278H363.798C360.978 77.8278 358.842 78.49 357.389 79.8144C355.979 81.1389 355.274 83.4459 355.274 86.7356V104.423H346.302V68.9199H355.274V74.4312Z" fill="#E03D5F"/>
<defs>
<clipPath id="clip0_191_125">
<rect width="61.2" height="61.2" fill="white" transform="translate(39.3999 59) rotate(-36.4006)"/>
</clipPath>
</defs>
</svg>
