<svg width="120" height="90" viewBox="0 0 180 160" fill="none" xmlns="http://www.w3.org/2000/svg">
<g clip-path="url(#clip0_191_252)">
<rect width="160" height="160" rx="40" fill="#E03D5F"/>
<g clip-path="url(#clip1_191_252)">
<path d="M75.5193 129.041L75.6974 127.926C76.3031 127.98 76.9275 128.036 77.536 128.07L77.5295 129.191C77.5259 130.61 78.6722 131.78 80.0988 131.795C81.5362 131.801 82.6989 130.644 82.6945 129.215L82.701 128.094C83.6185 128.05 84.5417 127.969 85.4382 127.875L85.6249 128.987C85.852 130.402 87.1851 131.351 88.6003 131.124C90.0155 130.897 90.9651 129.564 90.738 128.149L90.5513 127.037C91.2847 126.88 92.0023 126.7 92.7334 126.494L93.0894 127.565C93.5369 128.917 94.9978 129.656 96.3612 129.201C97.7138 128.753 98.4526 127.292 98.0079 125.921L97.6519 124.851C98.4376 124.538 99.2153 124.214 99.9771 123.869L100.497 124.869C101.16 126.129 102.725 126.625 103.985 125.962C105.257 125.291 105.741 123.734 105.079 122.474L104.558 121.474C105.297 121.03 106.049 120.559 106.774 120.074L107.443 120.98C108.308 122.109 109.942 122.336 111.078 121.482C112.225 120.62 112.442 118.994 111.58 117.847L110.903 116.93C111.19 116.685 111.487 116.433 111.784 116.181L112.574 116.981C113.582 117.987 115.21 118.003 116.234 116.998C117.24 115.989 117.259 114.343 116.251 113.337L115.461 112.537C115.772 112.191 116.073 111.852 116.365 111.504L117.269 112.187C118.412 113.06 120.028 112.834 120.901 111.691C121.763 110.555 121.549 108.931 120.405 108.058L119.521 107.378C119.941 106.751 120.351 106.132 120.735 105.5L121.72 106.023C122.97 106.701 124.556 106.231 125.226 104.971C125.896 103.71 125.434 102.135 124.174 101.465L123.18 100.931C123.535 100.17 123.882 99.3976 124.192 98.6198L125.259 98.9825C126.617 99.4469 128.077 98.7374 128.541 97.3788C129.005 96.0203 128.288 94.5501 126.94 94.0778L125.873 93.715C126.105 92.8775 126.319 92.0372 126.516 91.1753L127.619 91.3613C129.031 91.6035 130.363 90.6543 130.606 89.243C130.848 87.8316 129.899 86.499 128.487 86.2568L127.365 86.068C127.463 85.2294 127.532 84.3959 127.584 83.5408L128.705 83.5473C130.132 83.5617 131.295 82.4046 131.301 80.9672C131.307 79.5298 130.158 78.3779 128.721 78.3715L127.6 78.365C127.578 77.815 127.526 77.2702 127.474 76.7254L128.591 76.5682C130.011 76.3707 130.995 75.062 130.798 73.6417C130.6 72.2213 129.292 71.2371 127.871 71.4347L126.765 71.5838C126.618 70.8425 126.45 70.117 126.271 69.3995L127.338 69.0623C128.704 68.6551 129.48 67.1998 129.054 65.8313C128.639 64.4548 127.192 63.6893 125.823 64.1153L124.759 64.4337C124.475 63.643 124.152 62.8653 123.828 62.0876L124.833 61.597C126.117 60.9665 126.639 59.4153 126.009 58.131C125.379 56.8466 123.827 56.3243 122.543 56.9547L121.528 57.4533C121.097 56.6881 120.645 55.9389 120.178 55.2163L121.085 54.5479C122.256 53.7181 122.518 52.1085 121.678 50.9457C120.848 49.775 119.227 49.5204 118.065 50.361L117.158 51.0294C116.672 50.4381 116.186 49.8468 115.676 49.2901L116.476 48.5002C117.482 47.492 117.501 45.8455 116.493 44.8396C115.487 43.815 113.849 43.8069 112.832 44.823L112.032 45.613C111.526 45.1529 111.01 44.7008 110.471 44.2647L111.136 43.3583C111.99 42.2121 111.746 40.593 110.6 39.7388C109.454 38.8846 107.824 39.1368 106.98 40.275L106.305 41.1893C105.686 40.7793 105.046 40.3852 104.402 40.0098L104.928 39.0058C105.58 37.7426 105.088 36.1724 103.825 35.5211C102.554 34.859 100.992 35.3611 100.34 36.6243L99.8146 37.6283C99.0532 37.2735 98.2781 36.9453 97.4895 36.6438L97.8335 35.5739C98.2791 34.2125 97.5509 32.7503 96.1787 32.3127C94.8173 31.8671 93.363 32.6061 92.9174 33.9675L92.5734 35.0374C91.7359 34.8052 90.8848 34.5998 90.028 34.4319L90.1952 33.3257C90.4079 31.9194 89.4479 30.5948 88.023 30.3793C86.6088 30.1559 85.2921 31.1266 85.0766 32.5516L84.8985 33.6658C84.2849 33.6017 83.6793 33.5485 83.06 33.522L83.0585 32.3902C83.0729 30.9636 81.9158 29.801 80.4784 29.7945C79.0518 29.7802 77.8891 30.9373 77.8827 32.3747L77.8762 33.4956C76.9587 33.5391 76.0462 33.612 75.139 33.7146L74.9523 32.6028C74.7252 31.1876 73.3921 30.238 71.9769 30.4651C70.5617 30.6922 69.6121 32.0253 69.8392 33.4405L70.0259 34.5523C69.2925 34.7099 68.5749 34.8891 67.8466 35.0762L67.4907 34.0059C67.0432 32.6533 65.5822 31.9145 64.2188 32.37C62.8662 32.8175 62.1275 34.2784 62.5829 35.6419L62.9389 36.7121C62.1532 37.0248 61.3755 37.3483 60.6137 37.6934L60.0828 36.7021C59.4308 35.4337 57.8552 34.9461 56.5947 35.6089C55.3341 36.2717 54.8386 37.8365 55.5014 39.097L56.0215 40.0963C55.2723 40.5487 54.531 41.012 53.8056 41.4968L53.1372 40.5902C52.2642 39.4513 50.6381 39.2342 49.5021 40.0885C48.3552 40.9507 48.1381 42.5767 48.9923 43.7128L49.6687 44.6302C49.3824 44.8745 49.0854 45.1269 48.7991 45.3713L48.0091 44.571C46.993 43.5543 45.3624 43.557 44.3486 44.5544C43.3239 45.5597 43.3159 47.1983 44.332 48.215L45.1219 49.0153C44.8215 49.3534 44.5182 49.7103 44.2177 50.0484L43.3142 49.3652C42.1788 48.503 40.5545 48.7177 39.6924 49.8531C38.8303 50.9885 39.0449 52.6128 40.1883 53.4857L41.0839 54.1581C40.6631 54.7849 40.253 55.4037 39.8589 56.0441L38.8844 55.5132C37.6241 54.8431 36.0487 55.3049 35.3787 56.5652C34.7007 57.8148 35.1625 59.3901 36.4307 60.071L37.424 60.6047C37.0691 61.3662 36.733 62.1304 36.4128 62.9162L35.3457 62.5535C33.998 62.0812 32.517 62.8066 32.0634 64.1572C31.5991 65.5157 32.3165 66.9859 33.6643 67.4582L34.7313 67.821C34.4992 68.6585 34.275 69.5068 34.0884 70.3607L32.985 70.1747C31.5736 69.9325 30.241 70.8817 29.9988 72.293C29.7566 73.7044 30.7058 75.037 32.1279 75.2712L33.2313 75.4572C33.1441 76.2879 33.0648 77.1293 33.023 77.9765L31.8912 77.9779C30.4646 77.9635 29.3019 79.1206 29.2955 80.558C29.2891 81.9954 30.4462 83.1581 31.8756 83.1537L33.0074 83.1523C33.0297 83.7022 33.0816 84.2471 33.1147 84.7891L31.9977 84.9462C30.5774 85.1437 29.5932 86.4524 29.7908 87.8728C29.9991 89.2851 31.3078 90.2693 32.7173 90.0797L33.8235 89.9306C33.9623 90.6612 34.1307 91.3866 34.307 92.1229L33.2316 92.4493C31.8739 92.8673 31.0897 94.3117 31.5156 95.6803C31.9307 97.0568 33.378 97.8222 34.7465 97.3963L35.8112 97.0778C36.0943 97.8686 36.4178 98.6463 36.7521 99.4161L35.737 99.9146C34.4526 100.545 33.9303 102.096 34.5715 103.373C35.202 104.657 36.7532 105.179 38.0376 104.549L39.0527 104.05C39.4756 104.805 39.9281 105.554 40.4021 106.287L39.4955 106.956C38.3248 107.786 38.0622 109.395 38.9028 110.558C39.7355 111.71 41.3531 111.983 42.5158 111.143L43.4224 110.474C43.8975 111.074 44.3943 111.657 44.8938 112.221L44.0935 113.011C43.0876 114.02 43.0796 115.658 44.077 116.672C45.0743 117.686 46.7129 117.694 47.7375 116.689L48.5486 115.891C49.0544 116.351 49.571 116.803 50.1091 117.239L49.4446 118.145C48.5905 119.292 48.8347 120.911 49.9809 121.765C51.1271 122.619 52.7462 122.375 53.6112 121.221L54.2756 120.314C54.8945 120.724 55.5349 121.118 56.1781 121.494L55.6523 122.498C54.9902 123.769 55.4923 125.331 56.7555 125.983C58.0266 126.645 59.5781 126.15 60.2402 124.879L60.7552 123.883C61.5274 124.23 62.2917 124.566 63.0803 124.868L62.7363 125.938C62.2907 127.299 63.0297 128.753 64.3911 129.199C65.7525 129.645 67.2068 128.906 67.6524 127.544L68.0043 126.485C68.8526 126.709 69.693 126.923 70.5498 127.09L70.3933 128.189C70.1698 129.603 71.1486 130.93 72.5656 131.135C73.9718 131.348 75.2964 130.388 75.5119 128.963L75.5193 129.041ZM121.982 80.9579C121.935 91.5373 117.957 101.167 111.442 108.486L98.2463 95.1756C101.389 91.2591 103.291 86.2918 103.314 80.8774C103.337 75.463 101.482 70.4837 98.3575 66.5399L111.679 53.3365C118.13 60.708 122.047 70.3813 121.992 80.9499L121.982 80.9579ZM80.2737 89.4851C75.4735 89.4591 71.5953 85.5548 71.6133 80.7438C71.6392 75.9435 75.5435 72.0654 80.3466 72.0725C85.1469 72.0984 89.025 76.0028 89.0071 80.8138C88.9999 85.6169 85.0768 89.4922 80.2737 89.4851ZM52.8636 49.438C60.246 42.979 69.9084 39.0702 80.4691 39.1138C91.0486 39.1603 100.679 43.1385 108.006 49.6644L94.6948 62.86C90.7783 59.717 85.811 57.8151 80.3966 57.7922C74.9821 57.7693 70.0029 59.6246 66.0699 62.7408L52.8636 49.438ZM38.6359 80.6184C38.6823 70.039 42.6606 60.409 49.1865 53.082L62.3928 66.3848C59.2498 70.3013 57.3479 75.2686 57.325 80.683C57.3021 86.0975 59.1574 91.0767 62.2736 95.0097L48.9521 108.213C42.4822 100.839 38.5843 91.1683 38.6199 80.5969L38.6359 80.6184ZM52.612 111.912L65.9256 98.6976C69.8421 101.841 74.8094 103.742 80.2238 103.765C85.6382 103.788 90.6175 101.933 94.5612 98.8088L107.776 112.122C100.393 118.581 90.7307 122.49 80.1592 122.455C69.5798 122.408 59.9497 118.43 52.6336 111.896L52.612 111.912Z" fill="white"/>
</g>
<path d="M28 16L29.7426 24.1153C30.4035 27.1926 32.8074 29.5965 35.8847 30.2574L44 32L35.8847 33.7426C32.8074 34.4035 30.4035 36.8074 29.7426 39.8847L28 48L26.2573 39.8847C25.5965 36.8074 23.1926 34.4035 20.1153 33.7426L12 32L20.1153 30.2574C23.1926 29.5965 25.5965 27.1926 26.2573 24.1153L28 16Z" fill="white"/>
</g>
<defs>
<clipPath id="clip0_191_252">
<rect width="160" height="160" fill="white"/>
</clipPath>
<clipPath id="clip1_191_252">
<rect width="102" height="102" fill="white" transform="translate(9 70) rotate(-36.4006)"/>
</clipPath>
</defs>
</svg>
