<svg version="1.1" viewBox="0 0 210 60" xmlns="http://www.w3.org/2000/svg">
 <defs>
  <style>.cls-1{fill:#f37d7e;}.cls-2{fill:#4dc2be;}.cls-3{fill:#5c72b7;}.cls-4{fill:#ffcb1a;}.cls-5{fill:#28b34b;}.cls-6{fill:#4d5359;}</style>
  <style>.cls-1{fill:#f37d7e;}.cls-2{fill:#4dc2be;}.cls-3{fill:#5c72b7;}.cls-4{fill:#ffcb1a;}.cls-5{fill:#28b34b;}</style>
  <style>.cls-1 {
        fill: rgba(32,42,54,0);
      }

      .cls-2 {
        fill: #3498db;
      }

      .cls-3 {
        fill: #f60;
      }

      .cls-4 {
        fill: #fff;
      }</style>
  <style>.cls-1{fill:#f37d7e;}.cls-2{fill:#4dc2be;}.cls-3{fill:#5c72b7;}.cls-4{fill:#ffcb1a;}.cls-5{fill:#28b34b;}</style>
 </defs>
 <text x="147.7206" y="48.782944" fill="#ff6600" font-family="sans-serif" font-size="40px" style="line-height:1.25" xml:space="preserve"><tspan x="147.7206" y="48.782944" fill="#ff6600" font-family="Lato" font-size="10.667px" font-weight="900" style="font-variant-caps:normal;font-variant-east-asian:normal;font-variant-ligatures:normal;font-variant-numeric:normal">AUTHOR</tspan></text>
 <path class="cls-6" d="m59.244 23.728h-.13797a5.7949 5.7949 0 01-3.4494-2.2141 6.8724 6.8724 0 01-1.4389-4.3166 6.6162 6.6162 0 011.452-4.3297 5.9132 5.9132 0 013.4756-2.1682l.13797-.03942a7.2863 7.2863 0 011.314-.11169 6.8067 6.8067 0 011.314.12483h.12483a4.3626 4.3626 0 012.5295 1.4783v-1.452h2.201v13.022h-2.1682v-1.498a4.4283 4.4283 0 01-2.4835 1.4783h-.15111a7.4703 7.4703 0 01-2.72 0zm-2.7989-6.5242a4.8948 4.8948 0 001.2155 3.2851 3.8041 3.8041 0 002.9697 1.1432 3.7516 3.7516 0 002.95-1.1432 4.7502 4.7502 0 001.0381-3.2851 4.7371 4.7371 0 00-1.0381-3.2851 3.7516 3.7516 0 00-2.95-1.1432 3.8041 3.8041 0 00-2.9697 1.1432 4.8685 4.8685 0 00-1.2155 3.2851zm53.409-6.6227-4.8094 13.272h-2.6084l-4.7634-13.272h2.3456l3.7319 10.374 3.7516-10.374zm13.482 7.5294h-10.144c0 .1774 0 .31537.0525.41392a3.9421 3.9421 0 001.0644 2.0959 4.0407 4.0407 0 002.95 1.0249 5.4664 5.4664 0 002.2339-.4402 3.3771 3.3771 0 001.4783-1.2418l1.971.96582a5.4007 5.4007 0 01-2.2864 2.1484 7.3192 7.3192 0 01-3.4099.77528 6.0708 6.0708 0 01-4.5991-1.7805 6.7016 6.7016 0 01-1.7542-4.7568v-.11169a6.8724 6.8724 0 011.682-4.8422 5.8606 5.8606 0 014.5137-1.8068 6.0708 6.0708 0 014.0866 1.3797 6.1431 6.1431 0 011.971 3.8304 10.966 10.966 0 01.11169 1.314zm-2.3193-2.0565a1.5309 1.5309 0 000-.31537v-.09198q-.65701-2.8909-3.8238-2.8843a3.8633 3.8633 0 00-2.7726.95268 3.7844 3.7844 0 00-1.0512 1.9316c0 .11826-.046.25624-.0657.40735zm16.642 2.0565h-10.144q0 .26938.0591.41392a3.8895 3.8895 0 001.0578 2.0959 4.0538 4.0538 0 002.9566 1.0249 5.4861 5.4861 0 002.2339-.4402 3.3245 3.3245 0 001.4652-1.2418l1.971.96582a5.381 5.381 0 01-2.293 2.1484 7.2732 7.2732 0 01-3.4034.77528 6.0708 6.0708 0 01-4.5991-1.7805 6.6753 6.6753 0 01-1.7542-4.7568v-.11169a6.8396 6.8396 0 011.682-4.8422 5.8606 5.8606 0 014.5137-1.8068 6.0643 6.0643 0 014.0801 1.3797 6.1497 6.1497 0 011.971 3.8304 10.959 10.959 0 01.10512 1.314zm-2.3127-2.0565a1.498 1.498 0 00-.0328-.31537v-.09198q-.65703-2.8909-3.8173-2.8843a3.8501 3.8501 0 00-2.7726.95268 3.7319 3.7319 0 00-1.0512 1.9316c0 .11826-.0525.25624-.0723.40735zm10.092-5.5584a5.6701 5.6701 0 00-3.5019 1.2155v-1.0249h-2.1682v13.14h2.1682v-7.6608a3.5019 3.5019 0 017.0038 0v7.6871h2.1682v-7.6871a5.6766 5.6766 0 00-5.6898-5.6701zm-69.749 13.357a7.0104 7.0104 0 01-1.3534-.12483h-.15112a4.4283 4.4283 0 01-2.4835-1.4783v5.4401h-2.2076v-16.99h2.2076v1.4849a4.3429 4.3429 0 012.523-1.4783h.12483a6.9184 6.9184 0 011.314-.12483 7.2863 7.2863 0 011.314.11169l.13797.03942a5.9132 5.9132 0 013.4756 2.1682 6.6162 6.6162 0 011.4783 4.3035 6.8724 6.8724 0 01-1.4257 4.31 5.7949 5.7949 0 01-3.4493 2.1813h-.13797a7.0498 7.0498 0 01-1.3666.15769zm2.9632-9.9472a3.791 3.791 0 00-2.9632-1.1432 3.7384 3.7384 0 00-2.95 1.1432 4.7371 4.7371 0 00-1.0381 3.2851 4.7502 4.7502 0 001.0381 3.2851 3.7384 3.7384 0 002.95 1.1432 3.791 3.791 0 002.9632-1.1432 5.059 5.059 0 000-6.5702zm11.682 9.9472a7.0104 7.0104 0 01-1.3535-.12483h-.15111a4.4283 4.4283 0 01-2.4835-1.4783v5.4401h-2.2076v-16.99h2.2076v1.4849a4.3429 4.3429 0 012.523-1.4783h.12483a6.9184 6.9184 0 011.314-.12483 7.2863 7.2863 0 011.314.11169l.13798.03942a5.9132 5.9132 0 013.4756 2.1682 6.6162 6.6162 0 011.452 4.3297 6.8724 6.8724 0 01-1.3994 4.2838 5.7949 5.7949 0 01-3.4493 2.1813h-.13797a7.0498 7.0498 0 01-1.3666.15769zm2.9632-9.9472a3.791 3.791 0 00-2.9632-1.1432 3.7384 3.7384 0 00-2.95 1.1432 4.7371 4.7371 0 00-1.0381 3.2851 4.7502 4.7502 0 001.0381 3.2851 3.7384 3.7384 0 002.95 1.1432 3.791 3.791 0 002.9632-1.1432 5.059 5.059 0 000-6.5702z" fill="#808080" stroke-width=".65702"/>
 <g transform="matrix(.34047 0 0 .34047 -4.4758 .1138)" data-name="Layer 2">
  <rect class="cls-1" transform="rotate(-20 82.661 114.72)" x="74.16" y="58.02" width="17.01" height="113.39" rx="8.5"/>
  <rect class="cls-2" transform="rotate(25 56.029 91.242)" x="47.51" y="58.68" width="17.01" height="65.12" rx="8.5"/>
  <path class="cls-3" d="m73.85 65.75-.19-.35c-.07-.12-.13-.25-.21-.38l-.24-.37c-.08-.1-.15-.21-.23-.32s-.18-.22-.27-.33l-.26-.31-.59-.59-.31-.25c-.11-.09-.22-.19-.34-.27l-.37-.25-.32-.21c-.23-.13-.47-.26-.71-.37h-.08c-.24-.11-.48-.21-.73-.3l-.38-.11-.42-.12a3.12 3.12 0 00-.44-.09l-.37-.13h-2.5a4.1 4.1 0 00-.48.1l-.33.07a8.28 8.28 0 00-.81.24c-.26.1-.52.21-.77.33l-.29.16c-.15.08-.3.15-.45.24l-.32.22c-.12.08-.25.16-.36.25a2.42 2.42 0 00-.31.25l-.34.28-.26.26-.32.33-.23.28-.3.37-.22.33c-.08.12-.16.24-.23.36s-.23.41-.33.62a8.47 8.47 0 00-.35 6.62l7 19.3 8.7-18.61a8.49 8.49 0 00.26-6.57c-.09-.21-.15-.43-.3-.68z"/>
  <rect class="cls-3" transform="rotate(25 45.86 113.04)" x="37.35" y="104.53" width="17.01" height="17.01" rx="8.5"/>
  <rect class="cls-3" transform="matrix(.94 -.34 .34 .94 -48.74 43.56)" x="90.64" y="151.5" width="17.01" height="17.01" rx="8.5"/>
  <rect class="cls-4" transform="rotate(160 102.85 70.799)" x="94.35" y="14.1" width="17.01" height="113.39" rx="8.5"/>
  <rect class="cls-2" transform="rotate(205 129.5 94.281)" x="121" y="61.72" width="17.01" height="65.12" rx="8.5"/>
  <path class="cls-5" d="m127.33 113.17-7-19.29-8.68 18.61a8.47 8.47 0 00-.26 6.56 7.56 7.56 0 00.3.71l.19.35c.07.13.13.26.21.38s.16.25.24.37l.22.32c.09.12.19.23.28.34l.26.31a3.83 3.83 0 00.29.28c.1.1.19.21.3.3l.31.25.34.28.37.24.32.22c.23.13.47.26.72.38h.08a7.22 7.22 0 00.72.29c.13.05.26.08.39.12s.27.09.41.12.3.06.45.09l.36.07h2.49l.5-.1.32-.07a8.36 8.36 0 00.81-.25c.26-.1.52-.21.77-.33s.19-.1.29-.15l.44-.24c.12-.07.22-.15.33-.22s.25-.16.36-.25l.31-.25c.11-.09.23-.18.33-.28l.27-.27c.09-.09.22-.21.32-.33l.23-.28.3-.36.22-.34c.08-.12.16-.23.23-.36s.23-.41.33-.62a8.47 8.47 0 00.33-6.6z"/>
  <rect class="cls-5" transform="rotate(205 139.67 72.482)" x="131.16" y="63.98" width="17.01" height="17.01" rx="8.5"/>
  <rect class="cls-5" transform="rotate(160 86.371 25.515)" x="77.87" y="17.01" width="17.01" height="17.01" rx="8.5"/>
 </g>
 <text x="53.814701" y="48.740276" fill="#000000" font-family="sans-serif" font-size="40px" style="line-height:1.25" xml:space="preserve"><tspan x="53.814701" y="48.740276" fill="#000000" font-family="Lato" font-size="16px" font-weight="900" style="font-variant-caps:normal;font-variant-east-asian:normal;font-variant-ligatures:normal;font-variant-numeric:normal">data.stack</tspan></text>
 <path d="m138.61 36.764v12.104" fill="#3498db" stroke="#f60" stroke-width=".91286px"/>
</svg>
