<svg id="Layer_1" data-name="Layer 1" xmlns="http://www.w3.org/2000/svg" viewBox="0 0 100 100"><defs><style>.cls-1{fill:#fff;}.cls-2{fill:#bdbdbd;}</style></defs><title>edit-Rule-disabled</title><path class="cls-1" d="M31,79a5,5,0,0,1-5-5V26a5,5,0,0,1,5-5H56.59L74,38.41V74a5,5,0,0,1-5,5Z"/><path class="cls-2" d="M56.17,22,73,38.83V74a4,4,0,0,1-4,4H31a4,4,0,0,1-4-4V26a4,4,0,0,1,4-4H56.17M57,20H31a6,6,0,0,0-6,6V74a6,6,0,0,0,6,6H69a6,6,0,0,0,6-6V38L57,20Z"/><path class="cls-2" d="M63,38H75L57,20V32A6,6,0,0,0,63,38Z"/><path class="cls-2" d="M65,69H35a1,1,0,0,1-1-1h0a1,1,0,0,1,1-1H65a1,1,0,0,1,1,1h0A1,1,0,0,1,65,69Zm-9-7h0a1,1,0,0,0-1-1H35a1,1,0,0,0-1,1h0a1,1,0,0,0,1,1H55A1,1,0,0,0,56,62ZM48.51,42.13,41.67,49,37,50l1-4.67,6.84-6.84Zm3.08-3.07-3.65-3.65-1.83,1.84,3.64,3.64Z"/></svg>