<svg xmlns="http://www.w3.org/2000/svg" width="11.999" height="12" viewBox="0 0 11.999 12"><g transform="translate(82.786 82.824) rotate(180)"><g transform="translate(70.787 70.824)"><path d="M74.94,79.675l.73-.73,1.117-1.117a3.876,3.876,0,0,1,.343-.326l-.137.106a1.474,1.474,0,0,1,.313-.184l-.162.068a1.513,1.513,0,0,1,.378-.1l-.181.024a1.541,1.541,0,0,1,.371,0l-.181-.024a1.457,1.457,0,0,1,.378.1l-.162-.068a1.534,1.534,0,0,1,.313.184l-.137-.106a1.452,1.452,0,0,1,.25.25l-.106-.137a1.473,1.473,0,0,1,.184.313c-.023-.054-.046-.109-.068-.162a1.512,1.512,0,0,1,.1.378l-.024-.181a1.541,1.541,0,0,1,0,.371l.024-.181a1.456,1.456,0,0,1-.1.378c.023-.054.046-.109.068-.162a1.533,1.533,0,0,1-.184.313l.106-.137a3.68,3.68,0,0,1-.31.325l-.551.551-1.218,1.218a5.032,5.032,0,0,1-.468.434l.137-.106a2.872,2.872,0,0,1-.628.366l.162-.068a2.969,2.969,0,0,1-.74.2l.181-.024a3,3,0,0,1-.78,0l.181.024a2.969,2.969,0,0,1-.74-.2l.162.068a2.9,2.9,0,0,1-.628-.366l.137.106a3.033,3.033,0,0,1-.532-.533l.106.137a2.872,2.872,0,0,1-.366-.628c.023.054.046.109.068.162a2.969,2.969,0,0,1-.2-.74l.024.181a3,3,0,0,1,0-.78l-.024.181a2.969,2.969,0,0,1,.2-.74c-.023.054-.046.109-.068.162a2.9,2.9,0,0,1,.366-.628l-.106.137a7.477,7.477,0,0,1,.663-.7l1.2-1.2,1.476-1.476,1.259-1.259c.177-.177.352-.353.53-.53a3.053,3.053,0,0,1,.281-.247l-.137.106a2.872,2.872,0,0,1,.628-.366l-.162.068a2.969,2.969,0,0,1,.74-.2l-.181.024a3,3,0,0,1,.78,0l-.181-.024a2.969,2.969,0,0,1,.74.2l-.162-.068a2.9,2.9,0,0,1,.628.366l-.137-.106a3.042,3.042,0,0,1,.527.53l-.106-.137a2.872,2.872,0,0,1,.366.628c-.023-.054-.046-.109-.068-.162a2.969,2.969,0,0,1,.2.74l-.024-.181a3,3,0,0,1,0,.78l.024-.181a2.969,2.969,0,0,1-.2.74c.023-.054.046-.109.068-.162a2.9,2.9,0,0,1-.366.628l.106-.137a2.862,2.862,0,0,1-.247.281.683.683,0,0,0,0,.962.685.685,0,0,0,.481.2.717.717,0,0,0,.481-.2,3.585,3.585,0,0,0,1.037-2.651,3.736,3.736,0,0,0-.381-1.48,3.517,3.517,0,0,0-.421-.643,2.916,2.916,0,0,0-.432-.446,3.662,3.662,0,0,0-1.349-.726,3.874,3.874,0,0,0-.76-.126,2.906,2.906,0,0,0-.6.018,3.643,3.643,0,0,0-.753.16,3.508,3.508,0,0,0-1.4.874l-.517.517-1.01,1.01-1.219,1.219-1.149,1.149-.783.783a4.4,4.4,0,0,0-.759.939,3.714,3.714,0,0,0-.3.7,3.77,3.77,0,0,0-.145.756,2.9,2.9,0,0,0,0,.6,3.879,3.879,0,0,0,.14.748,3.656,3.656,0,0,0,.756,1.336,3.729,3.729,0,0,0,.579.515,2.861,2.861,0,0,0,.527.311,3.514,3.514,0,0,0,1.487.351,3.424,3.424,0,0,0,1.34-.241,3.666,3.666,0,0,0,.682-.348,3.913,3.913,0,0,0,.553-.451c.077-.076.154-.154.231-.231l1.123-1.123c.264-.264.527-.525.79-.79a2.032,2.032,0,0,0,.363-.484,2.258,2.258,0,0,0,.251-.888,2.1,2.1,0,0,0-2.051-2.223,2.348,2.348,0,0,0-.468.044,1.442,1.442,0,0,0-.288.08,2.227,2.227,0,0,0-.779.491c-.246.243-.489.489-.734.734l-1.119,1.119-.2.2a.683.683,0,0,0,0,.962.685.685,0,0,0,.481.2.733.733,0,0,0,.476-.2Z" transform="translate(-70.787 -70.824)" fill="#fff"/></g></g></svg>