<svg xmlns="http://www.w3.org/2000/svg" width="16" height="10" viewBox="0 0 16 10"><defs><style>.a{fill:#bdbdbd;}</style></defs><g transform="translate(-779.999 -2943)"><path class="a" d="M-1428-3449h0a4.973,4.973,0,0,1-3,1,5.006,5.006,0,0,1-5-5,5.006,5.006,0,0,1,5-5,4.975,4.975,0,0,1,3,1h0a4.974,4.974,0,0,1,3-1,5.005,5.005,0,0,1,5,5,5.005,5.005,0,0,1-5,5A4.974,4.974,0,0,1-1428-3449Zm-6-4a3,3,0,0,0,3,3,2.981,2.981,0,0,0,1.665-.506,4.972,4.972,0,0,1-.491-1.183l0-.008-.011-.043A4.989,4.989,0,0,1-1430-3453a4.987,4.987,0,0,1,.148-1.21l.006-.026,0-.017a4.96,4.96,0,0,1,.507-1.241A2.981,2.981,0,0,0-1431-3456,3,3,0,0,0-1434-3453Z" transform="translate(2216 6401)"/></g></svg>