<svg xmlns="http://www.w3.org/2000/svg" width="16.001" height="16" viewBox="0 0 16.001 16"><defs><style>.a{fill:#bdbdbd;}</style></defs><g transform="translate(-779.999 -2996)"><path class="a" d="M-1436-3450a8.01,8.01,0,0,1,8-8,8.01,8.01,0,0,1,8,8,8.009,8.009,0,0,1-8,8A8.01,8.01,0,0,1-1436-3450Zm2,0a6.006,6.006,0,0,0,6,6,6.006,6.006,0,0,0,6-6,6.007,6.007,0,0,0-6-6A6.006,6.006,0,0,0-1434-3450Zm2,.656,1.415-1.415,1.415,1.415,3.535-3.535,1.414,1.414-4.95,4.95Z" transform="translate(2216 6454)"/></g></svg>