<svg xmlns="http://www.w3.org/2000/svg" width="14" height="12" viewBox="0 0 14 12"><defs><style>.a{fill:#bdbdbd;}</style></defs><g transform="translate(-780 -2885.218)"><path class="a" d="M16.815,16.166h.9v1.478l2.531-2.6L17.718,12.5v1.688h-.9c-2.584,0-4.044,1.934-5.331,3.641-1.156,1.534-2.156,2.981-3.769,2.981H6.25v1.978H7.715c2.584,0,4.044-2.056,5.331-3.763,1.156-1.534,2.153-2.859,3.769-2.859ZM10.037,17.3c.109-.144.222-.291.334-.441.275-.362.562-.747.875-1.128a4.992,4.992,0,0,0-3.531-1.516H6.25v1.978s.416-.019,1.466,0A3.156,3.156,0,0,1,10.037,17.3Zm7.681,3.528h-.9A3.332,3.332,0,0,1,14.372,19.6c-.069.094-.141.188-.212.281-.309.409-.641.85-1.006,1.284A5.069,5.069,0,0,0,16.816,22.8h.9v1.7l2.531-2.544-2.531-2.6Z" transform="translate(773.75 2872.717)"/></g></svg>