<svg xmlns="http://www.w3.org/2000/svg" width="15.999" height="13" viewBox="0 0 15.999 13"><defs><style>.a{fill:#bdbdbd;}</style></defs><g transform="translate(-777 -2828)"><path class="a" d="M-1437-3451a5.005,5.005,0,0,1,5-5h0a5,5,0,0,1,5,5,5,5,0,0,1-5,5A5.005,5.005,0,0,1-1437-3451Zm2,0a3,3,0,0,0,3,3,3,3,0,0,0,3-3,3.006,3.006,0,0,0-2-2.828V-3452a1,1,0,0,1-1,1,1,1,0,0,1-1-1v-1.829A3.006,3.006,0,0,0-1435-3451Zm9,0a1,1,0,0,1,1-1,1,1,0,0,1,1,1,1,1,0,0,1-1,1A1,1,0,0,1-1426-3451Zm-14,0a1,1,0,0,1,1-1,1,1,0,0,1,1,1,1,1,0,0,1-1,1A1,1,0,0,1-1440-3451Zm12-5a1,1,0,0,1,1-1,1,1,0,0,1,1,1,1,1,0,0,1-1,1A1,1,0,0,1-1428-3456Zm-10,0a1,1,0,0,1,1-1,1,1,0,0,1,1,1,1,1,0,0,1-1,1A1,1,0,0,1-1438-3456Zm5-2a1,1,0,0,1,1-1,1,1,0,0,1,1,1,1,1,0,0,1-1,1A1,1,0,0,1-1433-3458Z" transform="translate(2216.999 6287)"/></g></svg>