<svg xmlns="http://www.w3.org/2000/svg" width="48.583" height="31.579" viewBox="0 0 48.583 31.579"><defs><style>.a{fill:#1cad49;}</style></defs><g transform="translate(-459.704 -1689.711)"><path class="a" d="M16221.872,3107.581h-12.155a9.715,9.715,0,1,1,0-19.431h.053a13.362,13.362,0,0,1,25.25-4.779,12.541,12.541,0,0,1,1.415-.082,12.146,12.146,0,0,1,.065,24.292h-9.771v-8h6.149a2.42,2.42,0,0,0,.713-1.732,2.375,2.375,0,0,0-.713-1.7l-6.871-6.875a2.42,2.42,0,0,0-3.43,0l-6.88,6.875a2.375,2.375,0,0,0-.713,1.7,2.417,2.417,0,0,0,.713,1.732h6.174v8Z" transform="translate(-15740.295 -1386.291)"/></g></svg>