<svg xmlns="http://www.w3.org/2000/svg" width="15.997" height="10.399" viewBox="0 0 15.997 10.399"><defs><style>.a{fill:#bdbdbd;}</style></defs><g transform="translate(-391.705 -1974.711)"><path class="a" d="M16207.2,3086.4h-4a3.2,3.2,0,0,1,0-6.4h.017a4.4,4.4,0,0,1,8.318-1.575,4.351,4.351,0,0,1,.464-.024,4,4,0,0,1,.041,8h-3.235v-2.633h2.022a.8.8,0,0,0,.235-.572.78.78,0,0,0-.235-.555l-2.263-2.267a.794.794,0,0,0-1.128,0l-2.267,2.267a.78.78,0,0,0-.235.555.8.8,0,0,0,.235.572h2.035v2.633Z" transform="translate(-15808.295 -1101.292)"/></g></svg>