<svg xmlns="http://www.w3.org/2000/svg" viewBox="0 0 69.439 69.44"><defs><style>.a{fill:#0082c9;}.b{fill:#bdbdbd;}</style></defs><g transform="translate(-1047 -451)"><path class="a" d="M64.6,19.644,71.244,13l-.328-.328-.739-.739-.328-.328L63.2,18.248l.41.328.657.657Z" transform="translate(1035.675 448.921)"/><path class="b" d="M17.155,52.942l.41.328-6.648,6.648-.328-.328-.739-.739-.328-.328,6.648-6.648.328.41A4.953,4.953,0,0,1,17.155,52.942ZM0,33.735v2.134H9.439V33.9ZM60,35.7H69.44V33.571H60V35.7ZM58.523,60l.328-.328.739-.739.328-.328L53.27,51.957l-.328.41-.657.657-.41.328ZM10.506,9.85l-.739.739-.328.328,6.648,6.648.328-.41.657-.657.41-.328L10.835,9.521Zm24.706-.41H35.7V0h-1.97V9.439h1.477Zm-1.477,60H35.7V60h-1.97ZM25.527,58.277l.492.164-3.612,8.7-.492-.164a3.034,3.034,0,0,1-.9-.41L20.52,66.4l3.612-8.7.492.246A6.234,6.234,0,0,1,25.527,58.277ZM2.3,47.032l.164.575c.082.082.082.246.164.328s.082.246.164.328l.246.575,8.7-3.612-.41-.9-.41-.9ZM58.441,25.937l8.7-3.612-.246-.575c-.082-.082-.082-.246-.164-.328s-.082-.246-.164-.328L66.4,20.52l-8.208,3.365-.492.164.246.492a1.387,1.387,0,0,1,.164.41c.082.164.082.328.164.492ZM66.4,48.92l.164-.492a9.63,9.63,0,0,1,.41-.9l.164-.492-8.7-3.612-.164.492a4.4,4.4,0,0,1-.41.9l-.246.492ZM2.873,20.93a9.629,9.629,0,0,1-.41.9l-.164.492L11,25.937l.164-.492a4.4,4.4,0,0,1,.41-.9l.246-.492L3.037,20.52Zm22.654-9.768L26.019,11,22.408,2.3l-.9.41-.985.328,3.612,8.7.492-.246c.246-.082.575-.246.9-.328ZM47.032,67.142l.9-.41.9-.41-3.612-8.7-.575.246c-.164.082-.246.082-.41.164l-.9.41Zm-1.724-55.4,3.612-8.7-.492-.164a9.629,9.629,0,0,1-.9-.41L47.032,2.3,43.42,11l.492.164a4.4,4.4,0,0,1,.9.41Z" transform="translate(1047 451)"/></g></svg>