<?xml version="1.0" encoding="utf-8"?>
<!-- Generator: Adobe Illustrator 22.0.1, SVG Export Plug-In . SVG Version: 6.00 Build 0)  -->
<svg version="1.1" id="Layer_1" xmlns="http://www.w3.org/2000/svg" xmlns:xlink="http://www.w3.org/1999/xlink" x="0px" y="0px"
	 viewBox="0 0 1920 322.7" style="enable-background:new 0 0 1920 322.7;" xml:space="preserve">
<style type="text/css">
	.st0{opacity:0.193;}
	.st1{fill:#D1D3D4;}
	.st2{fill:#D1D3D4;stroke:#231F20;stroke-width:3.2;stroke-linejoin:round;stroke-miterlimit:10;}
	.st3{fill:#016ECB;}
	.st4{fill:#231F20;}
	.st5{fill:#FFFFFF;}
	.st6{fill:#939598;}
	.st7{fill:#E6E7E8;}
	.st8{fill:#E6E7E8;stroke:#231F20;stroke-width:3.2;stroke-linejoin:round;stroke-miterlimit:10;}
	.st9{fill:#19CEC4;stroke:#231F20;stroke-width:3.2;stroke-linejoin:round;stroke-miterlimit:10;}
	.st10{fill:#BCBEC0;}
	.st11{fill:#FFD248;}
	.st12{fill:none;}
	.st13{fill:#6D6E71;}
	.st14{fill:#F1F2F2;}
	.st15{opacity:0.3;}
	.st16{fill:#EEEFEF;}
	.st17{opacity:0.7;}
	.st18{fill:#E3E4E4;}
	.st19{fill:#A7A9AC;stroke:#231F20;stroke-width:6;stroke-linejoin:round;stroke-miterlimit:10;}
	.st20{fill:#D1D3D4;stroke:#231F20;stroke-width:6;stroke-linejoin:round;stroke-miterlimit:10;}
	.st21{fill:none;stroke:#231F20;stroke-width:6;stroke-linejoin:round;stroke-miterlimit:10;}
	.st22{fill:#D1D3D4;stroke:#231F20;stroke-width:5.86;stroke-linejoin:round;stroke-miterlimit:10;}
	.st23{fill:#F1F2F2;stroke:#231F20;stroke-width:6;stroke-linejoin:round;stroke-miterlimit:10;}
	.st24{fill:#FFCB31;stroke:#231F20;stroke-width:6;stroke-linejoin:round;stroke-miterlimit:10;}
	.st25{fill:#FDBB33;}
	.st26{fill:#FFFFFF;stroke:#231F20;stroke-width:6;stroke-linejoin:round;stroke-miterlimit:10;}
	.st27{fill:#016ECB;stroke:#231F20;stroke-width:6;stroke-linejoin:round;stroke-miterlimit:10;}
	.st28{fill:#FFCB31;stroke:#231F20;stroke-width:5.86;stroke-linejoin:round;stroke-miterlimit:10;}
</style>
<g id="vector" transform="translate(3814 68)" class="st0">
	<g id="Group_102" transform="translate(-1 770.37)">
		<g id="Group_3" transform="translate(329.149 0)">
			<g id="Group_2">
				<path id="Path_20" class="st1" d="M-3566.5-753.5c-11.9-0.1-23.6,3.4-33.4,10.1c-6.5-7.5-15.5-12.6-25.3-14.2
					c0.4-2.9,0.7-5.8,0.7-8.7c0-32.5-26.3-58.9-58.8-58.9s-58.9,26.3-58.9,58.8l0,0c0,4.7,0.5,9.4,1.6,13.9c-4.4-1-8.9-0.9-13.6-0.9
					c-32.5,0-58.8,24.2-58.8,59.5h305.5C-3507.6-729.2-3534-753.5-3566.5-753.5z"/>
				<g id="Group_1" transform="translate(0.767 129.95)">
					<path id="Path_21" class="st2" d="M-3813-825.2"/>
				</g>
			</g>
		</g>
		<g id="Group_15" transform="translate(433.46 37.473)">
			<g id="Group_11" transform="translate(23.119)">
				<path id="Path_22" class="st3" d="M-3713.2-825.2h-99.8v69.5h49.9v24l26.6-24h23.3V-825.2z"/>
				<g id="Group_4" transform="translate(10.957 12.272)">
					<rect id="Rectangle_7" x="-3813" y="-825.2" class="st4" width="19.5" height="3.6"/>
				</g>
				<g id="Group_5" transform="translate(10.957 29.255)">
					<rect id="Rectangle_8" x="-3813" y="-825.2" class="st4" width="76.7" height="3.6"/>
				</g>
				<g id="Group_6" transform="translate(10.957 42.623)">
					<rect id="Rectangle_9" x="-3813" y="-825.2" class="st4" width="76.7" height="3.6"/>
				</g>
				<g id="Group_7" transform="translate(10.957 56.1)">
					<rect id="Rectangle_10" x="-3813" y="-825.2" class="st4" width="17.1" height="3.6"/>
				</g>
				<g id="Group_8" transform="translate(38.897 56.1)">
					<rect id="Rectangle_11" x="-3813" y="-825.2" class="st4" width="20.7" height="3.6"/>
				</g>
				<g id="Group_9" transform="translate(66.947 56.1)">
					<rect id="Rectangle_12" x="-3813" y="-825.2" class="st4" width="20.7" height="3.6"/>
				</g>
				<g id="Group_10" transform="translate(40.103 12.272)">
					<rect id="Rectangle_13" x="-3813" y="-825.2" class="st4" width="47.4" height="3.6"/>
				</g>
			</g>
			<g id="Group_14" transform="translate(0 31.666)">
				<path id="Path_23" class="st5" d="M-3813-825.2h63.2v41.4h-31.7v15.8l-17.3-15.8h-14.2V-825.2z"/>
				<g id="Group_12" transform="translate(29.146 8.546)">
					<rect id="Rectangle_14" x="-3813" y="-825.2" class="st4" width="23.1" height="3.6"/>
				</g>
				<g id="Group_13" transform="translate(8.437 25.639)">
					<rect id="Rectangle_15" x="-3813" y="-825.2" class="st4" width="43.8" height="3.6"/>
				</g>
			</g>
		</g>
		<g id="Group_17" transform="translate(71.549 132.765)">
			<g id="Group_16">
				<path id="Path_24" class="st6" d="M-3757.2-801.2l0.1-22l-54.2,40.1l53.5,40.1v-20.4h69.4v-37.8L-3757.2-801.2z"/>
				<path id="Path_25" class="st4" d="M-3757.3-741.1c-0.4,0-0.8-0.1-1.1-0.3l-53.8-40.3c-0.5-0.3-0.7-0.9-0.8-1.4
					c0-0.6,0.3-1.1,0.8-1.4l53.9-40.2c0.5-0.4,1.2-0.5,1.9-0.2c0.6,0.3,1,1,1,1.6v19.9h67.4c1,0,1.9,0.8,1.9,1.8c0,0,0,0,0,0v37.7
					c0,1-0.8,1.9-1.8,1.9c0,0,0,0,0,0h-67.6v19.3c0,0.7-0.4,1.3-1,1.6L-3757.3-741.1z M-3808.1-783.2l48.9,36.6V-764
					c0-1,0.8-1.9,1.8-1.9c0,0,0,0,0,0h67.6V-800h-67.4c-0.5,0-1-0.2-1.3-0.5c-0.4-0.3-0.6-0.8-0.5-1.3v-18.1L-3808.1-783.2z"/>
			</g>
		</g>
		<g id="Group_19" transform="translate(601.431 132.608)">
			<g id="Group_18">
				<path id="Path_26" class="st3" d="M-3740.8-763.2v21l53-40.5l-54.7-40.6v22.4h-69.4v37.8L-3740.8-763.2z"/>
				<path id="Path_27" class="st4" d="M-3740.8-740.7c-0.3,0-0.5-0.1-0.8-0.2c-0.6-0.3-1-1-1-1.6V-762h-68.6c-1,0-1.9-0.8-1.9-1.8
					c0,0,0,0,0,0v-37.7c0-1,0.8-1.9,1.8-1.9c0,0,0,0,0,0h67.6v-19.9c0-0.7,0.4-1.3,1-1.6c0.6-0.3,1.3-0.2,1.9,0.2l54.3,40.4
					c0.5,0.3,0.7,0.9,0.8,1.4c0,0.6-0.3,1.1-0.8,1.4l-53.4,40.4C-3740-740.8-3740.4-740.6-3740.8-740.7z M-3809.4-765.6h68.6
					c0.5,0,1,0.2,1.3,0.5c0.4,0.3,0.6,0.8,0.5,1.3v17.6l48.4-36.7l-49.4-36.8v18.2c0,1-0.8,1.9-1.8,1.9c0,0,0,0,0,0h-67.6
					L-3809.4-765.6z"/>
			</g>
		</g>
		<g id="Group_22" transform="translate(435.761 164.684)">
			<g id="Group_21">
				<path id="Path_28" class="st7" d="M-3749.7-747.6c12.8-0.2,25.3,3.6,35.9,10.7c7.1-8.1,16.7-13.6,27.3-15.4
					c-0.4-3.1-0.7-6.3-0.7-9.4c0-35,28.3-63.5,63.4-63.5c35,0,63.5,28.3,63.5,63.4c0,5.1-0.6,10.1-1.8,15c4.7-1.1,9.5-0.8,14.6-0.8
					c35.1,0,63.4,25.3,63.4,64.3h-329C-3813-722.3-3784.6-747.6-3749.7-747.6z"/>
				<g id="Group_20" transform="translate(327.944 140.031)">
					<path id="Path_29" class="st8" d="M-3813-825.2"/>
				</g>
			</g>
		</g>
		<g id="Group_27" transform="translate(0 41.746)">
			<g id="Group_25" transform="translate(18.737)">
				<path id="Path_30" class="st7" d="M-3316.4-679.8c-25,0-48.1,6.7-67.3,19.8c-13.2-15.2-31.2-25.5-51.1-28.9
					c0.9-5.8,1.3-11.7,1.3-17.6c0.3-65.5-52.6-118.8-118.1-119c-65.5-0.3-118.8,52.6-119,118.1c0,9.6,1.1,19.3,3.4,28.6
					c-8.8-2.1-17.9-1.1-27.3-1.1c-65.5,0-118.6,47.7-118.6,120.6h615.2C-3197.9-632.3-3250.9-679.8-3316.4-679.8z"/>
				<g id="Group_23" transform="translate(1.863 261.763)">
					<path id="Path_31" class="st9" d="M-3813-825.2"/>
				</g>
				<g id="Group_24" transform="translate(420.531 163.26)">
					<path id="Path_32" class="st4" d="M-3809.1-804.4l-3.9-0.1c0.3-9,6.8-20.3,7.1-20.7l3.4,2
						C-3802.6-823.2-3808.8-812.4-3809.1-804.4z"/>
				</g>
			</g>
			<g id="Group_26" transform="translate(0 264.831)">
				<rect id="Rectangle_16" x="-3813" y="-825.2" class="st4" width="777.9" height="3.6"/>
			</g>
		</g>
		<g id="Group_37" transform="translate(159.425 64.318)">
			<g id="Group_28">
				<path id="Path_33" class="st5" d="M-3719.9-822.8h-91.8v159.5h119.3v-132.4L-3719.9-822.8z"/>
				<path id="Path_34" class="st4" d="M-3691.8-662.1h-119.3c-1,0-1.9-0.8-1.9-1.8c0,0,0,0,0,0v-159.4c0-1,0.8-1.9,1.8-1.9
					c0,0,0,0,0,0h91.3c0.5,0,1,0.2,1.3,0.5l28.1,27.7c0.4,0.3,0.6,0.8,0.5,1.3v131.7C-3690-662.9-3690.8-662.1-3691.8-662.1z
					 M-3809.3-665.8h115.7v-129.1l-27.1-26.6h-88.6L-3809.3-665.8z"/>
			</g>
			<g id="Group_29" transform="translate(90.176 1.205)">
				<path id="Path_35" class="st4" d="M-3782.5-793.6h-28.6c-1,0-1.9-0.8-1.9-1.8c0,0,0,0,0,0v-29.8h3.6v28h26.7v3.6L-3782.5-793.6z
					"/>
			</g>
			<path id="Path_36" class="st3" d="M-3777-801.3c0,6.1-4.9,11-11,11c-6.1,0-11-4.9-11-11s4.9-11,11-11c6-0.1,10.9,4.7,11,10.7
				C-3777-801.5-3777-801.4-3777-801.3z"/>
			<g id="Group_30" transform="translate(45.143 16.983)">
				<rect id="Rectangle_17" x="-3813" y="-825.2" class="st4" width="17.1" height="3.6"/>
			</g>
			<g id="Group_31" transform="translate(45.143 27.94)">
				<rect id="Rectangle_18" x="-3813" y="-825.2" class="st4" width="17.1" height="3.6"/>
			</g>
			<g id="Group_32" transform="translate(17.093 58.401)">
				<rect id="Rectangle_19" x="-3813" y="-825.2" class="st4" width="88.9" height="3.6"/>
			</g>
			<g id="Group_33" transform="translate(17.093 76.699)">
				<rect id="Rectangle_20" x="-3813" y="-825.2" class="st4" width="88.9" height="3.6"/>
			</g>
			<g id="Group_34" transform="translate(17.093 97.408)">
				<rect id="Rectangle_21" x="-3813" y="-825.2" class="st4" width="88.9" height="3.6"/>
			</g>
			<g id="Group_35" transform="translate(17.093 115.597)">
				<rect id="Rectangle_22" x="-3813" y="-825.2" class="st4" width="88.9" height="3.6"/>
			</g>
			<g id="Group_36" transform="translate(17.093 133.895)">
				<rect id="Rectangle_23" x="-3813" y="-825.2" class="st4" width="88.9" height="3.6"/>
			</g>
		</g>
		<g id="Group_39" transform="translate(295.73 74.179)">
			<g id="Group_38">
				<path id="Path_37" class="st10" d="M-3726.4-687.9l-0.1-16.9c3.2-0.8,6.3-2.1,9.2-3.8l12.1,11.9c1.2,1.1,3,1.1,4.2,0l17.1-17.2
					c1.1-1.1,1.1-2.9,0-4.1l-12.1-11.9c1.7-2.9,3-6,3.7-9.3l16.9-0.1c1.5,0.1,2.7-1,2.8-2.5c0-0.1,0-0.2,0-0.2l-0.1-24.2
					c0-1.6-1.2-3-2.8-3.1l-16.9,0.1c-0.8-3.2-2.1-6.2-3.8-9l11.9-11.9c1.1-1.1,1.1-2.9,0-4.1l-17.2-17c-1.1-1.1-2.9-1.1-4.1,0
					l-11.9,12.1c-2.9-1.6-6-2.9-9.2-3.7l-0.1-16.9c0.1-1.6-1.1-3-2.7-3.2l-24.2,0.1c-1.7,0.1-3,1.5-3.1,3.2l0.1,16.9
					c-4.1,1-6.1,2.3-9.1,3.8l-11.9-11.8c-1.1-1.1-2.9-1.1-4.1,0l-17.1,17.2c-1.1,1.1-1.1,2.9,0,4.1l12.1,11.8
					c-1.7,2.8-3,5.9-3.7,9.1l-16.9,0.1c-1.7,0.1-3.1,1.4-3.2,3.1l0.1,24.2c0.1,1.6,1.5,2.9,3.2,2.7c0,0,0,0,0,0l16.9-0.1
					c0.8,3.2,2.1,6.3,3.8,9.2l-11.9,12.1c-1.1,1.2-1.1,3,0,4.2l17.2,17.1c1.1,1.1,2.9,1.1,4.1,0l11.8-12.1c2.8,1.7,5.9,3,9.1,3.7
					l0.1,16.9c0.1,1.6,1.4,2.9,3,2.8c0,0,0,0,0,0l24.2-0.1C-3727.6-685.1-3726.5-686.4-3726.4-687.9z"/>
				<path id="Path_38" class="st4" d="M-3753.4-682.9c-2.7,0-4.9-2.1-5-4.8l-0.1-15.4c-2.4-0.7-4.6-1.6-6.8-2.8l-10.8,11
					c-1.8,1.9-4.9,1.9-6.7,0.1c0,0,0,0-0.1-0.1l-17.2-17.1c-0.9-0.9-1.4-2.1-1.4-3.4c0-1.3,0.5-2.5,1.4-3.4l10.8-11.1
					c-1.2-2.2-2.2-4.5-3-6.9l-15.4,0.1c-2.7,0.1-5-1.9-5.1-4.6l-0.1-24.2c0-1.3,0.6-2.6,1.5-3.5c0.9-0.9,2.2-1.5,3.5-1.5l15.4-0.1
					c0.7-2.4,1.6-4.6,2.8-6.8l-11-10.7c-1.9-1.9-1.9-5,0-6.9c0,0,0,0,0,0l17.1-17.2c1.8-1.9,4.9-1.9,6.7-0.1c0,0,0,0,0.1,0.1
					l11,10.8c2.2-1.2,4.4-2.2,6.8-3l-0.1-15.4c0-2.8,2.2-5,4.9-5.2l24.2-0.1c2.7,0.2,4.8,2.4,4.7,5.1l0.1,15.4
					c2.4,0.7,4.7,1.6,6.9,2.8l11-11c0.9-0.9,2.1-1.4,3.4-1.4c1.3,0,2.5,0.5,3.4,1.4l17.2,17c1.9,1.9,1.9,4.9,0,6.8l-10.8,11
					c1.2,2.1,2.2,4.4,3,6.7l15.4-0.1c2.7,0.1,4.9,2.3,4.8,5l0.1,24.2c0,2.6-2.1,4.7-4.7,4.7c0,0-0.1,0-0.1,0l-15.4,0.1
					c-0.7,2.4-1.7,4.8-2.9,7l11,11c1.9,1.9,1.9,5,0,6.9l-17.1,17.2c-1.8,1.9-4.9,1.9-6.7,0.1c0,0,0,0-0.1-0.1l-11.1-10.8
					c-2.2,1.2-4.5,2.2-6.9,3l0.1,15.4c0,2.6-2.1,4.8-4.7,4.8L-3753.4-682.9z M-3765.7-710.4c0.3,0,0.6,0.1,0.9,0.2l0.7,0.3
					c2.5,1.5,5.2,2.5,8,3.2c0.9,0.2,1.5,1,1.5,1.9l0.2,16.9c0,0.5,0,0.9,1.2,0.9v2l-0.1-2l24.2-0.1c0.5,0,0.8-0.3,0.8-0.9l-0.1-16.9
					c0-0.9,0.6-1.7,1.4-1.9c3-0.8,5.8-2,8.4-3.5l0.3-0.2c0.8-0.4,1.7-0.3,2.3,0.3l12.1,11.9c0.2,0.2,0.4,0.3,0.7,0.3
					c0.3,0,0.5-0.1,0.7-0.3l17.1-17.2c0.2-0.2,0.3-0.4,0.3-0.7c0-0.3-0.1-0.5-0.3-0.7l-12.1-12.1c-0.6-0.6-0.8-1.6-0.3-2.3l0.1-0.2
					c1.6-2.7,2.8-5.6,3.5-8.7c0.2-0.9,1-1.5,1.9-1.5l16.9-0.1c0.1,0,0.9,0,0.9-0.8l-0.1-24.2c0-0.5-0.4-0.9-0.9-0.9c0,0,0,0,0,0
					l-16.9,0.3l0,0c-0.9-0.1-1.7-0.8-1.9-1.8c-0.7-2.8-1.8-5.4-3.3-7.9l-0.4-0.9c-0.4-0.8-0.3-1.7,0.3-2.3l11.9-11.9
					c0.3-0.4,0.3-0.9,0-1.3l-17.2-17c-0.2-0.2-0.4-0.3-0.7-0.3c-0.3,0-0.5,0.1-0.7,0.3l-11.9,12c-0.6,0.6-1.6,0.8-2.3,0.3l-0.3-0.2
					c-2.6-1.5-5.5-2.7-8.4-3.4c-0.9-0.2-1.5-1-1.5-1.9l-0.1-16.9c0-0.5-0.4-1.2-0.8-1.2l-24.2,0.1c-0.6,0.1-1.1,0.6-1.1,1.2
					l0.1,16.9c0,0.9-0.6,1.6-1.4,1.9c-2.8,0.7-5.4,1.9-7.9,3.3l-0.7,0.3c-0.8,0.4-1.7,0.3-2.3-0.3l-12.3-11.6
					c-0.2-0.2-0.4-0.3-0.7-0.3c-0.3,0-0.5,0.1-0.7,0.3l-17.1,17.2c-0.3,0.4-0.3,0.9,0,1.3l12.1,11.8c0.6,0.6,0.8,1.6,0.3,2.3
					l-0.4,0.8c-1.4,2.4-2.5,5-3.2,7.8c-0.2,0.9-1,1.5-1.9,1.5l-16.9,0.1c-0.3,0-0.6,0.2-0.8,0.4c-0.2,0.2-0.4,0.5-0.3,0.8l0.1,24.2
					c0,0.4,0.7,0.8,1.2,0.8l16.9-0.1c0.9,0,1.7,0.7,1.9,1.5c0.8,3,2,5.9,3.5,8.5l0.1,0.2c0.4,0.7,0.3,1.7-0.3,2.3l-11.9,12.1
					c-0.2,0.2-0.3,0.4-0.3,0.7c0,0.3,0.1,0.5,0.3,0.7l17.2,17.1c0.2,0.2,0.4,0.3,0.7,0.3c0.2,0,0.5-0.1,0.7-0.2l11.8-12
					C-3766.8-710.1-3766.3-710.4-3765.7-710.4L-3765.7-710.4z"/>
			</g>
			<path id="Path_39" class="st5" d="M-3742.2-731.4c-12,0.1-21.8-9.6-21.8-21.6c-0.1-12,9.6-21.8,21.6-21.8
				c12-0.1,21.8,9.6,21.8,21.6c0,0,0,0,0,0c0.1,11.9-9.5,21.7-21.4,21.8C-3742.1-731.4-3742.2-731.4-3742.2-731.4z"/>
		</g>
		<g id="Group_41" transform="translate(76.48 220.346)">
			<path id="Path_40" class="st3" d="M-3729.3-783.3c-0.1,23.1-18.8,41.8-42,41.7c-23.1-0.1-41.8-18.8-41.7-42
				c0.1-23.1,18.8-41.7,41.9-41.7c23.1-0.1,41.8,18.6,41.9,41.7C-3729.3-783.5-3729.3-783.4-3729.3-783.3z"/>
			<g id="Group_40" transform="translate(29.365 27.897)">
				<path id="Path_41" class="st5" d="M-3811.7-798.6v-25l24.9,12.5L-3811.7-798.6z"/>
				<path id="Path_42" class="st4" d="M-3811.1-796.8c-0.3,0-0.7-0.1-1-0.2c-0.5-0.3-0.9-0.9-0.9-1.5v-24.9c0-0.6,0.3-1.2,0.9-1.5
					c0.5-0.3,1.2-0.3,1.8-0.1l24.9,12.5c0.6,0.3,1,1,1,1.6c0,0.7-0.4,1.3-1,1.6l-24.9,12.5H-3811.1z M-3809.3-820.6v19l19-9.5
					L-3809.3-820.6z"/>
			</g>
		</g>
		<g id="Group_46" transform="translate(135.429 175.641)">
			<g id="Group_45">
				<path id="Path_43" class="st11" d="M-3726.8-782.4c0-23.7-19.6-42.8-43.3-42.8c-23.7-0.1-42.9,19.1-43,42.8
					c0,18.3,11.6,34.7,28.9,40.6v29.4h29.3v-29.4C-3740.2-747.6-3726.8-763.5-3726.8-782.4z"/>
				<g id="Group_42" transform="translate(25.201 110.118)">
					<rect id="Rectangle_24" x="-3811.7" y="-822.7" class="st10" width="29.3" height="20.7"/>
					<path id="Path_44" class="st4" d="M-3781.9-800.8h-29.3c-1,0-1.9-0.8-1.9-1.8c0,0,0,0,0,0v-20.7c0-1,0.8-1.9,1.8-1.9
						c0,0,0,0,0,0h29.3c1,0,1.9,0.8,1.9,1.8c0,0,0,0,0,0v20.7C-3780-801.6-3780.8-800.8-3781.9-800.8
						C-3781.9-800.8-3781.9-800.8-3781.9-800.8z M-3809.3-804.4h25.5v-17.1h-25.5V-804.4z"/>
				</g>
				<g id="Group_43" transform="translate(41.089 40.87)">
					<rect id="Rectangle_25" x="-3813" y="-825.2" class="st4" width="3.6" height="71.9"/>
				</g>
				<g id="Group_44" transform="translate(11.167 19.284)">
					<path id="Path_45" class="st4" d="M-3811.7-793.6c-2.5-7.9-1.5-16.4,2.6-23.6c1.8-3.2,4.2-5.9,7.1-8.1l2.2,3.2
						c-0.5,0.4-13.3,9.6-8.2,27.3L-3811.7-793.6z"/>
				</g>
			</g>
		</g>
		<g id="Group_49" transform="translate(233.713 151.974)">
			<g id="Group_47">
				<path id="Path_46" class="st3" d="M-3725.3-792.3v-30.5h-86.5v154.6h182.7v-124.1H-3725.3z"/>
				<path id="Path_47" class="st4" d="M-3628.5-667h-182.7c-1,0-1.9-0.8-1.9-1.8c0,0,0,0,0,0v-154.5c0-1,0.8-1.9,1.8-1.9
					c0,0,0,0,0,0h86.5c1,0,1.9,0.8,1.9,1.8c0,0,0,0,0,0v28.6h94.3c1,0,1.9,0.8,1.9,1.8c0,0,0,0,0,0v124.1
					C-3626.7-667.8-3627.5-667-3628.5-667z M-3809.3-670.6h178.9v-120.5h-94.3c-1,0-1.9-0.8-1.9-1.8c0,0,0,0,0,0v-28.6h-82.8v151
					H-3809.3z"/>
			</g>
			<g id="Group_48" transform="translate(58.511 30.461)">
				<line id="Line_4" class="st12" x1="-3783.9" y1="-822.8" x2="-3813" y2="-822.8"/>
				<rect id="Rectangle_26" x="-3813" y="-825.2" class="st4" width="29.3" height="3.6"/>
			</g>
		</g>
		<g id="Group_54" transform="translate(388.427 120.308)">
			<path id="Path_48" class="st13" d="M-3555-815.6c0-6-6.5-9.6-12.5-9.6h-213.4c-6,0-11.5,3.6-11.5,9.6v154.7h237.4V-815.6z"/>
			<g id="Group_50" transform="translate(0 163.041)">
				<path id="Path_49" class="st14" d="M-3811.8-822.7v11.3c0,6,7.9,11.8,14.8,11.8h245.8c6.6,0,12-5.2,12.2-11.8v-11.3H-3811.8z"/>
				<path id="Path_50" class="st4" d="M-3551.3-798.4H-3797c-7.6,0-16-5.6-16-13v-11.9c0-1,0.8-1.9,1.8-1.9c0,0,0,0,0,0h272.6
					c1,0,1.9,0.8,1.9,1.8c0,0,0,0,0,0v11.9C-3536.7-804.3-3543.3-798.4-3551.3-798.4z M-3809.4-821.5v10.1c0,4.7,6.1,9.4,12.4,9.4
					h245.8c5.9,0,11-4.3,11-9.4v-10.1H-3809.4z"/>
			</g>
			<g id="Group_51" transform="translate(33.967 9.752)">
				<rect id="Rectangle_27" x="-3811.7" y="-822.8" class="st11" width="204.6" height="138.8"/>
				<path id="Path_51" class="st4" d="M-3606.6-682.8h-204.6c-1,0-1.9-0.8-1.9-1.8c0,0,0,0,0,0v-138.7c0-1,0.8-1.9,1.8-1.9
					c0,0,0,0,0,0h204.6c1,0,1.9,0.8,1.9,1.8c0,0,0,0,0,0v138.8C-3604.8-683.6-3605.6-682.8-3606.6-682.8z M-3809.3-686.4h200.8
					v-135.2h-200.8V-686.4z"/>
			</g>
			<g id="Group_52" transform="translate(125.348 176.518)">
				<rect id="Rectangle_28" x="-3813" y="-825.2" class="st4" width="28" height="3.6"/>
			</g>
			<g id="Group_53" transform="translate(54.676 29.255)" class="st15">
				<rect id="Rectangle_29" x="-3660.8" y="-825.2" class="st5" width="18.3" height="32.9"/>
				<rect id="Rectangle_30" x="-3813" y="-825.2" class="st5" width="141.2" height="32.9"/>
				<rect id="Rectangle_31" x="-3813" y="-781.4" class="st5" width="39" height="32.9"/>
				<rect id="Rectangle_32" x="-3766.7" y="-781.4" class="st5" width="121.7" height="32.9"/>
				<rect id="Rectangle_33" x="-3813" y="-737.6" class="st5" width="168" height="15.8"/>
			</g>
		</g>
		<g id="Group_58" transform="translate(188.68 209.06)">
			<g id="Group_55">
				<rect id="Rectangle_34" x="-3811.8" y="-822.7" class="st5" width="124.1" height="97.4"/>
				<path id="Path_52" class="st4" d="M-3687-724.1h-124.1c-1,0-1.9-0.8-1.9-1.8c0,0,0,0,0,0v-97.4c0-1,0.8-1.9,1.8-1.9c0,0,0,0,0,0
					h124.1c1,0,1.9,0.8,1.9,1.8c0,0,0,0,0,0v97.4C-3685.1-724.9-3685.9-724.1-3687-724.1C-3687-724.1-3687-724.1-3687-724.1z
					 M-3809.3-727.7h120.5v-93.8h-120.5L-3809.3-727.7z"/>
			</g>
			<rect id="Rectangle_35" x="-3800.8" y="-811.7" class="st10" width="106" height="74.3"/>
			<g id="Group_56" transform="translate(11.176 37.993)">
				<path id="Path_53" class="st4" d="M-3728-797.3l-41.2-23.7l-42.1,21.8l-1.8-3.5l43.1-22.4c0.6-0.3,1.3-0.3,1.9,0l42.1,24.2
					L-3728-797.3z"/>
			</g>
			<g id="Group_57" transform="translate(77.904 38.079)">
				<path id="Path_54" class="st4" d="M-3775.7-807.7l-20.2-13l-14.5,12.9l-2.6-3l15.7-13.9c0.6-0.6,1.6-0.6,2.3-0.2l21.4,13.9
					L-3775.7-807.7z"/>
			</g>
			<path id="Path_55" class="st5" d="M-3729.6-798.7c0,5.4-4.4,9.8-9.8,9.8c-5.4,0-9.8-4.4-9.8-9.8s4.4-9.8,9.8-9.8l0,0
				C-3734-808.4-3729.6-804.1-3729.6-798.7z"/>
		</g>
		<g id="Group_65" transform="translate(491.861 182.215)">
			<g id="Group_61">
				<g id="Group_59">
					<path id="Path_56" class="st4" d="M-3803.5-804.8l-9-8.9c-0.4-0.4-0.6-0.9-0.5-1.4c0-0.5,0.2-1,0.5-1.4l9-8.7l2.7,2.8l-7.6,7.3
						l7.6,7.5L-3803.5-804.8z"/>
				</g>
				<g id="Group_60" transform="translate(2.411 8.656)">
					<rect id="Rectangle_36" x="-3813" y="-825.2" class="st4" width="56" height="3.6"/>
				</g>
			</g>
			<g id="Group_64" transform="translate(13.368 22.681)">
				<g id="Group_62" transform="translate(45.91)">
					<path id="Path_57" class="st4" d="M-3810.3-804.8l-2.7-2.8l7.6-7.3l-7.6-7.5l2.7-2.7l9,8.9c0.4,0.4,0.6,0.9,0.5,1.4
						c0,0.5-0.2,1-0.5,1.4L-3810.3-804.8z"/>
				</g>
				<g id="Group_63" transform="translate(0 9.204)">
					<rect id="Rectangle_37" x="-3813" y="-825.2" class="st4" width="56" height="3.6"/>
				</g>
			</g>
		</g>
		<g id="Group_74" transform="translate(44.376 228.454)">
			<g id="Group_69">
				<g id="Group_68">
					<g id="Group_66">
						<path id="Path_58" class="st4" d="M-3804.7-807.1l-7.8-7.8c-0.4-0.4-0.6-0.9-0.5-1.4c0-0.5,0.2-1,0.5-1.4l7.7-7.5l2.7,2.7
							l-6.2,6.1l6.5,6.4L-3804.7-807.1z"/>
					</g>
					<g id="Group_67" transform="translate(1.863 7.56)">
						<rect id="Rectangle_38" x="-3813" y="-825.2" class="st4" width="31.7" height="3.6"/>
					</g>
				</g>
			</g>
			<g id="Group_73" transform="translate(14.025 17.75)">
				<g id="Group_72">
					<g id="Group_70" transform="translate(23.01)">
						<path id="Path_59" class="st4" d="M-3810-807.3l-2.7-2.7l6.2-6.1l-6.5-6.4l2.7-2.7l7.8,7.8c0.4,0.4,0.6,0.9,0.5,1.4
							c0,0.5-0.2,1-0.5,1.4L-3810-807.3z"/>
					</g>
					<g id="Group_71" transform="translate(0 7.999)">
						<rect id="Rectangle_39" x="-3813" y="-825.2" class="st4" width="31.7" height="3.6"/>
					</g>
				</g>
			</g>
		</g>
		<g id="Group_83" transform="translate(278.747 37.035)">
			<g id="Group_78">
				<g id="Group_77">
					<g id="Group_75">
						<path id="Path_60" class="st4" d="M-3804.7-807.1l-7.8-7.8c-0.4-0.4-0.6-0.9-0.5-1.4c0-0.5,0.2-1,0.5-1.4l7.7-7.5l2.7,2.7
							l-6.2,6.1l6.5,6.4L-3804.7-807.1z"/>
					</g>
					<g id="Group_76" transform="translate(1.315 7.779)">
						<rect id="Rectangle_40" x="-3813" y="-825.2" class="st4" width="32.9" height="3.6"/>
					</g>
				</g>
			</g>
			<g id="Group_82" transform="translate(13.477 17.75)">
				<g id="Group_81">
					<g id="Group_79" transform="translate(23.558)">
						<path id="Path_61" class="st4" d="M-3810-807.3l-2.7-2.7l6.2-6.1l-6.5-6.4l2.7-2.7l7.8,7.8c0.4,0.4,0.6,0.9,0.5,1.4
							c0,0.5-0.2,1-0.5,1.4L-3810-807.3z"/>
					</g>
					<g id="Group_80" transform="translate(0 7.122)">
						<rect id="Rectangle_41" x="-3813" y="-825.2" class="st4" width="32.9" height="3.6"/>
					</g>
				</g>
			</g>
		</g>
		<g id="Group_92" transform="translate(689.197 255.956)">
			<g id="Group_87">
				<g id="Group_86">
					<g id="Group_84">
						<path id="Path_62" class="st4" d="M-3804.7-807.1l-7.8-7.8c-0.4-0.4-0.6-0.9-0.5-1.4c0-0.5,0.2-1,0.5-1.4l7.7-7.5l2.7,2.7
							l-6.2,6.1l6.5,6.4L-3804.7-807.1z"/>
					</g>
					<g id="Group_85" transform="translate(2.301 7.999)">
						<rect id="Rectangle_42" x="-3813" y="-825.2" class="st4" width="31.7" height="3.6"/>
					</g>
				</g>
			</g>
			<g id="Group_91" transform="translate(14.463 17.75)">
				<g id="Group_90">
					<g id="Group_88" transform="translate(22.571)">
						<path id="Path_63" class="st4" d="M-3810-807.3l-2.7-2.7l6.2-6.1l-6.5-6.4l2.7-2.7l7.8,7.8c0.4,0.4,0.6,0.9,0.5,1.4
							c0,0.5-0.2,1-0.5,1.4L-3810-807.3z"/>
					</g>
					<g id="Group_89" transform="translate(0 7.341)">
						<rect id="Rectangle_43" x="-3813" y="-825.2" class="st4" width="31.7" height="3.6"/>
					</g>
				</g>
			</g>
		</g>
		<g id="Group_101" transform="translate(580.284 62.346)">
			<g id="Group_96">
				<g id="Group_95">
					<g id="Group_93">
						<path id="Path_64" class="st4" d="M-3804.7-807.1l-7.8-7.8c-0.4-0.4-0.6-0.9-0.5-1.4c0-0.5,0.2-1,0.5-1.4l7.7-7.5l2.7,2.7
							l-6.2,6.1l6.5,6.4L-3804.7-807.1z"/>
					</g>
					<g id="Group_94" transform="translate(1.643 7.999)">
						<rect id="Rectangle_44" x="-3813" y="-825.2" class="st4" width="31.7" height="3.6"/>
					</g>
				</g>
			</g>
			<g id="Group_100" transform="translate(13.806 17.75)">
				<g id="Group_99">
					<g id="Group_97" transform="translate(23.229)">
						<path id="Path_65" class="st4" d="M-3810-807.3l-2.7-2.7l6.2-6.1l-6.5-6.4l2.7-2.7l7.8,7.8c0.4,0.4,0.6,0.9,0.5,1.4
							c0,0.5-0.2,1-0.5,1.4L-3810-807.3z"/>
					</g>
					<g id="Group_98" transform="translate(0 7.341)">
						<rect id="Rectangle_45" x="-3813" y="-825.2" class="st4" width="31.7" height="3.6"/>
					</g>
				</g>
			</g>
		</g>
	</g>
	<g id="Group_215" transform="translate(730.929 770.37)">
		<path id="Path_66" class="st16" d="M-3302.2-722v79.3h78.2v-21.5l53.2,39.9l-53.1,39.9v-21.3h-115.3v-79.4h-111V-722H-3302.2z"/>
		<path id="Path_67" class="st16" d="M-3673-553.5v-79.3h-78.2v21l-53.3-39.9l53-39.7v21.5h115.4v79.4h58.7v36.9H-3673z"/>
		<g id="Group_103" transform="translate(238.973 107.16)">
			<path id="Path_68" class="st4" d="M-3726.8-649.7c-3.3,0-6.7-0.3-10-0.8l0.5-3.8c3.2,0.4,6.3,0.7,9.5,0.7L-3726.8-649.7z
				 M-3716.8-650.1l-0.3-3.8c3.2-0.3,6.3-0.8,9.4-1.4l0.8,3.8C-3710.2-650.9-3713.5-650.5-3716.8-650.1L-3716.8-650.1z
				 M-3746.5-652.3c-3.2-0.8-6.4-1.8-9.5-3l1.3-3.6c3,1.1,6,2.1,9.1,2.8L-3746.5-652.3z M-3697.4-654.2l-1.2-3.7
				c3-1,5.9-2.2,8.9-3.5l1.6,3.5C-3691.1-656.5-3694.2-655.3-3697.4-654.2L-3697.4-654.2z M-3765.1-659.2c-2.9-1.5-5.8-3.2-8.5-5
				l2.2-3.3c2.6,1.8,5.4,3.4,8.2,4.8L-3765.1-659.2z M-3679.3-662.6l-2.1-3.3c2.7-1.6,5.3-3.5,7.8-5.5l2.4,3.1
				C-3673.8-666.3-3676.5-664.4-3679.3-662.6L-3679.3-662.6z M-3781.7-670.2c-2.5-2.1-5-4.4-7.2-6.8l2.8-2.6
				c2.2,2.3,4.5,4.5,6.9,6.5L-3781.7-670.2z M-3663.8-674.9l-2.7-2.7c2.3-2.2,4.4-4.5,6.4-7l3.1,2.4
				C-3659.1-679.6-3661.4-677.2-3663.8-674.9L-3663.8-674.9z M-3795.4-684.6c-2-2.6-3.8-5.4-5.6-8.2l3.4-2c1.6,2.7,3.4,5.4,5.3,7.9
				L-3795.4-684.6z M-3651.2-690.3l-3.3-2.1c1.7-2.7,3.3-5.4,4.6-8.3l3.5,1.8C-3647.8-696-3649.4-693.1-3651.2-690.3L-3651.2-690.3z
				 M-3805.4-701.7c-1.3-3-2.5-6.1-3.5-9.3l3.7-1.2c1,3,2.1,6,3.4,8.9L-3805.4-701.7z M-3642.5-708.2l-3.7-1.3c1.1-3,2-6,2.6-9.1
				l3.8,0.9C-3640.5-714.5-3641.4-711.3-3642.5-708.2L-3642.5-708.2z M-3811.5-720.7c-0.7-3.3-1.1-6.5-1.3-9.9l3.8-0.3
				c0.2,3.2,0.7,6.3,1.3,9.4L-3811.5-720.7z M-3638-727.6l-3.8-0.4c0.3-3.2,0.5-6.3,0.5-9.5h3.9
				C-3637.5-734.2-3637.7-730.9-3638-727.6L-3638-727.6z M-3809.1-740.4l-3.9-0.1c0.1-3.3,0.4-6.6,0.9-9.9l3.8,0.5
				C-3808.7-746.7-3809-743.6-3809.1-740.4L-3809.1-740.4z M-3641.4-741.3c-0.1-3.2-0.4-6.3-1-9.4l3.8-0.7c0.5,3.3,0.9,6.6,1,9.9
				L-3641.4-741.3z M-3806.3-759.1l-3.7-1c0.9-3.2,1.9-6.3,3.1-9.4l3.6,1.4C-3804.5-765.2-3805.5-762.2-3806.3-759.1L-3806.3-759.1z
				 M-3644.4-760c-0.9-3-1.9-6-3.1-9l3.6-1.4c1.2,3.1,2.3,6.2,3.2,9.4L-3644.4-760z M-3799.3-776.8l-3.4-1.9
				c1.5-2.9,3.3-5.8,5.1-8.5l3.2,2.2C-3796.2-782.4-3797.9-779.7-3799.3-776.8z M-3651.6-777.7c-1.5-2.8-3.2-5.5-5-8.1l3.2-2.2
				c1.9,2.7,3.6,5.6,5.3,8.4L-3651.6-777.7z M-3788.6-792.5l-3-2.5c2.2-2.5,4.5-4.9,6.9-7.1l2.6,2.8
				C-3784.3-797.1-3786.5-794.9-3788.6-792.5z M-3662.4-793.1c-2.1-2.4-4.4-4.6-6.7-6.8l2.6-2.8c2.4,2.2,4.8,4.6,7,7L-3662.4-793.1z
				 M-3774.6-805.3l-2.3-3.2c2.7-2,5.4-3.7,8.3-5.4l2,3.4C-3769.4-808.9-3772.1-807.1-3774.6-805.3L-3774.6-805.3z M-3676.6-805.8
				c-2.6-1.8-5.2-3.5-8-5l1.9-3.4c2.8,1.6,5.7,3.4,8.4,5.3L-3676.6-805.8z M-3758.1-814.7l-1.5-3.6c3.1-1.3,6.2-2.4,9.3-3.4l1.1,3.7
				C-3752.2-817-3755.1-815.9-3758.1-814.7L-3758.1-814.7z M-3693.2-815c-2.9-1.2-5.9-2.3-9-3.2l1.1-3.7c3.2,0.9,6.4,2,9.4,3.3
				L-3693.2-815z M-3739.9-820.1l-0.7-3.8c3.3-0.5,6.6-1,9.9-1.2l0.2,3.8C-3733.6-821.1-3736.7-820.6-3739.9-820.1L-3739.9-820.1z
				 M-3711.4-820.3c-3.1-0.6-6.3-0.9-9.4-1l0.2-3.9c3.3,0.2,6.6,0.6,9.9,1.1L-3711.4-820.3z"/>
		</g>
		<path id="Path_69" class="st11" d="M-3485.4-530.6c-54.9,0-99.5-44.6-99.4-99.6c0-54.7,44.2-99.1,98.9-99.4v-49
			c-82,0.3-148.2,67-147.9,149c0.3,82,67,148.2,149,147.9c38.3-0.1,75.1-15.1,102.7-41.7c-11.5-11.6-23.1-23.6-34.3-34.8
			C-3435.1-540.5-3459.7-530.6-3485.4-530.6z"/>
		<g id="Group_104" transform="translate(325.095 44.705)">
			<path id="Path_70" class="st14" d="M-3662.1-674.8c0-82-66.4-148.5-148.4-148.5c0,0,0,0,0,0h-0.5v49h0.5
				c55,0,99.5,44.6,99.5,99.5c0,27.1-11,53-30.6,71.8c11.2,11.4,22.8,23.2,34.3,34.8C-3678.4-596.1-3662.1-634.6-3662.1-674.8z"/>
			<path id="Path_71" class="st4" d="M-3707.3-566.2c-0.5,0-1-0.2-1.4-0.5c-10.7-10.8-22.2-22.6-34.3-34.8c-0.4-0.4-0.6-0.9-0.5-1.4
				c0-0.5,0.2-1,0.5-1.4c38.9-37.3,40.2-99,2.9-137.8c-18.4-19.2-43.8-30-70.4-30h-0.5c-1.1,0-2-0.9-2-2c0,0,0,0,0,0v-49
				c0-1.1,0.9-2,2-2c0,0,0,0,0,0h0.5c82.9,0,150.3,67.5,150.3,150.3c0.1,40.8-16.4,79.8-45.8,108
				C-3706.3-566.5-3706.8-566.2-3707.3-566.2z M-3738.8-603c11.1,11.3,21.7,22.1,31.6,32.1c27.8-27.4,43.4-64.8,43.3-103.9
				c0-80.3-65-145.7-145.1-146.5v45c56,0.8,100.8,46.8,100,102.8C-3709.4-647-3720.1-621.7-3738.8-603L-3738.8-603z"/>
		</g>
		<g id="Group_106" transform="translate(256.175 124.034)">
			<path id="Path_72" class="st3" d="M-3811-753.6c0.2,36.9,30.8,68.2,68.8,68.2v-68.2H-3811z"/>
			<g id="Group_105">
				<path id="Path_73" class="st14" d="M-3742.1-753.6v68.2c38-0.1,68.7-31,68.6-69c-0.1-38-31-68.7-69-68.6
					c-38,0.1-68.7,31-68.6,69v0.5h69V-753.6z"/>
				<path id="Path_74" class="st4" d="M-3742.1-683.5c-1.1,0-2-0.9-2-2c0,0,0,0,0,0v-66.2h-66.9c-1.1,0-1.9-0.8-2-1.9v-0.7
					c-0.1-39.1,31.6-70.8,70.7-70.9c39.1-0.1,70.8,31.6,70.9,70.7C-3671.4-715.3-3703-683.6-3742.1-683.5L-3742.1-683.5z
					 M-3809.1-755.5h66.9c1.1,0,2,0.9,2,2c0,0,0,0,0,0v66.2c36.9-1.1,66-32,64.9-68.9s-32-66-68.9-64.9
					C-3779.8-820.1-3808.4-791.2-3809.1-755.5L-3809.1-755.5z"/>
			</g>
		</g>
		<g id="Group_107" transform="translate(315.124 249.163)">
			<rect id="Rectangle_46" x="-3813" y="-825.2" class="st4" width="11.9" height="3.9"/>
		</g>
		<g id="Group_108" transform="translate(300.99 238.315)">
			<rect id="Rectangle_47" x="-3813" y="-825.2" class="st4" width="26.1" height="3.9"/>
		</g>
		<g id="Group_109" transform="translate(285.759 227.358)">
			<rect id="Rectangle_48" x="-3813" y="-825.2" class="st4" width="41.3" height="3.9"/>
		</g>
		<g id="Group_110" transform="translate(276.994 216.511)">
			<rect id="Rectangle_49" x="-3813" y="-825.2" class="st4" width="50" height="3.9"/>
		</g>
		<g id="Group_111" transform="translate(268.338 205.663)">
			<rect id="Rectangle_50" x="-3813" y="-825.2" class="st4" width="58.7" height="3.9"/>
		</g>
		<g id="Group_134" transform="translate(116.473 81.52)">
			<g id="Group_119">
				<g id="Group_118">
					<g id="Group_112">
						<path id="Path_75" class="st5" d="M-3690.2-762.9c0-33.3-27-60.3-60.4-60.4c-33.3,0-60.6,27-60.6,60.3
							c0,29.5,21.7,54,48.9,59.3v81.6h22.8v-81.6C-3712.2-708.8-3690.2-733.3-3690.2-762.9z"/>
						<path id="Path_76" class="st4" d="M-3739.4-620h-22.8c-1.1,0-2-0.9-2-2c0,0,0,0,0,0v-80.1c-28-6.1-48.9-32.1-48.9-60.9
							c0-34.5,27.9-62.4,62.4-62.4c34.5,0,62.4,27.9,62.4,62.4c0,28.9-21,54.8-49.2,60.9v80C-3737.4-621-3738.3-620.1-3739.4-620z
							 M-3760.3-623.8h19v-79.7c0-0.9,0.6-1.7,1.5-1.9c27.2-5.2,47.7-29.8,47.7-57.4c-0.1-32.3-26.5-58.5-58.8-58.3
							c-32.2,0.1-58.2,26.2-58.3,58.3c0,27.5,20.4,52.2,47.3,57.4c0.9,0.2,1.5,1,1.5,1.9v79.7H-3760.3z"/>
					</g>
					<g id="Group_113" transform="translate(50.731 119.76)">
						<rect id="Rectangle_51" x="-3813" y="-825.2" class="st4" width="11.9" height="3.9"/>
					</g>
					<g id="Group_114" transform="translate(53.142 201.281)">
						<rect id="Rectangle_52" x="-3811" y="-823.2" class="st10" width="14.1" height="10.8"/>
						<path id="Path_77" class="st4" d="M-3796.9-810.4h-14.1c-1.1,0-2-0.9-2-2c0,0,0,0,0,0v-10.8c0-1.1,0.9-2,2-2c0,0,0,0,0,0h14.1
							c1.1,0,2,0.9,2,2c0,0,0,0,0,0v10.8C-3794.9-811.3-3795.8-810.4-3796.9-810.4C-3796.9-810.4-3796.9-810.4-3796.9-810.4z
							 M-3809.1-814.3h10.2v-7h-10.2V-814.3z"/>
					</g>
					<rect id="Rectangle_53" x="-3769.8" y="-688.3" class="st6" width="39.1" height="52.2"/>
					<g id="Group_115" transform="translate(49.635 148.029)">
						<rect id="Rectangle_54" x="-3813" y="-825.2" class="st4" width="25" height="3.9"/>
					</g>
					<g id="Group_116" transform="translate(49.635 161.068)">
						<rect id="Rectangle_55" x="-3813" y="-825.2" class="st4" width="25" height="3.9"/>
					</g>
					<g id="Group_117" transform="translate(49.635 175.203)">
						<rect id="Rectangle_56" x="-3813" y="-825.2" class="st4" width="25" height="3.9"/>
					</g>
				</g>
				<path id="Path_78" class="st3" d="M-3703.5-763c0,26.4-21.4,47.8-47.8,47.8s-47.8-21.4-47.8-47.8c0-26.4,21.4-47.8,47.8-47.8
					c0,0,0,0,0,0C-3724.9-810.8-3703.6-789.4-3703.5-763C-3703.5-763-3703.5-763-3703.5-763z"/>
			</g>
			<g id="Group_120" transform="translate(56.648 70.344)">
				<path id="Path_79" class="st4" d="M-3809.9-783.5c-1,0-2,0-3.1-0.1l0.1-3.9c42.5,1.8,49.7-36.2,50-37.7l3.8,0.7
					C-3759.1-824.1-3766.7-783.5-3809.9-783.5z"/>
			</g>
			<g id="Group_121" transform="translate(37.692 39.117)" class="st17">
				<rect id="Rectangle_57" x="-3795.6" y="-808.9" class="st5" width="13" height="32.7"/>
				<rect id="Rectangle_58" x="-3813" y="-797" class="st5" width="13" height="20.7"/>
				<rect id="Rectangle_59" x="-3777.1" y="-825.2" class="st5" width="13" height="49"/>
			</g>
			<g id="Group_124" transform="translate(20.161 45.8)">
				<g id="Group_122" transform="translate(63.112)">
					<path id="Path_80" class="st4" d="M-3801.2-813.4h-3.9v-7.9h-7.9v-3.9h9.8c1.1,0,2,0.9,2,2c0,0,0,0,0,0v9.9L-3801.2-813.4z"/>
				</g>
				<g id="Group_123" transform="translate(0 0.438)">
					<path id="Path_81" class="st4" d="M-3810.7-783.4l-2.3-3.2l9.8-7.2c0.4-0.3,0.8-0.4,1.2-0.4h28.3l32.7-31l2.7,2.8l-33.2,31.6
						c-0.4,0.3-0.8,0.5-1.3,0.5h-28.4L-3810.7-783.4z"/>
				</g>
			</g>
			<g id="Group_127" transform="translate(29.036 36.049)">
				<g id="Group_125">
					<rect id="Rectangle_60" x="-3813" y="-825.2" class="st4" width="7.6" height="3.9"/>
				</g>
				<g id="Group_126" transform="translate(11.943)">
					<rect id="Rectangle_61" x="-3813" y="-825.2" class="st4" width="22.8" height="3.9"/>
				</g>
			</g>
			<g id="Group_130" transform="translate(29.036 46.896)">
				<g id="Group_128">
					<rect id="Rectangle_62" x="-3813" y="-825.2" class="st4" width="7.6" height="3.9"/>
				</g>
				<g id="Group_129" transform="translate(11.943)">
					<rect id="Rectangle_63" x="-3813" y="-825.2" class="st4" width="22.8" height="3.9"/>
				</g>
			</g>
			<g id="Group_133" transform="translate(29.036 57.853)">
				<g id="Group_131">
					<rect id="Rectangle_64" x="-3813" y="-825.2" class="st4" width="7.6" height="3.9"/>
				</g>
				<g id="Group_132" transform="translate(11.943)">
					<rect id="Rectangle_65" x="-3813" y="-825.2" class="st4" width="22.8" height="3.9"/>
				</g>
			</g>
		</g>
		<g id="Group_136" transform="translate(198.98 265.379)">
			<g id="Group_135">
				<path id="Path_82" class="st7" d="M-3757.8-737.2v-10.6c1.1-0.7,4.2-1.4,5.9-2.4l7.7,7.6c0.7,0.7,1.8,0.8,2.5,0.1
					c0,0,0.1-0.1,0.1-0.1l10.8-10.8c0.7-0.7,0.8-1.8,0.1-2.5c0,0-0.1-0.1-0.1-0.1l-7.6-7.2c1-1.7,1.8-3.6,2.4-5.5h10.6
					c1,0,1.1-1.4,1.1-2.4v-15.3c0-1-0.1-3-1.1-3h-10.6c-0.7-1.1-1.4-3.4-2.4-5.3l7.6-7.2c0.7-0.5,0.8-1.5,0.2-2.2
					c-0.1-0.1-0.1-0.2-0.2-0.2l-10.8-10.7c-0.7-0.7-1.9-0.7-2.6,0l-7.7,7.6c-1.9-1-4.8-1.8-5.9-2.4v-10.6c0-1-0.4-2.5-1.5-2.5h-15.3
					c-1,0-2.7,1.5-2.7,2.5v10.6c-1.1,0.7-3.5,1.4-5.3,2.4l-7.3-7.6c-0.6-0.7-1.7-0.8-2.4-0.2c-0.1,0.1-0.1,0.1-0.2,0.2l-10.7,10.8
					c-0.7,0.7-0.7,1.9,0,2.6l7.6,7c-1,1.9-1.8,4.2-2.4,5.3h-10.6c-1,0-2.4,1.9-2.4,3v15.3c0.2,1.2,1.2,2.2,2.4,2.4h10.6
					c0.6,1.9,1.4,3.7,2.4,5.5l-7.6,7.5c-0.7,0.6-0.8,1.7-0.2,2.4c0.1,0.1,0.1,0.1,0.2,0.2l10.8,10.7c0.7,0.7,1.9,0.7,2.6,0l7.1-7.6
					c1.9,1,4.2,1.8,5.3,2.4v10.6c0,1,1.8,1,2.7,1h15.3C-3758.2-736.2-3757.8-736.1-3757.8-737.2z"/>
				<path id="Path_83" class="st4" d="M-3759.1-734.3h-15.7c-3,0-4.5-1-4.5-3v-9.4c-0.3-0.1-0.7-0.2-1-0.4c-0.7-0.2-1.3-0.5-2-0.9
					l-6.1,6.5c-1.5,1.5-3.9,1.6-5.4,0.1l-10.8-10.7c-0.7-0.7-1.1-1.6-1.1-2.6c0-1,0.4-1.9,1.1-2.6l6.6-6.4c-0.6-1-1-2.1-1.4-3.2
					h-9.2c-2.3-0.2-4.1-2.1-4.4-4.4v-15.3c0-1.9,2.1-4.8,4.4-4.8h9.4c0.1-0.3,0.2-0.7,0.4-1c0.2-0.6,0.5-1.3,0.9-1.9l-6.5-6
					c-1.5-1.5-1.6-3.9-0.1-5.4l10.7-10.8c1.5-1.4,3.8-1.4,5.3,0l6.4,6.6c0.7-0.3,1.3-0.5,2-0.9c0.3-0.1,0.7-0.3,1-0.4v-9.4
					c0-2.2,2.7-4.5,4.7-4.5h15.3c2.2,0,3.4,2.3,3.4,4.5v9.4c0.4,0.1,0.8,0.2,1.1,0.4c0.8,0.3,1.6,0.5,2.5,0.9l6.8-6.6
					c1.5-1.4,3.9-1.4,5.4,0l10.8,10.7c1.5,1.3,1.5,3.6,0.2,5.1c-0.1,0.1-0.1,0.1-0.2,0.2l-6.6,6.4c0.3,0.7,0.5,1.3,0.9,2
					c0.1,0.3,0.3,0.7,0.4,1h9.4c1.1,0,3.1,0.7,3.1,4.8v15.3c0,3.8-1.9,4.4-3.1,4.4h-9.2c-0.4,1.1-0.9,2.2-1.4,3.2l6.5,6.2
					c0.7,0.7,1.1,1.6,1.1,2.6c0,1-0.4,2-1.1,2.7l-10.9,10.8c-1.5,1.4-3.9,1.4-5.4,0l-6.7-6.6c-0.8,0.3-1.6,0.7-2.5,1
					c-0.4,0.1-0.8,0.2-1.1,0.4v9.4c0.1,1-0.4,2-1.3,2.5H-3759.1z M-3775.4-738.1h15.7v-9.8c0-0.7,0.4-1.3,1-1.6
					c0.7-0.3,1.6-0.7,2.7-1.1s2.4-0.9,3.3-1.3c0.8-0.4,1.7-0.3,2.3,0.3l7.7,7.6l10.6-10.7l-7.5-7.1c-0.6-0.6-0.8-1.6-0.3-2.3
					l0.1-0.2c0.9-1.5,1.6-3.1,2.1-4.8c0.2-0.9,1-1.4,1.9-1.4h9.9v-16.9h-9.9c-0.7,0-1.3-0.4-1.6-1c-0.3-0.7-0.7-1.4-1.1-2.3
					c-0.4-1-0.9-2.1-1.3-3c-0.4-0.8-0.3-1.7,0.3-2.3l7.3-7.1l-10.6-10.5l-7.7,7.6c-0.6,0.6-1.5,0.7-2.3,0.3
					c-1.1-0.5-2.2-0.9-3.3-1.3c-1.1-0.4-2.1-0.8-2.7-1.1c-0.6-0.3-1-1-1-1.6v-10.6c0-0.2,0-0.4-0.1-0.5h-14.7
					c-0.3,0.2-0.6,0.5-0.9,0.8v10.5c0,0.7-0.4,1.3-1,1.6c-0.7,0.3-1.4,0.7-2.4,1.1c-1,0.4-2.1,0.9-3,1.3c-0.8,0.4-1.7,0.3-2.3-0.3
					l-7.1-7.3l-10.5,10.5l7.5,6.9c0.6,0.6,0.8,1.5,0.4,2.3c-0.5,1-0.9,1.9-1.3,3c-0.3,0.8-0.7,1.6-1.1,2.3c-0.3,0.6-1,1-1.6,1h-10.4
					c-0.3,0.3-0.6,0.7-0.8,1.1v15.1c0.1,0.3,0.3,0.5,0.5,0.7h10.5c0.9,0,1.7,0.6,1.9,1.4c0.5,1.7,1.2,3.3,2.1,4.8l0.1,0.2
					c0.4,0.8,0.3,1.7-0.3,2.3l-7.5,7.2l10.6,10.5l7-7.5c0.6-0.6,1.6-0.8,2.3-0.3c1,0.5,1.9,0.9,3,1.3c1,0.4,1.8,0.8,2.4,1.1
					c0.6,0.3,1,1,1,1.6v9.6L-3775.4-738.1z"/>
			</g>
			<path id="Path_84" class="st10" d="M-3767.3-764.7c-7.6,0-13.7-6.1-13.7-13.7c0-7.6,6.1-13.7,13.7-13.7c7.6,0,13.7,6.1,13.7,13.7
				C-3753.6-770.9-3759.7-764.7-3767.3-764.7C-3767.3-764.7-3767.3-764.7-3767.3-764.7z"/>
		</g>
		<g id="Group_138" transform="translate(291.457 315.453)">
			<g id="Group_137">
				<path id="Path_85" class="st7" d="M-3778.5-771.3v-6.5c0-0.3,2.3-0.9,3.4-1.4l4.5,4.5c0.4,0.4,1.1,0.4,1.5,0c0,0,0,0,0,0
					l6.5-6.5c0.4-0.4,0.4-1.1,0-1.5c0,0,0,0,0,0l-4.5-4.5c0.6-1.1,1-2.2,1.4-3.4h6.5c0.7,0,0.3-0.5,0.3-1.2v-9.2
					c0-0.7,0.2-1.5-0.3-1.5h-6.5c-0.4-1.1-0.9-2.2-1.4-3.3l4.5-4.4c0.4-0.4,0.4-1.1,0-1.5c0,0,0,0,0,0l-6.5-6.5
					c-0.4-0.4-1.1-0.4-1.5,0c0,0,0,0,0,0l-4.5,4.5c-1.1-0.5-3.4-1.1-3.4-1.4v-6.5c0-0.7-0.7-1.8-1.3-1.8h-9.2
					c-0.7,0-1.5,1.1-1.5,1.8v6.5c-1.1,0.4-2.2,0.9-3.3,1.4l-4.5-4.5c-0.4-0.4-1.1-0.4-1.5,0c0,0,0,0,0,0l-6.5,6.5
					c-0.4,0.4-0.4,1.1,0,1.5c0,0,0,0,0,0l4.6,4.3c-0.6,1.1-1,2.2-1.4,3.3h-6.5c-0.8,0.2-1.4,0.8-1.6,1.5v9.2c0,0.7,1.1,1.2,1.6,1.2
					h6.5c0.4,1.2,0.9,2.3,1.4,3.4l-4.5,4.5c-0.4,0.4-0.4,1.1,0,1.5c0,0,0,0,0,0l6.5,6.5c0.4,0.4,1.1,0.4,1.5,0c0,0,0,0,0,0l4.4-4.5
					c1.1,0.6,2.2,1,3.3,1.4v6.5c0,0.7,0.9,0.2,1.5,0.2h9.2C-3779.1-771.1-3778.5-770.8-3778.5-771.3z"/>
				<path id="Path_86" class="st4" d="M-3778.8-769L-3778.8-769c-0.2,0-0.5,0-0.7-0.1h-9.6c-0.2,0-0.5,0.1-0.8,0.1
					c-1.3,0-2.4-1-2.4-2.3c0,0,0,0,0,0v-5c-0.3-0.1-0.6-0.2-0.9-0.4l-3.4,3.5c-1.2,1.2-3.2,1.2-4.4,0l-6.5-6.5
					c-0.6-0.6-0.9-1.4-0.9-2.2c0-0.8,0.3-1.6,0.9-2.2l3.5-3.5c-0.2-0.4-0.3-0.7-0.4-1.1h-5c-1.4,0-3.6-1.2-3.6-3.2v-9.1
					c0.2-1.9,1.7-3.3,3.6-3.5h5c0.1-0.3,0.2-0.6,0.4-0.9l-3.5-3.3c-1.2-1.2-1.2-3.1-0.1-4.4l6.5-6.5c0.6-0.6,1.3-0.9,2.1-0.9l0,0
					c0.8,0,1.6,0.3,2.2,0.9l3.5,3.5c0.3-0.1,0.6-0.3,0.9-0.4v-5c0-1.6,1.6-3.7,3.4-3.7h9.2c2,0,3.2,2.2,3.2,3.7v5.3
					c0.1,0,0.2,0,0.2,0.1c0.3,0.1,0.5,0.2,0.8,0.2l3.5-3.6c1.2-1.2,3.2-1.2,4.4,0l6.5,6.5c1.2,1.1,1.2,3,0.1,4.2c0,0,0,0-0.1,0.1
					l-3.5,3.4c0.1,0.3,0.3,0.5,0.4,0.9h5c0.7,0,1.3,0.3,1.8,0.8c0.5,0.7,0.8,1.6,0.7,2.5v9.8c0.1,0.8-0.1,1.6-0.5,2.2
					c-0.4,0.5-1.1,0.8-1.8,0.8h-5c-0.1,0.3-0.3,0.8-0.4,1.1l3.5,3.5c0.6,0.6,0.9,1.4,0.9,2.2c0,0.8-0.3,1.6-0.9,2.2l-6.5,6.5
					c-1.1,1.2-3,1.2-4.2,0.1c0,0,0,0-0.1-0.1l-3.6-3.6c-0.2,0.1-0.5,0.2-0.8,0.2c-0.1,0-0.1,0-0.2,0.1v5.3c0,0.7-0.3,1.3-0.8,1.8
					C-3777.8-769.2-3778.3-769.1-3778.8-769z M-3788.5-773h8.1v-4.7c0-1.6,1.4-2.1,2.8-2.6c0.5-0.2,1.2-0.4,1.5-0.5
					c0.8-0.4,1.7-0.3,2.3,0.3l3.8,3.9l5.3-5.3l-3.9-3.9c-0.6-0.6-0.8-1.6-0.3-2.3c0.5-1,1-2.1,1.3-3.2c0.3-0.8,1-1.3,1.9-1.3h4.8
					v-8.1h-4.8c-0.8,0-1.6-0.5-1.9-1.3c-0.4-1-0.8-2-1.3-3c-0.4-0.8-0.3-1.7,0.3-2.3l3.8-3.8l-5.3-5.3l-3.8,3.9
					c-0.6,0.6-1.6,0.8-2.3,0.3c-0.5-0.3-1-0.5-1.5-0.5c-1.4-0.4-2.8-1-2.8-2.6v-6.2h-8v6.1c0,0.8-0.5,1.6-1.3,1.9
					c-1,0.3-2,0.8-3,1.3c-0.8,0.4-1.7,0.3-2.3-0.3l-3.8-3.9l-5.3,5.3l3.9,3.7c0.6,0.6,0.8,1.6,0.3,2.3c-0.5,1-0.9,1.9-1.3,3
					c-0.3,0.8-1,1.3-1.9,1.3h-6.1v8h6.1c0.8,0,1.6,0.5,1.9,1.3c0.4,1.1,0.8,2.1,1.3,3.2c0.4,0.8,0.3,1.7-0.3,2.3l-3.9,3.9l5.3,5.3
					l3.7-3.9c0.6-0.6,1.6-0.8,2.3-0.3c0.9,0.5,1.9,1,3,1.3c0.8,0.3,1.3,1,1.3,1.9v5L-3788.5-773z"/>
			</g>
			<path id="Path_87" class="st10" d="M-3784.6-787.9c-4.5,0-8.2-3.7-8.2-8.2c0-4.5,3.7-8.2,8.2-8.2c4.5,0,8.2,3.7,8.2,8.2l0,0
				C-3776.4-791.5-3780.1-787.9-3784.6-787.9C-3784.6-787.9-3784.6-787.9-3784.6-787.9z"/>
		</g>
		<g id="Group_139" transform="translate(376.045 299.127)">
			<path id="Path_88" class="st5" d="M-3810.9-770v-53.3h40.2v53.3"/>
			<path id="Path_89" class="st4" d="M-3768.7-770h-3.9v-51.3h-36.4v51.3h-3.9v-53.3c0-1.1,0.9-2,2-2c0,0,0,0,0,0h40.2
				c1.1,0,2,0.9,2,2c0,0,0,0,0,0v53.3H-3768.7z"/>
		</g>
		<g id="Group_140" transform="translate(427.324 263.188)">
			<path id="Path_90" class="st3" d="M-3811-734.1v-89.1h40.2v89.1"/>
			<path id="Path_91" class="st4" d="M-3768.8-734.1h-3.9v-87.2h-36.4v87.2h-3.8v-89.2c0-1.1,0.9-2,2-2c0,0,0,0,0,0h40.2
				c1.1,0,2,0.9,2,2c0,0,0,0,0,0L-3768.8-734.1z"/>
		</g>
		<g id="Group_141" transform="translate(362.02 276.117)">
			<path id="Path_92" class="st4" d="M-3640.3-734.2H-3811c-1.1,0-2-0.9-2-2c0,0,0,0,0,0v-89.1h3.9v87.2h168.7V-734.2z"/>
		</g>
		<g id="Group_145" transform="translate(339.558 84.369)">
			<path id="Path_93" class="st3" d="M-3776.8-781.1c7.3-0.1,14.5,2,20.5,6.1c4-4.6,9.5-7.7,15.6-8.8c-0.3-1.8-0.4-3.6-0.4-5.4
				c0.1-20,16.3-36.1,36.3-36c20,0.1,36.1,16.3,36,36.3c0,2.8-0.3,5.5-1,8.2c2.7-0.5,5.5-0.7,8.3-0.5c19.9,0,36.2,14.9,36.2,36.6
				H-3813C-3813-766.2-3796.9-781.1-3776.8-781.1z"/>
			<g id="Group_142" transform="translate(187.036 79.877)">
				<path id="Path_94" class="st2" d="M-3813-825.2"/>
			</g>
			<g id="Group_143" transform="translate(136.415 43.171)">
				<path id="Path_95" class="st1" d="M-3806.3-823.7c-1.9,1.5-3.9,3-5.9,4.3"/>
				<path id="Path_96" class="st4" d="M-3811.2-817.7l-1.8-3.5c1.9-1.2,3.8-2.6,5.6-4.1l2.4,3.1
					C-3805.9-821.6-3809.7-818.4-3811.2-817.7z"/>
			</g>
			<g id="Group_144" transform="translate(54.895 49.087)">
				<path id="Path_97" class="st1" d="M-3811.2-824.2c0,0,2,3.4,2.1,6"/>
				<path id="Path_98" class="st4" d="M-3811.1-818.1c-0.3-1.8-0.9-3.6-1.9-5.2l3.4-2c0.2,0.4,2.2,3.9,2.3,7L-3811.1-818.1z"/>
			</g>
		</g>
		<g id="Group_149" transform="translate(73.083 301.976)">
			<path id="Path_99" class="st1" d="M-3795.7-804.3c3.5,0,6.9,1,9.8,3c1.9-2.2,4.5-3.7,7.5-4.2c-0.1-0.8-0.2-1.7-0.2-2.5
				c0-9.5,7.7-17.2,17.2-17.2s17.2,7.7,17.2,17.2c0,1.4-0.2,2.7-0.4,4.1c1.3-0.3,2.6-0.4,3.9-0.3c9.5,0,17.2,7.6,17.2,17.1
				c0,0.1,0,0.2,0,0.3h-89.4c-0.1-9.5,7.5-17.3,17-17.4C-3795.9-804.3-3795.8-804.3-3795.7-804.3z"/>
			<g id="Group_146" transform="translate(89.3 38.021)">
				<path id="Path_100" class="st2" d="M-3813-825.2"/>
			</g>
			<g id="Group_147" transform="translate(64.646 19.613)">
				<path id="Path_101" class="st1" d="M-3809.4-823.7c0,0-2.1,1.6-2.8,2.1"/>
				<path id="Path_102" class="st4" d="M-3811.2-819.9l-1.8-3.5c0.3-0.2,1.5-1.1,2.5-1.9l2.4,3.1
					C-3808.8-821.6-3810.5-820.3-3811.2-819.9z"/>
			</g>
			<g id="Group_148" transform="translate(25.311 22.791)">
				<path id="Path_103" class="st1" d="M-3811.2-824.2c0.5,0.9,0.9,1.8,1,2.8"/>
				<path id="Path_104" class="st4" d="M-3812.2-821.3c-0.1-0.7-0.4-1.4-0.8-2l3.4-2c0.7,1.2,1.1,2.5,1.2,3.8L-3812.2-821.3z"/>
			</g>
		</g>
		<g id="Group_153" transform="translate(479.589 27.94)">
			<path id="Path_105" class="st1" d="M-3795.6-804.3c3.5,0,6.9,1,9.8,3c1.9-2.2,4.5-3.7,7.5-4.2c-0.1-0.8-0.2-1.7-0.2-2.5
				c0-9.5,7.7-17.2,17.2-17.2c9.5,0,17.2,7.7,17.2,17.2c0,1.4-0.2,2.7-0.4,4.1c1.3-0.3,2.6-0.4,3.9-0.3c9.5,0,17.2,7.6,17.2,17.1
				c0,0.1,0,0.2,0,0.3h-89.5C-3813-796.5-3805.2-804.3-3795.6-804.3z"/>
			<g id="Group_150" transform="translate(89.409 38.021)">
				<path id="Path_106" class="st2" d="M-3813-825.2"/>
			</g>
			<g id="Group_151" transform="translate(64.866 19.613)">
				<path id="Path_107" class="st1" d="M-3809.4-823.6c0,0-2.1,1.6-2.8,2.1"/>
				<path id="Path_108" class="st4" d="M-3811.2-819.9l-1.8-3.5c0.3-0.2,1.5-1.1,2.5-1.9l2.4,3.1
					C-3809-821.3-3810.1-820.5-3811.2-819.9z"/>
			</g>
			<g id="Group_152" transform="translate(25.53 22.791)">
				<path id="Path_109" class="st1" d="M-3811.4-824.2c0.5,0.9,0.9,1.8,1,2.8"/>
				<path id="Path_110" class="st4" d="M-3812.2-821.3c-0.1-0.7-0.4-1.4-0.8-2l3.4-2c0.7,1.2,1.1,2.5,1.2,3.8L-3812.2-821.3z"/>
			</g>
		</g>
		<g id="Group_157" transform="translate(211.142 0)">
			<path id="Path_111" class="st3" d="M-3688.7-789c-6-0.1-11.9,1.7-16.9,5c-3.3-3.8-7.8-6.3-12.7-7.2c2.4-16.2-8.8-31.3-25-33.8
				s-31.3,8.8-33.8,25c-0.2,1.4-0.3,2.8-0.3,4.3c0,2.4,0.3,4.7,0.9,7c-2.2-0.4-4.5-0.6-6.8-0.4c-16.3,0-29.7,12.2-29.7,30h153.8
				C-3659.1-776.8-3672.3-789-3688.7-789z"/>
			<g id="Group_154" transform="translate(0.548 65.523)">
				<path id="Path_112" class="st2" d="M-3813-825.2"/>
			</g>
			<g id="Group_155" transform="translate(35.282 35.063)">
				<path id="Path_113" class="st1" d="M-3811.7-823.7c0,0,3.6,2.8,4.8,3.5"/>
				<path id="Path_114" class="st4" d="M-3807.9-818.4c-1.8-1.1-3.5-2.4-5.1-3.7l2.4-3.1c1.4,1.2,2.9,2.3,4.5,3.3L-3807.9-818.4z"/>
			</g>
			<g id="Group_156" transform="translate(103.763 40.103)">
				<path id="Path_115" class="st1" d="M-3809.3-824.2c-0.9,1.5-1.5,3.2-1.8,4.9"/>
				<path id="Path_116" class="st4" d="M-3809.1-819.2l-3.9-0.1c0.2-2.1,0.9-4.1,2-5.9l3.4,2l-1.6-1l1.6,1
					C-3808.4-822-3808.9-820.6-3809.1-819.2z"/>
			</g>
		</g>
		<g id="Group_158" transform="translate(478.274 231.741)">
			<path id="Path_117" class="st11" d="M-3810.9-702.6v-120.6h39.1v120.6"/>
			<path id="Path_118" class="st4" d="M-3769.8-702.6h-3.9v-118.7h-35.3v118.8h-3.9v-120.7c0-1.1,0.9-2,2-2c0,0,0,0,0,0h39.1
				c1.1,0,2,0.9,2,2c0,0,0,0,0,0v120.6H-3769.8z"/>
		</g>
		<g id="Group_168" transform="translate(544.564 138.059)">
			<g id="Group_167" transform="translate(0 29.584)">
				<g id="Group_159">
					<line id="Line_5" class="st12" x1="-3813" y1="-823.4" x2="-3797.8" y2="-823.4"/>
					<rect id="Rectangle_66" x="-3813" y="-825.2" class="st4" width="15.2" height="3.9"/>
				</g>
				<g id="Group_160" transform="translate(21.695)">
					<line id="Line_6" class="st12" x1="-3813" y1="-823.4" x2="-3760.8" y2="-823.4"/>
					<rect id="Rectangle_67" x="-3813" y="-825.2" class="st4" width="52.2" height="3.9"/>
				</g>
				<g id="Group_161" transform="translate(0 9.752)">
					<line id="Line_7" class="st12" x1="-3813" y1="-823.2" x2="-3797.8" y2="-823.2"/>
					<rect id="Rectangle_68" x="-3813" y="-825.2" class="st4" width="15.2" height="3.9"/>
				</g>
				<g id="Group_162" transform="translate(21.695 9.752)">
					<line id="Line_8" class="st12" x1="-3813" y1="-823.2" x2="-3760.8" y2="-823.2"/>
					<rect id="Rectangle_69" x="-3813" y="-825.2" class="st4" width="52.2" height="3.9"/>
				</g>
				<g id="Group_163" transform="translate(0 19.504)">
					<line id="Line_9" class="st12" x1="-3813" y1="-823.2" x2="-3797.8" y2="-823.2"/>
					<rect id="Rectangle_70" x="-3813" y="-825.2" class="st4" width="15.2" height="3.9"/>
				</g>
				<g id="Group_164" transform="translate(21.695 19.504)">
					<line id="Line_10" class="st12" x1="-3813" y1="-823.2" x2="-3760.8" y2="-823.2"/>
					<rect id="Rectangle_71" x="-3813" y="-825.2" class="st4" width="52.2" height="3.9"/>
				</g>
				<g id="Group_165" transform="translate(0 29.365)">
					<line id="Line_11" class="st12" x1="-3813" y1="-823.4" x2="-3797.8" y2="-823.4"/>
					<rect id="Rectangle_72" x="-3813" y="-825.2" class="st4" width="15.2" height="3.9"/>
				</g>
				<g id="Group_166" transform="translate(21.695 29.365)">
					<line id="Line_12" class="st12" x1="-3813" y1="-823.4" x2="-3760.8" y2="-823.4"/>
					<rect id="Rectangle_73" x="-3813" y="-825.2" class="st4" width="52.2" height="3.9"/>
				</g>
			</g>
			<rect id="Rectangle_74" x="-3813" y="-825.2" class="st1" width="74" height="22.8"/>
		</g>
		<g id="Group_178" transform="translate(43.28 191.31)">
			<g id="Group_177" transform="translate(0 29.584)">
				<g id="Group_169" transform="translate(58.73 29.365)">
					<line id="Line_13" class="st12" x1="-3797.8" y1="-823.2" x2="-3813" y2="-823.2"/>
					<rect id="Rectangle_75" x="-3813" y="-825.2" class="st4" width="15.2" height="3.9"/>
				</g>
				<g id="Group_170" transform="translate(0 29.365)">
					<line id="Line_14" class="st12" x1="-3760.8" y1="-823.2" x2="-3813" y2="-823.2"/>
					<rect id="Rectangle_76" x="-3813" y="-825.2" class="st4" width="52.2" height="3.9"/>
				</g>
				<g id="Group_171" transform="translate(58.73 19.613)">
					<line id="Line_15" class="st12" x1="-3797.8" y1="-823.4" x2="-3813" y2="-823.4"/>
					<rect id="Rectangle_77" x="-3813" y="-825.2" class="st4" width="15.2" height="3.9"/>
				</g>
				<g id="Group_172" transform="translate(0 19.613)">
					<line id="Line_16" class="st12" x1="-3760.8" y1="-823.4" x2="-3813" y2="-823.4"/>
					<rect id="Rectangle_78" x="-3813" y="-825.2" class="st4" width="52.2" height="3.9"/>
				</g>
				<g id="Group_173" transform="translate(58.73 9.752)">
					<line id="Line_17" class="st12" x1="-3797.8" y1="-823.2" x2="-3813" y2="-823.2"/>
					<rect id="Rectangle_79" x="-3813" y="-825.2" class="st4" width="15.2" height="3.9"/>
				</g>
				<g id="Group_174" transform="translate(0 9.752)">
					<line id="Line_18" class="st12" x1="-3760.8" y1="-823.2" x2="-3813" y2="-823.2"/>
					<rect id="Rectangle_80" x="-3813" y="-825.2" class="st4" width="52.2" height="3.9"/>
				</g>
				<g id="Group_175" transform="translate(58.73)">
					<line id="Line_19" class="st12" x1="-3797.8" y1="-823.2" x2="-3813" y2="-823.2"/>
					<rect id="Rectangle_81" x="-3813" y="-825.2" class="st4" width="15.2" height="3.9"/>
				</g>
				<g id="Group_176">
					<line id="Line_20" class="st12" x1="-3760.8" y1="-823.2" x2="-3813" y2="-823.2"/>
					<rect id="Rectangle_82" x="-3813" y="-825.2" class="st4" width="52.2" height="3.9"/>
				</g>
			</g>
			<rect id="Rectangle_83" x="-3813" y="-825.2" class="st1" width="74" height="22.8"/>
		</g>
		<g id="Group_186" transform="translate(552.344 258.915)">
			<g id="Group_179">
				<path id="Path_119" class="st4" d="M-3738.2-757.2h-72.9c-1.1,0-2-0.9-2-2c0,0,0,0,0,0v-64.1c0-1.1,0.9-2,2-2c0,0,0,0,0,0h72.9
					c1.1,0,2,0.9,2,2c0,0,0,0,0,0v64.1C-3736.2-758.1-3737.1-757.2-3738.2-757.2C-3738.2-757.2-3738.2-757.2-3738.2-757.2z
					 M-3809.1-761h68.9v-60.3h-68.9V-761z"/>
			</g>
			<g id="Group_180" transform="translate(15.23 1.972)">
				<rect id="Rectangle_84" x="-3813" y="-825.2" class="st4" width="3.9" height="64.1"/>
			</g>
			<g id="Group_181" transform="translate(34.843 1.972)">
				<rect id="Rectangle_85" x="-3813" y="-825.2" class="st4" width="3.9" height="64.1"/>
			</g>
			<g id="Group_182" transform="translate(53.251 1.972)">
				<rect id="Rectangle_86" x="-3813" y="-825.2" class="st4" width="3.9" height="64.1"/>
			</g>
			<g id="Group_183" transform="translate(1.972 15.23)">
				<rect id="Rectangle_87" x="-3813" y="-825.2" class="st4" width="72.9" height="3.9"/>
			</g>
			<g id="Group_184" transform="translate(17.202 32.652)">
				<rect id="Rectangle_88" x="-3813" y="-825.2" class="st4" width="57.6" height="3.9"/>
			</g>
			<g id="Group_185" transform="translate(17.202 48.978)">
				<rect id="Rectangle_89" x="-3813" y="-825.2" class="st4" width="57.6" height="3.9"/>
			</g>
		</g>
		<g id="Group_194" transform="translate(38.021 46.896)">
			<g id="Group_187">
				<path id="Path_120" class="st4" d="M-3738.2-765.8h-72.9c-1.1,0-2-0.9-2-2c0,0,0,0,0,0v-55.4c0-1.1,0.9-2,2-2c0,0,0,0,0,0h72.9
					c1.1,0,2,0.9,2,2c0,0,0,0,0,0v55.4C-3736.2-766.7-3737.1-765.8-3738.2-765.8C-3738.2-765.8-3738.2-765.8-3738.2-765.8z
					 M-3809.1-769.8h68.9v-51.5h-68.9V-769.8z"/>
			</g>
			<g id="Group_188" transform="translate(15.23 1.972)">
				<rect id="Rectangle_90" x="-3813" y="-825.2" class="st4" width="3.9" height="55.4"/>
			</g>
			<g id="Group_189" transform="translate(34.843 1.972)">
				<rect id="Rectangle_91" x="-3813" y="-825.2" class="st4" width="3.9" height="55.4"/>
			</g>
			<g id="Group_190" transform="translate(53.361 1.972)">
				<rect id="Rectangle_92" x="-3813" y="-825.2" class="st4" width="3.9" height="55.4"/>
			</g>
			<g id="Group_191" transform="translate(1.972 13.039)">
				<rect id="Rectangle_93" x="-3813" y="-825.2" class="st4" width="72.9" height="3.9"/>
			</g>
			<g id="Group_192" transform="translate(17.203 28.269)">
				<rect id="Rectangle_94" x="-3813" y="-825.2" class="st4" width="57.6" height="3.9"/>
			</g>
			<g id="Group_193" transform="translate(17.203 42.404)">
				<rect id="Rectangle_95" x="-3813" y="-825.2" class="st4" width="57.6" height="3.9"/>
			</g>
		</g>
		<g id="Group_196" transform="translate(155.48 40.76)">
			<g id="Group_195">
				<path id="Path_121" class="st4" d="M-3804.9-809c-4.5,0-8.1-3.6-8.1-8.1c0-4.5,3.6-8.1,8.1-8.1c4.5,0,8.1,3.6,8.1,8.1
					C-3796.8-812.6-3800.4-809-3804.9-809C-3804.9-809-3804.9-809-3804.9-809z M-3804.9-821.4c-2.3,0-4.2,1.9-4.2,4.2
					c0,2.3,1.9,4.2,4.2,4.2c2.3,0,4.2-1.9,4.2-4.2C-3800.7-819.5-3802.6-821.4-3804.9-821.4
					C-3804.9-821.4-3804.9-821.4-3804.9-821.4z"/>
			</g>
		</g>
		<g id="Group_198" transform="translate(425.133 33.09)">
			<g id="Group_197">
				<path id="Path_122" class="st4" d="M-3804.9-809c-4.5,0-8.1-3.6-8.1-8.1c0-4.5,3.6-8.1,8.1-8.1c4.5,0,8.1,3.6,8.1,8.1
					C-3796.8-812.6-3800.4-809-3804.9-809C-3804.9-809-3804.9-809-3804.9-809z M-3804.9-821.3c-2.3,0-4.2,1.9-4.2,4.2
					c0,2.3,1.9,4.2,4.2,4.2c2.3,0,4.2-1.9,4.2-4.2c0-2.3-1.8-4.1-4-4.2C-3804.8-821.3-3804.8-821.3-3804.9-821.3L-3804.9-821.3z"/>
			</g>
		</g>
		<g id="Group_200" transform="translate(84.807 276.665)">
			<g id="Group_199">
				<path id="Path_123" class="st4" d="M-3804.9-809c-4.5,0-8.1-3.6-8.1-8.1c0-4.5,3.6-8.1,8.1-8.1c4.5,0,8.1,3.6,8.1,8.1
					C-3796.8-812.6-3800.4-809-3804.9-809C-3804.9-809-3804.9-809-3804.9-809z M-3804.9-821.3c-2.3,0-4.2,1.9-4.2,4.2
					c0,2.3,1.9,4.2,4.2,4.2c2.3,0,4.2-1.9,4.2-4.2c0-2.3-1.8-4.1-4-4.2C-3804.8-821.3-3804.8-821.3-3804.9-821.3L-3804.9-821.3z"/>
			</g>
		</g>
		<g id="Group_202" transform="translate(545.879 90.724)">
			<g id="Group_201">
				<path id="Path_124" class="st4" d="M-3804.9-809c-4.5,0-8.1-3.6-8.1-8.1c0-4.5,3.6-8.1,8.1-8.1c4.5,0,8.1,3.6,8.1,8.1
					C-3796.8-812.6-3800.4-809-3804.9-809C-3804.9-809-3804.9-809-3804.9-809z M-3804.9-821.3c-2.3,0-4.2,1.9-4.2,4.2
					c0,2.3,1.9,4.2,4.2,4.2c2.3,0,4.2-1.9,4.2-4.2C-3800.7-819.4-3802.6-821.3-3804.9-821.3
					C-3804.9-821.3-3804.9-821.3-3804.9-821.3L-3804.9-821.3z"/>
			</g>
		</g>
		<g id="Group_204" transform="translate(177.285 352.816)">
			<g id="Group_203">
				<path id="Path_125" class="st4" d="M-3804.9-809c-4.5,0-8.1-3.6-8.1-8.1c0-4.5,3.6-8.1,8.1-8.1c4.5,0,8.1,3.6,8.1,8.1
					C-3796.8-812.6-3800.4-809-3804.9-809C-3804.9-809-3804.9-809-3804.9-809z M-3804.9-821.4c-2.3,0-4.2,1.9-4.2,4.2
					c0,2.3,1.9,4.2,4.2,4.2c2.3,0,4.2-1.9,4.2-4.2C-3800.8-819.5-3802.6-821.3-3804.9-821.4z"/>
			</g>
		</g>
		<g id="Group_206" transform="translate(551.248 350.625)">
			<g id="Group_205">
				<path id="Path_126" class="st4" d="M-3804.9-809c-4.5,0-8.1-3.6-8.1-8.1c0-4.5,3.6-8.1,8.1-8.1s8.1,3.6,8.1,8.1l0,0
					C-3796.8-812.6-3800.4-809-3804.9-809C-3804.9-809-3804.9-809-3804.9-809z M-3804.9-821.3c-2.3,0-4.2,1.9-4.2,4.2
					c0,2.3,1.9,4.2,4.2,4.2c2.3,0,4.2-1.9,4.2-4.2C-3800.7-819.4-3802.6-821.3-3804.9-821.3
					C-3804.9-821.3-3804.9-821.3-3804.9-821.3L-3804.9-821.3z"/>
			</g>
		</g>
		<g id="Group_208" transform="translate(582.804 223.414)">
			<g id="Group_207">
				<path id="Path_127" class="st4" d="M-3804.9-809c-4.5,0-8.1-3.6-8.1-8.1s3.6-8.1,8.1-8.1c4.5,0,8.1,3.6,8.1,8.1c0,0,0,0,0,0
					C-3796.8-812.6-3800.4-809-3804.9-809C-3804.9-809-3804.9-809-3804.9-809z M-3804.9-821.3c-2.3,0-4.2,1.9-4.2,4.2
					c0,2.3,1.9,4.2,4.2,4.2c2.3,0,4.2-1.9,4.2-4.2C-3800.7-819.4-3802.6-821.3-3804.9-821.3
					C-3804.9-821.3-3804.9-821.3-3804.9-821.3L-3804.9-821.3z"/>
			</g>
		</g>
		<g id="Group_210" transform="translate(640.438 190.762)">
			<g id="Group_209">
				<path id="Path_128" class="st4" d="M-3804.9-809c-4.5,0-8.1-3.6-8.1-8.1c0-4.5,3.6-8.1,8.1-8.1c4.5,0,8.1,3.6,8.1,8.1
					c0,0,0,0,0,0C-3796.8-812.6-3800.4-809-3804.9-809C-3804.9-809-3804.9-809-3804.9-809z M-3804.9-821.3c-2.3,0-4.2,1.9-4.2,4.2
					c0,2.3,1.9,4.2,4.2,4.2c2.3,0,4.2-1.9,4.2-4.2C-3800.7-819.4-3802.6-821.3-3804.9-821.3
					C-3804.9-821.3-3804.9-821.3-3804.9-821.3L-3804.9-821.3z"/>
			</g>
		</g>
		<g id="Group_212" transform="translate(0 163.588)">
			<g id="Group_211">
				<path id="Path_129" class="st4" d="M-3804.9-809c-4.5,0-8.1-3.6-8.1-8.1c0-4.5,3.6-8.1,8.1-8.1c4.5,0,8.1,3.6,8.1,8.1
					C-3796.8-812.6-3800.4-809-3804.9-809C-3804.9-809-3804.9-809-3804.9-809z M-3804.9-821.3c-2.3,0-4.2,1.9-4.2,4.2
					c0,2.3,1.9,4.2,4.2,4.2c2.3,0,4.2-1.9,4.2-4.2C-3800.7-819.4-3802.6-821.3-3804.9-821.3
					C-3804.9-821.3-3804.9-821.3-3804.9-821.3L-3804.9-821.3z"/>
			</g>
		</g>
		<g id="Group_214" transform="translate(65.194 121.185)">
			<g id="Group_213">
				<path id="Path_130" class="st4" d="M-3804.9-809c-4.5,0-8.1-3.6-8.1-8.1c0-4.5,3.6-8.1,8.1-8.1c4.5,0,8.1,3.6,8.1,8.1
					C-3796.8-812.6-3800.4-809-3804.9-809C-3804.9-809-3804.9-809-3804.9-809z M-3804.9-821.3c-2.3,0-4.2,1.9-4.2,4.2
					c0,2.3,1.9,4.2,4.2,4.2c2.3,0,4.2-1.9,4.2-4.2c0.1-2.2-1.7-4.1-3.9-4.2C-3804.7-821.3-3804.8-821.3-3804.9-821.3L-3804.9-821.3z
					"/>
			</g>
		</g>
	</g>
	<g id="Group_222" transform="translate(1387.255 757.222)">
		<g id="Group_216" transform="translate(64.537)">
			<path id="Path_131" class="st18" d="M-3613.9-825.2c-109.9,0-199.1,89-199.1,198.9c0,0,0,0.1,0,0.1
				c0,109.9,89.1,199.1,199.1,199.1c109.9,0,199.1-89.1,199.1-199.1S-3504-825.2-3613.9-825.2z M-3613.9-489.7
				c-75.4,0-136.5-61-136.5-136.4c0-75.4,61-136.5,136.4-136.5s136.5,61,136.5,136.4c0,0,0,0,0,0
				C-3477.5-550.9-3538.6-489.8-3613.9-489.7z"/>
		</g>
		<g id="Group_217" transform="translate(10.08 171.806)">
			<rect id="Rectangle_96" x="-3813" y="-825.2" class="st19" width="192.8" height="50.4"/>
			<rect id="Rectangle_97" x="-3813" y="-774.8" class="st20" width="192.8" height="51.5"/>
			<rect id="Rectangle_98" x="-3813" y="-723.3" class="st19" width="192.8" height="48.2"/>
			<path id="Path_132" class="st5" d="M-3787.4-751.4c0,6.2,5.1,11.3,11.3,11.3s11.3-5.1,11.3-11.3s-5.1-11.3-11.3-11.3
				C-3782.3-762.7-3787.4-757.6-3787.4-751.4C-3787.4-751.4-3787.4-751.4-3787.4-751.4z"/>
			<path id="Path_133" class="st5" d="M-3751.5-751.4c0,6.2,5.1,11.3,11.3,11.3c6.2,0,11.3-5.1,11.3-11.3s-5.1-11.3-11.3-11.3
				C-3746.5-762.7-3751.5-757.6-3751.5-751.4C-3751.5-751.4-3751.5-751.4-3751.5-751.4z"/>
			<line id="Line_21" class="st21" x1="-3647.5" y1="-708" x2="-3787.8" y2="-708"/>
			<line id="Line_22" class="st21" x1="-3647.5" y1="-694.8" x2="-3787.8" y2="-694.8"/>
			<line id="Line_23" class="st21" x1="-3647.5" y1="-759.5" x2="-3647.5" y2="-746.3"/>
			<line id="Line_24" class="st21" x1="-3659.6" y1="-759.5" x2="-3659.6" y2="-746.3"/>
			<line id="Line_25" class="st21" x1="-3671.7" y1="-759.5" x2="-3671.7" y2="-746.3"/>
			<line id="Line_26" class="st21" x1="-3685.9" y1="-759.5" x2="-3685.9" y2="-746.3"/>
			<line id="Line_27" class="st21" x1="-3699" y1="-759.5" x2="-3699" y2="-746.3"/>
			<line id="Line_28" class="st21" x1="-3734.1" y1="-752.9" x2="-3744" y2="-752.9"/>
			<line id="Line_29" class="st21" x1="-3771.4" y1="-752.9" x2="-3779" y2="-752.9"/>
			<rect id="Rectangle_99" x="-3785.6" y="-809.9" class="st14" width="6.6" height="18.6"/>
			<rect id="Rectangle_100" x="-3771.4" y="-809.9" class="st14" width="4.4" height="18.6"/>
			<rect id="Rectangle_101" x="-3760.4" y="-809.9" class="st14" width="8.8" height="18.6"/>
			<rect id="Rectangle_102" x="-3746.2" y="-809.9" class="st14" width="8.8" height="18.6"/>
			<rect id="Rectangle_103" x="-3730.8" y="-809.9" class="st14" width="5.5" height="18.6"/>
			<line id="Line_30" class="st21" x1="-3639.9" y1="-808.8" x2="-3718.8" y2="-808.8"/>
			<line id="Line_31" class="st21" x1="-3639.9" y1="-794.5" x2="-3718.8" y2="-794.5"/>
		</g>
		<g id="Group_218" transform="translate(0 32.433)">
			<path id="Path_134" class="st3" d="M-3775.3-779.5c7.6,0,15.1,2.3,21.4,6.6c4.2-4.8,9.9-8,16.2-9.1c-0.3-1.8-0.4-3.6-0.4-5.5
				c0-20.8,16.8-37.7,37.6-37.7c20.8,0,37.7,16.8,37.7,37.6c0,3-0.3,6-1.1,8.9c2.8-0.6,5.7-0.9,8.7-0.9c20.8,0,37.6,15.8,37.6,37.7
				H-3813C-3813-763.6-3796.1-779.5-3775.3-779.5z"/>
			<path id="Path_135" class="st22" d="M-3618.3-741.9"/>
			<path id="Path_136" class="st22" d="M-3664-778.5c-2,1.6-4,3.1-6.1,4.5"/>
			<path id="Path_137" class="st22" d="M-3754.1-773c0,0,2.1,3.5,2.2,6.2"/>
		</g>
		<g id="Group_219" transform="translate(90.067 77.466)">
			<path id="Path_138" class="st13" d="M-3482.1-812.2c0-7.9-6.7-13-14.5-13H-3774c-7.9,0-14.9,5.1-14.9,13v201.7h306.8V-812.2z"/>
			<path id="Path_139" class="st23" d="M-3813-610.4v15.6c0,7.9,9,14,18.1,14h319.3c9.1,0,17.6-6.2,17.6-14v-15.6H-3813z"/>
			<rect id="Rectangle_104" x="-3769.2" y="-808.7" class="st24" width="267.4" height="179.7"/>
			<line id="Line_32" class="st21" x1="-3651.9" y1="-593.9" x2="-3616.9" y2="-593.9"/>
			<rect id="Rectangle_105" x="-3547.8" y="-786.8" class="st25" width="25.2" height="43.8"/>
			<rect id="Rectangle_106" x="-3745.1" y="-786.8" class="st25" width="184.1" height="43.8"/>
			<rect id="Rectangle_107" x="-3745.1" y="-730.9" class="st25" width="50.4" height="43.8"/>
			<rect id="Rectangle_108" x="-3684.8" y="-730.9" class="st25" width="157.8" height="43.8"/>
			<rect id="Rectangle_109" x="-3745.1" y="-672.8" class="st25" width="218" height="20.8"/>
		</g>
		<g id="Group_220" transform="translate(324.547 171.806)">
			<rect id="Rectangle_110" x="-3813" y="-825.2" class="st19" width="192.8" height="50.4"/>
			<rect id="Rectangle_111" x="-3813" y="-774.8" class="st20" width="192.8" height="51.5"/>
			<rect id="Rectangle_112" x="-3813" y="-723.3" class="st19" width="192.8" height="48.2"/>
			<path id="Path_140" class="st5" d="M-3787.1-751.4c0,6.2,5.1,11.3,11.3,11.3s11.3-5.1,11.3-11.3c0-6.2-5.1-11.3-11.3-11.3
				C-3782.1-762.7-3787.1-757.6-3787.1-751.4C-3787.1-751.4-3787.1-751.4-3787.1-751.4z"/>
			<path id="Path_141" class="st5" d="M-3751.3-751.4c0,6.2,5.1,11.3,11.3,11.3c6.2,0,11.3-5.1,11.3-11.3c0-6.2-5.1-11.3-11.3-11.3
				C-3746.3-762.7-3751.3-757.6-3751.3-751.4C-3751.3-751.4-3751.3-751.4-3751.3-751.4z"/>
			<line id="Line_33" class="st21" x1="-3646.5" y1="-708" x2="-3787.8" y2="-708"/>
			<line id="Line_34" class="st21" x1="-3646.5" y1="-694.8" x2="-3787.8" y2="-694.8"/>
			<line id="Line_35" class="st21" x1="-3646.5" y1="-759.5" x2="-3646.5" y2="-746.3"/>
			<line id="Line_36" class="st21" x1="-3658.5" y1="-759.5" x2="-3658.5" y2="-746.3"/>
			<line id="Line_37" class="st21" x1="-3673.8" y1="-759.5" x2="-3673.8" y2="-746.3"/>
			<line id="Line_38" class="st21" x1="-3685.9" y1="-759.5" x2="-3685.9" y2="-746.3"/>
			<line id="Line_39" class="st21" x1="-3699" y1="-759.5" x2="-3699" y2="-746.3"/>
			<line id="Line_40" class="st21" x1="-3734.1" y1="-752.9" x2="-3744" y2="-752.9"/>
			<line id="Line_41" class="st21" x1="-3771.4" y1="-752.9" x2="-3777.9" y2="-752.9"/>
			<rect id="Rectangle_113" x="-3784.5" y="-809.9" class="st14" width="6.6" height="18.6"/>
			<rect id="Rectangle_114" x="-3771.4" y="-809.9" class="st14" width="4.4" height="18.6"/>
			<rect id="Rectangle_115" x="-3760.4" y="-809.9" class="st14" width="6.6" height="18.6"/>
			<rect id="Rectangle_116" x="-3747.3" y="-809.9" class="st14" width="9.9" height="18.6"/>
			<rect id="Rectangle_117" x="-3730.8" y="-809.9" class="st14" width="6.6" height="18.6"/>
			<line id="Line_42" class="st21" x1="-3639.9" y1="-808.8" x2="-3716.6" y2="-808.8"/>
			<line id="Line_43" class="st21" x1="-3639.9" y1="-794.5" x2="-3716.6" y2="-794.5"/>
		</g>
		<rect id="Rectangle_118" x="-3642.9" y="-630.4" class="st26" width="36.2" height="78.9"/>
		<rect id="Rectangle_119" x="-3592.5" y="-672" class="st26" width="34" height="120.5"/>
		<rect id="Rectangle_120" x="-3544.3" y="-767.4" class="st27" width="32.9" height="215.9"/>
		<line id="Line_44" class="st21" x1="-3544.3" y1="-747.6" x2="-3525.7" y2="-747.6"/>
		<line id="Line_45" class="st21" x1="-3544.3" y1="-715.9" x2="-3525.7" y2="-715.9"/>
		<line id="Line_46" class="st21" x1="-3544.3" y1="-681.9" x2="-3525.7" y2="-681.9"/>
		<line id="Line_47" class="st21" x1="-3544.3" y1="-650.1" x2="-3525.7" y2="-650.1"/>
		<line id="Line_48" class="st21" x1="-3544.3" y1="-616.2" x2="-3525.7" y2="-616.2"/>
		<line id="Line_49" class="st21" x1="-3544.3" y1="-584.4" x2="-3525.7" y2="-584.4"/>
		<g id="Group_221" transform="translate(325.972 57.853)">
			<path id="Path_142" class="st18" d="M-3646.9-776.7c-8-0.1-15.8,2.2-22.5,6.7c-4.4-5.1-10.5-8.5-17.1-9.6c0.3-2,0.5-3.9,0.4-5.9
				c0-21.9-17.8-39.7-39.7-39.7c-21.9,0-39.7,17.8-39.7,39.7l0,0c0,3.1,0.4,6.3,1.1,9.3c-3-0.5-6.1-0.7-9.1-0.5
				c-21.9,0-39.7,16.1-39.7,40.2h205.8C-3607.2-760.6-3625-776.7-3646.9-776.7z"/>
			<path id="Path_143" class="st28" d="M-3812.3-737.7"/>
			<path id="Path_144" class="st28" d="M-3764.1-776.2c2.1,1.7,4.2,3.3,6.5,4.7"/>
			<path id="Path_145" class="st28" d="M-3669.4-770.3c0,0-2.2,3.7-2.3,6.6"/>
		</g>
	</g>
</g>
</svg>
