<svg width="43" height="27" viewBox="0 0 43 27" fill="none" xmlns="http://www.w3.org/2000/svg">
<path d="M36.0619 22.88H29.0351C27.4378 22.88 25.9058 22.2169 24.7763 21.0367C23.6468 19.8565 23.0122 18.2558 23.0122 16.5867V10.2933C23.0122 8.62424 23.6468 7.0235 24.7763 5.84327C25.9058 4.66304 27.4378 4 29.0351 4H42.0848V16.5867C42.0848 18.2558 41.4502 19.8565 40.3207 21.0367C39.1912 22.2169 37.6592 22.88 36.0619 22.88Z" fill="#F16622"/>
<path d="M30.5036 10.1045H32.1047V17.3379H30.4985V16.58C29.8402 17.2242 29.1317 17.5459 28.373 17.545C27.9254 17.5567 27.4809 17.4657 27.0707 17.2783C26.6605 17.091 26.2946 16.8119 25.9989 16.4607C25.379 15.7239 25.0687 14.803 25.0679 13.6982C25.0679 12.6135 25.3782 11.7101 25.9989 10.9882C26.2875 10.6397 26.646 10.3619 27.0489 10.1745C27.4519 9.98709 27.8893 9.8947 28.3303 9.90388C29.1359 9.90388 29.8586 10.2505 30.4985 10.9436L30.5036 10.1045ZM26.7091 13.6982C26.7091 14.3914 26.8869 14.956 27.2424 15.3922C27.4105 15.6028 27.6219 15.7711 27.8609 15.8846C28.0999 15.9981 28.3602 16.0538 28.6227 16.0477C28.8921 16.0581 29.1605 16.0062 29.4086 15.8959C29.6567 15.7855 29.8785 15.6193 30.0581 15.4092C30.4228 14.9722 30.6052 14.4128 30.6052 13.731C30.6052 13.0492 30.4228 12.4898 30.0581 12.0528C29.8818 11.8417 29.6628 11.6742 29.4169 11.5624C29.171 11.4506 28.9045 11.3973 28.6365 11.4064C28.3743 11.402 28.1144 11.4585 27.8757 11.5719C27.637 11.6852 27.4254 11.8526 27.2562 12.062C26.886 12.5177 26.6911 13.1008 26.7091 13.6982Z" fill="white"/>
<path d="M35.1418 10.1035V14.2545C35.1418 15.4528 35.5944 16.052 36.4995 16.052C37.4046 16.052 37.8567 15.4528 37.8559 14.2545V10.1035H39.4557V14.2991C39.4658 14.8075 39.3958 15.3142 39.2487 15.799C39.1046 16.1932 38.8677 16.5432 38.5598 16.8164C38.0203 17.3067 37.3335 17.5515 36.4995 17.5506C35.6655 17.5497 34.9804 17.305 34.4442 16.8164C34.1329 16.5433 33.8914 16.1937 33.7415 15.799C33.6085 15.4616 33.542 14.9616 33.542 14.2991V10.1035H35.1418Z" fill="white"/>
<path d="M9.87292 13.4444C9.87292 13.9542 10.0176 14.4526 10.2887 14.8765C10.5597 15.3004 10.945 15.6307 11.3958 15.8258C11.8465 16.0209 12.3425 16.072 12.8211 15.9725C13.2996 15.8731 13.7392 15.6276 14.0842 15.2671C14.4292 14.9066 14.6641 14.4473 14.7593 13.9473C14.8545 13.4472 14.8056 12.9289 14.6189 12.4579C14.4322 11.9869 14.116 11.5844 13.7103 11.3011C13.3047 11.0179 12.8277 10.8667 12.3398 10.8667C11.6856 10.8667 11.0581 11.1383 10.5955 11.6217C10.1328 12.1051 9.87292 12.7607 9.87292 13.4444ZM13.5733 13.4444C13.5733 13.6993 13.5009 13.9485 13.3654 14.1604C13.2298 14.3724 13.0372 14.5376 12.8118 14.6351C12.5864 14.7327 12.3384 14.7582 12.0992 14.7084C11.8599 14.6587 11.6401 14.536 11.4676 14.3557C11.2951 14.1755 11.1777 13.9458 11.1301 13.6958C11.0825 13.4458 11.1069 13.1867 11.2003 12.9512C11.2936 12.7157 11.4517 12.5144 11.6545 12.3727C11.8574 12.2311 12.0959 12.1555 12.3398 12.1555C12.6669 12.1555 12.9807 12.2913 13.212 12.533C13.4433 12.7747 13.5733 13.1026 13.5733 13.4444Z" fill="#4D5359"/>
<path d="M16.5407 18.1443C15.6629 19.0022 14.5642 19.5733 13.3798 19.7873C12.1954 20.0013 10.977 19.849 9.87443 19.3491C8.77182 18.8491 7.83309 18.0233 7.1737 16.9733C6.51432 15.9232 6.16302 14.6947 6.16302 13.4387C6.16302 12.1828 6.51432 10.9543 7.1737 9.90424C7.83309 8.85419 8.77182 8.0284 9.87443 7.52844C10.977 7.02848 12.1954 6.87615 13.3798 7.09019C14.5642 7.30423 15.6629 7.87529 16.5407 8.73316V7.08772C15.4302 6.28262 14.1299 5.81056 12.7809 5.72274C11.4319 5.63491 10.0856 5.93466 8.88803 6.58949C7.69045 7.24432 6.6873 8.22924 5.98735 9.43744C5.2874 10.6456 4.91736 12.031 4.91736 13.4433C4.91736 14.8557 5.2874 16.241 5.98735 17.4492C6.6873 18.6574 7.69045 19.6423 8.88803 20.2972C10.0856 20.952 11.4319 21.2518 12.7809 21.1639C14.1299 21.0761 15.4302 20.6041 16.5407 19.799V18.1443Z" fill="#4D5359"/>
<path d="M16.5404 21.3243C15.2263 22.0907 13.7432 22.4849 12.2384 22.4677C10.7335 22.4506 9.25906 22.0227 7.96123 21.2266C6.6634 20.4304 5.58727 19.2936 4.83953 17.9289C4.09179 16.5642 3.69842 15.019 3.69842 13.4465C3.69842 11.874 4.09179 10.3287 4.83953 8.96403C5.58727 7.59933 6.6634 6.46254 7.96123 5.6664C9.25906 4.87026 10.7335 4.4424 12.2384 4.42526C13.7432 4.40811 15.2263 4.80228 16.5404 5.56867V4.13824C15.9278 3.8324 15.2866 3.59381 14.6269 3.42631L14.278 1.59075C14.2222 1.2982 14.0707 1.03504 13.8496 0.846324C13.6285 0.657609 13.3514 0.555077 13.0659 0.556285H11.6104C11.3259 0.555504 11.0498 0.657756 10.8293 0.845639C10.6088 1.03352 10.4574 1.29543 10.4008 1.58682L10.052 3.42238C9.03673 3.67546 8.0667 4.09639 7.17855 4.66925L5.68914 3.63478C5.45355 3.46638 5.16886 3.38975 4.88473 3.41827C4.60061 3.44678 4.33508 3.57863 4.13447 3.7908L3.10054 4.86985C2.89688 5.079 2.77008 5.35631 2.74233 5.65327C2.71457 5.95024 2.78763 6.24794 2.94871 6.49431L3.94124 8.05191C3.39281 8.97937 2.98996 9.99257 2.74795 11.0531L0.991271 11.4175C0.711698 11.476 0.460153 11.6339 0.279429 11.8644C0.0987042 12.0948 -3.85042e-05 12.3835 1.12632e-08 12.6815V14.2141C0.000140386 14.5118 0.0987917 14.8003 0.279228 15.0306C0.459664 15.261 0.710782 15.4191 0.990015 15.4781L2.7467 15.8425C2.9887 16.903 3.39156 17.9162 3.93999 18.8437L2.94997 20.4013C2.78835 20.6469 2.71449 20.944 2.74133 21.2407C2.76817 21.5374 2.89399 21.8148 3.09678 22.0244L4.12946 23.1061C4.32977 23.3187 4.59525 23.451 4.87945 23.4797C5.16365 23.5085 5.44848 23.4319 5.68412 23.2634L7.17855 22.2277C8.06616 22.8007 9.03581 23.2217 10.0507 23.4745L10.3983 25.3101C10.4544 25.6023 10.6057 25.8651 10.8265 26.0538C11.0473 26.2424 11.3239 26.3452 11.6092 26.3446H13.0647C13.3495 26.3448 13.6257 26.2419 13.846 26.0533C14.0664 25.8646 14.2173 25.602 14.273 25.3101L14.6231 23.4745C15.2838 23.3072 15.926 23.0681 16.5392 22.7613L16.5404 21.3243ZM11.6104 1.84773H13.0647L13.3156 3.19162C12.9919 3.15884 12.6644 3.14049 12.3332 3.14049C12.0019 3.14049 11.6731 3.15884 11.3494 3.19162L11.6104 1.84773ZM5.00278 4.70858L6.09568 5.46902C5.58615 5.90441 5.11957 6.39195 4.70289 6.92436L3.97512 5.77845L5.00278 4.70858ZM2.51958 14.4764L1.23595 14.2141V12.6933L2.52335 12.431C2.48769 12.7724 2.46968 13.1155 2.46939 13.4589C2.46939 13.7933 2.48821 14.1355 2.51958 14.4764ZM4.99901 22.187L3.97512 21.1145L4.70289 19.9725C5.11998 20.5038 5.58653 20.9904 6.09568 21.4253L4.99901 22.187ZM13.0659 25.0492H11.6104L11.3507 23.7079C11.6782 23.742 12.0057 23.7603 12.3382 23.7603C12.6663 23.7601 12.9942 23.7426 13.3207 23.7079L13.0659 25.0492Z" fill="#F16622"/>
<path d="M19.5851 0H19.417C19.1439 0 18.9226 0.23128 18.9226 0.516578V26.0662C18.9226 26.3515 19.1439 26.5828 19.417 26.5828H19.5851C19.8582 26.5828 20.0795 26.3515 20.0795 26.0662V0.516578C20.0795 0.23128 19.8582 0 19.5851 0Z" fill="#F16622"/>
</svg>
