<svg id="Layer_1" data-name="Layer 1" xmlns="http://www.w3.org/2000/svg" viewBox="0 0 1440 900"><defs><style>.cls-1{fill:#4d5359;}.cls-2{fill:#f16622;}.cls-3{fill:#fff;}</style></defs><path class="cls-1" d="M436.15,436.07v76.46q0,16.56-7.12,24.55t-20.81,8h-21q-15.27,0-24.13-9.36t-8.85-28.65q0-19.29,8.85-28.66T387.2,469h33.55v-33Zm-32.39,94.17q9.21,0,13.1-4.32t3.89-14.11V483.73H388.64q-9.94,0-14.48,5.47t-4.53,17.86q0,12.39,4.53,17.78t14.48,5.4Z"/><path class="cls-1" d="M500.81,469a35.08,35.08,0,0,1,12.1,1.87,21.89,21.89,0,0,1,8.28,5.26,20.17,20.17,0,0,1,4.68,8,33.54,33.54,0,0,1,1.44,9.94v35.71a32.83,32.83,0,0,1-.65,7.06,9.65,9.65,0,0,1-2.38,4.68,10.42,10.42,0,0,1-4.82,2.66,29.7,29.7,0,0,1-7.85.86H476q-13.53,0-19.51-6.19t-6-17a28.59,28.59,0,0,1,1.37-9.21,16.34,16.34,0,0,1,4.39-6.84,20.05,20.05,0,0,1,7.92-4.32,40.9,40.9,0,0,1,12-1.52h36.14v-5.76a11,11,0,0,0-2.66-7.49q-2.67-3-9-3H455.16V469Zm7.34,61.2q4.19,0,4.18-3.88V512.1H476.47q-6,0-8.49,2.37a8.7,8.7,0,0,0-2.45,6.56,9.16,9.16,0,0,0,2.45,6.69c1.63,1.68,4.36,2.52,8.21,2.52Z"/><path class="cls-1" d="M545.88,469V451h15.41v18h21v14.69h-21v36q0,6.48,2.38,8.93t7.84,2.45H582v14H568.35a35.21,35.21,0,0,1-10.16-1.29,15.24,15.24,0,0,1-7-4.32,18.81,18.81,0,0,1-4-8.07,50.81,50.81,0,0,1-1.3-12.52V483.73H535.51V469Z"/><path class="cls-1" d="M640.06,469a35,35,0,0,1,12.09,1.87,21.81,21.81,0,0,1,8.28,5.26,20.05,20.05,0,0,1,4.68,8,33.22,33.22,0,0,1,1.44,9.94v35.71a32.9,32.9,0,0,1-.64,7.06,9.74,9.74,0,0,1-2.38,4.68,10.42,10.42,0,0,1-4.82,2.66,29.7,29.7,0,0,1-7.85.86H615.29q-13.53,0-19.51-6.19t-6-17a28.59,28.59,0,0,1,1.37-9.21,16.34,16.34,0,0,1,4.39-6.84,20.05,20.05,0,0,1,7.92-4.32A40.82,40.82,0,0,1,615.43,500h36.15v-5.76a10.93,10.93,0,0,0-2.67-7.49q-2.65-3-9-3h-45.5V469Zm7.34,61.2q4.19,0,4.18-3.88V512.1H615.72q-6,0-8.49,2.37a8.7,8.7,0,0,0-2.45,6.56,9.16,9.16,0,0,0,2.45,6.69q2.44,2.52,8.2,2.52Z"/><path class="cls-2" d="M697.08,525.49v19.58H680.67V525.49Z"/><path class="cls-1" d="M774.84,469v14.69H732.79c-3.55,0-6.1.72-7.63,2.16s-2.31,3.6-2.31,6.48a8,8,0,0,0,2.24,6.12c1.48,1.39,4.34,2.09,8.56,2.09h17.86a41.38,41.38,0,0,1,13,1.73,21.1,21.1,0,0,1,8.07,4.6,15.61,15.61,0,0,1,4.1,6.77,29.23,29.23,0,0,1,1.15,8.36,30.2,30.2,0,0,1-1.37,9.28,17.69,17.69,0,0,1-4.39,7.27,20.83,20.83,0,0,1-7.77,4.76A33.44,33.44,0,0,1,753,545.07H708.74V530.24H753c3.55,0,6.1-.65,7.63-1.94s2.31-3.43,2.31-6.41-.84-5.26-2.52-6.55-4.45-2-8.28-2h-18a38.91,38.91,0,0,1-13-1.8,20.11,20.11,0,0,1-8-4.89,16.92,16.92,0,0,1-4.11-7.13,30.17,30.17,0,0,1-1.15-8.35q0-10.23,5.76-16.2t19-6Z"/><path class="cls-1" d="M792.84,469V451h15.41v18h21v14.69h-21v36q0,6.48,2.37,8.93c1.59,1.63,4.2,2.45,7.85,2.45H829v14H815.3a35.19,35.19,0,0,1-10.15-1.29,15.24,15.24,0,0,1-7-4.32,18.7,18.7,0,0,1-4-8.07,50.81,50.81,0,0,1-1.3-12.52V483.73H782.47V469Z"/><path class="cls-1" d="M887,469a35,35,0,0,1,12.1,1.87,21.81,21.81,0,0,1,8.28,5.26,20.05,20.05,0,0,1,4.68,8,33.22,33.22,0,0,1,1.44,9.94v35.71a32.2,32.2,0,0,1-.65,7.06,9.64,9.64,0,0,1-2.37,4.68,10.46,10.46,0,0,1-4.83,2.66,29.65,29.65,0,0,1-7.85.86H862.24q-13.53,0-19.51-6.19t-6-17a28.32,28.32,0,0,1,1.37-9.21,16.25,16.25,0,0,1,4.39-6.84,19.91,19.91,0,0,1,7.92-4.32A40.82,40.82,0,0,1,862.39,500h36.14v-5.76a10.92,10.92,0,0,0-2.66-7.49q-2.67-3-9-3h-45.5V469Zm7.35,61.2q4.17,0,4.17-3.88V512.1H862.68c-4,0-6.87.79-8.5,2.37a8.73,8.73,0,0,0-2.45,6.56,9.2,9.2,0,0,0,2.45,6.69q2.45,2.52,8.21,2.52Z"/><path class="cls-1" d="M997.89,469v14.69H960.17q-9.95,0-14.48,5.47t-4.53,17.86q0,12.39,4.53,17.78t14.48,5.4h37.72v14.83H958.73q-15.27,0-24.13-9.36t-8.85-28.65q0-19.29,8.85-28.66T958.73,469Z"/><path class="cls-1" d="M1025.54,436.07v64.51h7.06c3,0,5.45-.07,7.41-.22a15.31,15.31,0,0,0,5-1.08,9.05,9.05,0,0,0,3.46-2.59,33.18,33.18,0,0,0,3.16-4.75l12.68-22.9h16.56L1067.59,493a44.7,44.7,0,0,1-5.9,8.28,22.76,22.76,0,0,1-7.64,5.25,19,19,0,0,1,8.79,5.11,51.28,51.28,0,0,1,6.76,9.58l13.68,23.9h-17.13l-12.67-22.46a29.66,29.66,0,0,0-3.31-4.82,10.45,10.45,0,0,0-3.82-2.74,20.45,20.45,0,0,0-5.47-1.3,80.33,80.33,0,0,0-8.28-.36h-7.06v31.68h-15.26v-109Z"/><path class="cls-2" d="M1205.55,546.45h-56a48,48,0,0,1-48-48v-48a48,48,0,0,1,48-48h104v96A48,48,0,0,1,1205.55,546.45Z"/><path class="cls-3" d="M1161.24,449H1174v55.17h-12.8v-5.78q-7.87,7.37-16.94,7.36a24.39,24.39,0,0,1-18.92-8.27q-7.41-8.43-7.42-21.07,0-12.41,7.42-20.67a23.94,23.94,0,0,1,18.58-8.27q9.63,0,17.28,7.93ZM1131,476.41q0,7.93,4.25,12.92a13.92,13.92,0,0,0,11,5,14.62,14.62,0,0,0,11.44-4.87q4.36-5,4.36-12.8t-4.36-12.8a14.42,14.42,0,0,0-11.33-4.93,14.1,14.1,0,0,0-11,5A18.39,18.39,0,0,0,1131,476.41Z"/><path class="cls-3" d="M1198.23,449v31.66q0,13.71,10.82,13.71t10.81-13.71V449h12.75V481a35.42,35.42,0,0,1-1.65,11.44,19.14,19.14,0,0,1-5.49,7.76q-6.45,5.61-16.42,5.6t-16.38-5.6a19.54,19.54,0,0,1-5.6-7.76q-1.59-3.86-1.59-11.44V449Z"/><path class="cls-1" d="M368.83,399.36h-.39a16.07,16.07,0,0,1-9.57-6.05,19.09,19.09,0,0,1-4-12,18.38,18.38,0,0,1,4-12,16.36,16.36,0,0,1,9.72-6H369a22.63,22.63,0,0,1,3.67-.31,18.42,18.42,0,0,1,3.7.36h.36a12.17,12.17,0,0,1,7,4.08v-4.22h6.05v36.1h-6.12V395.2a12.13,12.13,0,0,1-6.9,4.09h-.42a21.17,21.17,0,0,1-7.53,0ZM361,381.26a13.49,13.49,0,0,0,3.37,9.16,10.6,10.6,0,0,0,8.24,3.16,10.43,10.43,0,0,0,8.19-3.16,13.26,13.26,0,0,0,2.87-9.12h0a13.25,13.25,0,0,0-2.87-9.11,10.43,10.43,0,0,0-8.19-3.18,10.59,10.59,0,0,0-8.24,3.18A13.44,13.44,0,0,0,361,381.26Zm148.23-18.38L495.89,399.7H488.6l-13.19-36.82h6.51l10.33,28.8,10.4-28.8Zm37.39,20.9h-28a3.69,3.69,0,0,0,.15,1.17,11.14,11.14,0,0,0,2.94,5.81,11.27,11.27,0,0,0,8.19,2.82,15,15,0,0,0,6.22-1.22,9.44,9.44,0,0,0,4.08-3.45l5.52,2.7a15.23,15.23,0,0,1-6.37,5.95,20.26,20.26,0,0,1-9.45,2.14,16.81,16.81,0,0,1-12.69-4.86,18.42,18.42,0,0,1-4.86-13.2v-.31A18.92,18.92,0,0,1,517,367.92a17.37,17.37,0,0,1,29.38,9.54,31.36,31.36,0,0,1,.31,3.63Zm-6.44-5.68a4.51,4.51,0,0,0,0-.9v-.27a9.71,9.71,0,0,0-10.59-8,10.67,10.67,0,0,0-7.7,2.64,10.56,10.56,0,0,0-2.9,5.35,7.51,7.51,0,0,0-.19,1.17Zm46.17,5.68H558.2a2.37,2.37,0,0,0,.17,1.17,11,11,0,0,0,2.94,5.81,11.24,11.24,0,0,0,8.31,2.82,14.86,14.86,0,0,0,6.2-1.22,9.2,9.2,0,0,0,4.08-3.45l5.52,2.7a15.18,15.18,0,0,1-6.35,5.95,20.36,20.36,0,0,1-9.45,2.14,16.87,16.87,0,0,1-12.71-4.86,18.53,18.53,0,0,1-4.86-13.2v-.31a18.92,18.92,0,0,1,4.67-13.41,16.27,16.27,0,0,1,12.51-5,16.86,16.86,0,0,1,11.33,3.84,17.07,17.07,0,0,1,5.56,10.65,29.27,29.27,0,0,1,.29,3.62ZM580,378.1a3.39,3.39,0,0,0,0-.9v-.27a9.71,9.71,0,0,0-10.6-8,9.84,9.84,0,0,0-10.59,8,11.43,11.43,0,0,0-.2,1.17Zm28-15.43a15.71,15.71,0,0,0-9.72,3.37v-2.86h-6v36.45h6V378.41a9.72,9.72,0,1,1,19.44,0v21.31h6V378.41A15.71,15.71,0,0,0,608,362.67h0Zm-193.43,37a18.79,18.79,0,0,1-3.74-.34h-.41a12.13,12.13,0,0,1-6.9-4.08v15.06h-6.13V363.23h6.13v4.1a12.11,12.11,0,0,1,7-4.08h.34a19.29,19.29,0,0,1,3.71-.37,22.55,22.55,0,0,1,3.67.32h.39a16.32,16.32,0,0,1,9.72,6,18.42,18.42,0,0,1,4,12,19,19,0,0,1-4,12,16,16,0,0,1-9.55,6.05h-.39a19.28,19.28,0,0,1-3.94.46Zm8.24-27.58a10.55,10.55,0,0,0-8.24-3.18,10.38,10.38,0,0,0-8.18,3.18,13.07,13.07,0,0,0-2.87,9.11h0a13.05,13.05,0,0,0,2.87,9.11,10.37,10.37,0,0,0,8.18,3.16,10.53,10.53,0,0,0,8.24-3.16,14.05,14.05,0,0,0,0-18.29Zm32.39,27.58a18.79,18.79,0,0,1-3.74-.34H451a12.2,12.2,0,0,1-6.87-4.08v15.06H438V363.23h6.13v4.1a12.11,12.11,0,0,1,7-4.08h.34a18.53,18.53,0,0,1,3.71-.37,23.72,23.72,0,0,1,3.67.32h.39a16.32,16.32,0,0,1,9.72,6,18.35,18.35,0,0,1,4,12,18.94,18.94,0,0,1-4,12,16.1,16.1,0,0,1-9.58,6.05H459a19.36,19.36,0,0,1-3.94.46Zm8.22-27.58a12.15,12.15,0,0,0-16.41,0,13.11,13.11,0,0,0-2.86,9.11h0a13.09,13.09,0,0,0,2.86,9.11,12.15,12.15,0,0,0,16.41,0,14.08,14.08,0,0,0,0-18.29Z"/><path class="cls-1" d="M253.9,451.15a19.66,19.66,0,1,0,19.66-19.66A19.66,19.66,0,0,0,253.9,451.15Zm29.49,0a9.83,9.83,0,1,1-9.83-9.83A9.83,9.83,0,0,1,283.39,451.15Z"/><path class="cls-1" d="M307.05,487a49.14,49.14,0,1,1,0-71.78V402.67a59,59,0,1,0,0,96.95Z"/><path class="cls-2" d="M307.05,511.23a68.81,68.81,0,1,1,0-120.17V380.15a78.2,78.2,0,0,0-15.25-5.43l-2.78-14a9.81,9.81,0,0,0-9.66-7.89h-11.6a9.81,9.81,0,0,0-9.64,7.86l-2.78,14a78.1,78.1,0,0,0-22.9,9.51l-11.87-7.89a9.71,9.71,0,0,0-12.39,1.19l-8.24,8.23a9.7,9.7,0,0,0-1.21,12.39L206.64,410a77.94,77.94,0,0,0-9.51,22.89l-14,2.78a9.83,9.83,0,0,0-7.9,9.64V457a9.84,9.84,0,0,0,7.89,9.64l14,2.78a77.94,77.94,0,0,0,9.51,22.89l-7.89,11.88a9.69,9.69,0,0,0,1.17,12.38l8.23,8.25a9.7,9.7,0,0,0,12.39,1.2l11.91-7.9a77.94,77.94,0,0,0,22.89,9.51l2.77,14a9.82,9.82,0,0,0,9.65,7.89h11.6a9.81,9.81,0,0,0,9.63-7.89l2.79-14a77.76,77.76,0,0,0,15.27-5.44ZM267.76,362.68l11.59,0,2,10.25c-2.58-.25-5.19-.39-7.83-.39s-5.26.14-7.84.39ZM215.1,384.5l8.71,5.8a78.69,78.69,0,0,0-11.1,11.1l-5.8-8.74ZM195.31,459l-10.23-2v-11.6l10.26-2a72.84,72.84,0,0,0-.43,7.84C194.91,453.79,195.06,456.4,195.31,459Zm19.76,58.81-8.16-8.18,5.8-8.71A79.15,79.15,0,0,0,223.81,512Zm64.29,21.83h-11.6l-2.07-10.23c2.61.26,5.22.4,7.87.4a78,78,0,0,0,7.83-.4Z"/><rect class="cls-2" x="326.03" y="348.62" width="9.22" height="202.75" rx="3.94"/></svg>