<svg xmlns="http://www.w3.org/2000/svg" viewBox="4761 2226 180 179.97">
  <defs>
    <style>
      .cls-1 {
        fill: #757575;
      }
    </style>
  </defs>
  <path id="np_magnifier_622823_000000" class="cls-1" d="M115.04,5.031A69.936,69.936,0,0,0,61.516,120.019l-10.5,10.5-3.752-3.752a5.943,5.943,0,0,0-8.5,0L6.743,158.786a6,6,0,0,0,0,8.441L22.75,183.234a6,6,0,0,0,8.5,0L63.267,151.22a6,6,0,0,0,0-8.441l-3.752-3.752,10.442-10.5A69.973,69.973,0,1,0,115.039,5.031Zm0,11.88A58.087,58.087,0,1,1,56.953,75,58.042,58.042,0,0,1,115.04,16.912Zm0,28.074c-20.141,0-37.984,10.536-48.959,26.574a6,6,0,0,0,0,6.815C77.054,94.413,94.9,105.01,115.04,105.01S153.025,94.412,164,78.375a6,6,0,0,0,0-6.815C153.026,55.521,135.183,44.986,115.04,44.986Zm0,12.005c14.428,0,27.168,7.026,36.14,18.008-8.965,10.958-21.727,18.008-36.14,18.008S87.864,85.957,78.9,75c8.973-10.981,21.713-18.008,36.14-18.008Zm0,6A12.005,12.005,0,1,0,127.045,75,12.008,12.008,0,0,0,115.04,62.994ZM43.009,139.465l7.5,7.566L27,170.541l-7.5-7.5Z" transform="translate(4755.992 2220.969)"/>
</svg>
