<svg xmlns="http://www.w3.org/2000/svg" width="12" height="10.286" viewBox="0 0 12 10.286"><path d="M15.306,15.642h.774v1.267l2.17-2.229L16.08,12.5v1.446h-.774c-2.215,0-3.466,1.658-4.57,3.121-.991,1.315-1.848,2.555-3.23,2.555H6.25v1.7H7.506c2.215,0,3.466-1.763,4.57-3.225.991-1.315,1.846-2.451,3.23-2.451Zm-5.81.97c.094-.123.19-.249.287-.378.236-.311.482-.64.75-.967a4.279,4.279,0,0,0-3.027-1.3H6.25v1.7s.356-.016,1.256,0a2.7,2.7,0,0,1,1.99.948Zm6.584,3.024h-.774a2.856,2.856,0,0,1-2.095-1.053c-.059.08-.121.161-.182.241-.265.351-.549.729-.862,1.1a4.345,4.345,0,0,0,3.139,1.406h.774v1.454l2.17-2.18-2.17-2.229Z" transform="translate(-6.25 -12.5)" fill="#fff"/></svg>