<?xml version="1.0" encoding="utf-8"?>
<!-- Generator: Adobe Illustrator 22.0.1, SVG Export Plug-In . SVG Version: 6.00 Build 0)  -->
<svg version="1.1" id="Layer_1" xmlns="http://www.w3.org/2000/svg" xmlns:xlink="http://www.w3.org/1999/xlink" x="0px" y="0px"
	 viewBox="0 0 4 17.5" style="enable-background:new 0 0 4 17.5;" xml:space="preserve">
<style type="text/css">
	.st0{stroke:#000000;enable-background:new    ;}
</style>
<g id="np_menu_1166843_000000" transform="translate(22116.398 328.199)">
	<path id="Path_152" class="st0" d="M-22115.9-319.5c0,0.8,0.7,1.5,1.5,1.5s1.5-0.7,1.5-1.5s-0.7-1.5-1.5-1.5
		C-22115.2-321-22115.9-320.3-22115.9-319.5z"/>
	<path id="Path_153" class="st0" d="M-22115.9-326.2c0,0.8,0.7,1.5,1.5,1.5s1.5-0.7,1.5-1.5c0-0.8-0.7-1.5-1.5-1.5
		C-22115.2-327.7-22115.9-327-22115.9-326.2z"/>
	<path id="Path_154" class="st0" d="M-22115.9-312.8c0,0.8,0.7,1.5,1.5,1.5c0.8,0,1.5-0.7,1.5-1.5c0-0.8-0.7-1.5-1.5-1.5
		C-22115.2-314.3-22115.9-313.6-22115.9-312.8z"/>
</g>
</svg>
