<svg xmlns="http://www.w3.org/2000/svg" xmlns:xlink="http://www.w3.org/1999/xlink" viewBox="0 0 147.002 144.561"><defs><style>.a{fill:#085783;}.b{fill:#0082c9;}.c{fill:#0997e3;}.d{fill:#1cad49;}.e{fill:#fff;stroke:#00a831;}.f{filter:url(#c);}.g{filter:url(#a);}</style><filter id="a" x="15.002" y="0" width="132" height="144.561" filterUnits="userSpaceOnUse"><feOffset dy="9" input="SourceAlpha"/><feGaussianBlur stdDeviation="6" result="b"/><feFlood flood-opacity="0.141"/><feComposite operator="in" in2="b"/><feComposite in="SourceGraphic"/></filter><filter id="c" x="0" y="40" width="66" height="66.002" filterUnits="userSpaceOnUse"><feOffset dy="8" input="SourceAlpha"/><feGaussianBlur stdDeviation="3" result="d"/><feFlood flood-opacity="0.18"/><feComposite operator="in" in2="d"/><feComposite in="SourceGraphic"/></filter></defs><g transform="translate(-699.998 -515)"><g transform="translate(38)"><g class="g" transform="matrix(1, 0, 0, 1, 662, 515)"><path class="a" d="M57.485,1.02,97.932,24.3a7.42,7.42,0,0,1,3.841,6.654V77.532a7.152,7.152,0,0,1-3.841,6.654L57.485,107.471a6.562,6.562,0,0,1-7.424,0L9.614,84.186a7.643,7.643,0,0,1-3.841-6.654V30.959A7.955,7.955,0,0,1,9.614,24.3L50.061,1.02a7.656,7.656,0,0,1,7.424,0Z" transform="translate(27.23 8.94)"/></g><path class="b" d="M13544,13913.562a6.682,6.682,0,0,1-3.711-1.15l-40.446-23.284a7.407,7.407,0,0,1-2.786-2.752,7.765,7.765,0,0,1-1.056-3.9V13835.9a7.93,7.93,0,0,1,3.841-6.655l40.447-23.284a7.643,7.643,0,0,1,7.424,0l40.445,23.284a7.443,7.443,0,0,1,3.844,6.655v46.572a8.032,8.032,0,0,1-.961,3.9,6.634,6.634,0,0,1-2.884,2.753l-40.444,23.284A6.7,6.7,0,0,1,13544,13913.562Zm-24-76.562v48h44a4,4,0,0,0,4-4v-40a4.006,4.006,0,0,0-4-4Z" transform="translate(-12801.001 -13281)"/></g><g class="f" transform="matrix(1, 0, 0, 1, 700, 515)"><path class="c" d="M13512,13917h-44a4.006,4.006,0,0,1-4-4v-40a4.006,4.006,0,0,1,4-4h44v48Zm-42-33a2,2,0,0,0-2,2v14a2,2,0,0,0,4,0v-14A2,2,0,0,0,13470,13884Z" transform="translate(-13455 -13828)"/></g><g transform="translate(1360 -202) rotate(90)"><path class="d" d="M2.956,0A3.223,3.223,0,0,0,0,3.394V28.606A3.223,3.223,0,0,0,2.956,32H35.044A3.223,3.223,0,0,0,38,28.606V3.394A3.223,3.223,0,0,0,35.044,0Z" transform="translate(797 560) rotate(90)"/><path class="e" d="M1.718,0A1.718,1.718,0,1,0,3.436,1.718,1.717,1.717,0,0,0,1.718,0ZM23.2,0a1.718,1.718,0,0,0-1.141.43H18.9c-.045,0-.089,0-.134,0a1.286,1.286,0,0,0-.859.47L9.719,10.739H2.859a1.718,1.718,0,1,0,0,2.577H15.182a1.718,1.718,0,1,0,0-2.577H13.062L19.5,3.007h2.55A1.719,1.719,0,1,0,23.2,0ZM29.21,0a1.718,1.718,0,1,0,1.718,1.718A1.717,1.717,0,0,0,29.21,0ZM8.148.4a1.211,1.211,0,0,0-.134.013,1.287,1.287,0,0,0-1.141,1.3V6.162a1.718,1.718,0,1,0,2.577,0V1.718A1.29,1.29,0,0,0,8.148.4Zm12.47,6.04a1.715,1.715,0,0,0-.4,3.383l2.107,2.953a1.289,1.289,0,0,0,1.047.537h4.7a1.718,1.718,0,1,0,0-2.577H24.042L22.324,8.323c.005-.054.013-.106.013-.161a1.717,1.717,0,0,0-1.718-1.718Zm-6.886,8.135a1.211,1.211,0,0,0-.134.013,1.287,1.287,0,0,0-1.141,1.3v1.718H8.873a1.718,1.718,0,1,0,0,2.577h9.746a1.718,1.718,0,1,0,0-2.577H15.035V15.894a1.29,1.29,0,0,0-1.3-1.316Zm-12.014,2.6A1.718,1.718,0,1,0,3.436,18.9,1.717,1.717,0,0,0,1.718,17.182Zm27.492,0A1.718,1.718,0,1,0,30.928,18.9,1.717,1.717,0,0,0,29.21,17.182Z" transform="translate(791.309 563.536) rotate(90)"/></g></g></svg>