<svg width="156" height="160" viewBox="0 0 156 160" fill="none" xmlns="http://www.w3.org/2000/svg">
<g opacity="0.5">
<path d="M34.8291 153.18L46.8629 158.565L134.157 159.133V146.903L47.2615 146.49L34.8516 151.645C34.7032 151.71 34.5766 151.816 34.4869 151.951C34.3971 152.086 34.3482 152.243 34.3458 152.405C34.3434 152.567 34.3877 152.726 34.4734 152.863C34.5592 153.001 34.6826 153.111 34.8291 153.18Z" fill="#EBEBEB"/>
<path d="M47.2615 146.49C47.349 146.597 47.411 146.722 47.4427 146.857C47.4745 146.991 47.4751 147.131 47.4447 147.266C47.4142 147.401 47.3535 147.527 47.267 147.635C47.1805 147.743 47.0706 147.829 46.9456 147.888C47.492 148.037 47.9788 148.351 48.3388 148.788C48.6989 149.225 48.9145 149.763 48.9557 150.327C48.997 150.892 48.862 151.456 48.5693 151.94C48.2766 152.425 47.8407 152.807 47.3217 153.033C47.773 153.361 48.1305 153.801 48.3589 154.31C48.5872 154.819 48.6783 155.379 48.6232 155.934C48.568 156.49 48.3686 157.021 48.0446 157.475C47.7206 157.929 47.2834 158.291 46.7764 158.523L35.1637 153.334C34.9849 153.254 34.8333 153.124 34.7278 152.959C34.6223 152.794 34.5676 152.601 34.5704 152.406C34.5732 152.21 34.6334 152.019 34.7436 151.857C34.8537 151.695 35.009 151.569 35.1901 151.495L47.2615 146.49Z" fill="#F5F5F5"/>
<path d="M38.609 154.868C38.609 154.868 41.1211 153.409 38.8722 149.979L34.525 151.754C34.3997 151.805 34.2922 151.892 34.2159 152.003C34.1396 152.115 34.0978 152.246 34.0958 152.382C34.0938 152.517 34.1316 152.65 34.2046 152.763C34.2776 152.877 34.3825 152.967 34.5062 153.022L38.609 154.868Z" fill="#E0E0E0"/>
<path d="M47.3396 153.018L134.175 153.044V159.133L46.8808 158.565L46.7793 158.52C47.2078 158.331 47.5873 158.047 47.8887 157.688C48.2919 157.217 48.5528 156.64 48.6408 156.026C48.719 155.455 48.6399 154.872 48.4119 154.342C48.184 153.812 47.8159 153.354 47.3471 153.018H47.3396Z" fill="#E0E0E0"/>
<path d="M46.9473 147.873L134.193 148.37V146.903L47.2632 146.49C47.4055 146.682 47.472 146.919 47.4498 147.157C47.4276 147.396 47.3183 147.617 47.1428 147.779C47.0814 147.818 47.0158 147.85 46.9473 147.873Z" fill="#E0E0E0"/>
<path d="M44.3931 154.59C44.4465 154.609 44.5051 154.609 44.5585 154.59C44.6309 154.551 44.6866 154.487 44.715 154.41C44.7435 154.333 44.7426 154.249 44.7127 154.172C44.6067 153.933 44.4277 153.733 44.2013 153.601C44.0679 153.512 43.9098 153.469 43.75 153.477C43.6623 153.478 43.5764 153.501 43.5006 153.546C43.4248 153.59 43.3617 153.653 43.3176 153.729C43.2784 153.819 43.2582 153.916 43.2582 154.014C43.2582 154.113 43.2784 154.21 43.3176 154.3C43.3969 154.504 43.5045 154.695 43.6372 154.868C43.9164 155.262 44.2751 155.592 44.6902 155.838C44.7964 155.905 44.9159 155.949 45.0405 155.966C45.1651 155.983 45.2919 155.972 45.4122 155.936C45.5314 155.882 45.6355 155.8 45.7155 155.696C45.7955 155.592 45.8489 155.471 45.871 155.342C45.8886 155.058 45.8498 154.773 45.7569 154.504C45.6639 154.235 45.5187 153.986 45.3295 153.774C44.9918 153.338 44.54 153.004 44.0242 152.81C43.5084 152.615 42.9488 152.567 42.4075 152.672C42.2916 152.703 42.1845 152.761 42.0945 152.841C42.0045 152.92 41.934 153.019 41.8885 153.131C41.8083 153.349 41.78 153.584 41.8058 153.815C41.8533 154.236 41.9636 154.648 42.133 155.037C42.374 155.603 42.7256 156.114 43.1671 156.541C43.3251 156.692 43.4529 156.797 43.5432 156.869C43.5914 156.903 43.6379 156.939 43.6823 156.978C43.4889 156.861 43.3086 156.723 43.1446 156.568C42.6911 156.143 42.3279 155.632 42.0766 155.064C41.9019 154.669 41.7878 154.251 41.7381 153.823C41.7082 153.58 41.7366 153.334 41.8208 153.104C41.8701 152.983 41.9465 152.874 42.0443 152.787C42.1421 152.699 42.2586 152.636 42.3849 152.6C43.0895 152.467 43.8186 152.581 44.4486 152.924C45.0785 153.266 45.5704 153.816 45.8409 154.481C45.9571 154.753 45.9949 155.053 45.95 155.346C45.9264 155.489 45.8677 155.624 45.7791 155.739C45.6905 155.854 45.5748 155.945 45.4423 156.004C45.3105 156.043 45.1718 156.054 45.0356 156.035C44.8994 156.016 44.7688 155.968 44.6526 155.895C44.2292 155.641 43.864 155.302 43.5808 154.898C43.4439 154.719 43.3337 154.522 43.2536 154.311C43.2108 154.213 43.1886 154.107 43.1886 153.999C43.1886 153.892 43.2108 153.786 43.2536 153.687C43.3038 153.604 43.3743 153.535 43.4585 153.486C43.5426 153.437 43.6378 153.411 43.735 153.409C43.9058 153.405 44.0737 153.454 44.2163 153.548C44.4479 153.691 44.6293 153.903 44.7353 154.153C44.7605 154.236 44.7563 154.325 44.7234 154.406C44.6905 154.486 44.631 154.552 44.5548 154.593C44.5293 154.605 44.5015 154.611 44.4735 154.61C44.4455 154.61 44.418 154.603 44.3931 154.59Z" fill="white"/>
<path d="M41.4375 149.035C41.4947 149.186 41.5613 149.333 41.6368 149.475C41.8525 149.857 42.1428 150.19 42.4905 150.457C43.0075 150.845 43.5678 151.172 44.1602 151.431C44.9004 151.738 45.5842 152.166 46.1833 152.698C46.7552 153.275 47.1472 154.005 47.3115 154.8C47.42 155.343 47.4176 155.902 47.3045 156.443C47.1914 156.985 46.9699 157.498 46.6534 157.952C46.5607 158.085 46.4576 158.211 46.345 158.328C46.3643 158.291 46.3883 158.257 46.4165 158.226C46.4916 158.132 46.5619 158.034 46.6271 157.933C46.868 157.567 47.0507 157.166 47.1686 156.745C47.345 156.116 47.3682 155.455 47.2363 154.815C47.0666 154.035 46.6748 153.321 46.1081 152.758C45.5156 152.232 44.8411 151.807 44.1113 151.499C43.5154 151.235 42.9535 150.9 42.4378 150.502C42.0877 150.228 41.7994 149.883 41.5917 149.49C41.521 149.346 41.4692 149.193 41.4375 149.035Z" fill="white"/>
<path d="M44.6043 147.524C44.4948 147.812 44.4948 148.13 44.6043 148.419C44.9237 149.087 45.3435 149.702 45.8491 150.243C46.3413 150.794 46.8825 151.3 47.4661 151.754C47.688 151.931 47.876 152.066 48.0039 152.16C48.0735 152.205 48.139 152.255 48.1994 152.311C48.1252 152.275 48.0535 152.233 47.9851 152.187C47.8534 152.1 47.6579 151.972 47.4323 151.811C46.8374 151.367 46.2904 150.863 45.8002 150.307C45.532 149.996 45.281 149.671 45.0481 149.333C44.8466 149.061 44.6846 148.762 44.5667 148.445C44.4883 148.227 44.4714 147.991 44.5178 147.764C44.5333 147.68 44.5625 147.599 44.6043 147.524Z" fill="white"/>
<path d="M48.9323 150.792C48.7751 150.737 48.6239 150.667 48.481 150.581C48.117 150.393 47.7987 150.127 47.5484 149.803C47.4227 149.637 47.3344 149.446 47.2896 149.243C47.2448 149.039 47.2446 148.829 47.2889 148.626C47.3203 148.503 47.3739 148.387 47.4469 148.283C47.4995 148.216 47.5371 148.182 47.5409 148.186C47.4544 148.327 47.3897 148.48 47.3491 148.641C47.3109 148.837 47.3149 149.039 47.361 149.233C47.407 149.428 47.494 149.611 47.6161 149.769C47.8602 150.084 48.1644 150.347 48.5111 150.543C48.6567 150.617 48.7974 150.7 48.9323 150.792Z" fill="white"/>
<path d="M39.4376 149.697L39.5015 149.727C39.5647 149.756 39.6262 149.789 39.6858 149.825C39.7823 149.88 39.8678 149.953 39.9378 150.039C40.0265 150.161 40.0857 150.301 40.1107 150.449C40.186 150.769 40.201 151.16 40.2536 151.577C40.3132 152.035 40.4113 152.486 40.547 152.927C40.8037 153.727 41.1218 154.505 41.4984 155.255C41.6225 155.507 41.7353 155.733 41.8369 155.943C41.8835 156.024 41.9213 156.11 41.9497 156.199C41.8957 156.123 41.8479 156.042 41.8068 155.958C41.7203 155.8 41.5962 155.582 41.4307 155.281C41.0368 154.535 40.7084 153.757 40.4492 152.954C40.3121 152.507 40.2165 152.049 40.1634 151.585C40.1145 151.156 40.107 150.773 40.0355 150.457C40.0241 150.333 39.9842 150.214 39.919 150.108C39.8537 150.002 39.7649 149.913 39.6595 149.847C39.5316 149.753 39.4338 149.701 39.4376 149.697Z" fill="white"/>
<path d="M133.791 159.133V146.907H135.103C136.712 146.907 138.255 147.546 139.393 148.684C140.53 149.821 141.169 151.364 141.169 152.973V153.067C141.169 154.676 140.53 156.218 139.393 157.356C138.255 158.493 136.712 159.133 135.103 159.133H133.791Z" fill="#F5F5F5"/>
<path d="M33.6623 0C33.4875 0.311016 33.2849 0.605546 33.0569 0.879975C32.662 1.41022 32.1017 2.12849 31.4624 2.90317C30.8231 3.67784 30.2252 4.36603 29.7814 4.8549C29.555 5.12874 29.3031 5.38056 29.0293 5.60702C29.219 5.30608 29.4355 5.02288 29.6761 4.76089L31.312 2.77531L32.9478 0.789722C33.1649 0.508125 33.4038 0.244067 33.6623 0Z" fill="#E0E0E0"/>
<path d="M29.4766 43.7954C30.7458 45.814 32.2395 47.6823 33.9291 49.3648L29.4766 43.7954Z" fill="white"/>
<path d="M33.9291 49.3652C33.6463 49.158 33.3865 48.9209 33.1544 48.6582C32.5604 48.0624 31.9992 47.4347 31.4734 46.7779C30.944 46.1198 30.4495 45.4344 29.9918 44.7246C29.7889 44.4386 29.6162 44.1324 29.4766 43.8108C29.7061 44.0737 29.9149 44.354 30.1008 44.6494C30.4769 45.1759 31.0034 45.8941 31.605 46.6651C32.2067 47.436 32.8047 48.1054 33.2371 48.5867C33.4856 48.8298 33.7168 49.0899 33.9291 49.3652Z" fill="#E0E0E0"/>
<path d="M0 159.001C0 158.944 34.9245 158.903 77.9981 158.903C121.072 158.903 156 158.944 156 159.001C156 159.057 121.083 159.099 77.9981 159.099C34.9132 159.099 0 159.053 0 159.001Z" fill="#6C7584"/>
<path d="M125.666 128.6L34.5846 133.489C33.9655 133.521 33.359 133.306 32.8981 132.892C32.4371 132.477 32.1592 131.897 32.1251 131.278L25.7923 13.2711C25.7595 12.6518 25.9741 12.0448 26.3887 11.5836C26.8034 11.1224 27.3842 10.8447 28.0036 10.8117L119.081 5.92295C119.7 5.89016 120.307 6.10468 120.769 6.51934C121.23 6.934 121.507 7.51485 121.54 8.13417L127.873 126.141C127.89 126.448 127.847 126.755 127.745 127.044C127.644 127.334 127.486 127.601 127.28 127.829C127.075 128.058 126.827 128.244 126.55 128.376C126.273 128.508 125.972 128.585 125.666 128.6Z" fill="#6C7584"/>
<path d="M123.967 128.691L38.5791 133.275C38.3087 133.29 38.0381 133.251 37.7826 133.161C37.5272 133.071 37.292 132.932 37.0905 132.751C36.8889 132.57 36.7251 132.351 36.6082 132.107C36.4913 131.862 36.4237 131.597 36.4093 131.327L30.1066 13.8917C30.0918 13.6213 30.1306 13.3506 30.2205 13.0952C30.3105 12.8398 30.4499 12.6046 30.6308 12.4031C30.8117 12.2015 31.0306 12.0376 31.2749 11.9208C31.5192 11.8039 31.7841 11.7363 32.0545 11.7219L117.446 7.13773C117.717 7.12146 117.99 7.15902 118.246 7.24823C118.503 7.33744 118.74 7.47656 118.943 7.65757C119.146 7.83859 119.312 8.05794 119.43 8.30303C119.548 8.54812 119.616 8.8141 119.631 9.08571L125.93 126.525C125.944 126.796 125.905 127.068 125.814 127.324C125.723 127.58 125.583 127.816 125.4 128.017C125.217 128.219 124.997 128.382 124.751 128.497C124.505 128.613 124.238 128.679 123.967 128.691Z" fill="#E0E0E0"/>
<path d="M121.135 128.845L35.7397 133.426C35.4692 133.441 35.1983 133.403 34.9427 133.313C34.687 133.223 34.4516 133.084 34.25 132.903C34.0484 132.722 33.8845 132.503 33.7678 132.258C33.6511 132.013 33.5838 131.748 33.5699 131.478L27.2671 14.0424C27.2514 13.7712 27.2893 13.4995 27.3788 13.243C27.4682 12.9865 27.6074 12.7501 27.7884 12.5475C27.9694 12.3449 28.1885 12.18 28.4334 12.0622C28.6782 11.9445 28.9439 11.8762 29.2151 11.8613L114.607 7.29219C115.151 7.26341 115.684 7.45083 116.09 7.8136C116.497 8.17637 116.743 8.68509 116.776 9.22889L123.079 126.664C123.095 126.935 123.058 127.207 122.969 127.463C122.88 127.72 122.741 127.956 122.56 128.159C122.38 128.362 122.161 128.527 121.916 128.644C121.672 128.762 121.406 128.83 121.135 128.845Z" fill="white"/>
<path d="M121.136 128.845H121.204C121.249 128.845 121.316 128.845 121.403 128.819C121.672 128.771 121.928 128.667 122.155 128.514C122.525 128.268 122.807 127.909 122.96 127.491C123.163 126.991 123.039 126.363 123.02 125.667C122.866 122.881 122.644 118.767 122.347 113.476C121.771 102.882 120.937 87.5577 119.91 68.6232C119.395 59.1541 118.834 48.7824 118.233 37.6474C117.934 32.0817 117.625 26.3305 117.304 20.3938C117.143 17.4255 116.982 14.417 116.819 11.3684C116.774 10.6163 116.744 9.83413 116.683 9.08201C116.63 8.71544 116.475 8.37118 116.236 8.08856C115.997 7.80594 115.682 7.59636 115.33 7.48377C114.962 7.38633 114.578 7.36332 114.201 7.41607L113.036 7.47624L110.697 7.6041L29.2312 11.9701C28.7986 11.9941 28.3859 12.1594 28.0564 12.4407C27.7269 12.7219 27.4989 13.1036 27.4073 13.527C27.3638 13.741 27.3524 13.9603 27.3735 14.1776L27.4111 14.8507L27.4825 16.197C27.5803 17.9946 27.6768 19.7846 27.7721 21.5671C27.9626 25.1347 28.1519 28.6784 28.3399 32.1983C28.721 39.2331 29.0971 46.1613 29.4681 52.983C30.1977 66.6076 30.9009 79.7508 31.574 92.2735C32.2472 104.796 32.8752 116.691 33.4543 127.826C33.4882 128.522 33.5258 129.214 33.5634 129.906L33.6198 130.936C33.617 131.274 33.6536 131.611 33.7288 131.94C33.8242 132.255 33.9965 132.541 34.2303 132.773C34.464 133.005 34.7518 133.175 35.0676 133.268C35.3861 133.353 35.7184 133.375 36.0454 133.331L37.0569 133.279L44.9542 132.858L59.8385 132.064L104.691 129.691L116.886 129.052L120.057 128.894C120.771 128.856 121.14 128.845 121.14 128.845L120.057 128.913L116.886 129.093L104.695 129.766L59.8385 132.2L44.9767 133.004L37.0795 133.429L36.0717 133.486C35.7258 133.529 35.3749 133.506 35.0375 133.418C34.6962 133.318 34.3854 133.134 34.1332 132.883C33.881 132.632 33.6955 132.322 33.5935 131.981C33.5113 131.642 33.4708 131.293 33.4731 130.944L33.4167 129.909C33.3791 129.221 33.3415 128.525 33.3039 127.83C32.706 116.695 32.0629 104.8 31.3898 92.2773C30.7166 79.7545 30.0096 66.6151 29.2763 52.9867C28.9078 46.1751 28.5317 39.2481 28.1481 32.2058C27.9551 28.6959 27.7646 25.1522 27.5765 21.5746C27.4788 19.7896 27.3822 17.9996 27.287 16.2045L27.2155 14.8695L27.1779 14.1926C27.1567 13.9601 27.1694 13.7258 27.2155 13.4969C27.315 13.03 27.5656 12.6089 27.9287 12.2989C28.2918 11.9888 28.7469 11.8072 29.2237 11.7821L110.678 7.41984L113.021 7.29574L114.183 7.23181C114.579 7.17764 114.982 7.20451 115.367 7.31078C115.752 7.43365 116.095 7.66245 116.357 7.97102C116.618 8.27959 116.787 8.65547 116.845 9.05569C116.905 9.83789 116.932 10.59 116.977 11.3572C117.142 14.4082 117.304 17.4167 117.462 20.3825C117.778 26.3167 118.085 32.0692 118.383 37.6398C118.974 48.7749 119.511 59.1466 120.03 68.6157C121.034 87.5502 121.847 102.878 122.407 113.468C122.685 118.763 122.9 122.87 123.043 125.667C123.061 126.356 123.182 126.991 122.975 127.503C122.819 127.925 122.53 128.286 122.151 128.529C121.925 128.681 121.668 128.782 121.399 128.826C121.312 128.839 121.224 128.845 121.136 128.845Z" fill="#6C7584"/>
<path d="M32.3613 23.0034C33.3915 23.0034 34.2266 22.1683 34.2266 21.1382C34.2266 20.108 33.3915 19.2729 32.3613 19.2729C31.3312 19.2729 30.4961 20.108 30.4961 21.1382C30.4961 22.1683 31.3312 23.0034 32.3613 23.0034Z" fill="#6C7584"/>
<path d="M32.7064 19.8072L22.5862 20.3499C22.4286 20.3584 22.3076 20.493 22.3161 20.6506L22.3378 21.0562C22.3463 21.2138 22.4809 21.3347 22.6385 21.3263L32.7587 20.7835C32.9164 20.775 33.0373 20.6404 33.0288 20.4828L33.0071 20.0772C32.9986 19.9196 32.864 19.7987 32.7064 19.8072Z" fill="#E0E0E0"/>
<path d="M32.7615 20.7846C32.8326 20.7659 32.8967 20.7266 32.9457 20.6718C32.9722 20.6361 32.9903 20.595 32.9988 20.5514C33.0072 20.5078 33.0058 20.4628 32.9946 20.4199C32.9946 20.3108 32.9946 20.1754 32.9645 20.0438C32.9554 20.0096 32.9396 19.9776 32.9179 19.9497C32.8962 19.9219 32.8691 19.8986 32.8382 19.8814C32.8073 19.8642 32.7733 19.8534 32.7381 19.8497C32.703 19.8459 32.6674 19.8493 32.6336 19.8595L32.062 19.8971L30.6668 19.9874L22.6079 20.4499C22.576 20.4518 22.5451 20.4618 22.5181 20.4789C22.4912 20.496 22.469 20.5197 22.4537 20.5477C22.4391 20.5769 22.4314 20.6091 22.4311 20.6417V20.7884V21.0704C22.435 21.1023 22.4471 21.1325 22.4662 21.1582C22.4853 21.184 22.5108 21.2042 22.5402 21.2171C22.5713 21.2231 22.6032 21.2231 22.6342 21.2171H22.7771H23.0629L23.627 21.187L25.7705 21.078L29.4033 20.905L31.8514 20.8034L32.5208 20.7846C32.5983 20.7768 32.6764 20.7768 32.7539 20.7846C32.6778 20.805 32.5995 20.8163 32.5208 20.8185L31.8552 20.8711L29.4108 21.0328L25.7818 21.2509L23.6345 21.3713L23.0742 21.4014H22.7884H22.6455C22.5825 21.408 22.5189 21.3976 22.4612 21.3713C22.401 21.3457 22.3486 21.3048 22.309 21.2527C22.2694 21.2006 22.2441 21.1391 22.2356 21.0742L22.2168 20.7733V20.6267C22.217 20.5602 22.2325 20.4946 22.2619 20.4349C22.2925 20.3758 22.3382 20.3259 22.3943 20.2902C22.4505 20.2545 22.5151 20.2344 22.5816 20.2318L30.6593 19.8257L32.0545 19.7655L32.6261 19.743C32.7193 19.7272 32.815 19.7445 32.8968 19.7918C32.9338 19.8162 32.9655 19.8477 32.99 19.8845C33.0145 19.9214 33.0315 19.9627 33.0397 20.0062C33.0397 20.1604 33.0397 20.2807 33.0397 20.3823C33.0461 20.4322 33.0424 20.4828 33.0288 20.5313C33.0153 20.5797 32.9921 20.625 32.9608 20.6643C32.8592 20.8147 32.7615 20.7846 32.7615 20.7846Z" fill="#6C7584"/>
<path d="M32.7454 21.5962L22.6252 22.139C22.4676 22.1474 22.3467 22.2821 22.3552 22.4397L22.3769 22.8453C22.3854 23.0029 22.52 23.1238 22.6776 23.1153L32.7978 22.5726C32.9554 22.5641 33.0764 22.4295 33.0679 22.2719L33.0461 21.8663C33.0377 21.7087 32.9031 21.5878 32.7454 21.5962Z" fill="#E0E0E0"/>
<path d="M32.8012 22.5711C32.8716 22.5508 32.9353 22.5118 32.9854 22.4582C33.0119 22.4226 33.03 22.3814 33.0385 22.3378C33.0469 22.2942 33.0455 22.2493 33.0343 22.2063C33.0343 22.0972 33.0343 21.9581 33.0042 21.8302C32.9951 21.7961 32.9793 21.7641 32.9576 21.7362C32.9359 21.7083 32.9088 21.685 32.8779 21.6678C32.847 21.6506 32.813 21.6398 32.7778 21.6361C32.7427 21.6323 32.7071 21.6357 32.6733 21.6459L32.1017 21.6873L30.7065 21.7776L22.6326 22.2364C22.5998 22.2387 22.5682 22.2492 22.5406 22.2669C22.513 22.2847 22.4903 22.3091 22.4746 22.3379C22.459 22.3666 22.4524 22.3994 22.4558 22.4319V22.5748V22.8569C22.4597 22.8887 22.4718 22.9189 22.4909 22.9447C22.51 22.9704 22.5355 22.9907 22.5649 23.0035C22.5955 23.0131 22.6283 23.0131 22.6589 23.0035H22.8018H23.0876L23.6517 22.9734L25.7952 22.8644L29.4279 22.6914L31.8761 22.5899H32.5454C32.6228 22.5794 32.7012 22.5794 32.7786 22.5899C32.7021 22.608 32.624 22.6181 32.5454 22.6199L31.8798 22.6763L29.4354 22.8381L25.8065 23.0524L23.6592 23.1727L23.0989 23.2066H22.8131H22.6702C22.6069 23.21 22.5438 23.1984 22.4859 23.1727C22.4257 23.1471 22.3732 23.1063 22.3336 23.0542C22.2941 23.0021 22.2688 22.9405 22.2603 22.8757V22.5786V22.4319C22.2568 22.3654 22.2711 22.2993 22.3016 22.2401C22.3332 22.1815 22.379 22.1318 22.4349 22.0956C22.4908 22.0595 22.5549 22.038 22.6213 22.0333L30.699 21.6384L32.0942 21.5783L32.6658 21.5557C32.759 21.54 32.8547 21.5573 32.9365 21.6046C32.9734 21.6282 33.005 21.659 33.0296 21.6952C33.0541 21.7314 33.0711 21.7722 33.0794 21.8152C33.0794 21.9694 33.0794 22.0935 33.0794 22.1912C33.0882 22.2406 33.0857 22.2913 33.072 22.3395C33.0583 22.3877 33.0338 22.4321 33.0005 22.4695C32.8989 22.6011 32.7936 22.5711 32.8012 22.5711Z" fill="#6C7584"/>
<path d="M34.6106 28.2081C34.6333 28.5805 34.5448 28.9512 34.3562 29.2731C34.1676 29.5951 33.8875 29.8536 33.5515 30.0158C33.2155 30.1781 32.8389 30.2367 32.4695 30.1843C32.1001 30.1319 31.7547 29.9707 31.4771 29.7213C31.1996 29.472 31.0025 29.1457 30.911 28.784C30.8194 28.4223 30.8376 28.0416 30.9631 27.6902C31.0886 27.3389 31.3157 27.0328 31.6157 26.8109C31.9157 26.5891 32.2749 26.4615 32.6476 26.4444C33.1408 26.4217 33.6232 26.594 33.9905 26.924C34.3578 27.254 34.5805 27.7152 34.6106 28.2081Z" fill="#6C7584"/>
<path d="M32.9681 26.9507L22.8479 27.4935C22.6903 27.5019 22.5694 27.6366 22.5778 27.7942L22.5996 28.1997C22.608 28.3574 22.7426 28.4783 22.9003 28.4698L33.0205 27.9271C33.1781 27.9186 33.299 27.784 33.2906 27.6264L33.2688 27.2208C33.2603 27.0632 33.1257 26.9423 32.9681 26.9507Z" fill="#E0E0E0"/>
<path d="M33.0232 27.926C33.0943 27.9052 33.1582 27.8648 33.2074 27.8094C33.2338 27.7744 33.252 27.7339 33.2604 27.6909C33.2689 27.6479 33.2675 27.6036 33.2563 27.5612C33.2563 27.4522 33.2563 27.313 33.2262 27.1852C33.2172 27.151 33.2013 27.119 33.1796 27.0911C33.1579 27.0632 33.1308 27.04 33.0999 27.0228C33.069 27.0056 33.035 26.9948 32.9998 26.991C32.9647 26.9872 32.9291 26.9906 32.8953 27.0009L32.3237 27.0422L30.9285 27.1287L22.8508 27.5913C22.8185 27.5932 22.7872 27.6035 22.7601 27.6214C22.733 27.6392 22.7111 27.6638 22.6966 27.6928C22.6812 27.7217 22.6734 27.7541 22.6741 27.7868V27.9297V28.2118C22.6779 28.2436 22.69 28.2739 22.7091 28.2996C22.7283 28.3253 22.7538 28.3456 22.7831 28.3585C22.814 28.3663 22.8463 28.3663 22.8771 28.3585H23.02H23.3058L23.8699 28.3284L26.0135 28.2193L29.6462 28.0463L32.0943 27.9448H32.7637C32.8411 27.9345 32.9195 27.9345 32.9969 27.9448C32.9199 27.96 32.842 27.9701 32.7637 27.9749L32.0981 28.0313L29.6537 28.193L26.0247 28.4073L23.8775 28.5277L23.3171 28.5615H23.0313H22.8884C22.8252 28.5649 22.7621 28.5533 22.7042 28.5277C22.644 28.5021 22.5915 28.4612 22.5519 28.4091C22.5123 28.357 22.487 28.2955 22.4785 28.2306V27.9335V27.7831C22.4782 27.7177 22.4937 27.6532 22.5236 27.5951C22.5537 27.5353 22.5992 27.4846 22.6554 27.4482C22.7116 27.4118 22.7764 27.3911 22.8433 27.3882L30.921 26.9858L32.3162 26.9257L32.8878 26.9031C32.981 26.8874 33.0767 26.9047 33.1586 26.952C33.1954 26.9756 33.227 27.0064 33.2516 27.0426C33.2762 27.0788 33.2931 27.1196 33.3015 27.1626C33.3015 27.3168 33.3015 27.4371 33.3015 27.5386C33.3089 27.588 33.3057 27.6383 33.2921 27.6863C33.2785 27.7343 33.2547 27.7789 33.2225 27.8169C33.136 27.9561 33.0157 27.926 33.0232 27.926Z" fill="#6C7584"/>
<path d="M33.0033 28.7322L22.8831 29.275C22.7254 29.2834 22.6045 29.4181 22.613 29.5757L22.6347 29.9812C22.6432 30.1389 22.7778 30.2598 22.9354 30.2513L33.0556 29.7085C33.2132 29.7001 33.3342 29.5655 33.3257 29.4078L33.304 29.0023C33.2955 28.8447 33.1609 28.7237 33.0033 28.7322Z" fill="#E0E0E0"/>
<path d="M33.0617 29.7085C33.1328 29.6898 33.1969 29.6506 33.2459 29.5957C33.2726 29.5602 33.2909 29.519 33.2994 29.4754C33.3079 29.4317 33.3063 29.3867 33.2948 29.3438C33.2948 29.2347 33.2948 29.0993 33.2647 28.9677C33.2556 28.9336 33.2398 28.9016 33.2181 28.8737C33.1964 28.8458 33.1693 28.8225 33.1384 28.8053C33.1075 28.7881 33.0735 28.7773 33.0383 28.7736C33.0032 28.7698 32.9676 28.7732 32.9338 28.7834L32.3622 28.8211L30.967 28.9113L22.8931 29.3739C22.86 29.3751 22.828 29.3851 22.8002 29.403C22.7724 29.4209 22.7499 29.4459 22.7351 29.4754C22.7259 29.5048 22.7259 29.5363 22.7351 29.5656V29.7123V29.9944C22.739 30.0262 22.7511 30.0564 22.7702 30.0822C22.7893 30.1079 22.8148 30.1282 22.8442 30.141C22.8752 30.147 22.9071 30.147 22.9382 30.141H23.0811H23.3669L23.931 30.1109L26.0745 30.0019L29.7072 29.8289L32.1554 29.7274H32.8247C32.9022 29.7193 32.9804 29.7193 33.0579 29.7274C32.9819 29.7481 32.9035 29.7595 32.8247 29.7612L32.1629 29.8138L29.7147 29.9755L26.0858 30.1937L23.9423 30.314L23.3782 30.3441H23.0924H22.9495C22.8865 30.3508 22.8228 30.3404 22.7652 30.314C22.705 30.2884 22.6525 30.2475 22.6129 30.1954C22.5734 30.1433 22.5481 30.0818 22.5396 30.0169V29.7161V29.5694C22.5361 29.5029 22.5504 29.4368 22.5809 29.3776C22.6115 29.3185 22.6572 29.2686 22.7133 29.2329C22.7695 29.1972 22.8341 29.1771 22.9006 29.1745L30.9595 28.7834L32.3547 28.7233L32.9263 28.7007C33.0195 28.685 33.1152 28.7023 33.197 28.7496C33.234 28.774 33.2657 28.8055 33.2902 28.8423C33.3147 28.8791 33.3317 28.9205 33.3399 28.964C33.3399 29.1181 33.3399 29.2385 33.3399 29.34C33.3482 29.3899 33.3454 29.4411 33.3318 29.4898C33.3181 29.5385 33.294 29.5837 33.261 29.6221C33.2373 29.6516 33.2067 29.6749 33.172 29.6899C33.1373 29.705 33.0994 29.7114 33.0617 29.7085Z" fill="#6C7584"/>
<path d="M33.1543 37.7525C34.1845 37.7525 35.0196 36.9174 35.0196 35.8872C35.0196 34.8571 34.1845 34.022 33.1543 34.022C32.1242 34.022 31.2891 34.8571 31.2891 35.8872C31.2891 36.9174 32.1242 37.7525 33.1543 37.7525Z" fill="#6C7584"/>
<path d="M33.3724 34.5293L23.2522 35.0721C23.0946 35.0805 22.9736 35.2152 22.9821 35.3728L23.0039 35.7784C23.0123 35.936 23.1469 36.0569 23.3046 36.0484L33.4248 35.5057C33.5824 35.4972 33.7033 35.3626 33.6948 35.205L33.6731 34.7994C33.6646 34.6418 33.53 34.5209 33.3724 34.5293Z" fill="#E0E0E0"/>
<path d="M33.4326 35.5071C33.5037 35.4863 33.5676 35.4459 33.6169 35.3906C33.6433 35.3548 33.6616 35.3138 33.6707 35.2703C33.6798 35.2268 33.6794 35.1819 33.6695 35.1386C33.6695 35.0333 33.6695 34.8941 33.6357 34.7625C33.6266 34.7284 33.6107 34.6964 33.589 34.6685C33.5673 34.6406 33.5402 34.6173 33.5093 34.6001C33.4784 34.5829 33.4444 34.5721 33.4092 34.5684C33.3741 34.5646 33.3385 34.568 33.3047 34.5783L32.7331 34.6196L31.3379 34.7061L23.264 35.1762C23.231 35.1774 23.1989 35.1875 23.1711 35.2053C23.1433 35.2232 23.1209 35.2482 23.106 35.2777C23.0968 35.3071 23.0968 35.3386 23.106 35.368V35.5146V35.7967C23.1099 35.8285 23.122 35.8588 23.1411 35.8845C23.1602 35.9102 23.1857 35.9305 23.2151 35.9434C23.246 35.9512 23.2783 35.9512 23.3091 35.9434H23.452H23.7378L24.3019 35.9133L26.4454 35.8042L30.0782 35.6312L32.5263 35.5297H33.1957C33.273 35.5192 33.3515 35.5192 33.4288 35.5297C33.3519 35.5453 33.274 35.5554 33.1957 35.5598L32.5338 35.6124L30.0857 35.7779L26.4567 35.9922L24.3132 36.1126L23.7491 36.1427L23.4633 36.1615H23.3204C23.2572 36.1648 23.194 36.1532 23.1361 36.1276C23.0759 36.102 23.0234 36.0611 22.9839 36.009C22.9443 35.9569 22.919 35.8954 22.9105 35.8305V35.5334V35.383C22.9077 35.3178 22.922 35.253 22.9519 35.195C22.9819 35.1352 23.0274 35.0845 23.0836 35.0481C23.1398 35.0118 23.2046 34.9911 23.2715 34.9882L31.3492 34.5858L32.7444 34.5219L33.316 34.4993C33.4096 34.4865 33.5048 34.505 33.5868 34.5519C33.624 34.575 33.656 34.6057 33.6807 34.642C33.7053 34.6783 33.722 34.7194 33.7297 34.7625C33.7297 34.9167 33.7297 35.0371 33.7297 35.1386C33.7382 35.1879 33.7355 35.2385 33.7218 35.2867C33.7081 35.3349 33.6838 35.3793 33.6507 35.4169C33.5153 35.5523 33.4251 35.5071 33.4326 35.5071Z" fill="#6C7584"/>
<path d="M33.4173 36.3145L23.2971 36.8573C23.1395 36.8657 23.0186 37.0003 23.027 37.158L23.0488 37.5635C23.0572 37.7211 23.1919 37.842 23.3495 37.8336L33.4697 37.2908C33.6273 37.2824 33.7482 37.1477 33.7398 36.9901L33.718 36.5846C33.7096 36.4269 33.5749 36.306 33.4173 36.3145Z" fill="#E0E0E0"/>
<path d="M33.4676 37.2899C33.54 37.2719 33.6055 37.2326 33.6556 37.1771C33.6803 37.1406 33.6974 37.0994 33.7058 37.0561C33.7142 37.0128 33.7137 36.9683 33.7045 36.9252C33.7045 36.8161 33.7045 36.6807 33.6706 36.5491C33.6615 36.5149 33.6457 36.483 33.624 36.4551C33.6023 36.4272 33.5752 36.4039 33.5443 36.3867C33.5134 36.3695 33.4794 36.3587 33.4442 36.355C33.4091 36.3512 33.3735 36.3546 33.3397 36.3648L32.7681 36.4024L31.3729 36.4927L23.2989 36.9553C23.2665 36.9568 23.235 36.9666 23.2074 36.9837C23.1797 37.0008 23.1569 37.0247 23.141 37.053C23.1339 37.084 23.1339 37.1161 23.141 37.147V37.2937V37.5758C23.1455 37.6073 23.1579 37.6373 23.1769 37.6629C23.196 37.6885 23.2211 37.709 23.2501 37.7224C23.2824 37.7287 23.3156 37.7287 23.3478 37.7224H23.4907H23.7728L24.3369 37.6923L26.4804 37.5833L30.1131 37.4103L32.565 37.3087L33.2306 37.2899C33.3081 37.2819 33.3863 37.2819 33.4638 37.2899C33.3877 37.3107 33.3094 37.3221 33.2306 37.3238L32.5688 37.3764L30.1206 37.5381L26.4917 37.7563L24.3482 37.8766L23.7841 37.9067H23.4983H23.3554C23.2923 37.9133 23.2287 37.903 23.1711 37.8766C23.1116 37.8505 23.0599 37.8094 23.021 37.7573C22.9821 37.7052 22.9574 37.644 22.9492 37.5795V37.2787V37.132C22.9492 37.0323 22.9888 36.9366 23.0594 36.8661C23.1299 36.7956 23.2255 36.7559 23.3253 36.7559L31.403 36.3498L32.7606 36.3047L33.3359 36.2821C33.4279 36.2667 33.5224 36.284 33.6029 36.331C33.6399 36.3554 33.6716 36.3869 33.6961 36.4237C33.7206 36.4605 33.7376 36.5019 33.7458 36.5454C33.7458 36.6995 33.7458 36.8199 33.7458 36.9214C33.7527 36.9711 33.7496 37.0216 33.7367 37.07C33.7238 37.1185 33.7013 37.1638 33.6706 37.2035C33.6461 37.233 33.6149 37.2563 33.5796 37.2714C33.5443 37.2864 33.5058 37.2928 33.4676 37.2899Z" fill="#6C7584"/>
<path d="M35.4287 43.3671C35.4522 43.7394 35.3643 44.1103 35.1764 44.4326C34.9884 44.7549 34.7088 45.0139 34.3732 45.1768C34.0375 45.3397 33.661 45.3991 33.2916 45.3474C32.9221 45.2957 32.5763 45.1353 32.2983 44.8865C32.0203 44.6377 31.8226 44.3118 31.7303 43.9503C31.638 43.5888 31.6554 43.2081 31.7801 42.8565C31.9049 42.5049 32.1314 42.1983 32.4309 41.9759C32.7304 41.7534 33.0893 41.625 33.462 41.6071C33.9552 41.5835 34.438 41.7548 34.806 42.0841C35.174 42.4134 35.3977 42.8742 35.4287 43.3671Z" fill="#6C7584"/>
<path d="M33.7826 42.1116L23.6623 42.6544C23.5047 42.6628 23.3838 42.7975 23.3923 42.9551L23.414 43.3606C23.4225 43.5182 23.5571 43.6392 23.7147 43.6307L33.8349 43.0879C33.9925 43.0795 34.1135 42.9449 34.105 42.7872L34.0833 42.3817C34.0748 42.2241 33.9402 42.1031 33.7826 42.1116Z" fill="#E0E0E0"/>
<path d="M33.8356 43.0737C33.9086 43.0569 33.9745 43.0174 34.0236 42.9608C34.0494 42.9248 34.0671 42.8837 34.0755 42.8402C34.0839 42.7967 34.0829 42.7519 34.0725 42.7089C34.0725 42.5998 34.0537 42.4644 34.0386 42.3328C34.03 42.2984 34.0145 42.2661 33.9929 42.2379C33.9713 42.2097 33.9441 42.1862 33.9131 42.169C33.8821 42.1517 33.8479 42.141 33.8125 42.1374C33.7772 42.1339 33.7415 42.1377 33.7077 42.1485L33.1361 42.1862L31.7409 42.2764L23.667 42.739C23.6428 42.7399 23.619 42.7457 23.597 42.7558C23.575 42.766 23.5552 42.7804 23.5388 42.7982C23.5224 42.816 23.5097 42.8369 23.5013 42.8596C23.493 42.8824 23.4892 42.9065 23.4902 42.9307V43.0774V43.3595C23.4948 43.391 23.5071 43.421 23.5262 43.4466C23.5452 43.4722 23.5703 43.4927 23.5993 43.5061C23.6314 43.5142 23.665 43.5142 23.6971 43.5061H23.84H24.122L24.6861 43.476L26.8296 43.367L30.4623 43.194L32.9142 43.0925H33.5798C33.6574 43.086 33.7354 43.086 33.813 43.0925C33.737 43.1132 33.6587 43.1246 33.5798 43.1263L32.918 43.1789L30.4699 43.3444L26.8409 43.5588L24.6974 43.6791L24.1333 43.7092H23.8475H23.7046C23.6413 43.7126 23.5782 43.701 23.5203 43.6753C23.4608 43.6492 23.4091 43.6081 23.3702 43.556C23.3313 43.504 23.3066 43.4427 23.2984 43.3783L23.2796 43.0812V42.9307C23.2769 42.8655 23.2911 42.8007 23.321 42.7427C23.3511 42.6829 23.3965 42.6322 23.4527 42.5959C23.5089 42.5595 23.5738 42.5388 23.6406 42.5359L31.7184 42.1297L33.1135 42.0696L33.6889 42.047C33.7813 42.033 33.8757 42.0516 33.9559 42.0997C33.9932 42.1228 34.0252 42.1534 34.0498 42.1897C34.0744 42.226 34.0911 42.2671 34.0988 42.3103C34.0988 42.4644 34.0988 42.5848 34.0988 42.6863C34.1071 42.736 34.1046 42.7868 34.0917 42.8355C34.0787 42.8841 34.0555 42.9294 34.0236 42.9684C33.9333 43.1188 33.8281 43.0737 33.8356 43.0737Z" fill="#6C7584"/>
<path d="M33.8236 43.8936L23.7034 44.4364C23.5457 44.4448 23.4248 44.5794 23.4333 44.7371L23.455 45.1426C23.4635 45.3002 23.5981 45.4212 23.7557 45.4127L33.8759 44.8699C34.0336 44.8615 34.1545 44.7268 34.146 44.5692L34.1243 44.1637C34.1158 44.006 33.9812 43.8851 33.8236 43.8936Z" fill="#E0E0E0"/>
<path d="M33.8887 44.8712C33.9617 44.8544 34.0276 44.8149 34.0767 44.7583C34.1023 44.7222 34.1198 44.6811 34.1283 44.6376C34.1367 44.5942 34.1358 44.5494 34.1256 44.5064C34.1256 44.3973 34.1256 44.2619 34.0918 44.1303C34.0832 44.0959 34.0676 44.0636 34.046 44.0354C34.0244 44.0072 33.9973 43.9837 33.9662 43.9665C33.9352 43.9492 33.901 43.9385 33.8657 43.935C33.8303 43.9314 33.7947 43.9352 33.7608 43.9461L33.1892 43.9837L31.7941 44.0739L23.7201 44.5365C23.6881 44.538 23.6571 44.5478 23.63 44.5649C23.603 44.5821 23.5809 44.606 23.5659 44.6342C23.5492 44.6626 23.5413 44.6954 23.5433 44.7283V44.8712V45.157C23.5475 45.1882 23.5597 45.2179 23.5788 45.243C23.598 45.268 23.6233 45.2876 23.6524 45.2999C23.6829 45.3143 23.7165 45.3208 23.7502 45.3187H23.8931H24.1789L24.7392 45.2886L26.8827 45.1795L30.5155 45.0028L32.9674 44.905L33.633 44.8862C33.7105 44.878 33.7886 44.878 33.8661 44.8862C33.7913 44.9068 33.7143 44.9182 33.6367 44.92L32.9711 44.9727L30.523 45.1344L26.894 45.3525L24.7505 45.4729L24.1864 45.5029H23.9044H23.7577C23.6948 45.5074 23.6317 45.4971 23.5734 45.4729C23.5139 45.4467 23.4622 45.4056 23.4233 45.3536C23.3845 45.3015 23.3597 45.2402 23.3516 45.1758V44.8749V44.7283C23.3516 44.6285 23.3912 44.5329 23.4617 44.4623C23.5322 44.3918 23.6279 44.3522 23.7276 44.3522L31.8053 43.9461L33.2043 43.8859L33.7759 43.8633C33.8679 43.8458 33.9631 43.8632 34.0429 43.9122C34.0794 43.9361 34.1109 43.9671 34.1354 44.0032C34.1599 44.0394 34.177 44.08 34.1858 44.1228C34.1858 44.2807 34.1858 44.4011 34.1858 44.4989C34.1948 44.5485 34.1928 44.5995 34.1798 44.6483C34.1668 44.6971 34.1431 44.7423 34.1106 44.7809C34.0849 44.8143 34.0509 44.8403 34.0119 44.8561C33.9729 44.872 33.9304 44.8772 33.8887 44.8712Z" fill="#6C7584"/>
<path d="M33.9688 52.9151C34.9989 52.9151 35.834 52.08 35.834 51.0498C35.834 50.0197 34.9989 49.1846 33.9688 49.1846C32.9386 49.1846 32.1035 50.0197 32.1035 51.0498C32.1035 52.08 32.9386 52.9151 33.9688 52.9151Z" fill="#6C7584"/>
<path d="M34.1888 49.6939L24.0686 50.2366C23.911 50.2451 23.7901 50.3797 23.7985 50.5373L23.8203 50.9429C23.8287 51.1005 23.9633 51.2214 24.121 51.213L34.2412 50.6702C34.3988 50.6618 34.5197 50.5271 34.5113 50.3695L34.4895 49.964C34.4811 49.8063 34.3464 49.6854 34.1888 49.6939Z" fill="#E0E0E0"/>
<path d="M34.2419 50.6663C34.315 50.6495 34.3808 50.61 34.43 50.5534C34.4557 50.5174 34.4734 50.4763 34.4819 50.4328C34.4903 50.3893 34.4893 50.3445 34.4788 50.3015C34.4788 50.1924 34.4788 50.0571 34.445 49.9254C34.4364 49.891 34.4208 49.8587 34.3992 49.8305C34.3776 49.8023 34.3505 49.7788 34.3195 49.7616C34.2885 49.7443 34.2542 49.7336 34.2189 49.7301C34.1836 49.7266 34.1479 49.7303 34.1141 49.7412L33.5425 49.7788L32.1473 49.869L24.0733 50.3316C24.0409 50.3331 24.0094 50.3433 23.9823 50.3611C23.9551 50.379 23.9333 50.4039 23.9191 50.4331C23.9025 50.4602 23.8946 50.4917 23.8966 50.5234V50.67V50.9521C23.9011 50.9837 23.9135 51.0136 23.9325 51.0392C23.9516 51.0648 23.9767 51.0853 24.0056 51.0987C24.0377 51.1068 24.0713 51.1068 24.1034 51.0987H24.2463H24.5321L25.0924 51.0686L27.2397 50.9596L30.8687 50.7866L33.3206 50.6851L33.9862 50.6663C34.0638 50.6605 34.1418 50.6605 34.2194 50.6663C34.1446 50.6869 34.0675 50.6983 33.99 50.7001L33.3243 50.7528L30.8762 50.9145L27.2473 51.1326L25.1037 51.2529L24.5396 51.283H24.2576H24.1147C24.0505 51.2893 23.9857 51.2789 23.9267 51.2529C23.8747 51.2243 23.8303 51.1839 23.797 51.1349C23.7636 51.0859 23.7424 51.0297 23.7349 50.9709V50.6738V50.5234C23.7314 50.4569 23.7457 50.3907 23.7762 50.3316C23.8068 50.2725 23.8525 50.2225 23.9086 50.1869C23.9648 50.1512 24.0294 50.131 24.0959 50.1285L32.1736 49.7224L33.5725 49.6622L34.1441 49.6396C34.2366 49.625 34.3312 49.6436 34.4111 49.6923C34.4484 49.7154 34.4804 49.7461 34.505 49.7823C34.5297 49.8186 34.5464 49.8597 34.5541 49.9029C34.5541 50.0571 34.5541 50.1774 34.5541 50.2789C34.5631 50.3286 34.561 50.3796 34.548 50.4284C34.535 50.4771 34.5114 50.5224 34.4788 50.561C34.3397 50.6964 34.2382 50.67 34.2419 50.6663Z" fill="#6C7584"/>
<path d="M34.2298 51.4759L24.1096 52.0186C23.952 52.0271 23.8311 52.1617 23.8395 52.3193L23.8613 52.7249C23.8697 52.8825 24.0044 53.0034 24.162 52.995L34.2822 52.4522C34.4398 52.4437 34.5607 52.3091 34.5523 52.1515L34.5305 51.7459C34.5221 51.5883 34.3874 51.4674 34.2298 51.4759Z" fill="#E0E0E0"/>
<path d="M34.2645 52.4524C34.3375 52.4357 34.4034 52.3962 34.4525 52.3396C34.4781 52.3035 34.4956 52.2623 34.5041 52.2189C34.5125 52.1755 34.5116 52.1307 34.5014 52.0877C34.5014 51.9786 34.5014 51.8432 34.4676 51.7116C34.4586 51.6775 34.4427 51.6456 34.4209 51.6178C34.3991 51.59 34.3719 51.567 34.341 51.5501C34.31 51.5332 34.2759 51.5228 34.2408 51.5195C34.2056 51.5163 34.1702 51.5202 34.1366 51.5311L33.565 51.5687L32.1736 51.6589L24.1109 52.1177C24.0789 52.1189 24.0477 52.1285 24.0206 52.1457C23.9935 52.1629 23.9714 52.187 23.9568 52.2155C23.9418 52.2446 23.934 52.2768 23.9342 52.3095V52.4524V52.7382C23.939 52.7693 23.9515 52.7986 23.9705 52.8236C23.9896 52.8485 24.0146 52.8683 24.0433 52.8811C24.0751 52.8908 24.1091 52.8908 24.141 52.8811H24.2839H24.5697L25.1301 52.8548L27.2773 52.7458L30.9101 52.569L33.3582 52.4712L34.0238 52.4524C34.1013 52.4442 34.1795 52.4442 34.257 52.4524C34.1822 52.4731 34.1051 52.4844 34.0276 52.4863L33.362 52.5389L30.9176 52.7006L27.2849 52.915L25.1413 53.0391L24.5773 53.0692H24.2952H24.1523C24.0882 53.0736 24.0238 53.0633 23.9643 53.0391C23.9048 53.013 23.8531 52.9718 23.8142 52.9198C23.7753 52.8677 23.7506 52.8065 23.7424 52.742V52.4411V52.2945C23.7401 52.2277 23.7557 52.1615 23.7875 52.1027C23.8178 52.0441 23.8629 51.9945 23.9183 51.9589C23.9738 51.9233 24.0376 51.9028 24.1034 51.8996L32.1849 51.4935L33.5801 51.4333L34.1517 51.4107C34.2449 51.3954 34.3405 51.4126 34.4224 51.4596C34.4942 51.5093 34.5441 51.5847 34.5616 51.6702C34.5616 51.8282 34.5616 51.9485 34.5616 52.0463C34.5708 52.0953 34.5689 52.1459 34.5559 52.194C34.5428 52.2422 34.5191 52.2869 34.4864 52.3246C34.3773 52.475 34.2645 52.4524 34.2645 52.4524Z" fill="#6C7584"/>
<path d="M36.2395 58.5299C36.2622 58.9023 36.1737 59.273 35.9851 59.5949C35.7965 59.9168 35.5164 60.1754 35.1804 60.3376C34.8444 60.4999 34.4678 60.5585 34.0984 60.5061C33.729 60.4536 33.3836 60.2925 33.106 60.0431C32.8285 59.7938 32.6314 59.4675 32.5399 59.1058C32.4484 58.7441 32.4665 58.3634 32.592 58.012C32.7175 57.6606 32.9447 57.3546 33.2446 57.1327C33.5446 56.9109 33.9038 56.7833 34.2765 56.7661C34.7697 56.7435 35.2521 56.9158 35.6194 57.2458C35.9867 57.5758 36.2094 58.037 36.2395 58.5299Z" fill="#6C7584"/>
<path d="M34.5931 57.273L24.4729 57.8157C24.3153 57.8242 24.1944 57.9588 24.2028 58.1164L24.2246 58.522C24.233 58.6796 24.3676 58.8006 24.5253 58.7921L34.6455 58.2493C34.8031 58.2409 34.924 58.1062 34.9156 57.9486L34.8938 57.5431C34.8853 57.3854 34.7507 57.2645 34.5931 57.273Z" fill="#E0E0E0"/>
<path d="M34.6395 58.2476C34.7125 58.2309 34.7784 58.1914 34.8275 58.1348C34.8533 58.0988 34.871 58.0576 34.8794 58.0141C34.8879 57.9706 34.8868 57.9259 34.8764 57.8828C34.8764 57.7738 34.8764 57.6384 34.8426 57.5068C34.834 57.4723 34.8184 57.44 34.7968 57.4118C34.7752 57.3836 34.7481 57.3602 34.717 57.3429C34.686 57.3256 34.6518 57.3149 34.6165 57.3114C34.5811 57.3079 34.5455 57.3117 34.5116 57.3225L33.94 57.3601L32.5486 57.4503L24.4859 57.9129C24.4536 57.9148 24.4223 57.9251 24.3952 57.943C24.3681 57.9608 24.3463 57.9854 24.3318 58.0144C24.3168 58.0422 24.309 58.0732 24.3092 58.1047V58.2514V58.5334C24.3137 58.565 24.3261 58.5949 24.3451 58.6206C24.3642 58.6462 24.3893 58.6666 24.4183 58.6801C24.4506 58.6857 24.4837 58.6857 24.516 58.6801H24.6589H24.9447L25.5051 58.65L27.6523 58.5409L31.2851 58.3679L33.7332 58.2664H34.3988C34.4763 58.2581 34.5545 58.2581 34.632 58.2664C34.5572 58.287 34.4801 58.2984 34.4026 58.3002L33.737 58.3529L31.2926 58.5146L27.6599 58.7327L25.5163 58.853L24.9523 58.8831H24.6702H24.5273C24.4631 58.8894 24.3983 58.879 24.3393 58.853C24.2798 58.8269 24.2281 58.7858 24.1892 58.7337C24.1503 58.6817 24.1256 58.6204 24.1174 58.556V58.2551V58.1084C24.1151 58.0416 24.1307 57.9754 24.1625 57.9167C24.1928 57.8581 24.2379 57.8085 24.2933 57.7729C24.3488 57.7372 24.4126 57.7168 24.4784 57.7136L32.5599 57.3074L33.9551 57.2473L34.5267 57.2247C34.6199 57.2093 34.7155 57.2266 34.7974 57.2736C34.8701 57.3241 34.92 57.4011 34.9366 57.488C34.9366 57.6421 34.9366 57.7625 34.9554 57.864C34.9618 57.9139 34.9581 57.9646 34.9445 58.013C34.9309 58.0615 34.9078 58.1067 34.8764 58.1461C34.8509 58.184 34.815 58.2138 34.773 58.2319C34.7309 58.2499 34.6846 58.2553 34.6395 58.2476Z" fill="#6C7584"/>
<path d="M34.6322 59.0584L24.512 59.6011C24.3543 59.6096 24.2334 59.7442 24.2419 59.9018L24.2636 60.3074C24.2721 60.465 24.4067 60.586 24.5643 60.5775L34.6845 60.0347C34.8422 60.0263 34.9631 59.8916 34.9546 59.734L34.9329 59.3285C34.9244 59.1708 34.7898 59.0499 34.6322 59.0584Z" fill="#E0E0E0"/>
<path d="M34.6877 60.0339C34.7608 60.0171 34.8266 59.9776 34.8758 59.9211C34.9022 59.8854 34.9204 59.8442 34.9288 59.8006C34.9373 59.757 34.9359 59.7121 34.9247 59.6691C34.9247 59.56 34.9247 59.4209 34.8946 59.293C34.8851 59.2588 34.8688 59.2268 34.8467 59.199C34.8246 59.1712 34.797 59.1482 34.7658 59.1313C34.7345 59.1145 34.7001 59.1041 34.6647 59.1009C34.6294 59.0976 34.5937 59.1016 34.5599 59.1125L33.9883 59.1501L32.5969 59.2404L24.5191 59.6992C24.487 59.7018 24.456 59.7124 24.429 59.7302C24.4021 59.7479 24.38 59.7722 24.365 59.8007C24.35 59.8298 24.3422 59.862 24.3424 59.8947V60.0376V60.3234C24.3482 60.3546 24.3615 60.3839 24.3812 60.4088C24.4008 60.4337 24.4262 60.4535 24.4552 60.4663C24.4858 60.4759 24.5186 60.4759 24.5492 60.4663H24.6921H24.9779L25.542 60.44L27.6856 60.3272L31.3183 60.1542L33.7664 60.0564H34.432C34.5094 60.0457 34.5878 60.0457 34.6652 60.0564C34.5904 60.0767 34.5133 60.0868 34.4358 60.0865L33.7702 60.1429L31.3258 60.3046L27.6931 60.519L25.5495 60.6393L24.9892 60.6732H24.7034H24.5605C24.4976 60.6779 24.4344 60.6676 24.3762 60.6431C24.316 60.6175 24.2636 60.5766 24.224 60.5245C24.1844 60.4724 24.1591 60.4109 24.1506 60.346V60.0452V59.8985C24.1483 59.8317 24.1639 59.7655 24.1957 59.7067C24.2258 59.6469 24.2713 59.5962 24.3274 59.5598C24.3836 59.5235 24.4485 59.5028 24.5154 59.4999L32.5931 59.0975L33.9883 59.0373L34.5599 59.0148C34.6531 58.9994 34.7487 59.0166 34.8306 59.0636C34.8671 59.0873 34.8982 59.1182 34.9222 59.1544C34.9461 59.1907 34.9623 59.2315 34.9698 59.2742C34.9698 59.4284 34.9698 59.5525 34.9698 59.6503C34.9775 59.6996 34.9744 59.75 34.9608 59.7981C34.9471 59.8461 34.9233 59.8906 34.8908 59.9286C34.7855 60.064 34.684 60.0339 34.6877 60.0339Z" fill="#6C7584"/>
<path d="M36.6458 66.1111C36.6685 66.4835 36.5799 66.8543 36.3913 67.1762C36.2027 67.4981 35.9226 67.7567 35.5867 67.9189C35.2507 68.0812 34.874 68.1398 34.5047 68.0874C34.1353 68.0349 33.7898 67.8738 33.5123 67.6244C33.2348 67.3751 33.0377 67.0488 32.9461 66.6871C32.8546 66.3254 32.8727 65.9447 32.9982 65.5933C33.1237 65.2419 33.3509 64.9359 33.6509 64.714C33.9508 64.4921 34.31 64.3645 34.6827 64.3474C35.176 64.3248 35.6583 64.4971 36.0256 64.8271C36.3929 65.1571 36.6157 65.6183 36.6458 66.1111Z" fill="#6C7584"/>
<path d="M34.9994 64.8518L24.8791 65.3946C24.7215 65.4031 24.6006 65.5377 24.6091 65.6953L24.6308 66.1009C24.6393 66.2585 24.7739 66.3794 24.9315 66.3709L35.0517 65.8282C35.2093 65.8197 35.3303 65.6851 35.3218 65.5275L35.3001 65.1219C35.2916 64.9643 35.157 64.8434 34.9994 64.8518Z" fill="#E0E0E0"/>
<path d="M35.0567 65.8287C35.1298 65.8119 35.1956 65.7724 35.2448 65.7159C35.2712 65.6802 35.2894 65.639 35.2978 65.5954C35.3063 65.5518 35.3049 65.5069 35.2937 65.4639C35.2937 65.3548 35.2937 65.2195 35.2636 65.0878C35.2541 65.0535 35.2378 65.0215 35.2157 64.9935C35.1937 64.9656 35.1662 64.9424 35.135 64.9252C35.1038 64.908 35.0695 64.8973 35.0341 64.8936C34.9987 64.8899 34.9629 64.8933 34.9289 64.9036L34.3573 64.9412L32.9659 65.0314L24.8881 65.494C24.8562 65.4958 24.8254 65.5058 24.7984 65.5229C24.7714 65.54 24.7492 65.5637 24.734 65.5918C24.7194 65.621 24.7117 65.6531 24.7114 65.6858V65.8324V66.1145C24.7147 66.146 24.7267 66.176 24.7459 66.2012C24.7651 66.2264 24.7909 66.2458 24.8204 66.2574C24.8513 66.2652 24.8836 66.2652 24.9145 66.2574H25.0574H25.3432L25.9073 66.2273L28.0508 66.1182L31.6835 65.9415L34.1316 65.8437H34.7973C34.8748 65.8355 34.9529 65.8355 35.0304 65.8437C34.9557 65.8649 34.8786 65.8762 34.801 65.8776L34.1354 65.9302L31.691 66.0919L28.0583 66.31L25.9148 66.4304L25.3545 66.4604H25.0686H24.9257C24.8627 66.4671 24.7991 66.4567 24.7415 66.4304C24.6813 66.4047 24.6288 66.3639 24.5892 66.3118C24.5497 66.2597 24.5244 66.1981 24.5158 66.1333V65.8324V65.6858C24.5136 65.619 24.5291 65.5528 24.561 65.494C24.5915 65.4349 24.6372 65.3849 24.6934 65.3493C24.7495 65.3136 24.8141 65.2935 24.8806 65.2909L32.9583 64.8848L34.3535 64.8246L34.9251 64.802C35.0183 64.7863 35.1141 64.8036 35.1959 64.8509C35.232 64.8749 35.2629 64.9059 35.2868 64.9421C35.3107 64.9783 35.3271 65.0189 35.335 65.0615C35.335 65.2195 35.335 65.3398 35.335 65.4376C35.3414 65.4875 35.3377 65.5382 35.3241 65.5866C35.3106 65.635 35.2874 65.6803 35.256 65.7196C35.2346 65.753 35.2051 65.7805 35.1703 65.7996C35.1355 65.8186 35.0964 65.8286 35.0567 65.8287Z" fill="#6C7584"/>
<path d="M35.0365 66.6372L24.9163 67.18C24.7586 67.1885 24.6377 67.3231 24.6462 67.4807L24.6679 67.8863C24.6764 68.0439 24.811 68.1648 24.9686 68.1563L35.0888 67.6136C35.2464 67.6051 35.3674 67.4705 35.3589 67.3129L35.3372 66.9073C35.3287 66.7497 35.1941 66.6288 35.0365 66.6372Z" fill="#E0E0E0"/>
<path d="M35.0962 67.6149C35.1673 67.5942 35.2312 67.5538 35.2805 67.4984C35.3071 67.4635 35.3254 67.423 35.3338 67.38C35.3423 67.3369 35.3408 67.2925 35.3293 67.2502C35.3293 67.1411 35.3293 67.002 35.2993 66.8741C35.2902 66.84 35.2743 66.808 35.2526 66.7801C35.2309 66.7522 35.2038 66.7289 35.1729 66.7117C35.142 66.6945 35.108 66.6837 35.0728 66.68C35.0377 66.6762 35.0021 66.6796 34.9683 66.6899L34.3967 66.7312L33.0015 66.8177L24.9238 67.2803C24.8917 67.2828 24.8607 67.2935 24.8337 67.3113C24.8068 67.329 24.7847 67.3533 24.7696 67.3818C24.7547 67.4109 24.7469 67.4431 24.7471 67.4758V67.6187L24.7659 67.9008C24.7697 67.9326 24.7818 67.9628 24.8009 67.9886C24.8201 68.0143 24.8456 68.0346 24.8749 68.0474C24.9058 68.0552 24.9381 68.0552 24.969 68.0474H25.1119H25.3977L25.9617 68.0173L28.1053 67.9083L31.738 67.7353L34.1861 67.6338H34.8555C34.9329 67.6235 35.0113 67.6235 35.0887 67.6338C35.0122 67.6519 34.9341 67.662 34.8555 67.6638L34.1899 67.7202L31.7455 67.882L28.1166 68.0963L25.9693 68.2166L25.4089 68.2505H25.1231H24.9802C24.917 68.2539 24.8539 68.2423 24.796 68.2166C24.7358 68.191 24.6833 68.1502 24.6437 68.0981C24.6041 68.046 24.5788 67.9844 24.5703 67.9196V67.6225V67.4758C24.5697 67.4092 24.5852 67.3434 24.6155 67.284C24.6455 67.2242 24.691 67.1735 24.7472 67.1372C24.8034 67.1008 24.8682 67.0801 24.9351 67.0772L33.0128 66.6748L34.408 66.6146L34.9796 66.5921C35.0728 66.5764 35.1685 66.5937 35.2504 66.641C35.2872 66.6646 35.3188 66.6954 35.3434 66.7316C35.368 66.7678 35.3849 66.8086 35.3933 66.8516C35.3933 67.0057 35.3933 67.1298 35.3933 67.2276C35.4018 67.2769 35.3991 67.3276 35.3854 67.3757C35.3717 67.4239 35.3474 67.4684 35.3143 67.5059C35.194 67.645 35.0887 67.6149 35.0962 67.6149Z" fill="#6C7584"/>
<path d="M37.054 73.6924C37.0767 74.0649 36.9881 74.4356 36.7995 74.7575C36.6109 75.0794 36.3308 75.338 35.9949 75.5002C35.6589 75.6625 35.2823 75.7211 34.9129 75.6687C34.5435 75.6162 34.198 75.4551 33.9205 75.2057C33.643 74.9564 33.4459 74.6301 33.3544 74.2684C33.2628 73.9067 33.2809 73.526 33.4064 73.1746C33.5319 72.8232 33.7591 72.5172 34.0591 72.2953C34.359 72.0734 34.7182 71.9458 35.0909 71.9287C35.5842 71.9061 36.0665 72.0784 36.4338 72.4084C36.8011 72.7384 37.0239 73.1996 37.054 73.6924Z" fill="#6C7584"/>
<path d="M35.4095 72.4343L25.2893 72.9771C25.1317 72.9856 25.0108 73.1202 25.0192 73.2778L25.041 73.6834C25.0494 73.841 25.184 73.9619 25.3417 73.9535L35.4619 73.4107C35.6195 73.4022 35.7404 73.2676 35.732 73.11L35.7102 72.7044C35.7018 72.5468 35.5671 72.4259 35.4095 72.4343Z" fill="#E0E0E0"/>
<path d="M35.4626 73.4104C35.5338 73.3916 35.5978 73.3524 35.6469 73.2975C35.6734 73.2619 35.6915 73.2207 35.7 73.1771C35.7084 73.1335 35.707 73.0886 35.6958 73.0456C35.6958 72.9365 35.6958 72.8011 35.6657 72.6695C35.6562 72.6357 35.6401 72.6041 35.6182 72.5766C35.5963 72.5492 35.5691 72.5263 35.5383 72.5095C35.5074 72.4927 35.4735 72.4822 35.4386 72.4787C35.4036 72.4752 35.3683 72.4787 35.3348 72.489L34.7632 72.5266L33.368 72.6169L25.294 73.0794C25.2616 73.081 25.2301 73.0908 25.2024 73.1079C25.1748 73.125 25.152 73.1489 25.1361 73.1772C25.1211 73.2063 25.1134 73.2385 25.1135 73.2712V73.4141V73.6999C25.1169 73.7315 25.1288 73.7615 25.148 73.7867C25.1673 73.8119 25.193 73.8313 25.2226 73.8428C25.2532 73.8524 25.286 73.8524 25.3166 73.8428H25.4595H25.7453L26.3094 73.8127L28.4529 73.7037L32.0856 73.5269L34.5338 73.4292H35.2031C35.2807 73.4211 35.3588 73.4211 35.4363 73.4292C35.3603 73.4499 35.282 73.4613 35.2031 73.463L34.5375 73.5157L32.0931 73.6774L28.4642 73.8955L26.3169 74.0158L25.7566 74.0459H25.4708H25.3279C25.2649 74.0506 25.2018 74.0403 25.1436 74.0158C25.0834 73.9902 25.0309 73.9493 24.9914 73.8972C24.9518 73.8451 24.9265 73.7836 24.918 73.7187V73.4179V73.2712C24.9178 73.2046 24.9332 73.1389 24.9631 73.0794C24.9937 73.0203 25.0393 72.9704 25.0955 72.9347C25.1516 72.899 25.2163 72.8789 25.2827 72.8764L33.3605 72.4702L34.7556 72.41L35.3272 72.3875C35.4204 72.3718 35.5162 72.3891 35.598 72.4364C35.6345 72.4603 35.666 72.4912 35.6905 72.5274C35.715 72.5635 35.7322 72.6042 35.7409 72.647C35.7409 72.8049 35.7409 72.9252 35.7409 73.023C35.7492 73.0729 35.7464 73.1241 35.7327 73.1728C35.7191 73.2215 35.6949 73.2667 35.6619 73.3051C35.6403 73.338 35.6107 73.365 35.5759 73.3834C35.541 73.4018 35.502 73.4111 35.4626 73.4104Z" fill="#6C7584"/>
<path d="M35.4486 74.2197L25.3284 74.7625C25.1707 74.771 25.0498 74.9056 25.0583 75.0632L25.08 75.4688C25.0885 75.6264 25.2231 75.7473 25.3807 75.7389L35.5009 75.1961C35.6586 75.1876 35.7795 75.053 35.771 74.8954L35.7493 74.4898C35.7408 74.3322 35.6062 74.2113 35.4486 74.2197Z" fill="#E0E0E0"/>
<path d="M35.5036 75.1963C35.5748 75.1755 35.6386 75.1351 35.6879 75.0798C35.7142 75.0447 35.7326 75.0044 35.7417 74.9615C35.7508 74.9186 35.7504 74.8743 35.7405 74.8316C35.7405 74.7225 35.7405 74.5834 35.7067 74.4555C35.6852 74.3934 35.6412 74.3417 35.5835 74.3104C35.5257 74.279 35.4583 74.2705 35.3946 74.2863L34.823 74.3276L33.4278 74.4141L25.3538 74.8767C25.3208 74.8779 25.2887 74.888 25.261 74.9058C25.2332 74.9237 25.2107 74.9487 25.1959 74.9782C25.1863 75.0088 25.1863 75.0416 25.1959 75.0722V75.2151V75.4972C25.1997 75.529 25.2118 75.5593 25.231 75.585C25.2501 75.6107 25.2756 75.631 25.3049 75.6438C25.3358 75.6516 25.3681 75.6516 25.399 75.6438H25.5419H25.8277L26.3917 75.6138L28.5353 75.5047L32.168 75.3317L34.6199 75.2302H35.2855C35.3629 75.2197 35.4413 75.2197 35.5187 75.2302C35.4418 75.2458 35.3639 75.2558 35.2855 75.2603L34.6236 75.3167L32.1755 75.4784L28.5466 75.6927L26.403 75.8131L25.8389 75.8469H25.5531H25.4102C25.347 75.8503 25.2839 75.8387 25.226 75.8131C25.1658 75.7875 25.1133 75.7466 25.0737 75.6945C25.0341 75.6424 25.0089 75.5809 25.0003 75.516V75.2189V75.0685C24.9976 75.0033 25.0118 74.9385 25.0417 74.8805C25.0718 74.8207 25.1172 74.77 25.1734 74.7336C25.2296 74.6972 25.2945 74.6765 25.3614 74.6736L33.4391 74.2712L34.8342 74.2111L35.4059 74.1885C35.499 74.1728 35.5948 74.1901 35.6766 74.2374C35.7134 74.261 35.7451 74.2918 35.7697 74.328C35.7942 74.3642 35.8112 74.405 35.8195 74.448C35.8195 74.6022 35.8195 74.7225 35.8195 74.824C35.8275 74.8731 35.8249 74.9233 35.8119 74.9713C35.7989 75.0193 35.7759 75.0639 35.7443 75.1023C35.6014 75.2264 35.4961 75.1963 35.5036 75.1963Z" fill="#6C7584"/>
<path d="M37.4583 81.2737C37.481 81.6461 37.3924 82.0169 37.2038 82.3388C37.0152 82.6607 36.7351 82.9193 36.3992 83.0815C36.0632 83.2438 35.6866 83.3024 35.3172 83.25C34.9478 83.1975 34.6023 83.0364 34.3248 82.787C34.0473 82.5377 33.8502 82.2114 33.7586 81.8497C33.6671 81.488 33.6852 81.1073 33.8107 80.7559C33.9362 80.4045 34.1634 80.0985 34.4634 79.8766C34.7633 79.6548 35.1225 79.5271 35.4952 79.51C35.9885 79.4874 36.4708 79.6597 36.8381 79.9897C37.2054 80.3197 37.4282 80.7809 37.4583 81.2737Z" fill="#6C7584"/>
<path d="M35.8158 80.0166L25.6955 80.5594C25.5379 80.5679 25.417 80.7025 25.4255 80.8601L25.4472 81.2657C25.4557 81.4233 25.5903 81.5442 25.7479 81.5357L35.8681 80.993C36.0257 80.9845 36.1467 80.8499 36.1382 80.6923L36.1165 80.2867C36.108 80.1291 35.9734 80.0082 35.8158 80.0166Z" fill="#E0E0E0"/>
<path d="M35.8702 80.9914C35.9427 80.9733 36.0082 80.934 36.0583 80.8786C36.083 80.8421 36.1001 80.8009 36.1085 80.7576C36.1169 80.7143 36.1164 80.6698 36.1072 80.6266C36.1072 80.5176 36.0884 80.3822 36.0733 80.2506C36.0643 80.2165 36.0484 80.1846 36.0267 80.1568C36.0049 80.129 35.9777 80.106 35.9467 80.0891C35.9157 80.0722 35.8816 80.0618 35.8465 80.0585C35.8114 80.0553 35.7759 80.0592 35.7424 80.0701L35.1708 80.1077L33.7756 80.1979L25.7016 80.6605C25.669 80.6613 25.6372 80.6708 25.6095 80.688C25.5817 80.7052 25.559 80.7294 25.5437 80.7583C25.5362 80.7891 25.5362 80.8214 25.5437 80.8523V80.9952V81.281C25.5478 81.3123 25.56 81.3419 25.5792 81.367C25.5983 81.392 25.6237 81.4117 25.6528 81.4239C25.6834 81.4334 25.7162 81.4334 25.7468 81.4239H25.8934H26.1755L26.7396 81.3976L28.8831 81.2885L32.5158 81.1118L34.9677 81.014L35.6333 80.9952C35.7108 80.9871 35.789 80.9871 35.8665 80.9952C35.7905 81.0156 35.712 81.0257 35.6333 81.0253L34.9715 81.0817L32.5233 81.2434L28.8944 81.4577L26.7508 81.5818L26.1868 81.6119H25.901H25.7581C25.6951 81.6166 25.632 81.6063 25.5738 81.5818C25.5136 81.5562 25.4611 81.5153 25.4215 81.4632C25.382 81.4111 25.3567 81.3496 25.3482 81.2847V80.9839V80.8372C25.3447 80.7708 25.359 80.7046 25.3895 80.6454C25.4201 80.5863 25.4658 80.5364 25.5219 80.5007C25.5781 80.4651 25.6427 80.4449 25.7092 80.4424L33.7869 80.0362L35.1821 79.9761L35.7574 79.9535C35.8494 79.9381 35.9439 79.9554 36.0244 80.0024C36.061 80.0263 36.0924 80.0573 36.1169 80.0934C36.1415 80.1295 36.1586 80.1702 36.1673 80.213C36.1673 80.3709 36.1673 80.4913 36.1673 80.589C36.1758 80.6381 36.1734 80.6884 36.1605 80.7365C36.1475 80.7846 36.1241 80.8292 36.0921 80.8673C35.968 81.0215 35.8627 80.9914 35.8702 80.9914Z" fill="#6C7584"/>
<path d="M35.8529 81.802L25.7327 82.3448C25.575 82.3533 25.4541 82.4879 25.4626 82.6455L25.4843 83.0511C25.4928 83.2087 25.6274 83.3296 25.785 83.3211L35.9052 82.7784C36.0629 82.7699 36.1838 82.6353 36.1753 82.4777L36.1536 82.0721C36.1451 81.9145 36.0105 81.7936 35.8529 81.802Z" fill="#E0E0E0"/>
<path d="M35.9086 82.7778C35.9815 82.7587 36.047 82.7181 36.0966 82.6612C36.1224 82.6252 36.1401 82.584 36.1485 82.5406C36.1569 82.4971 36.1559 82.4523 36.1455 82.4093C36.1455 82.304 36.1267 82.1648 36.1116 82.0332C36.103 81.9988 36.0875 81.9664 36.0659 81.9383C36.0443 81.9101 36.0171 81.8866 35.9861 81.8693C35.9551 81.8521 35.9209 81.8413 35.8855 81.8378C35.8502 81.8343 35.8145 81.8381 35.7807 81.8489L35.2091 81.8903L33.8139 81.9768L25.74 82.4393C25.7158 82.4403 25.692 82.446 25.67 82.4562C25.648 82.4664 25.6282 82.4808 25.6118 82.4986C25.5954 82.5164 25.5827 82.5373 25.5743 82.56C25.566 82.5828 25.5622 82.6069 25.5632 82.6311V82.7778V83.0598C25.5678 83.0914 25.5801 83.1214 25.5992 83.147C25.6182 83.1726 25.6433 83.1931 25.6723 83.2065C25.7044 83.2146 25.738 83.2146 25.7701 83.2065H25.913H26.195L26.7591 83.1764L28.9026 83.0674L32.5353 82.8944L34.9872 82.7928H35.6528C35.7302 82.7824 35.8086 82.7824 35.886 82.7928C35.8091 82.8084 35.7312 82.8185 35.6528 82.8229L34.991 82.8756L32.5428 83.041L28.9139 83.2554L26.7704 83.3757L26.2063 83.4058L25.9205 83.4246H25.7776C25.7143 83.428 25.6512 83.4164 25.5933 83.3908C25.5338 83.3646 25.4821 83.3235 25.4432 83.2715C25.4043 83.2194 25.3796 83.1582 25.3714 83.0937V82.7966V82.6462C25.3687 82.581 25.3829 82.5162 25.4128 82.4582C25.4429 82.3984 25.4883 82.3477 25.5445 82.3113C25.6007 82.2749 25.6656 82.2542 25.7324 82.2513L33.8102 81.8489L35.2053 81.785L35.7807 81.7624C35.8731 81.7503 35.9669 81.7687 36.0477 81.8151C36.085 81.8382 36.117 81.8689 36.1416 81.9052C36.1662 81.9415 36.1829 81.9825 36.1906 82.0257C36.1906 82.1799 36.1906 82.3002 36.1906 82.4017C36.1986 82.4508 36.196 82.501 36.183 82.549C36.17 82.597 36.147 82.6417 36.1154 82.68C36.0063 82.8079 35.901 82.7778 35.9086 82.7778Z" fill="#6C7584"/>
<path d="M37.8684 88.855C37.8911 89.2274 37.8026 89.5982 37.614 89.9201C37.4254 90.242 37.1453 90.5006 36.8093 90.6628C36.4733 90.8251 36.0967 90.8837 35.7273 90.8313C35.3579 90.7788 35.0125 90.6177 34.735 90.3683C34.4574 90.119 34.2603 89.7927 34.1688 89.431C34.0773 89.0693 34.0954 88.6886 34.2209 88.3372C34.3464 87.9858 34.5736 87.6798 34.8735 87.4579C35.1735 87.236 35.5327 87.1084 35.9054 87.0913C36.3986 87.0687 36.881 87.241 37.2483 87.571C37.6156 87.901 37.8383 88.3622 37.8684 88.855Z" fill="#6C7584"/>
<path d="M36.224 87.5955L26.1038 88.1383C25.9461 88.1467 25.8252 88.2813 25.8337 88.439L25.8554 88.8445C25.8639 89.0021 25.9985 89.1231 26.1561 89.1146L36.2763 88.5718C36.4339 88.5634 36.5549 88.4288 36.5464 88.2711L36.5247 87.8656C36.5162 87.708 36.3816 87.587 36.224 87.5955Z" fill="#E0E0E0"/>
<path d="M36.2774 88.5766C36.3504 88.5599 36.4163 88.5204 36.4654 88.4638C36.4939 88.4269 36.5137 88.3841 36.5234 88.3386C36.5332 88.293 36.5326 88.2459 36.5218 88.2006C36.5218 88.0915 36.5218 87.9524 36.488 87.8245C36.4794 87.7901 36.4638 87.7578 36.4422 87.7296C36.4206 87.7014 36.3935 87.6779 36.3624 87.6606C36.3314 87.6434 36.2972 87.6327 36.2619 87.6291C36.2265 87.6256 36.1908 87.6294 36.157 87.6403L35.5854 87.6816L34.1903 87.7719L26.1163 88.2307C26.0918 88.2316 26.0677 88.2375 26.0454 88.2479C26.0232 88.2583 26.0032 88.273 25.9868 88.2912C25.9703 88.3094 25.9576 88.3308 25.9495 88.354C25.9414 88.3771 25.938 88.4017 25.9395 88.4262V88.5691V88.8512C25.9441 88.8828 25.9564 88.9127 25.9755 88.9383C25.9945 88.9639 26.0197 88.9844 26.0486 88.9978C26.0805 89.0077 26.1145 89.0077 26.1464 88.9978H26.2893H26.5713L27.1354 88.9677L29.2789 88.8587L32.9117 88.6857L35.3936 88.5766H36.0593C36.1366 88.5659 36.2151 88.5659 36.2924 88.5766C36.2172 88.5945 36.1403 88.6046 36.063 88.6067L35.3974 88.6631L32.9493 88.8248L29.3203 89.0392L27.1768 89.1595L26.6127 89.1934H26.3269H26.184C26.121 89.1981 26.0579 89.1878 25.9997 89.1633C25.9397 89.1368 25.8877 89.0952 25.8488 89.0424C25.8098 88.9896 25.7854 88.9276 25.7778 88.8624V88.5654V88.4187C25.7744 88.3522 25.7887 88.286 25.8192 88.2269C25.8507 88.1683 25.8966 88.1186 25.9525 88.0824C26.0083 88.0463 26.0725 88.0248 26.1389 88.0201L34.2166 87.6177L35.6117 87.5575L36.1871 87.535C36.2791 87.5174 36.3743 87.5349 36.4541 87.5838C36.4909 87.6075 36.5226 87.6383 36.5472 87.6745C36.5717 87.7107 36.5887 87.7515 36.597 87.7944C36.597 87.9486 36.597 88.0727 36.597 88.1705C36.6055 88.2196 36.6031 88.2699 36.5901 88.3179C36.5772 88.366 36.5538 88.4107 36.5218 88.4488C36.3751 88.603 36.2699 88.5766 36.2774 88.5766Z" fill="#6C7584"/>
<path d="M36.2611 89.3845L26.1409 89.9273C25.9832 89.9358 25.8623 90.0704 25.8708 90.228L25.8925 90.6336C25.901 90.7912 26.0356 90.9121 26.1932 90.9037L36.3134 90.3609C36.4711 90.3524 36.592 90.2178 36.5835 90.0602L36.5618 89.6546C36.5533 89.497 36.4187 89.3761 36.2611 89.3845Z" fill="#E0E0E0"/>
<path d="M36.3148 90.3557C36.3879 90.339 36.4537 90.2995 36.5028 90.2429C36.5286 90.2069 36.5463 90.1657 36.5547 90.1222C36.5632 90.0788 36.5622 90.034 36.5517 89.9909C36.5517 89.8819 36.5517 89.7465 36.5179 89.6149C36.5093 89.5804 36.4937 89.5481 36.4721 89.5199C36.4505 89.4917 36.4234 89.4683 36.3924 89.451C36.3613 89.4337 36.3271 89.423 36.2918 89.4195C36.2564 89.416 36.2208 89.4198 36.187 89.4306L35.6153 89.4682L34.2202 89.5585L26.1462 90.021C26.1138 90.0225 26.0823 90.0327 26.0552 90.0506C26.028 90.0685 26.0062 90.0933 25.992 90.1226C25.9754 90.1496 25.9675 90.1811 25.9695 90.2128V90.3595V90.6415C25.974 90.6731 25.9864 90.7031 26.0054 90.7287C26.0244 90.7543 26.0496 90.7747 26.0785 90.7882C26.1106 90.7963 26.1442 90.7963 26.1763 90.7882H26.3192H26.605L27.1653 90.7581L29.3126 90.649L32.9416 90.4761L35.3935 90.3745H36.0591C36.1367 90.3679 36.2147 90.3679 36.2923 90.3745C36.2175 90.3952 36.1404 90.4065 36.0629 90.4084L35.3972 90.461L32.9491 90.6265L29.3201 90.8408L27.1766 90.9612L26.6125 90.9913H26.3305H26.1876C26.1231 90.9947 26.0588 90.9831 25.9996 90.9574C25.9401 90.9313 25.8883 90.8902 25.8495 90.8381C25.8106 90.7861 25.7858 90.7248 25.7777 90.6603V90.3632V90.2128C25.7749 90.1476 25.7892 90.0828 25.819 90.0248C25.8491 89.965 25.8946 89.9143 25.9508 89.8779C26.007 89.8416 26.0718 89.8209 26.1387 89.818L34.2164 89.4118L35.6153 89.3516L36.187 89.3291C36.2794 89.3144 36.374 89.3331 36.454 89.3817C36.4912 89.4048 36.5232 89.4355 36.5478 89.4718C36.5725 89.5081 36.5892 89.5492 36.5969 89.5923C36.5969 89.7465 36.5969 89.8669 36.5969 89.9684C36.6062 90.018 36.6042 90.0691 36.5912 90.1179C36.5782 90.1667 36.5544 90.212 36.5216 90.2504C36.4126 90.3896 36.3111 90.3595 36.3148 90.3557Z" fill="#6C7584"/>
<path d="M38.2747 96.4363C38.2974 96.8087 38.2088 97.1795 38.0202 97.5014C37.8316 97.8233 37.5515 98.0819 37.2156 98.2441C36.8796 98.4064 36.503 98.465 36.1336 98.4126C35.7642 98.3601 35.4187 98.199 35.1412 97.9496C34.8637 97.7003 34.6666 97.374 34.5751 97.0123C34.4835 96.6506 34.5016 96.2699 34.6271 95.9185C34.7526 95.5671 34.9798 95.2611 35.2798 95.0392C35.5798 94.8173 35.9389 94.6897 36.3116 94.6726C36.8049 94.65 37.2872 94.8223 37.6545 95.1523C38.0218 95.4823 38.2446 95.9435 38.2747 96.4363Z" fill="#6C7584"/>
<path d="M36.6283 95.178L26.5081 95.7208C26.3504 95.7292 26.2295 95.8639 26.238 96.0215L26.2597 96.427C26.2682 96.5847 26.4028 96.7056 26.5604 96.6971L36.6806 96.1543C36.8382 96.1459 36.9592 96.0113 36.9507 95.8536L36.929 95.4481C36.9205 95.2905 36.7859 95.1695 36.6283 95.178Z" fill="#E0E0E0"/>
<path d="M36.6861 96.1543C36.759 96.1351 36.8245 96.0945 36.8741 96.0377C36.8998 96.0024 36.9175 95.9618 36.9259 95.919C36.9343 95.8761 36.9333 95.8319 36.923 95.7895C36.923 95.6804 36.923 95.5413 36.8891 95.4134C36.8805 95.379 36.865 95.3467 36.8434 95.3185C36.8218 95.2903 36.7946 95.2668 36.7636 95.2496C36.7326 95.2323 36.6984 95.2216 36.663 95.2181C36.6277 95.2146 36.592 95.2183 36.5582 95.2292L35.9866 95.2705L34.5914 95.357L26.5175 95.8196C26.4852 95.8218 26.4541 95.8323 26.4271 95.8501C26.4001 95.8679 26.3781 95.8924 26.3633 95.9211C26.3466 95.9495 26.3387 95.9822 26.3407 96.0151V96.158V96.4401C26.3453 96.4717 26.3576 96.5016 26.3767 96.5272C26.3957 96.5528 26.4208 96.5733 26.4498 96.5867C26.4819 96.5949 26.5155 96.5949 26.5476 96.5867H26.6905H26.9763L27.5366 96.5567L29.6839 96.4476L33.3128 96.2746L35.7647 96.1731H36.4304C36.5077 96.1624 36.5862 96.1624 36.6635 96.1731C36.5883 96.1909 36.5114 96.201 36.4341 96.2032L35.7685 96.2596L33.3204 96.4213L29.6914 96.6356L27.5479 96.756L26.9838 96.7898H26.7017H26.5588C26.4944 96.7932 26.43 96.7816 26.3708 96.756C26.3113 96.7298 26.2596 96.6887 26.2207 96.6367C26.1818 96.5846 26.1571 96.5233 26.1489 96.4589V96.1618V96.0151C26.1455 95.9487 26.1598 95.8825 26.1903 95.8233C26.2204 95.7635 26.2658 95.7128 26.322 95.6765C26.3782 95.6401 26.4431 95.6194 26.51 95.6165L34.5877 95.2141L35.9866 95.154L36.5582 95.1314C36.6502 95.1139 36.7454 95.1313 36.8252 95.1803C36.862 95.2039 36.8937 95.2347 36.9182 95.2709C36.9428 95.3071 36.9598 95.3479 36.9681 95.3909C36.9681 95.5451 36.9681 95.6654 36.9681 95.7669C36.9771 95.816 36.975 95.8664 36.962 95.9146C36.949 95.9627 36.9254 96.0074 36.8929 96.0452C36.7838 96.1844 36.6823 96.1543 36.6861 96.1543Z" fill="#6C7584"/>
<path d="M36.6693 96.9634L26.5491 97.5062C26.3914 97.5146 26.2705 97.6493 26.279 97.8069L26.3007 98.2124C26.3092 98.3701 26.4438 98.491 26.6014 98.4825L36.7216 97.9398C36.8793 97.9313 37.0002 97.7967 36.9917 97.639L36.97 97.2335C36.9615 97.0759 36.8269 96.9549 36.6693 96.9634Z" fill="#E0E0E0"/>
<path d="M36.7229 97.9367C36.7959 97.92 36.8618 97.8805 36.9109 97.8239C36.9367 97.7879 36.9544 97.7467 36.9628 97.7032C36.9713 97.6598 36.9702 97.615 36.9598 97.5719C36.9598 97.4629 36.9598 97.3275 36.926 97.1959C36.9174 97.1614 36.9018 97.1291 36.8802 97.1009C36.8586 97.0727 36.8315 97.0493 36.8004 97.032C36.7694 97.0147 36.7352 97.004 36.6999 97.0005C36.6645 96.997 36.6289 97.0008 36.595 97.0116L36.0234 97.0492L34.632 97.1395L26.5543 97.602C26.5219 97.6039 26.4906 97.6143 26.4636 97.6321C26.4365 97.6499 26.4146 97.6746 26.4001 97.7035C26.3852 97.7313 26.3774 97.7623 26.3776 97.7938V97.9405V98.2225C26.3821 98.2541 26.3944 98.2841 26.4135 98.3097C26.4325 98.3353 26.4577 98.3557 26.4866 98.3692C26.5188 98.3767 26.5522 98.3767 26.5844 98.3692H26.7273H27.0131L27.5734 98.3391L29.7207 98.23L33.3534 98.057L35.8016 97.9555L36.4672 97.9367C36.5448 97.9309 36.6227 97.9309 36.7003 97.9367C36.6255 97.9573 36.5485 97.9687 36.4709 97.9706L35.8053 98.0232L33.3609 98.1849L29.7282 98.403L27.5847 98.5234L27.0244 98.5534H26.7386H26.5957C26.5314 98.5597 26.4667 98.5494 26.4076 98.5234C26.3481 98.4972 26.2964 98.4561 26.2575 98.4041C26.2187 98.352 26.1939 98.2907 26.1858 98.2263V97.9292V97.7788C26.1835 97.712 26.1991 97.6458 26.2309 97.587C26.2611 97.5284 26.3062 97.4788 26.3617 97.4432C26.4171 97.4075 26.4809 97.3871 26.5468 97.3839L34.6433 97.0003L36.0385 96.9401L36.6101 96.9176C36.7033 96.9022 36.7989 96.9195 36.8808 96.9665C36.9535 97.017 37.0034 97.0939 37.02 97.1808C37.02 97.335 37.02 97.4554 37.02 97.5569C37.0264 97.6068 37.0226 97.6575 37.0091 97.7059C36.9955 97.7544 36.9724 97.7996 36.941 97.8389C36.8207 97.9781 36.7191 97.9405 36.7229 97.9367Z" fill="#6C7584"/>
<path d="M38.6809 104.018C38.7037 104.39 38.6151 104.761 38.4265 105.083C38.2379 105.405 37.9578 105.663 37.6218 105.825C37.2859 105.988 36.9092 106.046 36.5398 105.994C36.1704 105.941 35.825 105.78 35.5475 105.531C35.2699 105.282 35.0728 104.955 34.9813 104.594C34.8898 104.232 34.9079 103.851 35.0334 103.5C35.1589 103.148 35.3861 102.842 35.686 102.62C35.986 102.399 36.3452 102.271 36.7179 102.254C37.2111 102.231 37.6935 102.404 38.0608 102.734C38.4281 103.064 38.6508 103.525 38.6809 104.018Z" fill="#6C7584"/>
<path d="M37.0345 102.761L26.9143 103.303C26.7567 103.312 26.6358 103.446 26.6442 103.604L26.666 104.01C26.6744 104.167 26.809 104.288 26.9667 104.28L37.0869 103.737C37.2445 103.728 37.3654 103.594 37.357 103.436L37.3352 103.031C37.3268 102.873 37.1921 102.752 37.0345 102.761Z" fill="#E0E0E0"/>
<path d="M37.0906 103.736C37.1635 103.717 37.229 103.676 37.2786 103.619C37.3044 103.583 37.3221 103.542 37.3305 103.498C37.3389 103.455 37.3379 103.41 37.3275 103.367C37.3275 103.262 37.3275 103.123 37.2936 102.991C37.285 102.957 37.2695 102.924 37.2479 102.896C37.2263 102.868 37.1991 102.844 37.1681 102.827C37.1371 102.81 37.1029 102.799 37.0675 102.796C37.0322 102.792 36.9965 102.796 36.9627 102.807L36.3911 102.848L34.9997 102.935L26.922 103.397C26.8896 103.399 26.8583 103.409 26.8312 103.427C26.8042 103.445 26.7823 103.47 26.7678 103.499C26.7524 103.528 26.7446 103.56 26.7452 103.593V103.736V104.018C26.7504 104.049 26.763 104.079 26.7819 104.104C26.8009 104.13 26.8257 104.15 26.8543 104.164C26.8864 104.172 26.9199 104.172 26.9521 104.164H27.095H27.3808L27.9411 104.134L30.0884 104.025L33.7211 103.852L36.1692 103.751H36.8348C36.9122 103.74 36.9907 103.74 37.068 103.751C36.9923 103.766 36.9157 103.776 36.8386 103.781L36.173 103.837L33.7286 103.999L30.0959 104.213L27.9524 104.334L27.392 104.364L27.1213 104.371H26.9784C26.9139 104.374 26.8496 104.363 26.7903 104.337C26.7308 104.311 26.6791 104.27 26.6402 104.218C26.6014 104.166 26.5766 104.105 26.5685 104.04V103.743V103.593C26.5669 103.527 26.5824 103.462 26.6136 103.405C26.6433 103.345 26.6882 103.295 26.7437 103.259C26.7992 103.222 26.8633 103.201 26.9295 103.198L35.011 102.795L36.4061 102.735L36.9778 102.713C37.0709 102.697 37.1666 102.715 37.2485 102.762C37.3209 102.811 37.3709 102.886 37.3877 102.972C37.3877 103.126 37.3877 103.247 37.4065 103.348C37.4139 103.398 37.4107 103.448 37.3971 103.496C37.3835 103.544 37.3597 103.589 37.3275 103.627C37.1883 103.766 37.0868 103.736 37.0906 103.736Z" fill="#6C7584"/>
<path d="M37.0716 104.542L26.9514 105.085C26.7938 105.093 26.6729 105.228 26.6813 105.385L26.7031 105.791C26.7115 105.949 26.8462 106.07 27.0038 106.061L37.124 105.518C37.2816 105.51 37.4025 105.375 37.3941 105.218L37.3723 104.812C37.3639 104.654 37.2292 104.534 37.0716 104.542Z" fill="#E0E0E0"/>
<path d="M37.1275 105.518C37.2005 105.501 37.2664 105.462 37.3155 105.405C37.3422 105.37 37.3605 105.329 37.369 105.285C37.3774 105.241 37.3759 105.196 37.3644 105.153C37.3644 105.044 37.3644 104.909 37.3343 104.777C37.3252 104.743 37.3094 104.711 37.2877 104.683C37.266 104.655 37.2389 104.632 37.208 104.615C37.1771 104.598 37.1431 104.587 37.1079 104.583C37.0728 104.579 37.0372 104.583 37.0034 104.593L36.428 104.631L35.0366 104.721L26.9589 105.183C26.927 105.185 26.8961 105.195 26.8691 105.212C26.8422 105.23 26.82 105.253 26.8047 105.281C26.7901 105.31 26.7824 105.343 26.7821 105.375V105.522V105.804C26.786 105.836 26.7981 105.866 26.8172 105.892C26.8363 105.918 26.8618 105.938 26.8912 105.951C26.9222 105.957 26.9542 105.957 26.9852 105.951H27.1281H27.4139L27.978 105.921L30.1215 105.811L33.7543 105.639L36.2024 105.537L36.8981 105.499C36.9756 105.491 37.0537 105.491 37.1312 105.499C37.0566 105.521 36.9795 105.532 36.9019 105.533L36.2362 105.586L33.7919 105.748L30.1591 105.966L28.0156 106.086L27.4553 106.116H27.1695H27.0266C26.9636 106.123 26.8999 106.112 26.8423 106.086C26.7821 106.06 26.7296 106.02 26.6901 105.967C26.6505 105.915 26.6252 105.854 26.6167 105.789L26.5979 105.488V105.341C26.5956 105.275 26.6112 105.208 26.643 105.15C26.6736 105.091 26.7192 105.041 26.7754 105.005C26.8316 104.969 26.8962 104.949 26.9626 104.947L35.0178 104.582L36.413 104.522L36.9846 104.499C37.0778 104.483 37.1735 104.501 37.2553 104.548C37.2919 104.572 37.3231 104.604 37.347 104.641C37.3709 104.678 37.3871 104.719 37.3945 104.762C37.3945 104.916 37.3945 105.037 37.4133 105.138C37.4197 105.188 37.416 105.239 37.4024 105.287C37.3888 105.336 37.3657 105.381 37.3343 105.42C37.3109 105.453 37.2797 105.479 37.2435 105.496C37.2073 105.513 37.1674 105.521 37.1275 105.518Z" fill="#6C7584"/>
<path d="M39.0852 111.599C39.1079 111.971 39.0194 112.342 38.8308 112.664C38.6422 112.986 38.3621 113.244 38.0261 113.407C37.6902 113.569 37.3135 113.628 36.9441 113.575C36.5747 113.523 36.2293 113.362 35.9518 113.112C35.6742 112.863 35.4771 112.537 35.3856 112.175C35.2941 111.813 35.3122 111.432 35.4377 111.081C35.5632 110.73 35.7904 110.424 36.0903 110.202C36.3903 109.98 36.7495 109.852 37.1222 109.835C37.6154 109.813 38.0978 109.985 38.4651 110.315C38.8324 110.645 39.0551 111.106 39.0852 111.599Z" fill="#6C7584"/>
<path d="M37.4388 110.339L27.3186 110.882C27.161 110.89 27.0401 111.025 27.0485 111.183L27.0703 111.588C27.0787 111.746 27.2133 111.867 27.371 111.858L37.4912 111.315C37.6488 111.307 37.7697 111.172 37.7613 111.015L37.7395 110.609C37.7311 110.452 37.5964 110.331 37.4388 110.339Z" fill="#E0E0E0"/>
<path d="M37.4948 111.317C37.5677 111.298 37.6332 111.257 37.6828 111.2C37.7095 111.165 37.7278 111.124 37.7362 111.08C37.7447 111.036 37.7432 110.991 37.7317 110.948C37.7317 110.843 37.7317 110.704 37.7016 110.572C37.6925 110.538 37.6766 110.506 37.6549 110.478C37.6332 110.45 37.6061 110.427 37.5752 110.41C37.5444 110.393 37.5103 110.382 37.4752 110.378C37.44 110.374 37.4045 110.378 37.3707 110.388L36.7953 110.426L35.4039 110.516L27.3262 110.978C27.2938 110.98 27.2625 110.991 27.2354 111.008C27.2084 111.026 27.1865 111.051 27.172 111.08C27.157 111.108 27.1493 111.139 27.1494 111.17V111.317L27.1682 111.599C27.1721 111.631 27.1842 111.661 27.2033 111.687C27.2224 111.712 27.2479 111.733 27.2773 111.745C27.3081 111.753 27.3404 111.753 27.3713 111.745H27.5142H27.8L28.3641 111.715L30.5076 111.606L34.1403 111.433L36.5885 111.332H37.2541C37.3314 111.321 37.4099 111.321 37.4872 111.332C37.4117 111.348 37.335 111.358 37.2578 111.362L36.5922 111.415L34.1478 111.58L30.5189 111.794L28.3716 111.915L27.8113 111.945H27.5255H27.3826C27.3193 111.948 27.2562 111.937 27.1983 111.911C27.1381 111.885 27.0856 111.844 27.046 111.792C27.0065 111.74 26.9812 111.679 26.9727 111.614V111.317V111.166C26.9723 111.101 26.9878 111.036 27.0178 110.978C27.0478 110.919 27.0933 110.868 27.1495 110.831C27.2057 110.795 27.2706 110.774 27.3374 110.772L35.3926 110.388L36.7878 110.328L37.3594 110.305C37.453 110.292 37.5481 110.311 37.6301 110.358C37.6668 110.382 37.6984 110.413 37.7229 110.449C37.7474 110.485 37.7645 110.526 37.773 110.568C37.773 110.723 37.773 110.843 37.773 110.945C37.7805 110.994 37.7773 111.044 37.7637 111.092C37.7501 111.14 37.7263 111.185 37.6941 111.223C37.5925 111.347 37.491 111.317 37.4948 111.317Z" fill="#6C7584"/>
<path d="M37.4798 112.125L27.3596 112.667C27.202 112.676 27.0811 112.81 27.0895 112.968L27.1113 113.374C27.1197 113.531 27.2544 113.652 27.412 113.644L37.5322 113.101C37.6898 113.092 37.8107 112.958 37.8023 112.8L37.7805 112.395C37.7721 112.237 37.6374 112.116 37.4798 112.125Z" fill="#E0E0E0"/>
<path d="M37.5362 113.099C37.6074 113.08 37.6714 113.041 37.7205 112.986C37.747 112.951 37.7651 112.91 37.7736 112.866C37.782 112.822 37.7806 112.777 37.7694 112.734C37.7694 112.625 37.7694 112.49 37.7393 112.358C37.7302 112.324 37.7144 112.292 37.6927 112.264C37.6709 112.236 37.6438 112.213 37.613 112.196C37.5821 112.179 37.548 112.168 37.5129 112.164C37.4777 112.16 37.4422 112.164 37.4084 112.174L36.8368 112.212L35.4416 112.302L27.3676 112.764C27.3352 112.766 27.3037 112.776 27.276 112.793C27.2484 112.81 27.2256 112.834 27.2097 112.862C27.2004 112.893 27.2004 112.926 27.2097 112.956V113.103V113.385C27.213 113.417 27.225 113.447 27.2442 113.472C27.2634 113.497 27.2892 113.516 27.3187 113.528C27.3496 113.536 27.3819 113.536 27.4128 113.528H27.5557H27.8415L28.4056 113.498L30.5491 113.389L34.1818 113.212L36.6299 113.114L37.2993 113.095C37.3768 113.087 37.455 113.087 37.5325 113.095C37.4564 113.116 37.3781 113.128 37.2993 113.129L36.6337 113.182L34.1893 113.344L30.5604 113.562L28.4131 113.682L27.8527 113.712H27.5669H27.424C27.361 113.719 27.2974 113.708 27.2398 113.682C27.1796 113.656 27.1271 113.616 27.0875 113.563C27.048 113.511 27.0227 113.45 27.0141 113.385V113.084V112.937C27.0116 112.887 27.0194 112.836 27.0372 112.788C27.0549 112.74 27.0822 112.696 27.1174 112.659C27.1526 112.622 27.1949 112.593 27.2418 112.573C27.2887 112.553 27.3392 112.543 27.3902 112.543L35.4679 112.136L36.8631 112.076L37.4347 112.054C37.5279 112.038 37.6236 112.055 37.7055 112.103C37.742 112.127 37.7734 112.157 37.798 112.194C37.8225 112.23 37.8396 112.27 37.8484 112.313C37.8484 112.471 37.8484 112.592 37.8484 112.689C37.8566 112.739 37.8538 112.79 37.8402 112.839C37.8266 112.888 37.8024 112.933 37.7694 112.971C37.7482 113.014 37.7145 113.049 37.6728 113.072C37.6312 113.095 37.5835 113.104 37.5362 113.099Z" fill="#6C7584"/>
<path d="M39.4932 119.176C39.5167 119.549 39.4288 119.92 39.2407 120.242C39.0526 120.565 38.7728 120.824 38.4369 120.987C38.1011 121.15 37.7243 121.209 37.3547 121.157C36.9851 121.105 36.6393 120.944 36.3614 120.695C36.0835 120.446 35.8861 120.119 35.7942 119.758C35.7023 119.396 35.7202 119.015 35.8455 118.663C35.9708 118.312 36.198 118.006 36.498 117.783C36.798 117.561 37.1573 117.434 37.5302 117.417C38.0228 117.394 38.5046 117.566 38.8718 117.895C39.239 118.224 39.4621 118.684 39.4932 119.176Z" fill="#6C7584"/>
<path d="M37.8451 117.922L27.7248 118.465C27.5672 118.473 27.4463 118.608 27.4548 118.765L27.4765 119.171C27.485 119.329 27.6196 119.449 27.7772 119.441L37.8974 118.898C38.055 118.89 38.176 118.755 38.1675 118.598L38.1458 118.192C38.1373 118.034 38.0027 117.913 37.8451 117.922Z" fill="#E0E0E0"/>
<path d="M37.9072 118.895C37.9783 118.876 38.0424 118.837 38.0915 118.782C38.1182 118.746 38.1365 118.705 38.1449 118.661C38.1534 118.618 38.1518 118.573 38.1404 118.53C38.1404 118.421 38.1404 118.285 38.1103 118.154C38.1012 118.12 38.0853 118.088 38.0636 118.06C38.0419 118.032 38.0148 118.008 37.9839 117.991C37.953 117.974 37.919 117.963 37.8839 117.96C37.8487 117.956 37.8132 117.959 37.7793 117.969L37.2077 118.007L35.8126 118.097L27.7386 118.56C27.7056 118.561 27.6735 118.571 27.6457 118.589C27.6179 118.607 27.5955 118.632 27.5807 118.661C27.5714 118.691 27.5714 118.722 27.5807 118.752V118.898V119.18C27.5845 119.212 27.5966 119.242 27.6157 119.268C27.6348 119.294 27.6603 119.314 27.6897 119.327C27.7206 119.335 27.7529 119.335 27.7837 119.327H27.9266H28.2124L28.7765 119.297L30.92 119.188L34.5528 119.015L37.0009 118.913H37.6703C37.7479 118.908 37.8258 118.908 37.9034 118.913C37.8274 118.934 37.7491 118.945 37.6703 118.947L37.0084 119L34.5603 119.165L30.9313 119.38L28.784 119.5L28.2237 119.53H27.9379H27.795C27.7318 119.533 27.6686 119.522 27.6107 119.496C27.5505 119.471 27.4981 119.43 27.4585 119.378C27.4189 119.325 27.3936 119.264 27.3851 119.199V118.902V118.752C27.3823 118.686 27.3966 118.622 27.4265 118.564C27.4565 118.504 27.502 118.453 27.5582 118.417C27.6144 118.38 27.6793 118.36 27.7461 118.357L35.8238 117.951L37.219 117.89L37.7906 117.868C37.8842 117.853 37.98 117.872 38.0614 117.921C38.0987 117.944 38.1306 117.974 38.1553 118.011C38.1799 118.047 38.1966 118.088 38.2043 118.131C38.2043 118.285 38.2043 118.406 38.2043 118.507C38.2128 118.557 38.2102 118.608 38.1965 118.657C38.1828 118.706 38.1585 118.751 38.1253 118.789C38.005 118.928 37.8997 118.898 37.9072 118.895Z" fill="#6C7584"/>
<path d="M37.888 119.703L27.7678 120.246C27.6102 120.254 27.4893 120.389 27.4977 120.547L27.5195 120.952C27.5279 121.11 27.6626 121.231 27.8202 121.222L37.9404 120.679C38.098 120.671 38.2189 120.536 38.2105 120.379L38.1887 119.973C38.1803 119.816 38.0456 119.695 37.888 119.703Z" fill="#E0E0E0"/>
<path d="M37.9421 120.681C38.0146 120.663 38.08 120.623 38.1301 120.568C38.1548 120.531 38.1719 120.49 38.1803 120.447C38.1887 120.404 38.1883 120.359 38.179 120.316C38.179 120.207 38.179 120.072 38.1452 119.94C38.1357 119.906 38.1195 119.875 38.0976 119.847C38.0757 119.82 38.0486 119.797 38.0177 119.78C37.9869 119.763 37.953 119.753 37.9181 119.749C37.8831 119.746 37.8478 119.749 37.8142 119.759L37.2426 119.797L35.8474 119.887L27.7735 120.35C27.741 120.351 27.7095 120.361 27.6819 120.378C27.6543 120.395 27.6314 120.419 27.6155 120.448C27.608 120.479 27.608 120.511 27.6155 120.542V120.685V120.97C27.6196 121.002 27.6319 121.031 27.651 121.056C27.6701 121.081 27.6955 121.101 27.7246 121.113C27.7552 121.123 27.788 121.123 27.8186 121.113H27.9653H28.2473L28.8114 121.087L30.9549 120.978L34.5876 120.801L37.0395 120.703H37.7052C37.7827 120.695 37.8608 120.695 37.9383 120.703C37.8623 120.724 37.784 120.736 37.7052 120.737L37.0433 120.79L34.5952 120.952L30.9662 121.17L28.8227 121.29L28.2473 121.294H27.9615H27.8186C27.7557 121.299 27.6925 121.288 27.6343 121.264C27.5741 121.238 27.5217 121.197 27.4821 121.145C27.4425 121.093 27.4172 121.032 27.4087 120.967V120.666V120.519C27.4053 120.453 27.4196 120.386 27.4501 120.327C27.4806 120.268 27.5263 120.218 27.5825 120.183C27.6386 120.147 27.7032 120.127 27.7697 120.124L35.8474 119.718L37.2426 119.658L37.818 119.635C37.91 119.62 38.0044 119.637 38.085 119.684C38.1215 119.708 38.153 119.739 38.1775 119.775C38.202 119.811 38.2191 119.852 38.2279 119.895C38.2279 120.053 38.2279 120.173 38.2279 120.271C38.2348 120.321 38.2317 120.371 38.2188 120.42C38.2058 120.468 38.1834 120.513 38.1527 120.553C38.1323 120.591 38.102 120.623 38.065 120.646C38.0279 120.668 37.9854 120.68 37.9421 120.681Z" fill="#6C7584"/>
<path d="M39.8508 125.806C39.8736 126.179 39.785 126.549 39.5964 126.871C39.4078 127.193 39.1277 127.452 38.7917 127.614C38.4558 127.776 38.0791 127.835 37.7097 127.782C37.3403 127.73 36.9949 127.569 36.7174 127.319C36.4398 127.07 36.2428 126.744 36.1512 126.382C36.0597 126.02 36.0778 125.64 36.2033 125.288C36.3288 124.937 36.556 124.631 36.856 124.409C37.1559 124.187 37.5151 124.06 37.8878 124.043C38.3811 124.02 38.8634 124.192 39.2307 124.522C39.598 124.852 39.8207 125.313 39.8508 125.806Z" fill="#6C7584"/>
<path d="M38.2025 124.549L28.0823 125.092C27.9247 125.1 27.8037 125.235 27.8122 125.393L27.8339 125.798C27.8424 125.956 27.977 126.077 28.1346 126.068L38.2548 125.525C38.4125 125.517 38.5334 125.382 38.5249 125.225L38.5032 124.819C38.4947 124.662 38.3601 124.541 38.2025 124.549Z" fill="#E0E0E0"/>
<path d="M38.2579 125.524C38.3309 125.505 38.3964 125.465 38.446 125.408C38.4717 125.372 38.4894 125.331 38.4979 125.287C38.5063 125.244 38.5053 125.199 38.4949 125.156C38.4949 125.051 38.4949 124.911 38.461 124.78C38.4524 124.745 38.4368 124.713 38.4153 124.685C38.3937 124.657 38.3665 124.633 38.3355 124.616C38.3045 124.599 38.2702 124.588 38.2349 124.584C38.1996 124.581 38.1639 124.585 38.1301 124.595L37.5585 124.633L36.1671 124.723L28.0894 125.186C28.0569 125.187 28.0254 125.198 27.9983 125.215C27.9712 125.233 27.9494 125.258 27.9352 125.287C27.9202 125.315 27.9124 125.346 27.9126 125.378V125.524V125.806C27.9171 125.838 27.9295 125.868 27.9485 125.894C27.9676 125.919 27.9927 125.94 28.0217 125.953C28.0538 125.961 28.0873 125.961 28.1194 125.953H28.2623H28.5481L29.1085 125.923L31.2558 125.814L34.8885 125.641L37.3366 125.539H38.0022C38.0796 125.529 38.158 125.529 38.2354 125.539C38.1597 125.555 38.0831 125.565 38.006 125.569L37.3404 125.622L34.896 125.788L31.2633 126.002L29.1198 126.122L28.5557 126.152L28.2736 126.171H28.1307C28.0663 126.174 28.002 126.163 27.9427 126.137C27.8832 126.111 27.8315 126.07 27.7926 126.018C27.7537 125.966 27.729 125.905 27.7208 125.84V125.543V125.393C27.7192 125.327 27.7348 125.262 27.7659 125.205C27.7957 125.145 27.8406 125.095 27.896 125.059C27.9515 125.022 28.0156 125.001 28.0818 124.998L36.1445 124.584L37.5397 124.524L38.1113 124.501C38.2049 124.489 38.2999 124.508 38.382 124.554C38.4183 124.578 38.4494 124.609 38.4733 124.645C38.4972 124.681 38.5135 124.722 38.5212 124.765C38.5212 124.919 38.5212 125.039 38.5212 125.141C38.5302 125.19 38.5281 125.24 38.5151 125.288C38.5021 125.337 38.4785 125.381 38.446 125.419C38.3557 125.554 38.2542 125.524 38.2579 125.524Z" fill="#6C7584"/>
<path d="M38.2435 126.331L28.1233 126.874C27.9657 126.882 27.8447 127.017 27.8532 127.175L27.8749 127.58C27.8834 127.738 28.018 127.859 28.1756 127.85L38.2959 127.307C38.4535 127.299 38.5744 127.164 38.5659 127.007L38.5442 126.601C38.5357 126.444 38.4011 126.323 38.2435 126.331Z" fill="#E0E0E0"/>
<path d="M38.2983 127.311C38.3714 127.294 38.4372 127.254 38.4864 127.198C38.5128 127.162 38.531 127.121 38.5394 127.077C38.5479 127.034 38.5465 126.989 38.5353 126.946C38.5353 126.837 38.5353 126.701 38.5052 126.57C38.4957 126.536 38.4794 126.503 38.4573 126.476C38.4353 126.448 38.4078 126.424 38.3766 126.407C38.3454 126.39 38.3111 126.379 38.2757 126.376C38.2403 126.372 38.2046 126.375 38.1705 126.386L37.5989 126.423L36.2075 126.513L28.1297 126.976C28.0979 126.978 28.067 126.988 28.04 127.005C28.013 127.022 27.9908 127.046 27.9756 127.074C27.9606 127.103 27.9528 127.135 27.953 127.168V127.314V127.596C27.9578 127.628 27.9707 127.658 27.9905 127.683C28.0103 127.708 28.0362 127.727 28.0658 127.739C28.0951 127.754 28.1274 127.76 28.1598 127.758H28.3027H28.5885L29.1489 127.728L31.2961 127.619L34.9289 127.442L37.377 127.345H38.0426C38.1201 127.336 38.1983 127.336 38.2758 127.345C38.201 127.365 38.1239 127.377 38.0464 127.378L37.3808 127.431L34.9364 127.593L31.3037 127.811L29.1601 127.931L28.5998 127.961H28.314H28.1711C28.1081 127.968 28.0445 127.958 27.9868 127.931C27.9266 127.906 27.8742 127.865 27.8346 127.813C27.795 127.76 27.7697 127.699 27.7612 127.634L27.7424 127.333V127.187C27.7401 127.12 27.7557 127.054 27.7875 126.995C27.8178 126.936 27.8629 126.887 27.9183 126.851C27.9738 126.815 28.0376 126.795 28.1034 126.792L36.1849 126.386L37.5801 126.325L38.1517 126.303C38.2449 126.287 38.3405 126.305 38.4224 126.352C38.4586 126.376 38.4895 126.407 38.5134 126.443C38.5373 126.479 38.5537 126.52 38.5616 126.562C38.5616 126.72 38.5616 126.841 38.5616 126.938C38.568 126.988 38.5642 127.039 38.5507 127.087C38.5371 127.136 38.514 127.181 38.4826 127.22C38.4606 127.248 38.4326 127.271 38.4008 127.287C38.3689 127.302 38.3339 127.31 38.2983 127.311Z" fill="#6C7584"/>
<path d="M117.322 19.4197C117.322 19.4724 97.2894 20.593 72.5712 21.9167C47.8529 23.2405 27.8203 24.2746 27.8203 24.222C27.8203 24.1693 47.8529 23.0487 72.5712 21.7212C97.2894 20.3937 117.318 19.3821 117.322 19.4197Z" fill="#E0E0E0"/>
<path d="M117.701 26.4895C117.701 26.5422 97.6684 27.6591 72.9501 28.9865C48.2318 30.314 28.1992 31.3444 28.1992 31.2918C28.1992 31.2391 48.228 30.1185 72.9501 28.791C97.6721 27.4635 117.697 26.4331 117.701 26.4895Z" fill="#E0E0E0"/>
<path d="M118.082 33.5556C118.082 33.6121 98.0492 34.7289 73.3309 36.0564C48.6127 37.3839 28.5801 38.4143 28.5801 38.3617C28.5801 38.309 48.6089 37.1884 73.3309 35.8609C98.053 34.5334 118.078 33.503 118.082 33.5556Z" fill="#E0E0E0"/>
<path d="M118.463 40.6257C118.463 40.6821 98.4263 41.799 73.7118 43.1265C48.9973 44.454 28.9609 45.4844 28.9609 45.4317C28.9609 45.3791 48.9898 44.2584 73.7118 42.9309C98.4338 41.6035 118.459 40.5731 118.463 40.6257Z" fill="#E0E0E0"/>
<path d="M118.84 47.6955C118.84 47.7519 98.8033 48.8688 74.0887 50.1963C49.3742 51.5238 29.3379 52.5542 29.3379 52.4978C29.3379 52.4414 49.3667 51.3283 74.0887 50.0008C98.8108 48.6733 118.836 47.6429 118.84 47.6955Z" fill="#E0E0E0"/>
<path d="M119.217 54.7652C119.217 54.8216 99.184 55.9385 74.4657 57.266C49.7474 58.5935 29.7148 59.6239 29.7148 59.5675C29.7148 59.5111 49.7437 58.3979 74.4657 57.0705C99.1877 55.743 119.217 54.7314 119.217 54.7652Z" fill="#E0E0E0"/>
<path d="M119.595 61.8352C119.595 61.8878 99.5629 63.0085 74.8446 64.336C50.1263 65.6634 30.0938 66.6938 30.0938 66.6374C30.0938 66.581 50.1226 65.4641 74.8446 64.1404C99.5666 62.8167 119.595 61.7825 119.595 61.8352Z" fill="#E0E0E0"/>
<path d="M119.974 68.9052C119.974 68.9579 99.9418 70.0785 75.2235 71.406C50.5052 72.7335 30.4727 73.7639 30.4727 73.7075C30.4727 73.6511 50.5015 72.5342 75.2235 71.2105C99.9455 69.8868 119.971 68.8526 119.974 68.9052Z" fill="#E0E0E0"/>
<path d="M120.355 75.9748C120.355 76.0275 100.323 77.1481 75.6044 78.4756C50.8861 79.8031 30.8535 80.8335 30.8535 80.7771C30.8535 80.7207 50.8823 79.6038 75.6044 78.2801C100.326 76.9563 120.351 75.9222 120.355 75.9748Z" fill="#E0E0E0"/>
<path d="M120.738 83.0447C120.738 83.0973 100.705 84.218 75.9872 85.5417C51.2689 86.8654 31.2363 87.8996 31.2363 87.8469C31.2363 87.7943 51.2652 86.6736 75.9872 85.3462C100.709 84.0187 120.734 82.9883 120.738 83.0447Z" fill="#E0E0E0"/>
<path d="M121.135 90.1148C121.135 90.1674 101.102 91.2881 76.3837 92.6118C51.6654 93.9355 31.6328 94.9697 31.6328 94.917C31.6328 94.8644 51.6616 93.7437 76.3837 92.4162C101.106 91.0887 121.112 90.0584 121.135 90.1148Z" fill="#E0E0E0"/>
<path d="M121.511 97.1846C121.511 97.2372 101.479 98.3579 76.7606 99.6816C52.0424 101.005 32.0098 102.039 32.0098 101.987C32.0098 101.934 52.0386 100.814 76.7606 99.4861C101.483 98.1586 121.511 97.1282 121.511 97.1846Z" fill="#E0E0E0"/>
<path d="M121.886 104.254C121.886 104.307 101.85 105.428 77.1356 106.751C52.4211 108.075 32.3848 109.109 32.3848 109.057C32.3848 109.004 52.4136 107.883 77.1356 106.556C101.858 105.228 121.886 104.198 121.886 104.254Z" fill="#E0E0E0"/>
<path d="M122.261 111.324C122.261 111.377 102.229 112.494 77.5106 113.821C52.7924 115.149 32.7598 116.179 32.7598 116.126C32.7598 116.074 52.7886 114.953 77.5106 113.626C102.233 112.298 122.261 111.268 122.261 111.324Z" fill="#E0E0E0"/>
<path d="M122.64 118.39C122.64 118.447 102.608 119.564 77.8895 120.891C53.1713 122.219 33.1387 123.249 33.1387 123.196C33.1387 123.144 53.1675 122.023 77.8895 120.696C102.612 119.368 122.64 118.338 122.64 118.39Z" fill="#E0E0E0"/>
<path d="M46.605 132.165C46.5486 132.165 45.0631 105.251 43.2806 72.0487C41.4981 38.8466 40.0992 11.9171 40.1518 11.9133C40.2045 11.9096 41.6937 38.824 43.4762 72.0374C45.2587 105.251 46.6764 132.165 46.605 132.165Z" fill="#6C7584"/>
</g>
</svg>
