<svg id="Layer_1" data-name="Layer 1" xmlns="http://www.w3.org/2000/svg" viewBox="0 0 100 100"><title>attribute_1</title><path d="M42.08,32.47a8.77,8.77,0,0,0,15.94,0A19.8,19.8,0,0,1,68.36,43l-5.12-2.86-2,3.49L72.54,50,78.28,38,74.67,36.3l-2.56,5.33A23.8,23.8,0,0,0,58.82,28.45a8.78,8.78,0,0,0-17.54,0A23.78,23.78,0,0,0,26.65,46.19l3.93.74A19.78,19.78,0,0,1,42.08,32.47Zm8-8.47a4.79,4.79,0,1,1-4.79,4.79A4.79,4.79,0,0,1,50.05,24Zm8.39,43.74V63.21H41.65v4.4a20,20,0,0,1-9.5-10.17l5.1,2.85,2-3.49L28,50.5,22.22,62.42l3.6,1.74,2.57-5.35A23.92,23.92,0,0,0,41.65,72v8H58.44V72.08a23.87,23.87,0,0,0,14.81-17l-3.9-.88A19.88,19.88,0,0,1,58.44,67.74Zm-4,8.26H45.65V67.21h8.79Z"/></svg>