<svg xmlns="http://www.w3.org/2000/svg" width="64" height="64" viewBox="0 0 64 64"><defs><style>.a{fill:#e4e5e7;}.b{fill:#dd5151;}.c{fill:#0082c9;}</style></defs><path class="a" d="M-1986-1266a4,4,0,0,1-4-4v-36h0v-16a4,4,0,0,1,4-4h11v-2a2,2,0,0,1,2-2,2,2,0,0,1,2,2v2h26v-2a2,2,0,0,1,2-2,2,2,0,0,1,2,2v2h11a4,4,0,0,1,4,4v16h-4v-16h-11v2a2,2,0,0,1-2,2,2,2,0,0,1-2-2v-2h-26v2a2,2,0,0,1-2,2,2,2,0,0,1-2-2v-2h-11v16h60v36a4,4,0,0,1-4,4Zm0-5h56v-31h-56Z" transform="translate(1990 1330)"/><rect class="a" width="28" height="4" rx="2" transform="translate(7 16)"/><rect class="a" width="11" height="4" rx="2" transform="translate(47 16)"/><rect class="a" width="6" height="4" rx="2" transform="translate(9 44)"/><rect class="a" width="6" height="4" rx="2" transform="translate(19 44)"/><rect class="a" width="6" height="4" rx="2" transform="translate(29 44)"/><rect class="a" width="6" height="4" rx="2" transform="translate(39 44)"/><rect class="a" width="6" height="4" rx="2" transform="translate(49 44)"/><rect class="a" width="6" height="4" rx="2" transform="translate(9 52)"/><rect class="a" width="6" height="4" rx="2" transform="translate(19 52)"/><rect class="a" width="6" height="4" rx="2" transform="translate(29 52)"/><rect class="a" width="6" height="4" rx="2" transform="translate(39 52)"/><rect class="a" width="6" height="4" rx="2" transform="translate(49 52)"/><rect class="b" width="6" height="4" rx="2" transform="translate(9 32)"/><rect class="c" width="6" height="4" rx="2" transform="translate(19 32)"/><rect class="c" width="6" height="4" rx="2" transform="translate(29 32)"/><rect class="c" width="6" height="4" rx="2" transform="translate(39 32)"/><rect class="c" width="6" height="4" rx="2" transform="translate(49 32)"/></svg>