<svg xmlns="http://www.w3.org/2000/svg" width="64.001" height="64" viewBox="0 0 64.001 64"><defs><style>.a{fill:#e4e5e7;}.b{fill:#0082c9;}</style></defs><path class="a" d="M68-4728a31.807,31.807,0,0,1-12.456-2.515,31.9,31.9,0,0,1-10.172-6.858,31.893,31.893,0,0,1-6.858-10.171A31.8,31.8,0,0,1,36-4760a31.8,31.8,0,0,1,2.515-12.457,31.893,31.893,0,0,1,6.858-10.171,31.9,31.9,0,0,1,10.172-6.858A31.807,31.807,0,0,1,68-4792a31.8,31.8,0,0,1,12.456,2.515,31.887,31.887,0,0,1,10.171,6.858,31.893,31.893,0,0,1,6.858,10.171A31.8,31.8,0,0,1,100-4760a31.8,31.8,0,0,1-2.515,12.456,31.893,31.893,0,0,1-6.858,10.171,31.9,31.9,0,0,1-10.171,6.858A31.8,31.8,0,0,1,68-4728Zm0-60a28.033,28.033,0,0,0-28,28,28.032,28.032,0,0,0,28,28,28.031,28.031,0,0,0,28-28A28.032,28.032,0,0,0,68-4788Z" transform="translate(-36 4792)"/><circle class="a" cx="2" cy="2" r="2" transform="translate(30 8)"/><circle class="a" cx="2" cy="2" r="2" transform="translate(30 52)"/><circle class="a" cx="2" cy="2" r="2" transform="translate(8 30)"/><circle class="a" cx="2" cy="2" r="2" transform="translate(52 30)"/><rect class="b" width="4" height="15" rx="2" transform="translate(30 19)"/><rect class="a" width="4" height="24" rx="2" transform="translate(29.515 32.343) rotate(-45)"/><circle class="b" cx="4" cy="4" r="4" transform="translate(28 28)"/></svg>