<svg xmlns="http://www.w3.org/2000/svg" width="14" height="14" viewBox="0 0 14 14"><defs><style>.a{fill:#747e8d;}</style></defs><path class="a" d="M6,13a7,7,0,1,1,7-7A7.008,7.008,0,0,1,6,13ZM3.5,5.312c-.2,0-.4.206-.664.491l-.062.066a.535.535,0,0,0-.2.377c0,.221.233.436.55.734.1.1.22.206.342.328L4.722,8.567a.457.457,0,0,0,.306.133c.257,0,.507-.261.823-.59.106-.11.215-.224.335-.339L8.7,5.226c.1-.093.184-.176.262-.249.3-.279.461-.432.462-.593,0-.145-.13-.3-.389-.546l-.024-.025c-.237-.247-.367-.384-.513-.384-.181,0-.388.214-.843.682L7.6,4.172c-.167.157-.6.592-1.068,1.053-.669.666-1.426,1.42-1.5,1.465-.228-.21-.557-.546-.847-.842-.141-.143-.272-.278-.386-.391A.453.453,0,0,0,3.5,5.312Z" transform="translate(1 0.998)"/></svg>