<?xml version="1.0" encoding="UTF-8"?>
<svg fill="#808080" width="100pt" height="100pt" version="1.1" viewBox="0 0 100 100" xmlns="http://www.w3.org/2000/svg">
 <path d="m82.398 73.602l-17.602-14c3.2031-4.3008 5.2031-9.7031 5.2031-15.602 0-14.301-11.699-26-26-26s-26 11.699-26 26 11.699 26 26 26c5.8984 0 11.301-2 15.602-5.1992l14 17.602c3.3984 3.6016 7.6016 2.6992 9.6992 0 2.1992-2.7031 2.6992-5.4023-0.90234-8.8008zm-38.398-11.602c-9.8984 0-18-8.1016-18-18s8.1016-18 18-18 18 8.1016 18 18-8.1016 18-18 18z"/>
</svg>
