<svg id="Layer_1" data-name="Layer 1" xmlns="http://www.w3.org/2000/svg" viewBox="0 0 50 50"><defs><style>.cls-1{opacity:0;}.cls-2{opacity:0.2;}.cls-3{opacity:0.4;}.cls-4{fill:#f60;}</style></defs><title>spinner-big</title><path class="cls-1" d="M38.39,12.64l4.8-4.79-.25-.26-.52-.52-.26-.26-4.8,4.8.27.27.5.49Z"/><path d="M12.37,38.13l.27.26-4.8,4.8-.26-.26-.52-.51-.25-.26,4.8-4.8.26.27Z"/><path d="M0,24.27v1.46H6.79V24.27Z"/><path class="cls-2" d="M43.2,25.73H50V24.27H43.2v.38c0,.12,0,.23,0,.35s0,.24,0,.35Z"/><path class="cls-3" d="M42.15,43.19l.27-.26c.17-.16.34-.34.51-.51l.26-.26-4.8-4.8-.26.27-.5.5-.27.26Z"/><path d="M7.58,7.07l-.51.52-.26.26,4.8,4.79.26-.27.5-.5.27-.26-4.8-4.8Z"/><path class="cls-4" d="M25.35,6.79h.38V0H24.27V6.8h1.08Z"/><path d="M24.27,50h1.46V43.2H24.27Z"/><path d="M18.36,42l.35.14-2.6,6.27-.34-.14c-.23-.08-.45-.18-.68-.28l-.33-.14,2.6-6.27.34.15C17.92,41.78,18.14,41.88,18.36,42Z"/><path d="M1.63,33.89l.17.42c0,.09.07.17.1.26s.07.17.11.25l.18.42,6.27-2.6L8.17,32l-.27-.68Z"/><path class="cls-2" d="M42.1,18.71l6.27-2.6-.17-.42c0-.09-.07-.17-.1-.26a2.72,2.72,0,0,1-.11-.25l-.18-.42-5.92,2.46-.35.14.15.35.14.32.13.33Z"/><path class="cls-3" d="M47.81,35.24,48,34.9c.1-.22.19-.44.28-.67l.14-.34-6.27-2.6-.14.35c-.08.22-.18.44-.27.65l-.15.35Z"/><path d="M2.05,15.1c-.1.22-.19.45-.28.67l-.14.34,6.27,2.6L8,18.36l.27-.66.15-.34-6.27-2.6Z"/><path class="cls-4" d="M18.36,8l.35-.14-2.6-6.27-.68.27-.67.29,2.6,6.27.35-.15L18.36,8Z"/><path d="M33.89,48.37l.68-.27.67-.29-2.6-6.27-.4.17-.27.12-.68.27Z"/><path class="cls-1" d="M32.64,8.46l2.6-6.27-.33-.14-.68-.28-.34-.14L31.29,7.9l.35.14.66.27Z"/></svg>