<svg id="Layer_1" data-name="Layer 1" xmlns="http://www.w3.org/2000/svg" viewBox="0 0 50 50"><defs><style>.cls-1{fill:#ececec;}.cls-2{fill:#bdbdbd;}</style></defs><title>superAdmin</title><g id="Group_3013" data-name="Group 3013"><path id="Path_890" data-name="Path 890" class="cls-1" d="M38,11l7.21,11.54L24,45.09,2.75,22.54,10,11H38m.62-3H9.38A1.94,1.94,0,0,0,7.7,9L-.18,21.56A2.08,2.08,0,0,0,.09,24.1l22.4,23.77a2.17,2.17,0,0,0,3,0L47.91,24.1a2.08,2.08,0,0,0,.27-2.54L40.3,9a1.94,1.94,0,0,0-1.68-1Z"/></g><path id="Path_891" data-name="Path 891" class="cls-2" d="M27.92.82c-.12,0-.18.06-.24.18L11.1,26.47a.36.36,0,0,0,0,.35.34.34,0,0,0,.3.18h7.33L11,49.08a.32.32,0,0,0,.12.39.34.34,0,0,0,.45,0l27.6-29.86a.25.25,0,0,0,.05-.33.37.37,0,0,0-.28-.23H29L41.25,1.55a.4.4,0,0,0,0-.37A.35.35,0,0,0,41,1Z"/></svg>