<svg xmlns="http://www.w3.org/2000/svg" width="10.5" height="12" viewBox="0 0 10.5 12"><path d="M8,9.125A4.875,4.875,0,1,0,9.428,5.678,4.876,4.876,0,0,0,8,9.125ZM12.875,5.75V9.125L15.26,11.51a3.375,3.375,0,1,1-2.385-5.76ZM11.75,3.5a.375.375,0,0,1-.375-.375v-.75A.375.375,0,0,1,11.75,2H14a.375.375,0,0,1,.375.375v.75A.375.375,0,0,1,14,3.5Zm6.64,1.08a.375.375,0,0,1,0,.53l-.53.53a.375.375,0,0,1-.53,0l-.97-.97a.375.375,0,0,1,0-.53l.53-.53a.375.375,0,0,1,.53,0Z" transform="translate(-8 -2)" fill="#fff"/></svg>