<svg xmlns="http://www.w3.org/2000/svg" width="64" height="80" viewBox="0 0 64 80"><defs><style>.a{fill:#fff;}.b,.c,.g{fill:#bdbdbd;}.d{fill:#1cad49;}.e{fill:#747e8d;fill-rule:evenodd;}.f,.g{stroke:none;}</style></defs><g transform="translate(-753 -399)"><g transform="translate(-2681 -3064)"><g class="a" transform="translate(3434 3463)"><path class="f" d="M 55.99980926513672 79.00010681152344 L 8.000109672546387 79.00010681152344 C 4.140243053436279 79.00010681152344 1.000009775161743 75.85987091064453 1.000009775161743 72.00000762939453 L 1.000009775161743 8.000104904174805 C 1.000009775161743 4.140238285064697 4.140243053436279 1.000005125999451 8.000109672546387 1.000005125999451 L 39.64462661743164 1.000005125999451 L 62.99990844726563 24.35579872131348 L 62.99990844726563 72.00000762939453 C 62.99990844726563 75.85987091064453 59.85967636108398 79.00010681152344 55.99980926513672 79.00010681152344 Z"/><path class="g" d="M 55.99980163574219 78.00009918212891 C 59.30827331542969 78.00009918212891 61.99990844726563 75.30846405029297 61.99990844726563 72 L 61.99990844726563 24.7700252532959 L 39.23040008544922 2.00000262260437 L 8.000106811523438 2.00000262260437 C 4.691648483276367 2.00000262260437 2.000013113021851 4.691637992858887 2.000013113021851 8.000096321105957 L 2.000013113021851 72 C 2.000013113021851 75.30846405029297 4.691648483276367 78.00009918212891 8.000106811523438 78.00009918212891 L 55.99980163574219 78.00009918212891 M 55.99980163574219 80.00009918212891 L 8.000106811523438 80.00009918212891 C 3.588836669921875 80.00009918212891 1.304716261074645e-05 76.41127014160156 1.304716261074645e-05 72 L 1.304716261074645e-05 8.000096321105957 C 1.304716261074645e-05 3.588826179504395 3.588836669921875 2.532240841901512e-06 8.000106811523438 2.532240841901512e-06 L 40.0588493347168 2.532240841901512e-06 L 63.99990844726563 23.94160270690918 L 63.99990844726563 72 C 63.99990844726563 76.41127014160156 60.41107177734375 80.00009918212891 55.99980163574219 80.00009918212891 Z"/></g><g class="b" transform="translate(3474 3463.001)"><path class="f" d="M 21.64457702636719 22.99939918518066 L 7.999205112457275 22.99939918518066 C 4.139335155487061 22.99939918518066 0.9991051554679871 19.85916900634766 0.9991051554679871 15.99929904937744 L 0.9991051554679871 2.353901624679565 L 21.64457702636719 22.99939918518066 Z"/><path class="g" d="M 19.23037910461426 21.99939918518066 L 1.999105215072632 4.76810359954834 L 1.999105215072632 15.99929904937744 C 1.999105215072632 19.30776977539063 4.690735340118408 21.99939918518066 7.999205112457275 21.99939918518066 L 19.23037910461426 21.99939918518066 M 23.99940490722656 23.99939918518066 L 23.99840545654297 23.99939918518066 L 7.999205112457275 23.99939918518066 C 3.587935209274292 23.99939918518066 -0.0008948196191340685 20.41057014465332 -0.0008948196191340685 15.99929904937744 L -0.0008948196191340685 -0.000900541665032506 L 0.05852517858147621 -0.000900541665032506 L 23.9993953704834 23.93999862670898 L 23.99940490722656 23.99839973449707 L 23.99940490722656 23.99939918518066 Z"/></g><g transform="translate(3444 3505)"><g transform="translate(0 8)"><rect class="c" width="12" height="4" transform="translate(26)"/><rect class="c" width="12" height="4" transform="translate(10)"/><rect class="c" width="6" height="4"/><rect class="c" width="12" height="4" transform="translate(26 8)"/><rect class="c" width="12" height="4" transform="translate(10 8)"/><rect class="c" width="6" height="4" transform="translate(0 8)"/><rect class="c" width="12" height="4" transform="translate(26 16)"/><rect class="c" width="12" height="4" transform="translate(10 16)"/><rect class="c" width="6" height="4" transform="translate(0 16)"/></g><rect class="d" width="12" height="4" transform="translate(26)"/><rect class="d" width="12" height="4" transform="translate(10)"/><rect class="d" width="6" height="4"/></g><g transform="translate(3444 3473)"><path class="e" d="M101.142,102.83l13.091,7.677a.789.789,0,0,1-.323,1.455l-6.545,1.05-3.232,5.818a.74.74,0,0,1-1.374-.242L99.93,103.638A.826.826,0,0,1,101.142,102.83Z" transform="translate(-91.836 -94.412)"/><path class="e" d="M41.544,16.134l2.424,3.394a.641.641,0,0,1-1.05.727l-2.343-3.394C40.09,16.215,41.14,15.488,41.544,16.134Z" transform="translate(-37.167 -14.586)"/><path class="e" d="M106.892.574l-.727,4.04a.612.612,0,0,1-1.212-.162L105.68.332A.618.618,0,0,1,106.892.574Z" transform="translate(-96.455 0.166)"/><path class="e" d="M140.017,41.544,136.7,43.968a.639.639,0,0,1-.727-1.05l3.394-2.343C140.017,40.09,140.744,41.14,140.017,41.544Z" transform="translate(-124.731 -37.167)"/><path class="e" d="M.574,79.832l4.04.727a.571.571,0,1,1-.162,1.131L.332,81.044A.618.618,0,1,1,.574,79.832Z" transform="translate(0.166 -73.354)"/><path class="e" d="M16.134,126.331l3.394-2.424a.641.641,0,0,1,.727,1.05L16.862,127.3C16.215,127.785,15.488,126.735,16.134,126.331Z" transform="translate(-14.586 -113.792)"/></g></g></g></svg>