<svg id="Layer_1" data-name="Layer 1" xmlns="http://www.w3.org/2000/svg" viewBox="0 0 50 50"><defs><style>.cls-1{fill:#ececec;}.cls-2{fill:#747e8d;}</style></defs><title>users</title><circle class="cls-1" cx="25" cy="25" r="25"/><path class="cls-2" d="M27.82,36.25H26.11a6.56,6.56,0,0,0-13.12,0H11.28a8.27,8.27,0,0,1,16.54,0Zm10.9-3.83h-7V30.71h5.2a5.07,5.07,0,0,0-8.73-2.56L27,27a6.78,6.78,0,0,1,11.77,4.58ZM19.55,26A5.49,5.49,0,1,1,25,20.55h0A5.49,5.49,0,0,1,19.55,26Zm0-9.27a3.78,3.78,0,1,0,3.78,3.78h0A3.79,3.79,0,0,0,19.55,16.77Zm12.18,6a4.41,4.41,0,1,1,4.4-4.42h0A4.42,4.42,0,0,1,31.73,22.81Zm0-7.1a2.69,2.69,0,1,0,2.68,2.71v0A2.69,2.69,0,0,0,31.73,15.71Z"/></svg>