<svg xmlns="http://www.w3.org/2000/svg" width="15" height="16" viewBox="0 0 15 16"><defs><style>.a{fill:#0082c9;}</style></defs><path class="a" d="M-5786.4-2188.553a1.9,1.9,0,0,1,0-2.67l7.179-7.228a1.868,1.868,0,0,1,2.652,0,1.9,1.9,0,0,1,0,2.671l-7.181,7.228a1.854,1.854,0,0,1-1.324.553A1.866,1.866,0,0,1-5786.4-2188.553Zm7.842-9.231-.663.668,1.326,1.335.663-.668a.949.949,0,0,0,0-1.336.933.933,0,0,0-.663-.277A.934.934,0,0,0-5778.562-2197.784Zm4.342,6.3a1.876,1.876,0,0,0-.838-.844l-.692-.348.692-.348a1.883,1.883,0,0,0,.838-.843l.345-.7.347.7a1.87,1.87,0,0,0,.838.843l.69.348-.69.348a1.863,1.863,0,0,0-.838.844l-.347.7Zm-10.625-8.183a1.88,1.88,0,0,0-.838-.843l-1.316-.664,1.316-.662a1.876,1.876,0,0,0,.838-.844l.657-1.324.659,1.324a1.873,1.873,0,0,0,.838.844l1.316.662-1.316.664a1.873,1.873,0,0,0-.838.844l-.659,1.325Zm10.625-.313a1.879,1.879,0,0,0-.838-.844l-.692-.348.692-.347a1.891,1.891,0,0,0,.838-.844l.345-.7.347.7a1.878,1.878,0,0,0,.838.844l.69.347-.69.348a1.866,1.866,0,0,0-.838.844l-.347.7Z" transform="translate(5787 2204)"/></svg>