<svg xmlns="http://www.w3.org/2000/svg" width="24" height="24" viewBox="0 0 24 24"><g transform="translate(-401 -354)"><g transform="translate(400.609 353.609)" fill="#db5050"><path d="M 12.39099884033203 23.39062118530273 C 9.452359199523926 23.39062118530273 6.68989896774292 22.24654006958008 4.612488746643066 20.16913032531738 C 2.535078763961792 18.09172058105469 1.390998840332031 15.32925987243652 1.390998840332031 12.39062023162842 C 1.390998840332031 9.451980590820313 2.535078763961792 6.689520359039307 4.612488746643066 4.612110137939453 C 6.68989896774292 2.534700155258179 9.452359199523926 1.390620231628418 12.39099884033203 1.390620231628418 C 15.32963848114014 1.390620231628418 18.09209823608398 2.534700155258179 20.16950798034668 4.612110137939453 C 22.24691963195801 6.689520359039307 23.39099884033203 9.451980590820313 23.39099884033203 12.39062023162842 C 23.39099884033203 15.32925987243652 22.24691963195801 18.09172058105469 20.16950798034668 20.16913032531738 C 18.09209823608398 22.24654006958008 15.32963848114014 23.39062118530273 12.39099884033203 23.39062118530273 Z" stroke="none"/><path d="M 12.39099884033203 2.390619277954102 C 9.71946907043457 2.390619277954102 7.208127975463867 3.430679321289063 5.319599151611328 5.319219589233398 C 3.431058883666992 7.20775032043457 2.390998840332031 9.719090461730957 2.390998840332031 12.39062023162842 C 2.390998840332031 15.06215000152588 3.431058883666992 17.57349014282227 5.319599151611328 19.4620304107666 C 7.208127975463867 21.35055923461914 9.71946907043457 22.39062118530273 12.39099884033203 22.39062118530273 C 15.06252861022949 22.39062118530273 17.57386779785156 21.35055923461914 19.46239852905273 19.4620304107666 C 21.35093879699707 17.57349014282227 22.39099884033203 15.06215000152588 22.39099884033203 12.39062023162842 C 22.39099884033203 9.719090461730957 21.35093879699707 7.20775032043457 19.46239852905273 5.319219589233398 C 17.57386779785156 3.430679321289063 15.06252861022949 2.390619277954102 12.39099884033203 2.390619277954102 M 12.39099884033203 0.3906192779541016 C 19.01930999755859 0.3906192779541016 24.39099884033203 5.762310028076172 24.39099884033203 12.39062023162842 C 24.39099884033203 19.01893997192383 19.01930999755859 24.39062118530273 12.39099884033203 24.39062118530273 C 5.762689590454102 24.39062118530273 0.3909988403320313 19.01893997192383 0.3909988403320313 12.39062023162842 C 0.3909988403320313 5.762310028076172 5.762689590454102 0.3906192779541016 12.39099884033203 0.3906192779541016 Z" stroke="none" fill="#fff"/></g><path d="M40.49,25.2h3.173a.405.405,0,0,1,.409.457l-.913,6.2a.408.408,0,0,1-.409.343H41.4a.411.411,0,0,1-.409-.343l-.913-6.2a.405.405,0,0,1,.409-.457Zm1.587,13a2,2,0,1,1,2-2A2,2,0,0,1,42.077,38.2Z" transform="translate(370.923 334.805)" fill="#fff"/></g></svg>
