<?xml version="1.0" standalone="no"?>
<!DOCTYPE svg PUBLIC "-//W3C//DTD SVG 1.1//EN" "http://www.w3.org/Graphics/SVG/1.1/DTD/svg11.dtd" >
<svg xmlns="http://www.w3.org/2000/svg">
<metadata>Generated by IcoMoon</metadata>
<defs>
<font id="odp-brahma-icons" horiz-adv-x="1024">
<font-face units-per-em="1024" ascent="960" descent="-64" />
<missing-glyph horiz-adv-x="1024" />
<glyph unicode="&#x20;" horiz-adv-x="512" d="" />
<glyph unicode="&#xe900;" glyph-name="id" d="M1024 488.96h-457.318c-30.284 128.363-143.866 222.429-279.419 222.429-158.351 0-286.72-128.369-286.72-286.72s128.369-286.72 286.72-286.72c152.149 0 276.618 118.51 286.135 268.257l0.042 0.834h286.72v-163.84h81.92v163.84h81.92zM286.72 222.72c-113.108 0-204.8 91.692-204.8 204.8s91.692 204.8 204.8 204.8c113.108 0 204.8-91.692 204.8-204.8v0c0-113.108-91.692-204.8-204.8-204.8v0z" />
<glyph unicode="&#xe901;" glyph-name="pin" d="M0 74.24l276.275 276.070 138.24-138.24-276.275-276.070zM69.222 557.363l138.24 138.035 69.018-69.018 276.48 276.48c35.367 35.237 84.157 57.022 138.035 57.022s102.668-21.785 138.041-57.028l-0.006 0.006 137.626-138.24c35.335-35.322 57.191-84.126 57.191-138.035s-21.856-102.713-57.191-138.035l-0.001-0.001-138.035-138.24-138.035-137.83 69.222-69.222-138.24-138.035z" />
<glyph unicode="&#xe902;" glyph-name="123" d="M129.434 587.469c-6.866-5.431-14.615-10.898-22.655-15.944l-1.102-0.645c-9.216-5.325-19.046-10.65-29.696-15.77s-20.48-10.035-32.768-14.541-22.733-7.782-32.563-10.65l-10.65 54.067c33.804 12.521 62.359 25.966 89.579 41.484l-2.949-1.548c32.013 18.13 59.676 38.486 84.654 61.694l-0.276-0.254h47.514l-117.35-490.086h-65.946zM644.915 593.818c0.031-1.202 0.049-2.617 0.049-4.036 0-22.391-4.458-43.74-12.535-63.209l0.402 1.094c-8.52-20.044-19.466-37.295-32.752-52.443l0.189 0.219c-14.271-16.512-29.762-31.224-46.582-44.307l-0.727-0.544c-18.022-13.926-37.274-28.672-57.549-43.827l-37.683-29.082c-13.312-10.445-25.805-20.48-37.683-32.358-11.097-10.446-21.23-21.618-30.436-33.543l-0.489-0.659c-7.583-9.438-14.050-20.244-18.923-31.883l-0.329-0.885h213.197l-12.698-63.078h-287.949c2.766 27.492 10.030 52.676 21.069 75.706l-0.589-1.364c10.182 21.155 21.716 39.373 35.060 56.082l-0.449-0.582c13.751 17.254 28.377 32.595 44.247 46.555l0.399 0.344c16.384 14.131 33.382 28.058 50.995 40.96l53.658 40.96c16.827 12.704 31.734 25.792 45.622 39.887l0.049 0.049c12.294 12.259 22.903 26.197 31.458 41.443l0.49 0.951c7.609 13.683 12.088 30.011 12.088 47.384 0 0.333-0.002 0.666-0.005 0.999v-0.051c0.077 1.176 0.12 2.55 0.12 3.934 0 16.351-6.102 31.276-16.154 42.623l0.059-0.067c-12.211 10.615-28.27 17.085-45.841 17.085-2.247 0-4.47-0.106-6.663-0.313l0.28 0.021c-0.378 0.004-0.824 0.006-1.27 0.006-12.971 0-25.505-1.872-37.346-5.362l0.933 0.236c-12.288-3.365-22.901-7.487-32.962-12.545l1.013 0.461c-9.749-4.779-18.070-9.821-25.896-15.502l0.501 0.347c-6.447-4.801-12.122-9.566-17.508-14.634l0.1 0.093-22.528 51.814c7.32 6.811 15.429 12.965 24.119 18.262l0.662 0.375c9.539 5.92 20.65 11.618 32.226 16.422l1.566 0.576c11.393 4.821 25.067 9.253 39.178 12.551l1.782 0.351c13.19 3.125 28.335 4.916 43.897 4.916 0.191 0 0.383 0 0.574-0.001h-0.030c1.050 0.025 2.288 0.039 3.529 0.039 19.748 0 38.669-3.543 56.162-10.027l-1.118 0.363c15.508-5.762 28.759-14.337 39.741-25.2l-0.010 0.010c9.772-9.807 17.453-21.705 22.313-34.964l0.215-0.671c4.291-11.988 6.771-25.817 6.771-40.227 0-0.618-0.005-1.235-0.014-1.85l0.001 0.093zM790.118 248.934c0.429-0.003 0.935-0.005 1.443-0.005 18.278 0 35.98 2.469 52.79 7.091l-1.395-0.327c16.343 4.409 30.626 11.445 43.147 20.724l-0.344-0.244c11.863 8.818 21.362 20.152 27.819 33.255l0.239 0.537c6.346 13.291 10.053 28.888 10.053 45.35 0 0.689-0.006 1.376-0.019 2.061l0.002-0.103c0.148 1.653 0.233 3.576 0.233 5.519 0 23.555-12.427 44.207-31.082 55.759l-0.281 0.162c-17.548 10.007-38.56 15.907-60.95 15.907-7.408 0-14.666-0.646-21.719-1.884l0.749 0.109h-14.95l12.698 47.309h22.118c13.104 8.189 28.463 14.203 44.899 17.091l0.771 0.112c15.575 4.028 29.236 10.362 41.4 18.717l-0.44-0.285c11.771 8.095 21.493 18.275 28.834 30.088l0.248 0.428c6.963 11.592 11.081 25.581 11.081 40.531 0 0.655-0.008 1.308-0.024 1.959l0.002-0.097c0.023 0.599 0.036 1.303 0.036 2.010 0 16.482-7.106 31.304-18.421 41.571l-0.047 0.042c-13.013 9.575-29.357 15.323-47.043 15.323-1.823 0-3.632-0.061-5.424-0.181l0.243 0.013c-0.824 0.017-1.796 0.026-2.771 0.026-18.81 0-36.793-3.542-53.319-9.995l0.998 0.343c-16.314-6.052-30.29-12.948-43.425-21.074l1.031 0.594-15.565 51.2c6.532 4.536 13.994 8.777 21.832 12.332l0.9 0.366c7.956 4.034 17.829 8.252 27.977 11.891l1.924 0.602c9.268 3.158 20.633 6.070 32.281 8.171l1.511 0.226c10.845 2.085 23.317 3.278 36.068 3.278 0.208 0 0.416 0 0.623-0.001h-0.032c1.139 0.027 2.481 0.043 3.826 0.043 19.142 0 37.546-3.164 54.715-8.998l-1.197 0.353c15.507-5.23 28.835-13.277 40.008-23.618l-0.072 0.066c10.037-9.536 17.822-21.344 22.54-34.606l0.192-0.62c4.543-12.679 7.169-27.306 7.169-42.547 0-0.162 0-0.324-0.001-0.486v0.025c0.018-0.785 0.028-1.711 0.028-2.638 0-29.457-10.365-56.493-27.647-77.66l0.175 0.221c-19.829-22.784-45.057-40.364-73.716-50.805l-1.24-0.395c9.315-4.097 17.324-8.754 24.735-14.181l-0.364 0.254c8.95-6.195 16.541-13.59 22.753-22.059l0.185-0.264c13.579-18.899 21.715-42.503 21.715-68.007 0-0.427-0.002-0.854-0.007-1.28l0.001 0.065c0.007-0.579 0.011-1.264 0.011-1.949 0-24.038-4.821-46.949-13.549-67.82l0.431 1.161c-9.023-21.047-22.162-38.783-38.521-52.887l-0.186-0.157c-17.878-15-39.042-26.767-62.192-34.055l-1.296-0.352c-24.76-7.692-53.227-12.122-82.728-12.122-1.66 0-3.317 0.014-4.97 0.042l0.248-0.003c-0.503-0.003-1.097-0.005-1.692-0.005-15.607 0-30.9 1.343-45.77 3.919l1.587-0.228c-14.796 2.469-27.363 5.388-39.638 8.992l2.365-0.595c-10.705 2.93-19.757 6.214-28.471 10.119l1.232-0.494c-5.928 2.461-10.978 5.137-15.741 8.218l0.381-0.231 24.781 56.115 13.926-7.578c6.011-3.087 13.193-6.071 20.627-8.5l1.082-0.306c7.902-2.702 17.805-5.322 27.932-7.321l1.56-0.257c10.803-1.961 23.237-3.083 35.933-3.083 0.759 0 1.518 0.004 2.275 0.012l-0.116-0.001z" />
<glyph unicode="&#xe903;" glyph-name="abc" d="M211.968 202.24c-2.048 4.71-4.096 9.83-6.349 15.565-1.857 4.984-3.556 11.028-4.786 17.241l-0.129 0.781c-10.781-9.511-22.866-18.004-35.832-25.084l-1.032-0.516c-15.801-8.039-34.459-12.749-54.216-12.749-1.244 0-2.484 0.019-3.719 0.056l0.181-0.004c-1.027-0.033-2.234-0.052-3.446-0.052-16.067 0-31.356 3.334-45.212 9.347l0.735-0.284c-13.144 5.554-24.149 13.93-32.646 24.421l-0.122 0.155c-8.65 10.52-15.28 23.057-19.084 36.77l-0.168 0.708c-3.907 13.788-6.153 29.622-6.153 45.982 0 0.611 0.003 1.22 0.009 1.83l-0.001-0.093c0 0.13 0 0.284 0 0.438 0 29.66 5.254 58.092 14.882 84.418l-0.546-1.707c9.853 27.988 24.426 52.059 42.959 72.468l-0.155-0.174c19.757 21.437 43.591 38.78 70.317 50.854l1.363 0.551c28.699 12.956 62.22 20.505 97.503 20.505 1.218 0 2.433-0.009 3.647-0.027l-0.183 0.002c14.244-0.188 28.039-1.521 41.468-3.912l-1.532 0.226c14.776-2.288 28.076-6.73 40.251-13.039l-0.724 0.341-48.947-199.475c-2.048-9.626-3.891-19.046-5.325-27.853-1.439-7.89-2.261-16.97-2.261-26.242 0-0.567 0.003-1.132 0.009-1.698l-0.001 0.086c0.005-10.42 0.899-20.628 2.609-30.556l-0.152 1.065c2.195-12.216 5.319-23.008 9.416-33.308l-0.405 1.154zM117.35 247.706c1.016-0.043 2.208-0.067 3.406-0.067 15.862 0 30.724 4.283 43.491 11.756l-0.407-0.22c12.623 7.527 23.471 16.354 32.885 26.528l0.088 0.096c0 7.168 1.024 14.746 2.253 22.528s2.458 15.77 4.096 23.757l37.478 156.877c-3.078 0.974-6.644 1.633-10.33 1.838l-0.114 0.005h-13.107c-0.797 0.015-1.737 0.024-2.679 0.024-22.749 0-44.297-5.145-63.543-14.334l0.891 0.383c-19.261-9.057-35.635-21.107-49.269-35.745l-0.088-0.095c-13.683-15.314-24.611-33.43-31.794-53.335l-0.36-1.142c-7.135-18.866-11.266-40.677-11.266-63.452 0-0.301 0.001-0.601 0.002-0.901v0.046c-0.002-0.304-0.004-0.664-0.004-1.024 0-9.056 0.896-17.903 2.604-26.456l-0.143 0.857c1.57-9.114 4.795-17.247 9.375-24.433l-0.159 0.267c4.488-7.081 10.403-12.865 17.377-17.071l0.236-0.132c7.744-4.159 16.944-6.602 26.714-6.602 0.833 0 1.661 0.018 2.485 0.053l-0.118-0.004zM491.52 522.547c9.671 5.844 20.842 11.041 32.581 15.005l1.211 0.355c12.048 4.027 25.921 6.35 40.336 6.35 0.22 0 0.439-0.001 0.658-0.002h-0.034c0.68 0.014 1.481 0.022 2.285 0.022 16.462 0 32.149-3.32 46.427-9.327l-0.788 0.294c13.449-5.689 24.808-13.961 33.91-24.271l0.087-0.1c8.919-10.416 15.919-22.773 20.272-36.318l0.208-0.751c4.406-13.816 7.015-29.718 7.167-46.207l0.001-0.078c0-0.023 0-0.049 0-0.076 0-30.318-5.099-59.445-14.486-86.57l0.56 1.859c-9.778-28.197-24.288-52.473-42.776-73.11l0.178 0.202c-19.51-21.591-43.244-38.962-69.947-50.877l-1.323-0.527c-28.803-12.952-62.436-20.498-97.831-20.498-1.030 0-2.059 0.006-3.087 0.019l0.156-0.002c-6.349 0-13.312 0-20.48 1.024-9.148 0.614-17.564 1.779-25.782 3.486l1.206-0.209c-9.246 2.010-16.926 4.197-24.414 6.795l1.477-0.446c-7.365 2.435-13.731 5.416-19.662 9.040l0.411-0.233 112.23 469.811 61.44 10.24zM551.322 494.080c-13.607-0.037-26.625-2.511-38.656-7.010l0.768 0.252c-13.447-4.911-25.088-11.205-35.626-18.916l0.4 0.279-50.995-215.245 14.541-2.662c4.984-0.78 10.734-1.227 16.587-1.229h0.002c0.721-0.013 1.572-0.020 2.425-0.020 22.878 0 44.518 5.298 63.76 14.735l-0.854-0.378c19.599 9.5 36.153 22.321 49.601 37.897l0.165 0.195c13.166 15.523 23.854 33.661 31.14 53.443l0.399 1.238c7.007 18.94 11.060 40.817 11.060 63.64 0 0.234 0 0.469-0.001 0.703v-0.036c-0.126 9.644-1.238 18.958-3.241 27.937l0.169-0.903c-1.842 8.897-5.41 16.743-10.359 23.518l0.119-0.171c-5.242 7.050-12.152 12.579-20.16 16.055l-0.32 0.124c-8.674 4.141-18.852 6.56-29.595 6.56-0.324 0-0.647-0.002-0.969-0.007l0.049 0.001zM749.363 323.891c0.020 29.751 4.967 58.34 14.067 85.004l-0.55-1.855c8.646 27.105 21.725 50.569 38.569 70.786l-0.271-0.335c34.237 40.95 85.342 66.811 142.486 66.811 1.459 0 2.915-0.017 4.366-0.050l-0.216 0.004c0.039 0 0.086 0 0.133 0 14.043 0 27.842-1.042 41.325-3.054l-1.522 0.187c13.573-2.243 25.752-6.24 37.014-11.811l-0.765 0.342-22.118-49.152c-6.913 3.55-14.931 6.384-23.358 8.090l-0.603 0.102c-10.394 2.347-22.331 3.691-34.582 3.691-0.442 0-0.884-0.002-1.326-0.005h0.068c-0.511 0.008-1.113 0.013-1.717 0.013-19.836 0-38.503-5.009-54.803-13.831l0.61 0.302c-16.707-9.378-30.737-21.512-41.957-35.94l-0.232-0.31c-11.357-14.826-20.439-32.121-26.305-50.84l-0.319-1.18c-5.847-18.165-9.217-39.063-9.217-60.749 0-0.243 0-0.486 0.001-0.729v0.037c0-0.136-0.001-0.298-0.001-0.459 0-10.876 1.269-21.456 3.667-31.599l-0.185 0.928c2.385-9.907 6.717-18.566 12.595-25.938l-0.103 0.133c6.274-7.569 14.251-13.508 23.359-17.263l0.398-0.145c10.186-4.056 21.989-6.407 34.341-6.407 1.175 0 2.345 0.021 3.51 0.063l-0.169-0.005c8.59 0.073 16.939 0.889 25.049 2.388l-0.883-0.136c9.357 1.571 17.297 3.422 25.052 5.703l-1.5-0.379c7.168 2.253 13.722 4.506 19.251 6.758 4.769 1.696 8.901 3.913 12.628 6.648l-0.135-0.095 5.12-49.971c-10.792-6.312-23.279-11.443-36.491-14.742l-0.987-0.209c-16.481-4.693-35.409-7.391-54.967-7.391-0.98 0-1.958 0.007-2.935 0.020l0.148-0.002c-0.769-0.014-1.675-0.023-2.584-0.023-18.488 0-36.184 3.388-52.501 9.577l1.018-0.339c-15.428 5.956-28.555 14.806-39.288 25.974l-0.034 0.036c-10.295 11.188-18.398 24.571-23.518 39.348l-0.239 0.793c-5.076 14.509-8.009 31.236-8.009 48.648 0 0.897 0.008 1.793 0.023 2.687l-0.002-0.135z" />
<glyph unicode="&#xe904;" glyph-name="add" d="M614.4 345.6v-409.6h-204.8v409.6h-409.6v204.8h409.6v409.6h204.8v-409.6h409.6v-204.8h-409.6z" />
<glyph unicode="&#xe905;" glyph-name="add-circle" d="M512 960c-282.77 0-512-229.23-512-512s229.23-512 512-512c282.77 0 512 229.23 512 512v0c0 282.77-229.23 512-512 512v0zM575.898 384.102v-256h-127.795v256h-256v127.795h256v256h127.795v-256h256v-127.795z" />
<glyph unicode="&#xe906;" glyph-name="approver" d="M584.090 204.083v325.837c87.369 30.669 148.89 112.449 148.89 208.598 0 121.817-98.752 220.57-220.57 220.57s-220.57-98.752-220.57-220.57c0-96.149 61.52-177.929 147.345-208.124l1.545-0.474v-325.837h-440.73v-268.083h1024v268.083z" />
<glyph unicode="&#xe907;" glyph-name="array" d="M864.051 847.974v-112.026h63.898v-575.898h-63.898v-108.134h159.949v796.058h-159.949zM0 847.974v-799.949h159.949v112.026h-63.898v575.898h63.898v112.026h-159.949zM352.051 288.051c0-0.061 0-0.133 0-0.205 0-35.403-28.7-64.102-64.102-64.102s-64.102 28.7-64.102 64.102c0 35.403 28.699 64.102 64.102 64.102v0c0 0 0 0 0 0 35.331 0 63.986-28.583 64.102-63.886v-0.011zM512 351.949c-0.061 0-0.133 0-0.204 0-35.403 0-64.102-28.7-64.102-64.102s28.7-64.102 64.102-64.102c35.403 0 64.102 28.7 64.102 64.102 0 0.072 0 0.144 0 0.216v-0.011c0 35.29-28.608 63.898-63.898 63.898v0zM736.051 351.949c-0.061 0-0.133 0-0.204 0-35.403 0-64.102-28.7-64.102-64.102s28.7-64.102 64.102-64.102c35.403 0 64.102 28.7 64.102 64.102 0 0.072 0 0.144 0 0.216v-0.011c-0.116 35.243-28.655 63.782-63.887 63.898h-0.011z" />
<glyph unicode="&#xe908;" glyph-name="arrow" d="M512-64c17.623 0.766 33.55 7.454 45.977 18.108l-0.102-0.085 378.675 356.147c21.709 24.166 30.515 70.451 5.53 97.485-12.55 12.308-29.759 19.905-48.742 19.905s-36.193-7.597-48.754-19.916l0.011 0.011-266.24-250.47v737.28c-2.018 35.359-31.183 63.268-66.867 63.268s-64.85-27.909-66.859-63.090l-0.008-0.178v-737.28l-265.011 249.856c-12.956 11.445-30.085 18.433-48.845 18.433s-35.889-6.987-48.924-18.502l0.079 0.069c-24.986-26.214-16.998-74.342 5.53-97.485l378.675-355.533c11.699-11.16 27.578-18.027 45.061-18.027 0.286 0 0.572 0.002 0.857 0.006h-0.043z" />
<glyph unicode="&#xe909;" glyph-name="arrow-down" d="M512 35.123l-462.438 462.438 118.374 118.374 344.064-344.064 344.064 344.064 118.374-118.374-462.438-462.438z" />
<glyph unicode="&#xe90a;" glyph-name="arrow-left" d="M131.072 316.928l380.928-380.928 131.072 131.072-380.928 380.928 380.928 380.928-131.072 131.072-512-512 131.072-131.072z" />
<glyph unicode="&#xe90b;" glyph-name="arrow-right" d="M892.928 316.928l-380.928-380.928-131.072 131.072 380.928 380.928-380.928 380.928 131.072 131.072 512-512-131.072-131.072z" />
<glyph unicode="&#xe90c;" glyph-name="arrow-up" d="M640 770.56l372.122-372.122-128-128-372.122 371.917-372.122-371.917-128 128 500.122 500.122 128-128z" />
<glyph unicode="&#xe90d;" glyph-name="attach" d="M951.501 535.040c44.787 44.525 72.506 106.176 72.506 174.302 0 0.642-0.002 1.284-0.007 1.925l0.001-0.098c-0.243 137.468-111.739 248.814-249.241 248.814-68.567 0-130.667-27.688-175.73-72.493l0.012 0.011-526.541-526.541c-45.136-45.047-73.059-107.327-73.059-176.129 0-137.426 111.406-248.832 248.832-248.832 0.197 0 0.394 0 0.591 0.001h-0.031c0.543-0.004 1.184-0.007 1.826-0.007 68.125 0 129.776 27.719 174.29 72.494l356.569 356.569c23.332 25.974 37.6 60.502 37.6 98.361 0 39.971-15.904 76.228-41.729 102.787l0.033-0.034c-26.171 25.355-61.896 40.983-101.27 40.983-0.901 0-1.801-0.008-2.698-0.025l0.135 0.002c-0.73 0.014-1.592 0.022-2.455 0.022-38.632 0-73.607-15.661-98.921-40.981l-294.503-294.298c-7.483-7.424-12.116-17.712-12.116-29.082s4.633-21.658 12.113-29.079l0.003-0.003c7.424-7.483 17.712-12.116 29.082-12.116s21.658 4.633 29.079 12.113l292.253 292.253c11.356 10.647 26.674 17.187 43.52 17.187s32.164-6.54 43.555-17.219l-0.035 0.032c11.485-10.788 18.638-26.072 18.638-43.026 0-0.138 0-0.275-0.001-0.413v0.021c0.015-0.493 0.024-1.072 0.024-1.654 0-16.63-7.182-31.583-18.612-41.926l-0.049-0.043-352.461-352.256c-29.723-30.104-70.989-48.75-116.61-48.75-0.549 0-1.096 0.003-1.644 0.008l0.084-0.001c-45.901 0.161-87.53 18.316-118.229 47.775l0.059-0.056c-29.38 29.603-47.537 70.381-47.537 115.4 0 0.974 0.008 1.946 0.025 2.915l-0.002-0.146c-0.002 0.271-0.002 0.591-0.002 0.911 0 45.537 18.124 86.841 47.553 117.092l-0.037-0.038 528.998 529.613c30.049 29.829 71.444 48.265 117.146 48.265s87.097-18.435 117.156-48.274l-0.010 0.010c29.251-29.581 47.321-70.271 47.321-115.181 0-0.691-0.004-1.38-0.013-2.069l0.001 0.105c0.002-0.294 0.003-0.641 0.003-0.989 0-45.614-18.208-86.976-47.753-117.213l0.031 0.032c-7.483-7.424-12.116-17.712-12.116-29.082s4.633-21.658 12.113-29.079l0.003-0.003c8.509-8.121 20.061-13.118 32.78-13.118 11.181 0 21.46 3.862 29.576 10.325l-0.096-0.074z" />
<glyph unicode="&#xe90e;" glyph-name="attribute" d="M301.67-64c-95.453 2.343-171.938 80.279-171.938 176.078 0 78.37 51.185 144.785 121.949 167.638l1.247 0.348 4.301 1.229v334.029l-4.506 1.434c-40.797 12.216-74.364 38.007-96.256 72.023l-0.41 0.681c-17.579 26.899-28.036 59.838-28.036 95.219 0 12.989 1.409 25.649 4.083 37.835l-0.214-1.163c16.711 79.12 85.554 137.784 168.252 138.649l0.094 0.001c96.632-0.694 174.699-79.19 174.699-175.919 0-24.781-5.124-48.366-14.37-69.752l0.439 1.14c-6.349-17.763-23.008-30.256-42.592-30.31h-0.007c-14.431 0.116-27.286 6.76-35.774 17.121l-0.066 0.082c-6.309 7.54-10.141 17.341-10.141 28.036 0 4.612 0.712 9.058 2.033 13.234l-0.085-0.31c0.999 3.665 2.328 6.863 4.002 9.841l-0.111-0.215c3.833 9.373 6.208 20.233 6.55 31.605l0.003 0.139c-0.806 44.622-37.168 80.486-81.907 80.486-45.243 0-81.92-36.677-81.92-81.92 0-45.239 36.67-81.913 81.907-81.92h0.001c25.187-0.908 45.261-21.545 45.261-46.871 0-0.010 0-0.020 0-0.030v0.002-345.907l12.083-1.434c31.334 131.686 121.651 163.84 194.15 188.826 65.741 23.142 109.158 38.298 120.832 114.688v5.12l-4.915 1.638c-70.567 24.19-120.388 89.962-120.388 167.37 0 13.999 1.629 27.617 4.709 40.675l-0.238-1.197c10.612 46.113 38.396 84.394 76.103 108.536l0.697 0.417c25.841 16.824 57.461 26.829 91.418 26.829 0.117 0 0.234 0 0.35 0h-0.018c95.547-0.338 172.872-77.871 172.872-173.465 0-0.937-0.007-1.871-0.022-2.804l0.002 0.141c0-0.121 0-0.264 0-0.408 0-32.445-8.824-62.828-24.203-88.882l0.446 0.816c-7.871-13.141-21.935-21.863-38.056-22.118h-0.036c-0.982-0.101-2.123-0.158-3.277-0.158s-2.294 0.057-3.419 0.17l0.142-0.011c-22.646 3.483-39.785 22.83-39.785 46.18 0 8.555 2.301 16.574 6.318 23.469l-0.12-0.222c6.537 11.84 10.517 25.899 10.853 40.858l0.002 0.102c-0.692 44.712-37.1 80.691-81.911 80.691-45.243 0-81.92-36.677-81.92-81.92 0-45.24 36.672-81.915 81.91-81.92v0c25.252-0.459 45.559-20.982 45.67-46.274v-0.011c0-180.838-106.496-218.317-184.32-245.76s-139.878-49.357-143.36-189.85v-2.253l1.434-1.638c20.509-28.446 32.801-64.002 32.801-102.43 0-96.245-77.108-174.481-172.919-176.3l-0.17-0.003zM293.683 184.832c-0.289 0.004-0.629 0.006-0.971 0.006-32.271 0-59.954-19.642-71.747-47.622l-0.191-0.512c-3.784-8.992-5.983-19.445-5.983-30.411 0-21.697 8.607-41.383 22.593-55.831l-0.021 0.022c14.218-14.339 33.925-23.217 55.706-23.217 43.274 0 78.364 35.044 78.438 78.301v0.007c0 0.075 0 0.163 0 0.252 0 20.567-7.774 39.319-20.543 53.477l0.063-0.071c-5.532 5.442-9.559 12.397-11.412 20.195l-0.057 0.285c-0.821 2.546-1.294 5.476-1.294 8.516 0 0.679 0.024 1.352 0.070 2.019l-0.005-0.090v25.6l-10.65-13.517c-7.772-10.513-20.081-17.288-33.978-17.408h-0.019z" />
<glyph unicode="&#xe90f;" glyph-name="avatar" d="M512 961.843c0.061 0 0.133 0 0.205 0 114.126 0 206.643-92.517 206.643-206.643s-92.517-206.643-206.643-206.643c-114.126 0-206.643 92.517-206.643 206.643v0c0.463 113.867 92.587 206.064 206.383 206.643h0.056zM1001.472 202.24c-16.448 49.078-39.989 91.587-69.85 128.81l0.628-0.81c-57.086 68.256-142.284 111.361-237.549 111.361-37.239 0-72.94-6.586-106-18.658l2.148 0.686c-23.325-7.599-50.165-11.98-78.029-11.98s-54.704 4.381-79.87 12.493l1.841-0.513c-30.49 10.963-65.672 17.301-102.333 17.301-95.843 0-181.57-43.314-238.674-111.435l-0.395-0.484c-16.828-19.835-31.868-42.134-44.315-66.001l-0.946-1.993c-9.173-16.87-17.769-36.712-24.629-57.347l-0.766-2.659c-1.435-3.884-2.266-8.369-2.266-13.049 0-6.942 1.828-13.458 5.028-19.092l-0.1 0.192c10.65-18.637 22.528-37.478 34.816-54.886 38.719-53.055 84.516-98.070 136.602-134.756l1.843-1.231c87.827-60.095 196.36-95.965 313.271-95.965 82.102 0 160.071 17.69 230.306 49.466l-3.519-1.425c33.515 15.278 61.933 31.268 88.849 49.325l-2.218-1.401c54.495 37.295 100.464 82.417 137.527 134.333l1.122 1.655c11.667 15.716 23.131 33.59 33.376 52.229l1.235 2.452c3.098 5.726 4.919 12.535 4.919 19.77 0 4.873-0.826 9.554-2.346 13.909l0.090-0.296zM899.072 161.28c-32.695-45.65-72.002-84.11-116.983-114.885l-1.596-1.031c-20.775-13.928-44.808-27.578-69.838-39.472l-3.481-1.488c-56.164-25.882-121.87-40.974-191.101-40.974-1.288 0-2.575 0.005-3.861 0.016l0.197-0.001c-1.509-0.018-3.291-0.028-5.076-0.028-68.262 0-132.996 15.105-191.042 42.154l2.787-1.166c-28.224 12.762-52.284 26.435-74.935 42.010l1.616-1.050c-46.615 31.849-85.98 70.301-117.832 114.527l-0.952 1.39c-7.987 10.65-14.746 20.48-20.48 31.949 5.272 13.202 10.223 23.784 15.668 34.063l-0.922-1.909c11.032 20.218 22.978 37.652 36.459 53.756l-0.414-0.508c42.953 50.629 106.625 82.546 177.751 82.546 27.601 0 54.079-4.806 78.643-13.628l-1.623 0.509c30.59-10.186 65.809-16.062 102.4-16.062s71.809 5.876 104.763 16.737l-2.363-0.674c23.031 8.315 49.609 13.123 77.31 13.123 70.792 0 134.251-31.397 177.211-81.026l0.25-0.295c12.68-15.958 24.618-33.843 35.033-52.686l1.011-1.995c4.615-8.219 9.492-18.322 13.805-28.718l0.736-2.002c-7.987-11.878-14.541-22.323-22.323-33.178z" />
<glyph unicode="&#xe910;" glyph-name="ban" d="M512 960v0c-282.77 0-512-229.23-512-512s229.23-512 512-512v0 0c282.77 0 512 229.23 512 512s-229.23 512-512 512v0zM163.84 448c0 192.283 155.877 348.16 348.16 348.16v0c65.176-0.044 126.112-18.16 178.078-49.608l-1.54 0.865-475.955-475.955c-30.582 50.426-48.698 111.362-48.742 176.525v0.012zM512 99.84c-67.019 0.056-129.558 19.185-182.497 52.252l1.454-0.847 477.798 477.798c31.882-51.574 50.774-114.103 50.774-181.044 0-192.061-155.517-347.8-347.494-348.159h-0.035z" />
<glyph unicode="&#xe911;" glyph-name="bell" d="M430.080 830.566c-140.986-36.793-243.407-162.86-243.712-312.9v-229.821c-0.302-21.033-17.423-37.967-38.499-37.967-0.866 0-1.725 0.029-2.577 0.085l0.116-0.006c-1.135 0.059-2.463 0.092-3.8 0.092-41.727 0-75.824-32.667-78.111-73.822l-0.009-0.203v-55.706c1.075-10.395 9.788-18.432 20.377-18.432 0.036 0 0.072 0 0.108 0h858.106c10.17 2.79 17.716 11.44 18.832 22.007l0.010 0.111v55.706c-0.348 40.906-33.589 73.933-74.545 73.933-0.073 0-0.146 0-0.219 0h0.011c-20.48 0-47.514 37.069-47.514 37.069v223.642c-0.506 150.313-103.358 276.463-242.488 312.441l-2.248 0.493v47.718c0 45.243-36.677 81.92-81.92 81.92s-81.92-36.677-81.92-81.92v0zM380.928 61.133h261.734c0-72.163-58.5-130.662-130.662-130.662s-130.662 58.5-130.662 130.662v0z" />
<glyph unicode="&#xe912;" glyph-name="block-remove" d="M468.173-62.566c-90.064 7.902-171.792 37.916-241.479 84.527l1.863-1.173c-14.131 9.421-33.382 23.552-47.514 35.43-10.854 9.216-51.405 49.766-61.44 61.44-35.999 42.823-65.671 92.512-86.639 146.544l-1.22 3.574c-20.354 53.054-32.142 114.426-32.142 178.551 0 102.703 30.239 198.343 82.3 278.502l-1.21-1.988c7.513 12.56 14.678 23.119 22.365 33.261l-0.656-0.903c29.557 39.108 63.293 72.843 101.113 101.466l1.287 0.934c9.217 7.334 19.574 14.626 30.347 21.311l1.397 0.808c12.708 8.38 27.726 17.030 43.251 24.817l2.624 1.192c66.925 34.344 146.017 54.473 229.812 54.473 105.083 0 202.773-31.657 284.051-85.955l-1.863 1.171c14.131-9.421 33.178-23.757 47.309-35.635s51.61-49.562 61.44-61.44c11.674-14.131 26.010-33.178 35.43-47.514 53.233-79.472 84.956-177.256 84.956-282.449 0-102.42-30.073-197.815-81.87-277.839l1.215 2.003c-7.261-12.256-14.293-22.617-21.878-32.533l0.579 0.789c-29.503-39.154-63.246-72.898-101.112-101.469l-1.288-0.931c-9.125-7.121-19.48-14.345-30.209-21.023l-1.535-0.89c-12.84-8.534-27.926-17.251-43.544-25.065l-2.536-1.149c-56.413-29.34-122.441-48.784-192.407-54.164l-1.743-0.108c-11.813-0.734-25.621-1.152-39.526-1.152s-27.712 0.418-41.41 1.242l1.884-0.091zM869.99 448v128.819h-716.8v-256h716.8v127.181z" />
<glyph unicode="&#xe913;" glyph-name="boolean" d="M974.029 240.947l-157.286 157.082-157.082-157.082-49.766 49.766 157.082 157.286-157.082 157.286 49.766 49.971 157.082-157.286 157.286 157.286 49.971-50.176-157.082-157.082 157.082-157.286zM207.053 268.186l337.101 337.101-49.971 49.766-286.72-286.72-157.491 156.877-49.971-49.971z" />
<glyph unicode="&#xe914;" glyph-name="builder" d="M675.84 216.781l10.445 7.782c22.786 16.463 42.832 33.261 61.61 51.363l-0.17-0.163c79.058 80.794 127.84 191.49 127.84 313.58 0 2.221-0.016 4.439-0.048 6.653l0.004-0.335-72.704-4.301c0.004-0.624 0.006-1.362 0.006-2.101 0-100.558-40.693-191.612-106.51-257.593l-33.579-33.579c-3.277-2.867-6.963-6.144-11.059-9.421l-81.92 208.896 10.65 7.373c49.146 35.041 81.040 91.529 81.919 155.511l0.001 0.137c-0.935 90.589-62.175 166.622-145.439 189.924l-1.402 0.335-21.709 3.482v68.403c0.001 0.122 0.002 0.266 0.002 0.41 0 20.288-16.389 36.748-36.651 36.863h-0.011c-16.992-0.26-30.667-14.096-30.667-31.126 0-1.083 0.055-2.153 0.163-3.208l-0.011 0.132v-72.294l-6.963-2.867c-84.447-21.866-145.808-97.387-145.808-187.24 0-65.343 32.451-123.106 82.117-158.053l0.613-0.409 10.65-7.373-91.136-231.219-16.794 10.035c-10.035 6.144-19.046 12.083-27.853 18.227l-8.397 6.349-2.458 1.638c-6.963 5.53-14.131 11.469-20.48 17.818l-51.405-50.79c26.509-24.069 56.097-45.631 87.859-63.829l2.457-1.297 12.288-6.963-79.053-209.101c-1.128-3.448-1.778-7.415-1.778-11.535 0-16.038 9.858-29.773 23.846-35.477l0.256-0.092c3.439-1.868 7.519-2.996 11.855-3.072h0.023c15.486 2.595 28.117 12.785 34.089 26.538l0.113 0.291 78.848 202.342 13.517-2.662c26.214-5.325 58.368-10.65 89.293-15.77l2.867-2.253v-14.131s25.395-36.864 48.742-36.864 38.093 36.25 38.093 36.25v18.842l11.469 2.662c32.139 5.857 59.679 12.953 86.438 21.769l-4.518-1.289 15.155 4.915 84.582-219.955c6.403-13.708 20.073-23.036 35.922-23.036 0.98 0 1.952 0.036 2.914 0.106l-0.129-0.008c1.564-0.134 3.384-0.21 5.222-0.21s3.658 0.076 5.458 0.225l-0.236-0.016c8.88 4.301 15.822 11.441 19.762 20.221l0.104 0.259c2.321 4.445 3.682 9.709 3.682 15.291 0 4.141-0.749 8.107-2.12 11.77l0.076-0.232zM346.317 660.582c0 67.865 55.015 122.88 122.88 122.88s122.88-55.015 122.88-122.88c0-67.865-55.015-122.88-122.88-122.88v0c-67.865 0-122.88 55.015-122.88 122.88v0zM425.165 465.613h73.933l76.39-196.403 6.144-15.974-16.179-5.325c-7.987-2.662-16.179-5.325-24.371-7.373h-3.686c-10.067-1.843-21.652-2.897-33.483-2.897-1.189 0-2.376 0.011-3.559 0.032l0.178-0.003-2.662 12.902c-2.719 16.285-16.706 28.544-33.557 28.544-0.803 0-1.6-0.028-2.39-0.083l0.106 0.006c-19.593-0.116-35.431-16.026-35.431-35.635 0-0.072 0-0.144 0.001-0.216v0.011-16.179h-6.554c-29.341 1.466-56.876 7.275-82.607 16.8l1.915-0.621z" />
<glyph unicode="&#xe915;" glyph-name="calendar" d="M821.453 838.349h-99.533v81.92c-0.103 19.393-13.087 35.725-30.827 40.885l-0.302 0.075c-3.555 1.117-7.642 1.761-11.88 1.761-22.622 0-40.96-18.338-40.96-40.96 0-0.115 0-0.23 0.001-0.345v0.018-83.354h-235.11v81.92c-0.004 19.366-12.929 35.712-30.624 40.885l-0.301 0.075c-3.614 1.157-7.772 1.823-12.085 1.823-22.622 0-40.96-18.338-40.96-40.96 0-0.137 0.001-0.274 0.002-0.411v0.021-83.354h-116.326c-111.864 0-202.547-90.683-202.547-202.547 0-0.072 0-0.144 0-0.216v0.011-501.146c0-111.864 90.683-202.547 202.547-202.547v0h618.906c111.864 0 202.547 90.683 202.547 202.547v0 501.146c0 0.061 0 0.133 0 0.205 0 111.864-90.683 202.547-202.547 202.547 0 0 0 0 0 0v0zM184.32 755.2h134.144v-81.92c0.031-19.417 13.048-35.785 30.829-40.886l0.301-0.074c3.555-1.117 7.642-1.761 11.88-1.761 22.622 0 40.96 18.338 40.96 40.96 0 0.115 0 0.23-0.001 0.345v-0.018 83.354h235.52v-81.92c0-0.044 0-0.095 0-0.147 0-19.33 12.937-35.639 30.626-40.739l0.299-0.074c3.614-1.157 7.772-1.823 12.085-1.823 22.622 0 40.96 18.338 40.96 40.96 0 0.137-0.001 0.274-0.002 0.411v-0.021 83.354h150.938c46.374 0 83.968-37.594 83.968-83.968v0-83.968h-856.064v83.968c0 0 0 0.001 0 0.001 0 46.23 37.361 83.734 83.536 83.967h0.022zM819.2 15.667h-614.4c-66.734 0-120.832 54.098-120.832 120.832v0 365.978h856.064v-365.978c0-66.734-54.098-120.832-120.832-120.832v0zM453.222 403.763l1.229-85.811-118.784-2.048-1.024 86.016zM705.126 403.763v-85.811l-118.579-2.048-1.229 86.016zM453.222 219.443l1.229-86.016-118.784-2.048-1.024 86.016zM705.126 219.443v-86.016l-118.579-2.048-1.229 86.016z" />
<glyph unicode="&#xe916;" glyph-name="close" d="M512 329.216l-237.568-237.568-118.784 118.784 237.568 237.568-237.568 237.568 118.784 118.784 237.568-237.568 237.568 237.568 118.784-118.784-237.568-237.568 237.568-237.568-118.784-118.784-237.568 237.568z" />
<glyph unicode="&#xe917;" glyph-name="cp" d="M829.85 915.763v-137.011c-61.599-15.962-106.355-71.055-106.355-136.602s44.757-120.64 105.376-136.386l0.979-0.216v-525.312c-0.065-0.9-0.102-1.95-0.102-3.008 0-24.431 19.805-44.237 44.237-44.237s44.237 19.805 44.237 44.237c0 1.059-0.037 2.108-0.11 3.148l0.008-0.14v531.046c52.229 21.472 88.334 71.953 88.334 130.867s-36.105 109.396-87.396 130.525l-0.938 0.342v143.36c0.065 0.9 0.102 1.95 0.102 3.008 0 24.431-19.805 44.237-44.237 44.237s-44.237-19.805-44.237-44.237c0-1.059 0.037-2.108 0.11-3.148l-0.008 0.14zM918.118 642.15c0-29.295-23.748-53.043-53.043-53.043s-53.043 23.748-53.043 53.043c0 29.295 23.748 53.043 53.043 53.043v0c0.061 0 0.133 0 0.205 0 29.182 0 52.838-23.657 52.838-52.838 0-0.072 0-0.144 0-0.216v0.011zM520.806-64c24.431 0 44.237 19.805 44.237 44.237v0 143.36c52.229 21.472 88.334 71.953 88.334 130.867s-36.105 109.396-87.396 130.525l-0.938 0.342v530.432c0.065 0.9 0.102 1.95 0.102 3.008 0 24.431-19.805 44.237-44.237 44.237s-44.237-19.805-44.237-44.237c0-1.059 0.037-2.108 0.11-3.148l-0.008 0.14v-525.312c-61.599-15.962-106.355-71.055-106.355-136.602s44.757-120.64 105.376-136.386l0.979-0.216v-137.011c0-0.061 0-0.133 0-0.205 0-24.318 19.714-44.032 44.032-44.032 0 0 0 0 0 0v0zM512 200.806c-29.295 0-53.043 23.748-53.043 53.043s23.748 53.043 53.043 53.043c29.295 0 53.043-23.748 53.043-53.043v0c0-29.295-23.748-53.043-53.043-53.043v0zM122.88 915.763v-137.011c-61.296-16.26-105.734-71.241-105.734-136.602s44.438-120.341 104.749-136.379l0.985-0.223v-525.312c-0.065-0.9-0.102-1.95-0.102-3.008 0-24.431 19.805-44.237 44.237-44.237s44.237 19.805 44.237 44.237c0 1.059-0.037 2.108-0.11 3.148l0.008-0.14v531.046c52.229 21.472 88.334 71.953 88.334 130.867s-36.105 109.396-87.396 130.525l-0.938 0.342v143.36c0.052 0.803 0.082 1.741 0.082 2.685 0 24.431-19.805 44.237-44.237 44.237s-44.237-19.805-44.237-44.237c0-1.161 0.045-2.312 0.133-3.451l-0.009 0.151zM211.149 642.15c0-29.295-23.748-53.043-53.043-53.043s-53.043 23.748-53.043 53.043c0 29.295 23.748 53.043 53.043 53.043 0.072 0 0.144 0 0.216 0h-0.011c0.244 0.004 0.532 0.006 0.821 0.006 29.069 0 52.634-23.565 52.634-52.634 0-0.146-0.001-0.292-0.002-0.438v0.022z" />
<glyph unicode="&#xe918;" glyph-name="dashboard" d="M536.576 230.912c-0.281-0.002-0.613-0.003-0.945-0.003-50.233 0-94.336 26.249-119.34 65.779l-0.342 0.579s-43.622 67.789-78.848 318.669v0c-0.219 1.589-0.343 3.426-0.343 5.292 0 15.22 8.301 28.501 20.623 35.563l0.2 0.106c5.911 3.304 12.96 5.27 20.464 5.325h0.016c9.698-0.028 18.655-3.173 25.93-8.484l-0.126 0.087c208.282-148.89 251.494-219.546 253.338-222.413 11.856-19.081 18.884-42.236 18.884-67.032 0-11.776-1.585-23.182-4.554-34.017l0.21 0.901c-10.206-35.743-33.972-64.717-65.237-81.571l-0.709-0.349c-19.936-11.36-43.756-18.162-69.143-18.431l-0.080-0.001zM440.525 521.933c25.6-135.373 50.995-181.862 50.995-182.272 9.693-14.645 26.093-24.172 44.719-24.172 0.262 0 0.524 0.002 0.786 0.006h-0.040c0.132-0.001 0.289-0.002 0.446-0.002 9.608 0 18.631 2.506 26.45 6.901l-0.272-0.14c11.665 6.224 20.361 16.721 24.079 29.351l0.087 0.345c1.139 3.771 1.795 8.105 1.795 12.592 0 8.757-2.498 16.931-6.821 23.847l0.11-0.189s-29.901 44.032-142.336 133.734zM960.307 322.662v0h-187.187c-23.526 0-42.598 19.072-42.598 42.598s19.072 42.598 42.598 42.598v0h165.683v3.686c-5.196 228.185-191.404 411.175-420.352 411.175s-415.156-182.991-420.343-410.693l-0.009-0.482c-0.049-0.552-0.076-1.194-0.076-1.843s0.028-1.291 0.082-1.926l-0.006 0.083h165.478c23.526 0 42.598-19.072 42.598-42.598s-19.072-42.598-42.598-42.598v0h-206.029c-22.921 0.091-41.586 18.184-42.595 40.869l-0.003 0.091v4.301c-1.434 16.179-2.253 30.925-2.253 45.056 5.707 274.852 229.863 495.475 505.549 495.475s499.841-220.624 505.54-494.944l0.009-0.532c0-14.131 0-28.877-2.253-45.261v-3.891c-1.012-22.776-19.677-40.869-42.589-40.96h-0.009zM963.994 140.8h-93.389c-14.865 56.297-65.333 97.13-125.338 97.13s-110.473-40.832-125.134-96.227l-0.203-0.903h-578.97c-22.622 0-40.96-18.338-40.96-40.96s18.338-40.96 40.96-40.96v0h584.294c19.796-47.831 66.098-80.869 120.115-80.869s100.319 33.038 119.799 80.009l0.316 0.86h98.509c22.622 0 40.96 18.338 40.96 40.96s-18.338 40.96-40.96 40.96v0zM745.267 58.88c-26.92 0-48.742 21.823-48.742 48.742s21.823 48.742 48.742 48.742c26.92 0 48.742-21.823 48.742-48.742v0c0-26.92-21.823-48.742-48.742-48.742v0z" />
<glyph unicode="&#xe919;" glyph-name="database" d="M0 630.067v182.067c0 0 0 0 0 0 0 75.33 61.067 136.397 136.397 136.397 0.072 0 0.144 0 0.216 0h750.786c0 0 0 0 0 0 75.371 0 136.485-61.042 136.601-136.386v-182.078zM1024 243.2v272.998h-1024v-272.998zM1024-52.531v181.862h-1024v-181.862zM853.402 869.069c-0.061 0-0.133 0-0.205 0-43.999 0-79.667-35.668-79.667-79.667s35.668-79.667 79.667-79.667c43.999 0 79.667 35.668 79.667 79.667 0 0.072 0 0.144 0 0.216v-0.011c-0.232 43.751-35.695 79.142-79.451 79.258h-0.011z" />
<glyph unicode="&#xe91a;" glyph-name="delete" d="M640 832h-256v128h256zM896 768.102v-192.102h-63.898v-532.48c-2.458-57.958-43.827-107.52-96.051-107.52h-448.102c-52.224 0-93.594 49.562-96.051 108.339v532.48h-63.898v191.283h768zM448.102 512.102h-64.102v-384h64.102zM640 512.102h-64.102v-384h64.102z" />
<glyph unicode="&#xe91b;" glyph-name="edit" d="M0 165.786v-229.786h228.966l605.184 606.618-227.533 227.533zM796.467 960l-113.459-113.459 226.918-226.918 114.074 113.459z" />
<glyph unicode="&#xe91c;" glyph-name="entities" d="M887.398 960h-750.797c-0.061 0-0.133 0-0.205 0-75.33 0-136.397-61.067-136.397-136.397 0-0.072 0-0.144 0-0.216v0.011-750.797c0-0.061 0-0.133 0-0.205 0-75.33 61.067-136.397 136.397-136.397 0.072 0 0.144 0 0.216 0h750.786c0.061 0 0.133 0 0.205 0 75.33 0 136.397 61.067 136.397 136.397 0 0.072 0 0.144 0 0.216v-0.011 750.797c0 0.061 0 0.133 0 0.205 0 75.33-61.067 136.397-136.397 136.397-0.072 0-0.144 0-0.216 0h0.011zM938.598 72.602c0-28.277-22.923-51.2-51.2-51.2v0h-750.797c-28.277 0-51.2 22.923-51.2 51.2v0 486.4h853.197zM85.402 644.198v179.2c0 28.277 22.923 51.2 51.2 51.2v0h750.797c28.277 0 51.2-22.923 51.2-51.2v0-179.2zM318.259 780.8c2.225-5.009 3.52-10.852 3.52-16.998 0-23.64-19.164-42.803-42.803-42.803-0.014 0-0.027 0-0.040 0h-65.534c-0.885-0.065-1.918-0.102-2.959-0.102-23.64 0-42.803 19.164-42.803 42.803s19.164 42.803 42.803 42.803c1.041 0 2.074-0.037 3.096-0.11l-0.137 0.008h63.898c0.562 0.026 1.22 0.042 1.882 0.042 17.395 0 32.354-10.426 38.971-25.37l0.107-0.272zM174.899 183.603c-2.109 4.903-3.335 10.611-3.335 16.605 0 23.341 18.594 42.339 41.777 42.991l0.060 0.001h237.158c0.885 0.065 1.918 0.102 2.959 0.102 23.64 0 42.803-19.164 42.803-42.803s-19.164-42.803-42.803-42.803c-1.041 0-2.074 0.037-3.096 0.11l0.137-0.008h-236.339c-0.354-0.011-0.772-0.017-1.19-0.017-17.463 0-32.473 10.509-39.049 25.547l-0.107 0.274zM174.899 388.403c-2.109 4.903-3.335 10.611-3.335 16.605 0 23.341 18.594 42.339 41.777 42.991l0.060 0.001h406.938c0.885 0.065 1.918 0.102 2.959 0.102 23.64 0 42.803-19.164 42.803-42.803s-19.164-42.803-42.803-42.803c-1.041 0-2.074 0.037-3.096 0.11l0.137-0.008h-406.118c-0.354-0.011-0.772-0.017-1.19-0.017-17.463 0-32.473 10.509-39.049 25.547l-0.107 0.274z" />
<glyph unicode="&#xe91d;" glyph-name="gear" d="M1003.52 327.578l-105.267 70.656c1.827 13.95 2.87 30.082 2.87 46.458 0 0.515-0.001 1.030-0.003 1.545v-0.079c-0.213 16.446-1.545 32.391-3.926 47.991l0.24-1.911 108.749 70.861c10.477 6.992 17.285 18.765 17.285 32.129 0 6.040-1.391 11.754-3.869 16.842l0.1-0.228-36.659 61.44c-10.854 17.818-25.6 44.442-36.25 61.44l-32.973 53.248c-7.351 11.676-20.172 19.322-34.778 19.322-5.863 0-11.437-1.232-16.48-3.45l0.263 0.103-117.555-54.886c-23.047 17.002-49.214 32.396-76.933 44.97l-2.734 1.11-6.554 129.434c-1.821 19.714-18.108 35.079-38.058 35.43h-206.678c-20.4-0.334-37.15-15.53-39.911-35.214l-0.025-0.216-10.854-125.747c-31.399-13.133-58.339-27.954-83.455-45.235l1.535 0.998-117.76 54.886c-5.044 2.39-10.958 3.785-17.198 3.785-14.104 0-26.542-7.128-33.91-17.978l-0.092-0.143-36.25-60.416c-9.011-17.613-27.238-44.237-36.25-61.44l-32.768-53.453c-2.928-5.498-4.648-12.024-4.648-18.951 0-13.054 6.107-24.682 15.62-32.183l0.087-0.066 104.448-70.861c0-17.818-1.843-33.587-1.843-51.2 0-14.131 1.843-28.262 1.843-42.598l-106.291-70.861c-9.856-6.584-16.26-17.664-16.26-30.24 0-6.911 1.934-13.371 5.291-18.867l-0.090 0.159 36.454-61.44c9.011-17.818 27.238-44.442 36.25-61.44l32.563-53.248c7.344-11.716 20.186-19.392 34.821-19.392 5.924 0 11.555 1.258 16.639 3.521l-0.261-0.104 114.483 53.043c24.14-18.010 51.486-34.529 80.396-48.294l2.957-1.267 8.806-124.109c1.829-19.783 18.226-35.186 38.273-35.43h207.486c20.314 0.438 36.957 15.598 39.706 35.214l0.025 0.216 11.059 122.88c32.308 13.129 60.165 28.736 85.744 47.292l-1.161-0.802 114.278-55.091c4.942-2.373 10.743-3.759 16.869-3.759 14.575 0 27.317 7.848 34.23 19.548l0.101 0.185 36.25 60.211c10.854 17.818 25.6 44.442 36.25 61.44l32.563 53.248c1.735 4.475 2.74 9.655 2.74 15.069 0 14.99-7.705 28.18-19.371 35.826l-0.163 0.1zM512 283.136c-89.245 1.612-160.973 74.337-160.973 163.815 0 90.486 73.354 163.84 163.84 163.84 90.477 0 163.826-73.339 163.84-163.813v-0.001c0-0.007 0-0.016 0-0.025 0-90.486-73.354-163.84-163.84-163.84-1.008 0-2.014 0.009-3.018 0.027l0.151-0.002z" />
<glyph unicode="&#xe91e;" glyph-name="group" d="M368.64 304.64c0-0.061 0-0.133 0-0.205 0-31.896-25.857-57.754-57.754-57.754s-57.754 25.857-57.754 57.754c0 31.896 25.857 57.753 57.753 57.754v0c0 0 0 0 0 0 31.824 0 57.637-25.741 57.753-57.538v-0.011zM512 362.189c-31.896 0-57.753-25.857-57.753-57.754s25.857-57.754 57.754-57.754c31.896 0 57.754 25.857 57.754 57.754 0 0.072 0 0.144 0 0.216v-0.011c-0.461 31.429-26.048 56.73-57.543 56.73-0.074 0-0.148 0-0.222 0h0.011zM713.933 362.189c-31.896 0-57.753-25.857-57.753-57.754s25.857-57.754 57.754-57.754c31.896 0 57.754 25.857 57.754 57.754 0 0.072 0 0.144 0 0.216v-0.011c-0.461 31.429-26.048 56.73-57.543 56.73-0.074 0-0.148 0-0.222 0h0.011zM971.571 563.098s-3.891-81.92 52.429-81.92v-64.307c-56.32 0-52.429-81.92-52.429-81.92v-128c0-116.736-109.773-120.422-134.963-117.76v74.138c36.109 2.434 64.481 32.305 64.512 68.81v142.339c-0.002 0.191-0.002 0.417-0.002 0.642 0 30.293 15.403 56.988 38.804 72.682l0.315 0.199c-23.716 15.892-39.119 42.588-39.119 72.881 0 0.226 0.001 0.452 0.003 0.677v-0.035 142.336c-0.016 36.375-28.17 66.17-63.875 68.799l-0.227 0.013v75.366c25.19 2.662 134.963 0 134.963-117.76v-128zM52.429 690.278c0 116.736 109.773 120.422 134.963 117.76v-75.366c-36.109-2.434-64.481-32.305-64.512-68.81v-143.363c-0.135-30.147-15.505-56.676-38.802-72.3l-0.315-0.199c23.716-15.892 39.119-42.588 39.119-72.881 0-0.226-0.001-0.452-0.003-0.677v0.035-143.36c0.584-36.073 28.754-65.383 64.301-67.777l0.211-0.011v-75.366c-25.19-2.662-134.963 0-134.963 117.76v128s3.891 81.92-52.429 81.92v64.512c56.32 0 52.429 81.92 52.429 81.92v128.205z" />
<glyph unicode="&#xe91f;" glyph-name="history-pending" d="M512 960c-282.77 0-512-229.23-512-512s229.23-512 512-512c282.77 0 512 229.23 512 512v0c0 282.77-229.23 512-512 512v0zM448.102 384.102v383.795h127.795v-256h256v-127.795z" />
<glyph unicode="&#xe920;" glyph-name="library" d="M983.040 649.523h-261.12v261.12c0 22.622-18.338 40.96-40.96 40.96v0h-321.126c-22.622 0-40.96-18.338-40.96-40.96v0-143.36h-277.914c-22.622 0-40.96-18.338-40.96-40.96v0-740.966c0-22.622 18.338-40.96 40.96-40.96v0h942.080c22.622 0 40.96 18.338 40.96 40.96v0 623.206c0 22.622-18.338 40.96-40.96 40.96v0zM956.826 565.555v-352.666h-234.906v352.666zM403.866 884.429h234.086v-671.539h-235.11v671.539zM319.898 700.109v-487.219h-235.93v487.014zM83.968 129.126h234.906v-100.762h-234.906zM402.842 129.126h235.11v-100.762h-235.11zM721.92 28.365v100.762h234.906v-100.762zM268.493 499.405h-134.144v83.968h134.144zM488.858 716.493h64.102c23.244 0 42.086-18.843 42.086-42.086s-18.843-42.086-42.086-42.086v0h-64.922c-23.131 0-41.882 18.751-41.882 41.882s18.751 41.882 41.882 41.882v0zM906.445 380.826h-134.349v83.968h134.349z" />
<glyph unicode="&#xe921;" glyph-name="location" d="M517.53 210.637c-77.005 0-244.531 314.368-244.531 426.598-0.065 2.108-0.102 4.588-0.102 7.076 0 135.051 109.48 244.531 244.531 244.531s244.531-109.48 244.531-244.531c0-2.488-0.037-4.968-0.111-7.438l0.009 0.362c0-112.23-167.936-426.598-244.326-426.598zM517.53 810.701c-95.755-0.116-173.349-77.71-173.466-173.454v-0.011c0-89.907 124.928-304.947 173.056-350.413 48.333 46.49 173.67 262.144 173.67 350.413 0 95.731-77.547 173.349-173.25 173.466h-0.011zM514.458 520.499c-31.010 0.19-59.051 12.747-79.471 32.981l0.009-0.008c-21.751 21.475-35.223 51.29-35.223 84.252 0 65.376 52.998 118.374 118.374 118.374 65.116 0 117.952-52.577 118.372-117.594v-0.040c-0.464-65.249-53.467-117.965-118.781-117.965-0.073 0-0.146 0-0.219 0h0.011zM517.53 684.339c-25.568-0.786-46.049-21.482-46.489-47.062l-0.001-0.042c0-0.041 0-0.090 0-0.138 0-12.883 5.334-24.52 13.914-32.823l0.013-0.012c7.701-7.859 18.425-12.73 30.287-12.73 0.584 0 1.166 0.012 1.745 0.035l-0.083-0.003c0.152-0.002 0.332-0.003 0.512-0.003 25.903 0 46.902 20.999 46.902 46.902 0 25.723-20.708 46.61-46.363 46.899h-0.027zM1019.29 31.846c3.090 5.224 4.916 11.512 4.916 18.227s-1.826 13.003-5.008 18.396l0.092-0.169-167.936 279.962-61.44-37.478 134.963-225.28h-824.32l134.963 225.28-62.464 38.502-167.936-279.962c-3.090-5.224-4.916-11.512-4.916-18.227s1.826-13.003 5.008-18.396l-0.092 0.169c6.385-11.156 18.191-18.568 31.734-18.637h950.692c13.553 0.068 25.359 7.48 31.649 18.458l0.095 0.179z" />
<glyph unicode="&#xe922;" glyph-name="login" d="M289.587 105.574h-289.587v684.851h289.587v-105.472h-184.32v-473.907h184.32zM744.243 169.267l-243.302 225.28h523.059v106.086h-522.854l243.098 225.28-71.885 77.824-382.771-355.738 382.771-355.738z" />
<glyph unicode="&#xe923;" glyph-name="logout" d="M289.587 105.574h-289.587v684.851h289.587v-105.472h-184.32v-473.907h184.32zM641.434 92.262l382.566 355.738-382.566 355.738-71.885-77.21 243.098-225.28h-523.059v-105.267h523.059l-243.098-225.28z" />
<glyph unicode="&#xe924;" glyph-name="L-shape" d="M135.782 374.477v559.514h192.717v-559.514h559.718v-192.717h-752.435v192.717z" />
<glyph unicode="&#xe925;" glyph-name="manager" d="M793.6 960h-563.405c-88.876-0.348-160.83-72.302-161.177-161.144v-524.526l455.475-338.33 430.080 340.173v522.65c-0.461 88.758-72.232 160.6-160.918 161.177h-0.055zM770.662 609.178c-2.342-7.863-5.989-14.691-10.739-20.595l0.090 0.115-99.123-97.28 22.938-136.602c0.285-1.704 0.449-3.668 0.449-5.669 0-17.31-12.202-31.771-28.475-35.249l-0.236-0.042h-5.325c-5.566 0.182-10.819 1.293-15.684 3.183l0.324-0.111-122.88 63.693-120.422-63.693c-4.771-2.434-10.406-3.86-16.373-3.86-13.36 0-25.050 7.146-31.457 17.825l-0.092 0.166c-2.634 4.648-4.187 10.21-4.187 16.133 0 2.409 0.257 4.759 0.745 7.022l-0.039-0.218 22.938 136.397-99.123 97.69c-6.603 6.216-10.715 15.015-10.715 24.774 0 9.151 3.616 17.458 9.497 23.57l-0.010-0.011 1.229 1.229c5.275 5.025 11.845 8.737 19.157 10.586l0.299 0.064 136.397 20.48 60.211 122.88c5.929 11.757 17.908 19.681 31.737 19.681 5.749 0 11.178-1.369 15.979-3.799l-0.202 0.093c6.956-3.506 12.468-9.018 15.882-15.772l0.093-0.203 60.211-122.88 136.397-20.48c17.46-2.601 30.701-17.489 30.701-35.47 0-1.285-0.068-2.553-0.199-3.803l0.013 0.156z" />
<glyph unicode="&#xe926;" glyph-name="modetator" d="M512 960c-282.77 0-512-229.23-512-512s229.23-512 512-512c282.77 0 512 229.23 512 512v0c0 282.77-229.23 512-512 512v0zM752.026 98.611l-240.026 126.362-240.026-126.362 45.466 269.107-194.56 191.283 269.107 38.912 120.013 243.098 120.013-243.098 269.107-38.912-194.56-191.283z" />
<glyph unicode="&#xe927;" glyph-name="overflow-menu" d="M614.4 796.16c0-56.554-45.846-102.4-102.4-102.4s-102.4 45.846-102.4 102.4c0 56.554 45.846 102.4 102.4 102.4s102.4-45.846 102.4-102.4zM614.4 448c0-56.554-45.846-102.4-102.4-102.4s-102.4 45.846-102.4 102.4c0 56.554 45.846 102.4 102.4 102.4s102.4-45.846 102.4-102.4zM614.4 79.36c0-56.554-45.846-102.4-102.4-102.4s-102.4 45.846-102.4 102.4c0 56.554 45.846 102.4 102.4 102.4s102.4-45.846 102.4-102.4z" />
<glyph unicode="&#xe928;" glyph-name="pop-out" d="M736.051 367.923h128v-431.923h-864.051v864.051h431.923v-128h-303.923v-608.051h608.051zM671.949 960v-128h133.53l-434.79-434.79 90.522-90.522 434.79 434.79v-133.53h128v352.051z" />
<glyph unicode="&#xe929;" glyph-name="power-toggle" d="M512-64c-2.010-0.032-4.381-0.050-6.756-0.050-252.796 0-457.728 204.932-457.728 457.728 0 177.091 100.569 330.694 247.71 406.81l2.554 1.201c77.005 35.635 106.906-83.968 43.622-115.098-98.541-59.382-163.43-165.819-163.43-287.411 0-184.705 149.733-334.438 334.438-334.438 184.588 0 334.249 149.544 334.438 334.088v0.018c0 133.53-65.536 212.992-180.429 282.010-67.789 32.154-57.344 191.078 94.208 95.437 148.275-77.005 215.859-207.053 215.859-383.181-1.263-252.743-206.442-457.142-459.361-457.142-1.802 0-3.602 0.010-5.399 0.031l0.274-0.002zM436.224 550.4v344.678c0 0.061 0 0.133 0 0.205 0 35.742 28.975 64.717 64.717 64.717 0 0 0 0 0 0h3.072c35.855 0 64.922-29.066 64.922-64.922v0-344.678c0-35.855-29.066-64.922-64.922-64.922v0h-3.072c0 0 0 0 0 0-35.742 0-64.717 28.975-64.717 64.717 0 0.072 0 0.144 0 0.216v-0.011z" />
<glyph unicode="&#xe92a;" glyph-name="records" d="M0 192c0.003-17.176 10.121-31.988 24.723-38.802l0.263-0.11 469.402-213.197c5.17-2.42 11.227-3.832 17.613-3.832s12.443 1.412 17.874 3.941l-0.261-0.109 469.402 213.197c14.858 6.928 24.971 21.739 24.971 38.912s-10.113 31.984-24.709 38.802l-0.263 0.11-196.198 89.088 196.198 89.088c14.858 6.928 24.971 21.739 24.971 38.912s-10.113 31.984-24.709 38.802l-0.263 0.11-196.198 89.088 196.198 89.088c14.858 6.928 24.971 21.739 24.971 38.912s-10.113 31.984-24.709 38.802l-0.263 0.11-469.402 213.197c-5.17 2.42-11.227 3.832-17.613 3.832s-12.443-1.412-17.874-3.941l0.261 0.109-469.402-213.197c-14.858-6.928-24.971-21.739-24.971-38.912s10.113-31.984 24.709-38.802l0.263-0.11 196.198-89.088-196.198-89.088c-14.858-6.928-24.971-21.739-24.971-38.912s10.113-31.984 24.709-38.802l0.263-0.11 196.198-89.088-196.198-89.088c-14.864-6.925-24.983-21.736-24.986-38.912v0zM512 870.502l366.387-166.502-366.387-166.298-366.387 166.298zM324.198 529.92l170.803-77.21c5.17-2.42 11.227-3.832 17.613-3.832s12.443 1.412 17.874 3.941l-0.261-0.109 170.803 77.21 177.357-81.92-366.387-166.502-366.387 166.502zM324.198 273.92l170.803-77.21c5.17-2.42 11.227-3.832 17.613-3.832s12.443 1.412 17.874 3.941l-0.261-0.109 170.803 77.21 177.357-81.92-366.387-166.502-366.387 166.502z" />
<glyph unicode="&#xe92b;" glyph-name="references" d="M295.322-56.013c-90.193 0.387-163.159 73.592-163.159 163.839 0 44.769 17.956 85.344 47.059 114.916l-0.021-0.022c29.693 29.585 70.5 48.033 115.616 48.537l0.096 0.001c11.599-0.018 22.925-1.135 33.894-3.253l-1.126 0.181h5.53l76.39 235.315-158.925 156.672-4.096-2.048c-20.819-10.97-45.495-17.408-71.676-17.408-0.002 0-0.003 0-0.005 0h-3.071c-0.101 0-0.221 0-0.34 0-44.802 0-85.404 17.983-114.982 47.124l0.020-0.020c-29.942 28.684-48.551 68.992-48.551 113.647 0 0.726 0.005 1.451 0.015 2.175l-0.001-0.11c-0.045 1.384-0.070 3.011-0.070 4.644 0 43.564 18.16 82.887 47.323 110.81l0.056 0.053c29.754 30.306 71.155 49.089 116.944 49.089 44.565 0 84.974-17.793 114.511-46.662l-0.031 0.030c29.973-29.466 48.93-70.056 50.171-115.072l0.005-0.231c0.004-0.422 0.006-0.922 0.006-1.422 0-26.603-6.437-51.702-17.838-73.825l0.423 0.904-2.048-4.096 158.106-156.877 234.701 79.872v5.325c-2.138 9.989-3.362 21.465-3.362 33.227 0 44.799 17.758 85.451 46.619 115.299l-0.045-0.046c30.171 29.587 71.334 48.061 116.81 48.741l0.131 0.002h4.301c0.064 0 0.139 0 0.214 0 43.284 0 82.393-17.88 110.342-46.657l0.036-0.037c30.068-28.862 48.751-69.387 48.751-114.276 0-0.577-0.003-1.153-0.009-1.729l0.001 0.088c0.043-1.353 0.067-2.943 0.067-4.539 0-43.635-18.244-83.009-47.519-110.91l-0.062-0.058c-28.985-30.134-69.476-49.018-114.382-49.561l-0.101-0.001h-6.554c-38.87 0.772-74.146 15.545-101.13 39.464l0.164-0.143-2.662 2.458-261.325-87.45-83.354-261.325 2.253-2.662c25.308-28.696 40.755-66.613 40.755-108.138 0-90.486-73.354-163.84-163.84-163.84-0.36 0-0.72 0.001-1.080 0.003h0.055zM286.72 163.942c-38.131-0.28-68.934-31.255-68.934-69.425 0-19.101 7.713-36.4 20.195-48.952l-0.003 0.003c12.417-12.49 29.548-20.282 48.5-20.48h0.038c38.477 0.231 69.606 31.36 69.837 69.815v0.022c-0.359 19.22-8.101 36.565-20.499 49.377l0.019-0.020c-12.796 11.684-29.9 18.842-48.675 18.842-0.024 0-0.047 0-0.071 0h0.004zM863.027 750.49c-0.366 0.007-0.797 0.011-1.229 0.011-19.542 0-37.258-7.82-50.188-20.502l0.012 0.011c-12.362-12.529-19.997-29.749-19.997-48.752 0-38.344 31.084-69.427 69.427-69.427 0.406 0 0.811 0.003 1.216 0.010l-0.061-0.001c17.010 0.207 32.524 6.446 44.541 16.671l-0.099-0.082 4.301 4.301c11.681 11.859 18.894 28.148 18.894 46.122 0 0.922-0.019 1.839-0.057 2.751l0.004-0.131c-0.214 19.31-7.988 36.763-20.494 49.576l0.014-0.014c-11.945 11.653-28.293 18.842-46.319 18.842-0.060 0-0.12 0-0.179 0h0.009zM163.84 870.502c-0.152 0.001-0.332 0.002-0.513 0.002-19.378 0-36.93-7.824-49.667-20.485l0.003 0.003c-12.053-12.077-19.507-28.749-19.507-47.162 0-0.916 0.018-1.828 0.055-2.735l-0.004 0.13c0.304-19.295 8.056-36.722 20.499-49.582l-0.019 0.020c11.112-11.642 26.71-18.918 44.008-19.046h5.144c0.127-0.001 0.277-0.001 0.427-0.001 19.083 0 36.335 7.838 48.714 20.47l0.011 0.011c12.477 12.549 20.19 29.848 20.19 48.947 0 38.314-31.035 69.379-69.337 69.427h-0.005z" />
<glyph unicode="&#xe92c;" glyph-name="refresh-sync" d="M518.144 6.451c-0.284-0.001-0.621-0.001-0.958-0.001-180.078 0-335.152 107.055-405.050 260.993l-1.134 2.79-11.264 25.6-99.738-33.382 99.533 341.402 278.323-221.184-132.096-43.008 18.842-32.563c28.437-49.403 69.043-88.958 117.817-115.34l1.581-0.782c38.7-20.77 84.672-32.973 133.494-32.973 0.012 0 0.025 0 0.037 0h-0.002c91.552 0.083 173.259 42.163 226.907 108.011l0.421 0.533 121.651-93.389c-81.632-101.971-206.099-166.715-345.688-166.715-0.941 0-1.882 0.003-2.822 0.009l0.145-0.001zM646.144 513.126l132.096 43.008-18.842 32.563c-28.437 49.403-69.043 88.958-117.817 115.34l-1.581 0.782c-38.722 20.722-84.695 32.917-133.512 32.973h-0.018c-91.533-0.178-173.207-42.231-226.91-108.016l-0.418-0.528-121.856 93.389c82.317 102.126 207.402 166.912 347.619 166.912 0.19 0 0.38 0 0.57 0h-0.029c74.741-0.048 145.229-18.212 207.324-50.339l-2.524 1.187c90.895-46.33 161.802-120.941 202.269-212.067l1.098-2.768 11.264-25.6 99.123 32.358-99.533-340.378z" />
<glyph unicode="&#xe92d;" glyph-name="remove" d="M0 550.4h1024v-204.8h-1024v204.8z" />
<glyph unicode="&#xe92e;" glyph-name="remove-circle" d="M512 960c-282.77 0-512-229.23-512-512s229.23-512 512-512c282.77 0 512 229.23 512 512v0c0 282.77-229.23 512-512 512v0zM192.102 384.102v127.795h639.795v-127.795z" />
<glyph unicode="&#xe92f;" glyph-name="reviews" d="M143.36-64c-45.243 0-81.92 36.677-81.92 81.92v0 798.72c0 45.243 36.677 81.92 81.92 81.92v0h40.96v-102.4c0-45.243 36.677-81.92 81.92-81.92v0h471.040c45.243 0 81.92 36.677 81.92 81.92v0 102.4h40.96c45.243 0 81.92-36.677 81.92-81.92v0-112.64l-385.843-401.203-133.325 133.325c-7.414 7.422-17.66 12.013-28.979 12.013s-21.565-4.591-28.979-12.013v0l-81.92-81.92c-7.422-7.414-12.013-17.66-12.013-28.979s4.591-21.565 12.013-28.979v0l239.821-241.459c7.382-7.24 17.505-11.709 28.672-11.709s21.29 4.469 28.679 11.715l-0.007-0.006 382.362 368.23v-405.094c0-45.243-36.677-81.92-81.92-81.92v0zM655.36 837.12h-307.2c-22.622 0-40.96 18.338-40.96 40.96v0 40.96c0 22.622 18.338 40.96 40.96 40.96v0h307.2c22.622 0 40.96-18.338 40.96-40.96v0-40.96c0-22.622-18.338-40.96-40.96-40.96v0z" />
<glyph unicode="&#xe930;" glyph-name="rotate-revert" d="M946.79 370.176c0.004-0.707 0.007-1.543 0.007-2.379 0-240.128-194.662-434.79-434.79-434.79s-434.79 194.662-434.79 434.79c0 85.43 24.639 165.105 67.197 232.307l-1.053-1.781 140.902-81.92c-27.049-41.506-43.135-92.304-43.135-146.859 0-149.981 121.584-271.565 271.565-271.565s271.565 121.584 271.565 271.565c0 125.623-85.298 231.323-201.136 262.343l-1.898 0.433v-138.445l-404.070 233.472 404.275 232.653v-161.792c208.067-34.495 364.85-212.878 365.363-427.978v-0.054z" />
<glyph unicode="&#xe931;" glyph-name="search" d="M1003.52 33.485l-251.29 250.675c52.577 69.31 84.224 157.014 84.224 252.109 0 231.645-187.785 419.43-419.43 419.43s-419.43-187.785-419.43-419.43c0-231.627 187.756-419.401 419.376-419.43h0.003c0.518-0.002 1.13-0.004 1.743-0.004 95.337 0 183.153 32.201 253.165 86.321l-0.957-0.711 252.518-249.242c10.289-10.616 24.678-17.204 40.607-17.204 0.124 0 0.248 0 0.372 0.001h-0.019c16.014 0.143 30.472 6.691 40.959 17.202l0.001 0.001c9.633 10.176 15.556 23.95 15.556 39.107 0 16.079-6.665 30.601-17.383 40.954l-0.016 0.016zM421.683 231.731c-168.979 0.9-305.615 138.091-305.615 307.196 0 169.662 137.538 307.2 307.2 307.2 84.181 0 160.454-33.86 215.942-88.703l-0.029 0.029c55.399-54.472 89.728-130.222 89.728-213.989 0-1.378-0.009-2.753-0.028-4.126l0.002 0.208c0-0.059 0-0.128 0-0.198 0-84.934-34.263-161.866-89.721-217.728l0.018 0.018c-54.679-55.521-130.669-89.92-214.693-89.92-0.986 0-1.971 0.005-2.954 0.014l0.15-0.001z" />
<glyph unicode="&#xe932;" glyph-name="view" d="M512 673.28c-124.419 0-225.28-100.861-225.28-225.28s100.861-225.28 225.28-225.28c124.419 0 225.28 100.861 225.28 225.28v0c0 124.419-100.861 225.28-225.28 225.28v0zM512 569.856c-66.857-0.58-120.832-54.913-120.832-121.852 0-67.299 54.557-121.856 121.856-121.856s121.854 54.554 121.856 121.852v0c-0.58 67.423-55.371 121.856-122.876 121.856-0.002 0-0.003 0-0.005 0v0zM512 98.816c-204.8 1.024-387.072 135.782-512 349.184 124.928 213.402 307.2 348.16 512 348.16s387.072-134.758 512-348.16c-124.928-213.402-307.2-348.16-512-348.16z" />
<glyph unicode="&#xe933;" glyph-name="view-read" d="M259.482 677.171c-112.805-0.933-206.218-82.789-225.079-190.311l-0.201-1.382c-19.055-2.053-33.76-18.048-33.76-37.478s14.705-35.425 33.593-37.464l0.167-0.015c17.64-109.264 111.277-191.703 224.169-191.703 0.751 0 1.5 0.004 2.249 0.011l-0.114-0.001c126.080 0.697 228.033 103.009 228.147 229.16v0.011c0 5.12 0 10.65 0 16.589 5.52 6.914 13.904 11.341 23.326 11.469h0.021c9.5-0.155 17.938-4.57 23.507-11.412l0.045-0.057c0-5.939 0-11.469 0-16.589 0.646-126.191 103.092-228.238 229.373-228.238 113.039 0 206.979 81.768 225.901 189.382l0.201 1.378c17.114 2.254 30.514 15.654 32.747 32.576l0.021 0.192c0.52 2.137 0.818 4.591 0.818 7.114 0 6.254-1.832 12.080-4.989 16.97l0.075-0.123c-5.733 9.167-15.209 15.536-26.235 16.979l-0.184 0.020c-18.87 109.398-113.045 191.568-226.412 191.568-89.988 0-167.884-51.774-205.525-127.16l-0.601-1.33c-13.516 6.467-29.379 10.244-46.124 10.244-0.345 0-0.689-0.002-1.033-0.005h0.053c-0.006 0-0.012 0-0.018 0-17.003 0-33.124-3.774-47.571-10.53l0.69 0.29c-37.871 77.447-116.080 129.843-206.527 129.843-0.041 0-0.082 0-0.123 0h0.007zM766.362 299.315c-80.759 0-146.227 65.468-146.227 146.227s65.468 146.227 146.227 146.227c80.759 0 146.227-65.468 146.227-146.227v0c-0.116-80.712-65.515-146.111-146.216-146.227h-0.011zM261.939 299.315c-80.759 0-146.227 65.468-146.227 146.227s65.468 146.227 146.227 146.227c80.759 0 146.227-65.468 146.227-146.227v0c-0.116-80.712-65.515-146.111-146.216-146.227h-0.011z" />
<glyph unicode="&#xe934;" glyph-name="webhooks" d="M248.218-64c-92.81 0.367-167.905 75.688-167.905 168.549 0 93.088 75.463 168.55 168.55 168.55 47.045 0 89.589-19.274 120.164-50.357l0.022-0.023 293.478 200.090c6.437 4.732 14.52 7.573 23.266 7.573 8.115 0 15.658-2.445 21.934-6.639l-0.144 0.090c4.393-2.989 8.070-6.666 10.968-10.917l0.091-0.142c16.377-23.749 43.433-39.117 74.078-39.117 49.541 0 89.702 40.161 89.702 89.702s-40.161 89.702-89.702 89.702c-30.645 0-57.701-15.367-73.882-38.816l-0.196-0.301-1.024-1.434c-7.26-10.046-18.941-16.507-32.132-16.507-7.663 0-14.816 2.18-20.874 5.955l0.167-0.097-349.389 182.682c-11.136 7.118-18.413 19.417-18.413 33.415 0 7.139 1.893 13.836 5.203 19.616l-0.102-0.193 3.072 4.71c9.277 13.897 14.805 30.985 14.805 49.364 0 49.13-39.497 89.035-88.47 89.694l-0.062 0.001c-1.279 0.065-2.778 0.102-4.285 0.102-49.541 0-89.702-40.161-89.702-89.702s40.161-89.702 89.702-89.702c1.507 0 3.006 0.037 4.494 0.111l-0.209-0.008c6.788 0.081 13.356 0.822 19.702 2.164l-0.655-0.116 15.77-77.005c-10.572-2.474-22.712-3.892-35.183-3.892-0.159 0-0.318 0-0.477 0.001h0.025c-92.617 0.173-167.631 75.294-167.631 167.936 0 92.748 75.188 167.936 167.936 167.936s167.936-75.188 167.936-167.936c0-20.193-3.564-39.554-10.097-57.487l0.372 1.168 286.72-149.914c30.189 28.97 71.254 46.808 116.485 46.808 92.975 0 168.346-75.371 168.346-168.346s-75.371-168.346-168.346-168.346c-43.85 0-83.784 16.765-113.743 44.236l0.124-0.113-295.936-203.366c-6.249-4.289-13.976-6.85-22.302-6.85-13.56 0-25.534 6.793-32.703 17.162l-0.087 0.132c-0.744 1.007-1.427 2.15-1.995 3.357l-0.053 0.125c-15.821 26.687-44.476 44.298-77.245 44.298-49.428 0-89.498-40.069-89.498-89.498s40.069-89.498 89.498-89.498c39.674 0 73.319 25.816 85.053 61.565l0.18 0.633 75.981-24.166c-22.282-68.392-85.475-116.946-160.008-116.946-0.483 0-0.966 0.002-1.449 0.006h0.074z" />
<glyph unicode="&#xe935;" glyph-name="webhooks-alt" d="M977.101 759.91c-28.693 29.118-68.56 47.157-112.64 47.157s-83.947-18.039-112.621-47.138l-0.019-0.019c-28.638-28.862-46.335-68.615-46.335-112.502 0-22.774 4.766-44.434 13.354-64.039l-0.401 1.027-337.306-339.354c-29.258-30.392-70.292-49.27-115.734-49.27-88.677 0-160.563 71.887-160.563 160.563 0 45.595 19.005 86.752 49.526 115.98l0.058 0.055 29.901-29.286 55.501 281.395-167.936-168.755c-48.229-49.978-77.943-118.1-77.943-193.162 0-153.714 124.61-278.323 278.323-278.323 74.604 0 142.352 29.353 192.326 77.14l-0.104-0.099 338.125 340.173c18.377-8.028 39.79-12.7 62.294-12.7 87.885 0 159.13 71.245 159.13 159.13 0 43.799-17.695 83.465-46.326 112.239l0.006-0.006zM921.6 591.36c-14.408-14.365-34.29-23.246-56.246-23.246-11.351 0-22.148 2.374-31.921 6.653l0.512-0.2-29.082 12.493-12.493 29.082c-4.055 9.25-6.415 20.030-6.415 31.362 0 21.964 8.865 41.857 23.213 56.296l-0.004-0.004c14.557 15.677 35.28 25.455 58.287 25.455 43.886 0 79.462-35.577 79.462-79.462 0-22.243-9.139-42.352-23.867-56.776l-0.014-0.013z" />
<glyph unicode="&#xe936;" glyph-name="DataFormat" d="M716.083 556.954c-0.051 4.232-1.761 8.055-4.508 10.857l0.002-0.003c-0.967 0.9-2.040 1.712-3.19 2.409l-0.087 0.049-188.621 108.851h-0.614l-2.56 1.024h-0.922c-0.538 0.075-1.16 0.118-1.792 0.118s-1.254-0.043-1.863-0.125l0.071 0.008c-0.553 0.072-1.194 0.113-1.843 0.113s-1.29-0.041-1.918-0.121l0.075 0.008h-0.819l-2.662-1.024-189.235-108.851c-4.597-2.736-7.64-7.664-7.68-13.306v-217.913c0.040-5.648 3.083-10.576 7.609-13.273l0.071-0.039 188.723-108.851c2.205-1.284 4.854-2.042 7.68-2.042s5.475 0.758 7.754 2.082l-0.074-0.040 188.621 108.954c4.617 2.63 7.68 7.519 7.68 13.124 0 0.030 0 0.060 0 0.091v-0.005 217.805zM451.584 413.184c-2.704 4.63-7.649 7.692-13.309 7.692-2.829 0-5.479-0.765-7.756-2.099l0.072 0.039-92.16-53.146v164.25l157.901-91.136v-182.067l-142.541 81.92 92.16 53.146c4.753 2.647 7.914 7.641 7.914 13.374 0 2.972-0.85 5.746-2.32 8.091l0.037-0.064zM496.64 639.283v-106.189c0-8.483 6.877-15.36 15.36-15.36s15.36 6.877 15.36 15.36v0 106.189l142.541-81.92-157.901-91.648-158.003 91.238zM527.36 439.091l157.901 90.829v-163.84l-92.16 53.146c-2.203 1.293-4.852 2.057-7.68 2.057-8.488 0-15.369-6.881-15.369-15.369 0-5.66 3.060-10.606 7.616-13.273l0.073-0.039 92.16-53.146-142.541-81.92z" />
<glyph unicode="&#xe937;" glyph-name="AuthKey" horiz-adv-x="1015" d="M1013.042 412.081c-4.514 10.119-8.684 22.221-11.835 34.728l-0.341 1.597c-0.804 5.896-4.842 10.68-10.241 12.549l-0.108 0.033-385.573 176.755c-8.307 92.675-85.599 164.765-179.728 164.765-5.956 0-11.844-0.289-17.652-0.853l0.738 0.058c-42.093-4.741-79.070-23.63-106.72-51.725l-0.023-0.023c17.62-1.852 33.36-4.639 48.708-8.423l-2.439 0.509c22.665 15.6 50.708 24.916 80.926 24.916 21.099 0 41.138-4.542 59.192-12.701l-0.906 0.366c48.989-23.616 82.697-71.941 85.019-128.364l0.010-0.296c0.458-7.067 4.469-13.104 10.249-16.385l0.101-0.053 386.993-177.161c2.996-10.845 6.042-19.686 9.544-28.293l-0.615 1.709-6.9-15.829-14.814-4.667-28.614 12.582c-2.069 1.455-4.64 2.325-7.415 2.325-1.714 0-3.35-0.332-4.848-0.935l0.087 0.031-12.176-3.247-7.103 13.799c-2.016 3.184-4.594 5.826-7.617 7.855l-0.094 0.060-50.936 23.337c-2.324 1.245-5.085 1.976-8.016 1.976s-5.691-0.731-8.109-2.021l0.093 0.045-25.164-14.002-35.513 16.641-1.218 21.917c-0.458 7.067-4.469 13.104-10.249 16.385l-0.101 0.053-44.442 21.308c-2.092 1.153-4.586 1.831-7.238 1.831-3.563 0-6.841-1.225-9.434-3.276l0.032 0.024-23.743-16.438-34.296 15.22c-2.099 1.292-4.642 2.058-7.364 2.058-1.726 0-3.38-0.308-4.911-0.872l0.098 0.032-29.831-10.147-48.704 21.714c-2.416 1.419-5.321 2.257-8.422 2.257-4.632 0-8.827-1.87-11.872-4.896l0.001 0.001c-4.667-3.247-9.132-7.306-13.597-10.553-1.762-17.117-5.414-32.797-10.787-47.653l0.437 1.384c14.265 5.904 26.576 13.197 37.668 21.964l-0.328-0.25 45.051-20.293c2.15-1.413 4.787-2.254 7.619-2.254 1.708 0 3.344 0.306 4.857 0.865l-0.097-0.031 29.628 10.755 35.919-16.641c2.13-1.23 4.685-1.955 7.409-1.955 3.496 0 6.712 1.194 9.264 3.197l-0.033-0.025 23.946 16.641 25.164-11.973 2.232-21.714c0.387-7.146 4.416-13.271 10.249-16.588l0.1-0.052 53.371-24.555c2.324-1.245 5.085-1.976 8.016-1.976s5.691 0.731 8.109 2.021l-0.093-0.045 25.164 14.002 37.34-17.249 11.567-20.293c3.058-5.884 9.107-9.834 16.078-9.834 1.496 0 2.949 0.182 4.339 0.525l-0.124-0.026 20.293 5.885 28.411-12.582c2.030-1.376 4.533-2.197 7.228-2.197 1.785 0 3.486 0.36 5.034 1.011l-0.085-0.032 29.628 9.132c5.353 1.638 9.558 5.577 11.526 10.634l0.042 0.122 14.611 30.034c0.165 0.972 0.259 2.092 0.259 3.234 0 3.098-0.694 6.033-1.935 8.66l0.052-0.124zM216.53 593.097c-4.926-0.821-10.603-1.29-16.389-1.29-1.373 0-2.74 0.026-4.101 0.079l0.196-0.006c-86.76 3.66-155.709 74.884-155.709 162.211 0 1.546 0.022 3.087 0.065 4.623l-0.005-0.226c0.697 86.624 69.129 157.041 154.893 160.913l0.35 0.013c64.304-0.912 119.412-39.355 144.483-94.37l0.412-1.009c10.264 5.566 22.192 10.412 34.684 13.91l1.235 0.295c-30.462 71.488-99.762 120.873-180.701 121.759l-0.112 0.001c-108.829-3.017-195.901-91.958-195.901-201.237 0-1.881 0.026-3.756 0.077-5.624l-0.006 0.275c0-0.072 0-0.158 0-0.244 0-109.641 87.74-198.789 196.836-201.062l0.212-0.003c10.171 0.18 19.981 1.133 29.545 2.802l-1.134-0.164c-4.634 11.248-7.812 24.277-8.9 37.896l-0.029 0.458zM613.872 17.376l-182.64 392.675c19.387 29.088 30.936 64.842 30.936 103.294 0 62.862-30.866 118.514-78.27 152.628l-0.558 0.382c-28.053 19.762-62.936 31.584-100.58 31.584-50.15 0-95.399-20.982-127.448-54.646l-0.068-0.072c12.015-4.815 25.934-7.701 40.499-7.913l0.087-0.001h4.465c5.791 4.196 12.426 8.366 19.328 12.104l0.965 0.478c17.949 8.798 39.061 13.943 61.376 13.943 57.722 0 107.403-34.428 129.629-83.869l0.361-0.898c8.707-18.525 13.79-40.232 13.79-63.127 0-34.46-11.513-66.23-30.903-91.675l0.27 0.37c-2.358-3.272-3.771-7.362-3.771-11.782 0-2.395 0.415-4.693 1.177-6.826l-0.044 0.142 183.654-394.096c-3.247-7.914-7.103-17.249-10.35-26.381l-16.235-7.914-14.814 7.103-13.394 27.802c-2.638 3.45-4.465 7.306-9.132 9.335l-12.176 6.088 3.247 15.22c0.239 1.169 0.376 2.512 0.376 3.888 0 2.846-0.586 5.556-1.644 8.014l0.050-0.132-23.946 51.139c-2.899 4.663-7.059 8.3-12.005 10.485l-0.171 0.068-28.411 7.306-16.641 36.325 13.597 16.641c2.678 3.259 4.301 7.473 4.301 12.066 0 2.991-0.688 5.821-1.915 8.341l0.050-0.113-20.293 45.66c-2.583 5.433-7.532 9.379-13.478 10.533l-0.119 0.019-28.411 3.247-16.032 33.89c-2.213 3.889-5.304 7.045-9.018 9.271l-0.114 0.063-28.208 9.944-22.931 48.501c-3.038 6.099-9.118 10.276-16.199 10.551l-0.036 0.001c-57.402 0.115-106.802 34.259-129.109 83.327l-0.362 0.891c-6.752 13.485-11.133 29.251-12.159 45.924l-0.017 0.344c-14.287 3.755-26.242 7.846-37.814 12.674l1.895-0.701c1.774-26.9 7.948-51.902 17.814-74.946l-0.565 1.484c27.038-58.19 82.493-99.103 148.046-105.068l0.704-0.052 21.308-45.66c2.204-3.838 5.216-6.98 8.822-9.271l0.107-0.064 28.411-11.77 16.843-36.528c2.462-5.45 7.367-9.417 13.28-10.535l0.114-0.018 28.411-3.247 12.176-25.975-13.597-16.641c-2.743-3.203-4.413-7.396-4.413-11.979 0-3.032 0.731-5.894 2.026-8.418l-0.048 0.104 25.164-53.777c2.899-4.663 7.059-8.3 12.005-10.485l0.171-0.068 28.208-7.306 17.249-36.731-4.465-23.134c-0.171-0.96-0.269-2.066-0.269-3.195 0-7.455 4.276-13.911 10.509-17.049l0.11-0.050 20.293-10.553 14.408-28.816c2.638-3.247 4.465-7.306 8.929-9.335l28.411-12.582c2.125-1.248 4.68-1.985 7.407-1.985s5.282 0.737 7.477 2.023l-0.070-0.038 30.846 15.22c4.412 2.672 7.678 6.862 9.097 11.83l0.035 0.143c3.661 14.022 8.239 26.17 13.908 37.685l-0.515-1.157c1.976 2.293 3.179 5.3 3.179 8.589 0 2.695-0.808 5.201-2.195 7.289l0.030-0.049zM260.16 612.985c0.302 0.013 0.657 0.020 1.014 0.020 14.346 0 25.975-11.63 25.975-25.975s-11.63-25.975-25.975-25.975c-14.346 0-25.975 11.63-25.975 25.975 0 0.064 0 0.129 0.001 0.193v-0.010c-0.002 0.122-0.003 0.265-0.003 0.409 0 13.868 11.129 25.137 24.943 25.363h0.021z" />
<glyph unicode="&#xe938;" glyph-name="Dcert" d="M510.595 274.322c-0.060 0-0.13 0-0.201 0-189.4 0-342.94 153.539-342.94 342.94s153.539 342.94 342.94 342.94c189.4 0 342.94-153.539 342.94-342.94v0c-0.114-189.284-153.471-342.711-342.717-342.94h-0.022zM510.595 919.843c-0.060 0-0.13 0-0.201 0-167.222 0-302.783-135.56-302.783-302.783s135.56-302.783 302.783-302.783c167.222 0 302.783 135.56 302.783 302.783 0 0.071 0 0.141 0 0.212v-0.011c-0.228 167.020-135.562 302.354-302.56 302.582h-0.022zM299.169-51.351l-88.345 157.415-180.706-1.807 168.458 290.334 18.271-21.885c55.342-66.040 131.547-112.977 218.384-130.69l2.479-0.422 27.507-5.421zM233.914 146.422l65.857-116.856 103.404 178.899c-78.422 21.331-145.499 62.197-198.024 117.101l-0.15 0.157-104.809-180.706zM715.796-56.169l-169.261 291.338 28.511 4.819c90.372 15.87 168.080 61.419 224.491 126.041l0.388 0.454 18.472 21.283 165.446-288.326-180.706 1.807zM609.782 206.256l104.609-180.706 65.857 116.656 133.923-1.405-103.002 178.899c-53.823-54.077-122.056-93.767-198.454-112.824l-2.932-0.619zM675.639 698.98l-28.311 28.311-186.529-186.529-93.967 93.967-28.311-28.511 122.278-122.278z" />
<glyph unicode="&#xe939;" glyph-name="IDPW" d="M200.090-64c-0.437-0.005-0.954-0.007-1.472-0.007-40.043 0-76.444 15.593-103.462 41.039l0.076-0.071c-27.13 25.408-44.035 61.449-44.035 101.439 0 0.338 0.001 0.675 0.004 1.013v-0.052 389.12c-0.002 0.264-0.003 0.576-0.003 0.888 0 39.974 16.817 76.020 43.762 101.449l0.068 0.064c26.854 25.374 63.179 40.972 103.148 40.972 0.673 0 1.345-0.004 2.017-0.013l-0.102 0.001h46.899v100.557c0 0.053 0 0.117 0 0.18 0 80.653 39.145 152.164 99.473 196.569l0.674 0.474c42.568 31.623 96.154 50.623 154.179 50.623 28.028 0 55.020-4.433 80.314-12.637l-1.84 0.516c100.971-31.783 173.003-124.359 173.465-233.827v-102.454h71.885c0.494 0.006 1.078 0.009 1.663 0.009 79.713 0 144.508-63.873 145.996-143.23l0.002-0.139v-389.12c-1.939-79.593-66.921-143.375-146.801-143.375-0.734 0-1.468 0.005-2.2 0.016l0.111-0.001h-623.821zM200.090 570.88c-0.231 0.002-0.504 0.003-0.777 0.003-29.543 0-56.391-11.541-76.28-30.362l0.052 0.048c-19.066-18.134-30.925-43.693-30.925-72.021 0-0.024 0-0.048 0-0.072v0.004-389.12c0.015-28.424 12.042-54.036 31.279-72.038l0.055-0.051c19.808-18.77 46.628-30.311 76.145-30.311 0.158 0 0.317 0 0.475 0.001h624.41c0.384-0.005 0.838-0.008 1.293-0.008 57.296 0 103.984 45.422 106.017 102.222l0.005 0.186v389.12c-1.585 56.902-48.091 102.425-105.229 102.425-0.806 0-1.609-0.009-2.411-0.027l0.119 0.002zM287.744 611.84h424.55v102.4c0 0.004 0 0.008 0 0.012 0 91.168-59.57 168.423-141.91 194.963l-1.45 0.404c-19.964 6.584-42.944 10.382-66.811 10.382-48.806 0-93.903-15.881-130.405-42.758l0.608 0.427c-50.596-37.466-83.147-96.809-83.558-163.774v-0.066zM760.218 171.11h-5.939c-48.44 2.369-86.817 42.22-86.817 91.034s38.377 88.664 86.605 91.025l0.212 0.008h5.939c48.44-2.369 86.817-42.22 86.817-91.034s-38.377-88.664-86.605-91.025l-0.212-0.008zM754.278 312.218c-26.298-1.734-46.972-23.489-46.972-50.074s20.674-48.34 46.821-50.066l0.151-0.008h5.939c26.298 1.734 46.972 23.489 46.972 50.074s-20.674 48.34-46.821 50.066l-0.151 0.008zM515.277 171.11h-5.734c-1.29-0.065-2.8-0.102-4.319-0.102-50.333 0-91.136 40.803-91.136 91.136s40.803 91.136 91.136 91.136c1.519 0 3.030-0.037 4.531-0.111l-0.212 0.008h5.734c1.29 0.065 2.8 0.102 4.319 0.102 50.333 0 91.136-40.803 91.136-91.136s-40.803-91.136-91.136-91.136c-1.519 0-3.030 0.037-4.531 0.111l0.212-0.008zM509.542 312.218c-0.958 0.065-2.077 0.102-3.204 0.102-27.711 0-50.176-22.465-50.176-50.176s22.465-50.176 50.176-50.176c1.127 0 2.246 0.037 3.355 0.11l-0.151-0.008h5.734c0.958-0.065 2.077-0.102 3.204-0.102 27.711 0 50.176 22.465 50.176 50.176s-22.465 50.176-50.176 50.176c-1.127 0-2.246-0.037-3.355-0.11l0.151 0.008zM270.541 171.11h-5.939c-48.44 2.369-86.817 42.22-86.817 91.034s38.377 88.664 86.605 91.025l0.212 0.008h5.939c48.44-2.369 86.817-42.22 86.817-91.034s-38.377-88.664-86.605-91.025l-0.212-0.008zM264.602 312.218c-26.298-1.734-46.972-23.489-46.972-50.074s20.674-48.34 46.821-50.066l0.151-0.008h5.939c26.298 1.734 46.972 23.489 46.972 50.074s-20.674 48.34-46.821 50.066l-0.151 0.008z" />
<glyph unicode="&#xe93a;" glyph-name="inbound" d="M512 960c-282.77 0-512-229.23-512-512s229.23-512 512-512c282.77 0 512 229.23 512 512v0c0 282.77-229.23 512-512 512v0zM716.8 277.402v-68.403h-443.802v443.802h68.403v-327.68l385.434 386.048 48.333-48.333-386.048-385.434z" />
<glyph unicode="&#xe93b;" glyph-name="mapper" d="M886.491 645.486c-11.703-1.463-20.48-11.703-20.48-24.869 0-5.851 2.926-10.24 7.314-14.629l39.497-39.497-39.497-38.034c-8.777-7.314-11.703-20.48-4.389-30.72v0c7.314-8.777 21.943-10.24 30.72-2.926l42.423 42.423 39.497-39.497c7.314-8.777 20.48-11.703 30.72-4.389v0c8.777 7.314 10.24 21.943 2.926 30.72l1.463 4.389-39.497 39.497 39.497 39.497c8.777 8.777 8.777 21.943 1.463 30.72 0 0 0 0-1.463 1.463-4.389 2.926-10.24 5.851-16.091 5.851s-11.703-2.926-16.091-7.314l-39.497-39.497-39.497 39.497c-4.389 5.851-10.24 7.314-16.091 7.314h-2.926zM324.754 567.954c-74.606 0-131.657-20.48-203.337-83.383-10.24-7.314-11.703-20.48-4.389-30.72s20.48-11.703 30.72-4.389v0c1.463 1.463 2.926 1.463 2.926 2.926 67.291 58.514 106.789 71.68 174.080 71.68 61.44 0 130.194-45.349 198.949-95.086s140.434-105.326 222.354-105.326c52.663 0 109.714 20.48 162.377 86.309 7.314 8.777 5.851 23.406-2.926 30.72s-23.406 5.851-30.72-2.926c-43.886-57.051-84.846-68.754-125.806-68.754-59.977 0-127.269 45.349-197.486 95.086s-144.823 103.863-226.743 103.863zM21.943 401.189c-11.703-1.463-20.48-11.703-20.48-24.869 0-5.851 2.926-10.24 7.314-14.629l39.497-38.034-39.497-39.497c-8.777-7.314-11.703-20.48-4.389-30.72v0c7.314-8.777 21.943-10.24 30.72-2.926l42.423 42.423 39.497-39.497c7.314-8.777 20.48-11.703 30.72-4.389v0c8.777 7.314 10.24 21.943 2.926 30.72l-2.926 2.926-36.571 40.96 39.497 39.497c8.777 8.777 8.777 21.943 1.463 30.72 0 0 0 0-1.463 1.463-4.389 4.389-10.24 7.314-16.091 7.314s-11.703-2.926-16.091-7.314l-39.497-39.497-39.497 39.497c-4.389 4.389-10.24 7.314-16.091 7.314h-1.463v-1.463z" />
<glyph unicode="&#xe93c;" glyph-name="microflow" d="M616.96 603.136l-27.238-36.557 81.92-54.682h-305.562v-45.67h378.88c0.235-0.009 0.511-0.014 0.789-0.014 12.442 0 22.528 10.086 22.528 22.528 0 7.598-3.762 14.318-9.525 18.399l-0.070 0.047zM279.552 429.773c-0.235 0.009-0.511 0.014-0.789 0.014-12.442 0-22.528-10.086-22.528-22.528 0-7.598 3.762-14.318 9.525-18.399l0.070-0.047 141.414-95.744 27.341 36.454-81.92 54.682h305.357v45.568z" />
<glyph unicode="&#xe93d;" glyph-name="outbound" d="M512-64c282.77 0 512 229.23 512 512s-229.23 512-512 512c-282.77 0-512-229.23-512-512v0c0-282.77 229.23-512 512-512v0zM307.2 618.598v68.403h443.802v-443.802h-68.403v327.68l-385.434-386.048-48.333 48.333 386.048 385.434z" />
<glyph unicode="&#xe93e;" glyph-name="partner" d="M722.944 433.869c-20.066-0.928-37.999-9.359-51.202-22.53l0.002 0.002-48.333 48.128c15.486 15.466 34.495 27.409 55.718 34.522l1.011 0.294c-12.642 71.068-73.958 124.333-147.715 124.333-69.186 0-127.425-46.867-144.702-110.585l-0.243-1.050c0-1.229 0-2.458-1.024-3.686-2.678-10.437-4.243-22.43-4.301-34.78v-0.036h-68.198c0 5.325 0 10.854 1.024 16.384-54.518-3.477-97.42-48.546-97.42-103.635 0-57.346 46.488-103.834 103.834-103.834 0.409 0 0.818 0.002 1.226 0.007l-0.062-0.001h404.48c42.332 1.143 76.212 35.732 76.212 78.234 0 43.222-35.038 78.26-78.26 78.26-0.72 0-1.438-0.010-2.153-0.029l0.105 0.002zM512 960c-282.77 0-512-229.23-512-512s229.23-512 512-512c282.77 0 512 229.23 512 512v0c0 282.77-229.23 512-512 512v0zM727.040 208.998h-404.48c-0.818-0.014-1.783-0.022-2.75-0.022-95.237 0-172.442 77.205-172.442 172.442s77.205 172.442 172.442 172.442c4.066 0 8.1-0.141 12.095-0.418l-0.539 0.030c33.936 79.209 111.229 133.691 201.248 133.691 109.211 0 199.693-80.191 215.776-184.902l0.154-1.218c71.164-10.999 125.009-71.816 125.009-145.209 0-80.623-64.974-146.070-145.416-146.835l-0.073-0.001z" />
<glyph unicode="&#xe93f;" glyph-name="secret" d="M512 960c-282.77 0-512-229.23-512-512s229.23-512 512-512c282.77 0 512 229.23 512 512v0c0 282.77-229.23 512-512 512v0zM870.4 418.099h-46.899v-63.898c0-16.514-13.387-29.901-29.901-29.901s-29.901 13.387-29.901 29.901v0 63.898h-81.92v-63.898c0.065-0.741 0.102-1.602 0.102-2.472 0-16.514-13.387-29.901-29.901-29.901s-29.901 13.387-29.901 29.901c0 0.87 0.037 1.732 0.11 2.583l-0.008-0.111v63.898h-130.662l-3.072-12.902c-18.968-73.985-85.055-127.795-163.709-127.795-0.046 0-0.092 0-0.138 0h0.007c-0.402-0.003-0.877-0.005-1.353-0.005-94.219 0-170.598 76.38-170.598 170.598s76.38 170.598 170.598 170.598c79.079 0 145.592-53.806 164.925-126.805l0.268-1.19 3.277-12.698h378.675zM324.198 559.002c-61.304 0-111.002-49.697-111.002-111.002s49.697-111.002 111.002-111.002c61.304 0 111.002 49.697 111.002 111.002v0c0 61.304-49.697 111.002-111.002 111.002v0z" />
<glyph unicode="&#xe940;" glyph-name="secret-key" d="M768 426.701h-33.485v-45.773c-0.797-11.166-10.051-19.922-21.35-19.922s-20.553 8.756-21.346 19.853l-0.004 0.069v45.773h-57.958v-45.773c0-11.763-9.536-21.299-21.299-21.299s-21.299 9.536-21.299 21.299v0 45.773h-93.798l-2.355-9.318c-13.48-52.812-60.629-91.239-116.753-91.239-0.102 0-0.204 0-0.306 0h0.016c-0.23-0.002-0.502-0.002-0.774-0.002-67.299 0-121.856 54.557-121.856 121.856s54.557 121.856 121.856 121.856c56.379 0 103.816-38.289 117.726-90.282l0.194-0.852 2.355-9.114h270.438zM377.856 527.258c-43.773 0-79.258-35.485-79.258-79.258s35.485-79.258 79.258-79.258c43.773 0 79.258 35.485 79.258 79.258v0c0 43.773-35.485 79.258-79.258 79.258v0z" />
<glyph unicode="&#xe941;" glyph-name="new-integration" d="M808.16-63.984v1023.984h215.824v-1023.984zM830.215-41.929h170.139v979.874h-170.139v-74.042h45.685v-12.603h-45.685v-78.768h45.685v-11.028h-45.685v-80.343h45.685v-11.028h-45.685v-80.343h45.685v-11.028h-45.685v-80.343h45.685v-11.028h-45.685v-78.768h45.685v-11.028h-45.685v-80.343h45.685v-11.028h-45.685v-80.343h45.685v-11.028h-45.685v-80.343h45.685v-11.028h-45.685v-80.343h45.685v-11.028h-45.685zM0-63.984v1023.984h25.206l680.556-997.203v-26.781zM22.055-41.929h656.925l-656.925 964.121v-127.604h45.685v-11.028h-45.685v-80.343h45.685v-11.028h-45.685v-78.768h45.685v-11.028h-45.685v-80.343h45.685v-11.028h-45.685v-80.343h45.685v-11.028h-45.685v-80.343h45.685v-11.028h-45.685v-80.343h45.685v-11.028h-45.685v-80.343h45.685v-11.028h-45.685v-80.343h45.685v-11.028h-45.685zM148.084 84.1v409.594h28.356l255.208-382.813h1.575v-26.781zM170.139 106.155v1.575h236.304l-236.304 354.456z" />
<glyph unicode="&#xe942;" glyph-name="oob" horiz-adv-x="1475" d="M738.521-64c-0.211-0.028-0.455-0.043-0.702-0.043-1.536 0-2.93 0.608-3.954 1.597l0.002-0.002-533.721 242.036c-4.518 1.641-7.699 5.872-7.758 10.854v308.759l-3.103 1.552-181.527 82.23c-1.223 0.174-2.292 0.734-3.103 1.551v0c-2.785 1.443-4.656 4.304-4.656 7.602 0 0.055 0.001 0.11 0.002 0.164v-0.008c0.063 3 1.231 5.715 3.111 7.766l-0.008-0.009 193.939 211.006c1.459 1.858 3.688 3.053 6.198 3.103h0.008l226.521 65.164h3.103c5.424-0.141 9.889-4.074 10.85-9.239l0.011-0.070c0.224-0.925 0.353-1.986 0.353-3.078 0-5.523-3.294-10.276-8.025-12.403l-0.086-0.035-189.285-54.303 491.83-164.461 491.83 164.461-491.83 136.533-223.418-65.164h-3.103c-5.424 0.141-9.889 4.074-10.85 9.239l-0.011 0.070c-0.316 0.943-0.498 2.029-0.498 3.158 0 2.32 0.77 4.459 2.068 6.177l-0.019-0.026c1.838 2.836 4.503 5 7.65 6.171l0.107 0.035 223.418 63.612h6.206l532.17-145.842c2.518-0.050 4.747-1.246 6.193-3.086l0.013-0.017 193.939-209.455c1.552-1.552 1.552-1.552 1.552-3.103 0.705-1.435 1.118-3.124 1.118-4.909 0-4.82-3.006-8.937-7.246-10.58l-0.077-0.026-186.182-83.782v-308.752c-0.094-4.577-2.528-8.566-6.151-10.829l-0.055-0.032-532.17-242.036c-1.023-0.987-2.416-1.595-3.952-1.595-0.248 0-0.491 0.016-0.731 0.046l0.028-0.003zM749.382-32.97l508.897 231.176v290.133l-257.552-116.364c-1.552 0-3.103-1.552-4.655-1.552-3 0.063-5.715 1.231-7.766 3.111l0.009-0.008-238.933 209.455zM217.212 198.206l508.897-231.176v615.952l-238.933-207.903c-2.043-1.872-4.758-3.040-7.745-3.103h-0.013c-0.211-0.028-0.455-0.043-0.702-0.043-1.536 0-2.93 0.608-3.954 1.597l0.002-0.002-257.552 114.812zM747.83 617.115l251.345-220.315 445.285 200.145-178.424 192.388zM32.582 596.945l445.285-200.145 251.345 220.315-519.758 172.218z" />
<glyph unicode="&#xe943;" glyph-name="create-partner" d="M436.736 151.040v78.848l-6.656 2.56c-59.218 24.246-105.401 70.129-129.471 127.573l-0.577 1.553-8.704 21.402-31.949-66.253-18.227 8.397 49.562 103.424 96.768-54.067-10.24-17.92-69.018 38.605 11.366-27.238c20.297-48.013 56.173-86.142 101.175-108.804l1.225-0.559 14.746-7.373v51.2h151.45v-52.326l14.643 6.861c55.691 26.853 97.337 75.391 114.414 134.366l0.377 1.519 20.48-4.506c-20.328-72.81-73.266-130.192-141.66-156.24l-1.597-0.534-6.656-2.458v-78.029zM457.216 171.52h110.49v110.49h-110.49zM641.536 516.915l10.24 17.818 69.018-38.605-11.162 27.136c-21.329 51.167-60.642 91.277-109.86 113.13l-1.346 0.534-9.216 3.994-4.198-9.011c-12.915-27.525-40.397-46.245-72.252-46.245-32.013 0-59.61 18.906-72.235 46.162l-0.205 0.492-4.301 9.011-9.114-3.994c-60.75-27.094-105.742-80.094-121.354-144.569l-0.297-1.453-20.48 3.789c17.829 75.385 70.597 135.545 139.851 163.287l1.563 0.553 6.144 2.458v6.758c2.209 42.227 36.986 75.629 79.565 75.629s77.356-33.403 79.557-75.433l0.008-0.196v-6.656l6.246-2.458c59.752-23.881 106.398-69.861 130.6-127.582l0.574-1.544 8.397-21.504 31.846 66.253 18.432-8.909-49.254-103.014zM512.512 724.48c-0.030 0-0.066 0-0.102 0-32.745 0-59.29-26.545-59.29-59.29s26.545-59.29 59.29-59.29c32.745 0 59.29 26.545 59.29 59.289v0c-0.058 32.685-26.51 59.173-59.176 59.29h-0.011z" />
<glyph unicode="&#xe944;" glyph-name="partner-placeholder" d="M430.899 627.507c14.549-31.141 45.606-52.331 81.613-52.331s67.064 21.19 81.381 51.781l0.232 0.551c47.984-21.368 85.348-59.363 105.381-106.5l0.501-1.327-52.429 29.286-20.48-35.738 115.712-65.229 58.778 122.88-36.966 17.408-26.214-54.579c-25.555 61.849-73.973 109.901-134.455 134.379l-1.634 0.585c-2.353 47.774-41.659 85.617-89.805 85.617s-87.452-37.844-89.797-85.407l-0.008-0.21c-77.114-31.082-133.812-98.318-149.566-180.129l-0.245-1.529 40.243-7.578c12.886 66.779 57.129 121.026 116.475 147.557l1.285 0.513zM512.819 714.24c27.089 0 49.050-21.96 49.050-49.050s-21.96-49.050-49.050-49.050c-27.089 0-49.050 21.96-49.050 49.050v0c0 0 0 0.001 0 0.001 0 26.981 21.786 48.874 48.726 49.049h0.017zM598.733 266.342v46.387h-172.237v-45.056c-43.836 22.276-77.876 58.534-96.773 102.804l-0.507 1.337 52.224-29.184 20.48 35.738-115.2 64.512-59.187-122.061 36.864-17.818 26.317 54.784c25.587-61.76 73.852-109.791 134.148-134.474l1.634-0.592v-81.92h171.93v81.101c76.033 29.387 132.786 93.539 151.326 172.424l0.328 1.656-39.936 9.011c-14.532-61.82-55.729-111.857-110.495-138.121l-1.224-0.529zM557.773 181.76h-90.317v90.010h90.010z" />
<glyph unicode="&#xe945;" glyph-name="users" d="M579.584 192h-40.96c0 86.697-70.282 156.979-156.979 156.979s-156.979-70.282-156.979-156.979h-40.96c0 109.319 88.62 197.939 197.939 197.939s197.939-88.62 197.939-197.939v0zM840.294 283.546h-167.117v40.96h124.416c-10.225 57.534-59.86 100.657-119.568 100.657-35.299 0-67.078-15.073-89.252-39.133l-0.077-0.084-30.106 27.75c29.756 32.241 72.227 52.365 119.399 52.365 89.544 0 162.151-72.513 162.304-162.021v-0.015zM381.645 436.326c-72.559 0-131.379 58.82-131.379 131.379s58.82 131.379 131.379 131.379c72.559 0 131.379-58.82 131.379-131.379v0c-0.058-72.535-58.844-131.321-131.374-131.379h-0.006zM381.645 658.125c-49.937 0-90.419-40.482-90.419-90.419s40.482-90.419 90.419-90.419c49.937 0 90.419 40.482 90.419 90.419v0c-0.058 49.914-40.505 90.361-90.414 90.419h-0.006zM673.178 513.741c-0.091 0-0.199 0-0.307 0-58.194 0-105.37 47.176-105.37 105.37s47.176 105.37 105.37 105.37c58.194 0 105.369-47.175 105.37-105.369v0c-0.058-58.063-47.024-105.137-105.040-105.37h-0.022zM673.178 683.52c-0.091 0-0.199 0.001-0.307 0.001-35.572 0-64.41-28.837-64.41-64.41s28.837-64.41 64.41-64.41c35.572 0 64.409 28.837 64.41 64.409v0c0 0 0 0 0 0.001 0 35.464-28.662 64.234-64.086 64.409h-0.017z" />
</font>
</defs>
</svg>
